<svg xmlns="http://www.w3.org/2000/svg" width="557" height="83" fill="none" viewBox="0 0 557 83"><path fill="#1B5587" d="M142.934 28.77C142.748 28.7167 142.441 28.7067 142.014 28.74C126.544 30.04 111.174 34.13 95.9944 39.51C95.9209 39.5378 95.8414 39.5463 95.7636 39.5347C95.6858 39.523 95.6123 39.4916 95.5501 39.4435C95.488 39.3953 95.4391 39.332 95.4084 39.2596C95.3776 39.1873 95.3659 39.1082 95.3744 39.03C96.3944 28.31 96.9611 21.93 97.0744 19.89C97.4044 13.62 93.0844 13.78 88.5444 15.12C78.4344 18.1 68.8244 22.77 59.0944 27.67C58.9758 27.7293 58.8432 27.7552 58.7109 27.7448C58.5786 27.7345 58.4516 27.6882 58.3437 27.6111C58.2357 27.534 58.1508 27.4289 58.0981 27.3071C58.0453 27.1853 58.0268 27.0515 58.0444 26.92C58.9511 20.5533 59.3744 14.0467 59.3144 7.4C59.2944 5.73 58.7844 3.06 58.0944 1.72C57.8265 1.20409 57.4222 0.771182 56.9252 0.468048C56.4282 0.164914 55.8574 0.00306984 55.2744 0C53.2011 0 51.1644 0.423334 49.1644 1.27C41.7644 4.41667 33.4644 8.86 24.2644 14.6C17.1778 19.0133 9.65111 23.9833 1.68444 29.51C0.604445 30.2633 0.0611121 31.3167 0.0544454 32.67C0.00777878 41.01 -0.00888903 50.6633 0.0044443 61.63C0.0044443 64.07 0.181112 66.03 0.534445 67.51C0.547319 67.5612 0.573181 67.6085 0.609404 67.6469C0.645627 67.6853 0.69092 67.7136 0.740687 67.7289C0.790453 67.7441 0.842918 67.7457 0.892756 67.7337C0.942593 67.7216 0.988027 67.6962 1.02444 67.66C14.2244 54.98 28.8678 44.1867 44.9544 35.28C44.9916 35.2552 45.0378 35.2466 45.084 35.2559C45.1302 35.2651 45.1731 35.2915 45.2044 35.33L45.3644 35.54C45.3834 35.5652 45.3973 35.5938 45.4056 35.624C45.4138 35.6542 45.4161 35.6855 45.4124 35.7162C45.4087 35.7468 45.399 35.7762 45.3839 35.8026C45.3688 35.829 45.3486 35.8519 45.3244 35.87C41.7911 38.6167 38.2778 41.53 34.7844 44.61C31.3311 47.6567 28.8744 50.7033 27.4144 53.75C24.6044 59.6 20.7544 73.37 23.5744 80.56C23.8151 81.1712 24.2765 81.6697 24.8673 81.9568C25.4581 82.2439 26.1352 82.2986 26.7644 82.11C28.4444 81.5967 30.0044 80.74 31.4444 79.54C40.2244 72.22 47.6844 66.35 53.8244 61.93C61.7944 56.19 68.7344 52.9 77.9044 47.61C77.9843 47.5683 78.0765 47.5563 78.1644 47.5763C78.2523 47.5962 78.3302 47.6468 78.3843 47.7189C78.4384 47.791 78.4651 47.88 78.4596 47.9699C78.4541 48.0599 78.4169 48.145 78.3544 48.21C77.8078 48.73 76.6278 49.7133 74.8144 51.16C72.5011 52.9867 70.6411 54.87 69.2344 56.81C68.5681 57.7205 68.0951 58.7549 67.8444 59.85C66.4844 65.71 64.7444 73.94 66.5644 79.55C66.6827 79.9164 66.9372 80.2231 67.2746 80.4058C67.612 80.5885 68.0062 80.633 68.3744 80.53C69.7544 80.1567 70.9678 79.43 72.0144 78.35C79.6278 70.5167 87.5144 63.33 95.6744 56.79C110.094 45.2367 125.858 36.24 142.964 29.8C143.071 29.758 143.161 29.6841 143.225 29.5886C143.288 29.4932 143.32 29.381 143.316 29.2676C143.313 29.1542 143.275 29.0453 143.206 28.9561C143.138 28.8669 143.043 28.8019 142.934 28.77Z"/><path fill="#1B5587" d="M172.905 59.4501C173.711 59.4501 174.545 58.9635 175.405 57.9902C176.745 56.4568 178.708 53.9935 181.295 50.6002C181.354 50.5238 181.436 50.4678 181.529 50.4398C181.622 50.4118 181.721 50.4133 181.813 50.444C181.905 50.4746 181.986 50.533 182.043 50.6111C182.101 50.6892 182.133 50.7832 182.135 50.8801V65.7101C182.135 66.0576 182.273 66.3908 182.518 66.6365C182.764 66.8821 183.097 67.0201 183.445 67.0201H190.225C190.373 67.0201 190.52 66.9912 190.657 66.9349C190.794 66.8786 190.919 66.7961 191.024 66.6921C191.129 66.5881 191.212 66.4646 191.269 66.3288C191.325 66.1929 191.355 66.0472 191.355 65.9001V30.2001C191.355 29.9578 191.301 29.7184 191.198 29.4993C191.095 29.2802 190.944 29.087 190.757 28.9337C190.571 28.7805 190.352 28.671 190.118 28.6133C189.884 28.5556 189.64 28.5511 189.405 28.6001C188.178 28.8468 187.175 29.4768 186.395 30.4901C184.841 32.5035 180.531 37.9468 173.465 46.8201C173.318 47.0068 173.128 47.1002 172.895 47.1002C172.668 47.1002 172.478 47.0068 172.325 46.8201C165.258 37.9535 160.948 32.5135 159.395 30.5001C158.615 29.4868 157.611 28.8568 156.385 28.6101C156.149 28.5611 155.905 28.5656 155.671 28.6233C155.437 28.681 155.218 28.7904 155.032 28.9437C154.845 29.097 154.694 29.2902 154.591 29.5093C154.488 29.7284 154.434 29.9678 154.435 30.2101L154.455 65.9101C154.455 66.2072 154.574 66.4921 154.786 66.7021C154.997 66.9122 155.285 67.0302 155.585 67.0302H162.365C162.537 67.0302 162.709 66.9959 162.868 66.9295C163.028 66.863 163.173 66.7656 163.294 66.6429C163.416 66.5202 163.512 66.3746 163.578 66.2145C163.643 66.0544 163.676 65.883 163.675 65.7101L163.665 50.8801C163.667 50.7832 163.699 50.6892 163.756 50.6111C163.814 50.533 163.894 50.4746 163.986 50.444C164.078 50.4133 164.177 50.4118 164.27 50.4398C164.363 50.4678 164.445 50.5238 164.505 50.6002C167.091 53.9935 169.058 56.4568 170.405 57.9902C171.258 58.9635 172.091 59.4501 172.905 59.4501Z"/><path fill="#1B5587" d="M332.715 48.2599C332.715 66.1599 354.415 74.0799 366.465 60.9599C366.787 60.6079 366.976 60.1547 367 59.6783C367.023 59.2019 366.88 58.7321 366.595 58.3499L366.245 57.8899C366.052 57.6348 365.802 57.4274 365.516 57.284C365.23 57.1406 364.915 57.065 364.596 57.0631C364.277 57.0611 363.961 57.1329 363.675 57.2729C363.389 57.4128 363.139 57.6171 362.945 57.8699C359.675 62.0899 354.135 63.7599 348.935 62.6799C342.005 61.2299 337.675 55.9499 337.675 48.2599C337.675 40.5699 342.005 35.2899 348.935 33.8399C354.125 32.7599 359.665 34.4299 362.945 38.6399C363.139 38.8927 363.389 39.097 363.675 39.2369C363.961 39.3769 364.277 39.4487 364.596 39.4467C364.915 39.4448 365.23 39.3692 365.516 39.2258C365.802 39.0824 366.052 38.875 366.245 38.6199L366.595 38.1599C366.88 37.7777 367.023 37.3079 367 36.8315C366.976 36.3551 366.787 35.9019 366.465 35.5499C354.405 22.4399 332.705 30.3699 332.715 48.2599Z"/><path fill="#1B5587" d="M414.144 67.4802C420.344 67.4802 426.264 64.3602 427.874 58.2402C428.681 55.1736 429.041 51.2169 428.954 46.3702C428.854 40.8502 428.841 35.7536 428.914 31.0802C428.918 30.84 428.874 30.6014 428.785 30.3784C428.696 30.1553 428.563 29.9522 428.395 29.7809C428.226 29.6097 428.025 29.4737 427.804 29.3808C427.582 29.288 427.344 29.2402 427.104 29.2402H426.014C425.503 29.2402 425.013 29.4419 424.649 29.8014C424.286 30.1609 424.079 30.6492 424.074 31.1602C424.001 42.8136 423.977 49.2169 424.004 50.3702C424.154 57.4002 422.294 62.9302 414.144 62.9302C405.994 62.9302 404.124 57.4002 404.274 50.3802C404.301 49.2202 404.277 42.8136 404.204 31.1602C404.199 30.6492 403.992 30.1609 403.629 29.8014C403.266 29.4419 402.775 29.2402 402.264 29.2402H401.174C400.934 29.2402 400.696 29.288 400.474 29.3808C400.253 29.4737 400.052 29.6097 399.884 29.7809C399.715 29.9522 399.582 30.1553 399.493 30.3784C399.404 30.6014 399.36 30.84 399.364 31.0802C399.437 35.7536 399.424 40.8502 399.324 46.3702C399.237 51.2169 399.597 55.1736 400.404 58.2402C402.024 64.3702 407.934 67.4902 414.144 67.4802Z"/><path fill="#1B5587" d="M435.394 57.2899C435.151 57.4115 434.936 57.5827 434.763 57.7923C434.59 58.0019 434.462 58.2455 434.389 58.5073C434.315 58.7691 434.298 59.0433 434.336 59.3124C434.375 59.5815 434.47 59.8396 434.614 60.0699C438.054 65.5766 443.171 67.9899 449.964 67.3099C454.894 66.8199 458.874 63.4499 459.514 58.4299C460.088 53.9233 458.108 50.4733 453.574 48.0799C450.261 46.3333 447.748 45.0299 446.034 44.1699C441.794 42.0399 439.494 39.0499 442.714 35.0199C442.95 34.7247 443.257 34.4943 443.604 34.3499C446.398 33.2366 449.014 33.2499 451.454 34.3899C453.294 35.2399 454.384 36.5899 455.654 37.4199C455.893 37.5745 456.161 37.6794 456.441 37.7284C456.721 37.7773 457.009 37.7694 457.286 37.705C457.563 37.6406 457.824 37.5211 458.054 37.3536C458.284 37.1861 458.478 36.974 458.624 36.7299L458.694 36.6099C458.983 36.1338 459.096 35.5707 459.012 35.0189C458.928 34.4671 458.652 33.9614 458.234 33.5899C454.194 30.0033 449.811 28.5699 445.084 29.2899C435.484 30.7499 433.384 42.1899 441.574 47.1399C443.844 48.5199 449.264 50.3399 453.094 53.4699C455.464 55.4099 455.204 59.0499 453.344 61.0399C452.418 62.0333 450.898 62.6533 448.784 62.8999C444.718 63.3799 441.304 61.7533 438.544 58.0199C438.194 57.5477 437.688 57.2143 437.117 57.0788C436.546 56.9434 435.947 57.0146 435.424 57.2799L435.394 57.2899Z"/><path fill="#1B5587" d="M223.294 67.0098C223.544 67.0098 223.783 66.9107 223.959 66.7345C224.135 66.5582 224.234 66.3191 224.234 66.0698V59.5198C224.234 59.2705 224.135 59.0314 223.959 58.8551C223.783 58.6788 223.544 58.5798 223.294 58.5798H207.764C207.515 58.5798 207.276 58.4807 207.1 58.3045C206.924 58.1282 206.824 57.8891 206.824 57.6398V52.5198C206.824 52.3963 206.849 52.2741 206.896 52.1601C206.943 52.046 207.013 51.9424 207.1 51.8551C207.187 51.7678 207.291 51.6986 207.405 51.6513C207.519 51.6041 207.641 51.5798 207.764 51.5798H218.174C218.424 51.5798 218.663 51.4807 218.839 51.3045C219.015 51.1282 219.114 50.8891 219.114 50.6398V44.0698C219.114 43.8205 219.015 43.5814 218.839 43.4051C218.663 43.2288 218.424 43.1298 218.174 43.1298H207.684C207.435 43.1298 207.196 43.0307 207.02 42.8545C206.844 42.6782 206.744 42.4391 206.744 42.1898V39.0298C206.744 38.7805 206.844 38.5414 207.02 38.3651C207.196 38.1888 207.435 38.0898 207.684 38.0898H222.574C222.824 38.0898 223.063 37.9907 223.239 37.8145C223.415 37.6382 223.514 37.3991 223.514 37.1498V30.4698C223.514 30.3463 223.49 30.2241 223.443 30.1101C223.396 29.996 223.326 29.8924 223.239 29.8051C223.152 29.7178 223.048 29.6486 222.934 29.6013C222.82 29.5541 222.698 29.5298 222.574 29.5298H198.544C198.421 29.5298 198.299 29.5541 198.185 29.6013C198.071 29.6486 197.967 29.7178 197.88 29.8051C197.793 29.8924 197.723 29.996 197.676 30.1101C197.629 30.2241 197.604 30.3463 197.604 30.4698V66.0698C197.604 66.3191 197.704 66.5582 197.88 66.7345C198.056 66.9107 198.295 67.0098 198.544 67.0098H223.294Z"/><path fill="#1B5587" d="M241.285 67.04C243.011 67.04 244.318 66.9634 245.205 66.81C245.394 66.7791 245.567 66.6817 245.692 66.5351C245.816 66.3885 245.885 66.2024 245.885 66.01V38.84C245.885 38.6252 245.97 38.4192 246.122 38.2673C246.274 38.1154 246.48 38.03 246.695 38.03H256.095C256.273 38.03 256.45 37.9951 256.615 37.9273C256.78 37.8594 256.93 37.76 257.056 37.6346C257.183 37.5093 257.283 37.3604 257.351 37.1966C257.419 37.0328 257.455 36.8573 257.455 36.68V30.88C257.455 30.691 257.416 30.5039 257.342 30.33C257.267 30.1561 257.158 29.9991 257.021 29.8682C256.883 29.7374 256.721 29.6356 256.543 29.5689C256.365 29.5021 256.175 29.4719 255.985 29.48C255.425 29.5 250.538 29.5167 241.325 29.53C232.118 29.5033 227.231 29.4767 226.665 29.45C226.474 29.4419 226.285 29.4721 226.106 29.5388C225.928 29.6056 225.766 29.7074 225.628 29.8382C225.491 29.969 225.382 30.1261 225.307 30.3C225.233 30.4739 225.194 30.661 225.195 30.85L225.185 36.65C225.185 37.0063 225.326 37.3482 225.579 37.6011C225.832 37.854 226.176 37.9974 226.535 38L235.935 38.02C236.041 38.02 236.146 38.041 236.245 38.0817C236.343 38.1224 236.432 38.182 236.507 38.2573C236.583 38.3325 236.642 38.4218 236.683 38.52C236.724 38.6183 236.745 38.7236 236.745 38.83L236.695 66C236.694 66.1924 236.763 66.3785 236.887 66.5251C237.012 66.6717 237.185 66.7691 237.375 66.8C238.261 66.9534 239.565 67.0333 241.285 67.04Z"/><path fill="#1B5587" d="M374.434 29.5498C374.31 29.5498 374.186 29.5744 374.071 29.6221C373.956 29.6699 373.851 29.7398 373.763 29.8281C373.674 29.9163 373.604 30.021 373.557 30.1363C373.509 30.2515 373.484 30.375 373.484 30.4998V65.9898C373.484 66.1146 373.509 66.2381 373.557 66.3534C373.604 66.4686 373.674 66.5733 373.763 66.6616C373.851 66.7498 373.956 66.8198 374.071 66.8675C374.186 66.9152 374.31 66.9398 374.434 66.9398H395.274C395.526 66.9398 395.768 66.8397 395.946 66.6616C396.124 66.4834 396.224 66.2418 396.224 65.9898V63.6698C396.224 63.4179 396.124 63.1762 395.946 62.9981C395.768 62.8199 395.526 62.7198 395.274 62.7198H379.314C379.062 62.7198 378.821 62.6197 378.643 62.4416C378.464 62.2634 378.364 62.0218 378.364 61.7698V30.4998C378.364 30.2478 378.264 30.0062 378.086 29.8281C377.908 29.6499 377.666 29.5498 377.414 29.5498H374.434Z"/><path fill="#1B5587" d="M480.294 34.8698C480.294 34.6099 480.398 34.3606 480.581 34.1769C480.765 33.9931 481.014 33.8898 481.274 33.8898H492.834C493.094 33.8898 493.344 33.7866 493.527 33.6028C493.711 33.419 493.814 33.1697 493.814 32.9098V30.5498C493.814 30.2899 493.711 30.0406 493.527 29.8569C493.344 29.6731 493.094 29.5698 492.834 29.5698H463.674C463.414 29.5698 463.165 29.6731 462.981 29.8569C462.798 30.0406 462.694 30.2899 462.694 30.5498V32.9498C462.694 33.2097 462.798 33.459 462.981 33.6428C463.165 33.8266 463.414 33.9298 463.674 33.9298H474.884C475.144 33.9298 475.394 34.0331 475.577 34.2169C475.761 34.4006 475.864 34.6499 475.864 34.9098V66.0598C475.864 66.3197 475.968 66.569 476.151 66.7528C476.335 66.9366 476.584 67.0398 476.844 67.0398H479.314C479.574 67.0398 479.824 66.9366 480.007 66.7528C480.191 66.569 480.294 66.3197 480.294 66.0598V34.8698Z"/><path fill="#1B5587" d="M499.165 29.6499C498.913 29.6499 498.671 29.75 498.493 29.9282C498.315 30.1063 498.215 30.3479 498.215 30.5999V65.9899C498.215 66.2419 498.315 66.4835 498.493 66.6617C498.671 66.8398 498.913 66.9399 499.165 66.9399H522.495C522.747 66.9399 522.988 66.8398 523.167 66.6617C523.345 66.4835 523.445 66.2419 523.445 65.9899V63.6499C523.445 63.3979 523.345 63.1563 523.167 62.9781C522.988 62.8 522.747 62.6999 522.495 62.6999H503.905C503.653 62.6999 503.411 62.5998 503.233 62.4217C503.055 62.2435 502.955 62.0019 502.955 61.7499V49.8599C502.955 49.6079 503.055 49.3663 503.233 49.1881C503.411 49.01 503.653 48.9099 503.905 48.9099H517.505C517.757 48.9099 517.998 48.8098 518.177 48.6317C518.355 48.4535 518.455 48.2119 518.455 47.9599V45.7599C518.455 45.5079 518.355 45.2663 518.177 45.0882C517.998 44.91 517.757 44.8099 517.505 44.8099H503.915C503.663 44.8099 503.421 44.7098 503.243 44.5317C503.065 44.3535 502.965 44.1119 502.965 43.8599V34.9499C502.965 34.6979 503.065 34.4563 503.243 34.2782C503.421 34.1 503.663 33.9999 503.915 33.9999H521.825C522.077 33.9999 522.318 33.8998 522.497 33.7217C522.675 33.5435 522.775 33.3019 522.775 33.0499V30.5999C522.775 30.3479 522.675 30.1063 522.497 29.9282C522.318 29.75 522.077 29.6499 521.825 29.6499H499.165Z"/><path fill="#1B5587" d="M309.358 28.874C314.654 28.7631 319.775 30.7029 323.596 34.2656C327.416 37.8283 329.623 42.7229 329.73 47.8721C329.838 53.0211 327.839 58.0032 324.171 61.7227C320.503 65.4422 315.467 67.5941 310.172 67.7051C304.877 67.816 299.755 65.8772 295.935 62.3145C292.114 58.7517 289.908 53.8573 289.8 48.708C289.692 43.5587 291.691 38.576 295.359 34.8564C299.027 31.1369 304.063 28.985 309.358 28.874ZM311.026 37.6377C309.649 37.4457 308.251 37.5326 306.913 37.8936C304.212 38.6225 301.918 40.4232 300.537 42.8994C299.156 45.3756 298.801 48.3247 299.549 51.0977C299.919 52.4708 300.55 53.7601 301.404 54.8906C302.258 56.0209 303.32 56.9709 304.527 57.6865C305.735 58.4023 307.066 58.8695 308.443 59.0615C309.821 59.2535 311.218 59.1665 312.556 58.8057C315.257 58.0767 317.551 56.2761 318.932 53.7998C320.313 51.3235 320.669 48.3746 319.921 45.6016C319.55 44.2285 318.92 42.94 318.065 41.8096C317.211 40.6791 316.15 39.7284 314.942 39.0127C313.735 38.297 312.404 37.8297 311.026 37.6377Z"/><path fill="#1B5587" d="M261.454 29.5107C267.861 29.4307 272.868 29.5007 276.475 29.7207C288.115 30.4307 292.314 43.7304 284.034 51.4004C283.108 52.2604 283.174 53.3675 284.234 54.7207C286.754 57.9473 289.365 61.5473 292.064 65.5205C292.166 65.6703 292.224 65.8449 292.234 66.0254C292.244 66.2058 292.205 66.3859 292.121 66.5459C292.037 66.7057 291.911 66.8395 291.757 66.9336C291.602 67.0277 291.425 67.0785 291.244 67.0801H284.284C283.765 67.0798 283.254 66.9551 282.793 66.7168C282.332 66.4785 281.935 66.1332 281.635 65.71C278.041 60.6367 275.451 57.1634 273.864 55.29C273.184 54.4969 271.928 54.2406 270.095 54.5205C269.941 54.5464 269.802 54.6242 269.701 54.7412C269.601 54.8583 269.546 55.007 269.545 55.1602V66C269.545 66.2811 269.433 66.5512 269.234 66.75C269.036 66.9488 268.766 67.0605 268.484 67.0605H260.965C260.758 67.0605 260.559 66.9772 260.413 66.8291C260.267 66.681 260.185 66.4799 260.185 66.2705V30.7998C260.185 30.4613 260.318 30.1368 260.556 29.8955C260.793 29.6543 261.116 29.5161 261.454 29.5107ZM274.574 36.8105L270.285 36.8496H270.282C270.104 36.8518 269.927 36.881 269.758 36.9346L269.591 36.9961C269.427 37.0663 269.275 37.1601 269.139 37.2744L269.009 37.3955C268.884 37.523 268.779 37.6685 268.697 37.8262L268.623 37.9883C268.535 38.2081 268.493 38.4432 268.495 38.6797L268.494 38.6807L268.564 45.4004V45.4023C268.57 45.8784 268.764 46.3334 269.103 46.668C269.441 47.0023 269.898 47.1894 270.374 47.1895H270.384L274.674 47.1494L274.929 47.1426C275.523 47.1146 276.111 47.0085 276.667 46.8262C277.303 46.6178 277.894 46.311 278.4 45.915C278.907 45.519 279.327 45.0362 279.617 44.4854C279.872 44.0018 280.021 43.4778 280.05 42.9395L280.054 42.708V42.707L280.034 41.127C280.019 39.8682 279.351 38.7426 278.314 37.9668C277.283 37.1952 275.936 36.7976 274.575 36.8105V36.8096L274.574 36.8105Z"/><path fill="#1B5587" d="M541.034 29.5098C545.054 29.4631 548.121 30.4765 550.234 32.5498C556.064 38.2798 553.834 47.01 546.444 50.46C546.381 50.4883 546.325 50.5313 546.28 50.585C546.236 50.6385 546.205 50.7015 546.188 50.7695C546.172 50.8379 546.171 50.9102 546.186 50.9795C546.2 51.0486 546.231 51.1137 546.274 51.1699L555.334 62.9502C555.718 63.4481 555.927 64.0587 555.927 64.6865C555.927 65.3146 555.718 65.9246 555.334 66.4199L555.214 66.5898C555.075 66.806 554.886 66.9858 554.662 67.1133C554.439 67.2407 554.188 67.3124 553.931 67.3223C553.674 67.3321 553.417 67.28 553.185 67.1699C552.952 67.0599 552.75 66.8945 552.595 66.6895L541.424 51.8896C541.234 51.6411 540.99 51.4395 540.709 51.3008C540.428 51.1621 540.119 51.0898 539.805 51.0898H533.944C533.804 51.0898 533.669 51.1447 533.569 51.2422C533.47 51.3396 533.414 51.4717 533.414 51.6094V66.29C533.414 66.4729 533.341 66.648 533.212 66.7773C533.083 66.9067 532.907 66.9794 532.725 66.9795H529.674C529.449 66.9794 529.233 66.8898 529.073 66.7305C528.914 66.5711 528.824 66.3552 528.824 66.1299V30.29C528.824 30.1018 528.899 29.9212 529.032 29.7881C529.165 29.6549 529.346 29.5801 529.534 29.5801C534.941 29.5601 538.774 29.5364 541.034 29.5098ZM534.104 34.1494C534.002 34.1507 533.901 34.1726 533.807 34.2129C533.713 34.2533 533.627 34.3124 533.556 34.3857C533.484 34.4591 533.428 34.5455 533.39 34.6406C533.352 34.7356 533.333 34.8372 533.334 34.9395L533.514 45.96C533.515 46.0624 533.537 46.1637 533.577 46.2578C533.618 46.3519 533.677 46.4373 533.75 46.5088C533.823 46.5801 533.91 46.6369 534.005 46.6748C534.1 46.7127 534.201 46.7308 534.304 46.7295L542.674 46.5996C543.5 46.5869 544.316 46.4236 545.075 46.1182C545.834 45.8128 546.521 45.3718 547.097 44.8203C547.672 44.2687 548.126 43.617 548.431 42.9033C548.736 42.1896 548.886 41.4272 548.874 40.6602L548.854 39.7598C548.83 38.2114 548.144 36.7366 546.947 35.6602C545.751 34.5838 544.141 33.9936 542.474 34.0195L534.104 34.1494Z"/></svg>