<svg width="900" height="300" viewBox="0 0 900 300" fill="none" xmlns="http://www.w3.org/2000/svg">
<g clip-path="url(#clip0_1_102)">
<path d="M134.311 211.492C135.109 211.486 135.906 211.48 136.728 211.473C139.379 211.457 142.03 211.47 144.682 211.482C146.591 211.477 148.5 211.47 150.41 211.461C155.581 211.443 160.752 211.45 165.924 211.463C171.343 211.473 176.761 211.463 182.18 211.457C191.279 211.45 200.378 211.459 209.477 211.479C219.988 211.5 230.499 211.493 241.01 211.471C250.044 211.453 259.077 211.451 268.111 211.461C273.503 211.467 278.894 211.468 284.285 211.455C289.355 211.443 294.424 211.451 299.493 211.474C301.351 211.48 303.208 211.478 305.066 211.469C307.607 211.458 310.147 211.472 312.689 211.492C313.419 211.483 314.149 211.474 314.901 211.465C320.306 211.547 324.465 213.044 329 216C333.437 220.671 335.243 224.411 335.291 230.835C335.303 232.01 335.316 233.185 335.329 234.396C335.331 235.663 335.334 236.929 335.336 238.234C335.346 240.195 335.346 240.195 335.356 242.195C335.368 244.963 335.372 247.73 335.371 250.497C335.37 254.025 335.398 257.553 335.432 261.081C335.46 264.466 335.459 267.85 335.461 271.234C335.475 272.493 335.49 273.752 335.504 275.048C335.465 282.662 335.021 288.694 329.588 294.512C324.159 299.362 319.228 300.297 312.157 300.261C310.982 300.266 310.982 300.266 309.783 300.272C307.161 300.283 304.54 300.279 301.918 300.275C300.037 300.279 298.156 300.284 296.275 300.29C291.168 300.304 286.061 300.304 280.953 300.302C276.689 300.301 272.424 300.305 268.16 300.31C258.099 300.321 248.037 300.322 237.976 300.316C227.599 300.31 217.221 300.322 206.844 300.343C197.932 300.361 189.021 300.367 180.11 300.364C174.788 300.362 169.466 300.364 164.145 300.378C159.14 300.391 154.135 300.389 149.129 300.376C147.294 300.374 145.459 300.376 143.623 300.385C141.114 300.395 138.606 300.387 136.097 300.374C135.374 300.382 134.651 300.389 133.905 300.397C126.103 300.314 120.495 297.367 115 292C113.054 288.158 112.735 284.946 112.694 280.668C112.678 279.41 112.662 278.152 112.645 276.855C112.639 275.489 112.633 274.124 112.629 272.758C112.62 271.347 112.611 269.936 112.602 268.525C112.585 265.571 112.577 262.617 112.574 259.664C112.569 255.892 112.531 252.121 112.486 248.35C112.456 245.436 112.449 242.523 112.448 239.609C112.444 238.219 112.431 236.829 112.41 235.44C112.221 221.819 112.221 221.819 116.361 217.44C121.692 212.755 127.391 211.407 134.311 211.492ZM123 226C121.733 228.534 121.845 230.344 121.807 233.181C121.791 234.262 121.775 235.344 121.758 236.458C121.714 241.412 121.673 246.366 121.65 251.32C121.633 253.933 121.606 256.546 121.568 259.159C121.513 262.924 121.491 266.688 121.477 270.453C121.454 271.619 121.431 272.785 121.408 273.986C121.411 275.08 121.414 276.174 121.416 277.302C121.408 278.259 121.4 279.217 121.392 280.204C122.218 284.002 124.028 286.571 127 289C129.908 289.605 131.992 289.811 134.895 289.755C135.684 289.764 136.472 289.772 137.285 289.781C139.926 289.803 142.564 289.782 145.205 289.761C147.099 289.767 148.993 289.776 150.887 289.787C156.03 289.811 161.172 289.796 166.315 289.773C171.695 289.754 177.075 289.765 182.455 289.772C191.491 289.778 200.526 289.76 209.561 289.727C220.009 289.69 230.457 289.692 240.905 289.714C250.953 289.735 261.001 289.728 271.049 289.708C275.327 289.7 279.604 289.702 283.881 289.712C288.918 289.723 293.954 289.708 298.99 289.675C300.84 289.667 302.689 289.667 304.538 289.677C307.061 289.688 309.582 289.669 312.105 289.642C313.205 289.657 313.205 289.657 314.326 289.673C318.221 289.595 319.876 289.1 322.954 286.631C325.349 283.552 325.627 282.121 325.631 278.263C325.644 277.136 325.656 276.008 325.669 274.846C325.656 273.637 325.643 272.429 325.629 271.184C325.633 269.311 325.633 269.311 325.636 267.4C325.635 264.762 325.624 262.127 325.597 259.49C325.563 256.114 325.569 252.74 325.588 249.365C325.601 246.138 325.582 242.911 325.566 239.684C325.571 238.473 325.576 237.263 325.581 236.015C325.558 234.328 325.558 234.328 325.533 232.607C325.527 231.619 325.521 230.63 325.515 229.611C324.86 226.289 323.585 225.116 321 223C317.979 221.49 314.856 221.852 311.542 221.853C310.764 221.849 309.986 221.845 309.184 221.842C306.562 221.831 303.941 221.827 301.319 221.823C299.445 221.817 297.571 221.81 295.697 221.803C290.596 221.786 285.495 221.775 280.393 221.767C277.208 221.762 274.023 221.756 270.838 221.749C260.879 221.73 250.919 221.716 240.96 221.708C229.452 221.698 217.945 221.672 206.437 221.631C197.549 221.601 188.662 221.586 179.774 221.583C174.463 221.581 169.151 221.572 163.84 221.547C158.844 221.523 153.848 221.519 148.852 221.529C147.017 221.53 145.182 221.523 143.348 221.51C140.844 221.492 138.342 221.499 135.839 221.512C134.748 221.496 134.748 221.496 133.635 221.479C128.823 221.54 126.378 222.586 123 226Z" fill="#FCBE37"/>
<path d="M216.656 26.6016C217.761 26.5977 218.866 26.5938 220.004 26.5898C221.158 26.6014 222.311 26.613 223.5 26.625C225.231 26.6076 225.231 26.6076 226.996 26.5898C228.101 26.5937 229.206 26.5976 230.344 26.6016C231.356 26.6049 232.369 26.6083 233.412 26.6118C236 27 236 27 237.822 28.3562C239.529 30.7377 239.517 32.7917 239.688 35.6875C239.786 37.1783 239.786 37.1783 239.887 38.6992C239.943 39.8381 239.943 39.8381 240 41C244.731 40.5274 244.731 40.5274 249.125 38.875C251 38 251 38 253.5 38.0625C259.306 40.2399 261.986 47.2879 264.75 52.5C265.161 53.2464 265.572 53.9927 265.996 54.7617C269.869 62.0318 269.869 62.0318 269 66C267.539 67.8008 267.539 67.8008 265.625 69.3125C264.999 69.8243 264.372 70.336 263.727 70.8633C262 72 262 72 260 72C260 73.65 260 75.3 260 77C261.114 77.3713 261.114 77.3713 262.25 77.75C265.366 79.1662 267.026 80.1903 269 83C268.814 89.3582 266.21 93.8963 263.063 99.3125C262.607 100.123 262.151 100.933 261.682 101.768C258.318 107.682 258.318 107.682 256 110C251.205 110.533 249.018 109.432 245 107C242.881 107.36 242.881 107.36 241 108C240.795 108.855 240.59 109.709 240.379 110.59C240.11 111.695 239.84 112.799 239.563 113.938C239.296 115.04 239.029 116.142 238.754 117.277C238 120 238 120 237 121C232.527 121.281 228.043 121.232 223.563 121.25C221.663 121.281 221.663 121.281 219.725 121.312C218.517 121.318 217.31 121.323 216.066 121.328C214.952 121.337 213.838 121.347 212.69 121.356C211.358 121.18 211.358 121.18 210 121C207.997 117.996 207.507 116.29 206.875 112.812C206.707 111.911 206.54 111.01 206.367 110.082C206.246 109.395 206.125 108.708 206 108C202.794 106.959 202.276 106.865 199.063 108.438C197.547 109.211 197.547 109.211 196 110C193.488 110.328 193.488 110.328 191 110C188.396 107.468 186.8 104.138 185 101C184.349 99.9288 183.698 98.8576 183.027 97.7539C177.974 89.0644 177.974 89.0644 178.09 84.2695C179 81 179 81 180.594 79.3633C181.223 79.0165 181.852 78.6698 182.5 78.3125C185.37 76.7423 185.37 76.7423 186.719 73.8555C186.812 73.2432 186.904 72.6309 187 72C186.258 71.7525 185.515 71.505 184.75 71.25C181.672 69.8509 180.03 68.7063 178 66C176.9 59.7116 180.309 55.0072 183.313 49.75C183.812 48.8399 184.312 47.9298 184.826 46.9922C188.589 40.274 188.589 40.274 192 38C194.762 38.2907 196.945 38.9767 199.5 40.0625C202.194 41.0729 204.151 41.0712 207 41C207.037 40.2407 207.075 39.4815 207.113 38.6992C207.179 37.7054 207.245 36.7115 207.313 35.6875C207.371 34.7014 207.429 33.7152 207.488 32.6992C208.532 27.1957 211.444 26.619 216.656 26.6016ZM217 37C216.67 38.7325 216.34 40.465 216 42.25C214.584 47.4652 214.584 47.4652 212.231 49.6211C208.2 51.7248 204.561 52.6082 200 52C198.323 51.3587 196.655 50.6953 195 50C193.995 51.7888 192.996 53.5811 192 55.375C191.443 56.3727 190.886 57.3705 190.313 58.3984C188.85 60.812 188.85 60.812 189 63C190.464 63.8179 190.464 63.8179 191.957 64.6523C195 67 195 67 195.762 70.5664C195.737 71.8851 195.713 73.2038 195.688 74.5625C195.702 75.2347 195.717 75.907 195.732 76.5996C195.699 78.5664 195.699 78.5664 195 82C192.457 83.9648 192.457 83.9648 190 85C190.515 90.2814 192.255 93.5722 195 98C195.536 97.8556 196.073 97.7113 196.625 97.5625C197.409 97.3769 198.193 97.1912 199 97C199.887 96.7113 200.774 96.4225 201.688 96.125C206.068 95.9597 208.398 97.5934 212.047 99.8711C213.913 101.167 213.913 101.167 216 101C215.979 102.093 215.959 103.186 215.938 104.312C215.815 107.944 215.815 107.944 217 111C221.29 111 225.58 111 230 111C230.186 108.68 230.186 108.68 230.375 106.312C231.039 102.902 231.482 101.43 234.184 99.1875C238.902 96.7196 241.767 95.5787 247 97C248.392 97.2784 248.392 97.2784 249.813 97.5625C250.534 97.7069 251.256 97.8512 252 98C252.869 96.5925 253.72 95.1735 254.563 93.75C255.038 92.9611 255.514 92.1722 256.004 91.3594C257.14 89.1124 257.14 89.1124 256.965 86.9531C256.062 84.7478 256.062 84.7478 253.481 83.1523C251 81 251 81 250.301 77.9414C250.332 68.9665 250.332 68.9665 252.356 66.0391C254 64.6875 254 64.6875 257 63C256.517 57.8454 253.814 54.1845 251 50C250.319 50.3506 249.639 50.7012 248.938 51.0625C244.582 52.4526 241.24 52.0093 237.066 50.1289C234.089 48.3399 232.368 46.9714 231.117 43.668C230.563 41.1875 230.563 41.1875 230 37C225.71 37 221.42 37 217 37Z" fill="#FCBE37"/>
<path d="M616.854 102.004C619 101 619 101 621.809 101.57C625.346 103.155 628.713 104.933 632.062 106.875C632.75 107.268 633.438 107.661 634.146 108.066C635.645 108.923 637.142 109.781 638.638 110.642C641.045 112.026 643.457 113.398 645.871 114.769C655.671 120.339 665.438 125.968 675.188 131.625C676.234 132.229 677.28 132.833 678.357 133.456C679.326 134.019 680.295 134.583 681.293 135.164C682.154 135.663 683.016 136.164 683.903 136.678C686 138 686 138 688 140C688.353 142.449 688.353 142.449 688 145C686.508 146.519 686.508 146.519 684.348 147.812C683.522 148.317 682.696 148.823 681.845 149.343C680.906 149.89 679.967 150.437 679 151C677.986 151.608 676.971 152.217 675.926 152.843C672.443 154.919 668.942 156.962 665.438 159C664.162 159.744 662.887 160.489 661.611 161.233C659.015 162.748 656.418 164.262 653.82 165.774C650.179 167.895 646.542 170.022 642.906 172.152C640.75 173.414 638.594 174.676 636.438 175.937C635.44 176.522 634.442 177.106 633.414 177.709C632.493 178.247 631.571 178.785 630.621 179.34C629.421 180.041 629.421 180.042 628.197 180.758C622.397 184.038 622.397 184.037 619.375 183.75C617 183 617 183 615 181C614.791 178.547 614.707 176.207 614.71 173.753C614.703 173.006 614.696 172.259 614.689 171.49C614.67 169.015 614.666 166.541 614.664 164.066C614.658 162.35 614.651 160.634 614.644 158.918C614.632 155.317 614.629 151.716 614.63 148.116C614.63 143.497 614.602 138.88 614.567 134.261C614.545 130.716 614.542 127.17 614.543 123.625C614.541 121.922 614.531 120.219 614.516 118.516C614.496 116.136 614.503 113.758 614.515 111.378C614.503 110.672 614.492 109.965 614.48 109.238C614.522 106.025 614.626 104.403 616.854 102.004ZM625 170C626 170 626 170 628.143 168.81C629.101 168.245 630.031 167.696 630.961 167.148L634.082 165.316C642.209 160.525 650.336 155.767 658.634 151.277C660.514 150.262 662.389 149.236 664.262 148.207L666.688 146.812C669.199 145.394 669.199 145.394 671 144V141C662.908 136.318 654.765 131.728 646.603 127.171C645.381 126.489 644.159 125.807 642.938 125.125C641.736 124.451 640.535 123.778 639.333 123.105C638.167 122.456 637.034 121.825 635.902 121.195C632.269 119.167 628.89 117.556 625 116V170Z" fill="#FCBE39"/>
<path d="M752.395 49.7342C755.741 49.7395 759.087 49.7397 762.433 49.7342C766.054 49.7288 769.674 49.7359 773.295 49.7459C774.362 49.7414 775.429 49.7368 776.528 49.7322C777.974 49.7401 777.974 49.7399 779.45 49.7479C780.704 49.7484 780.704 49.7483 781.984 49.7488C784 49.9995 784 49.9998 786 51.9998C786.198 54.3915 786.27 56.6676 786.254 59.0604C786.257 59.7957 786.26 60.5313 786.263 61.2889C786.271 63.7655 786.265 66.2419 786.259 68.7186C786.262 70.489 786.265 72.2597 786.27 74.0301C786.279 78.8481 786.275 83.6661 786.269 88.4842C786.264 93.5174 786.269 98.5506 786.272 103.584C786.275 112.038 786.271 120.491 786.261 128.945C786.25 138.73 786.253 148.516 786.264 158.301C786.273 166.689 786.275 175.079 786.27 183.468C786.267 188.483 786.266 193.499 786.273 198.514C786.279 203.229 786.275 207.943 786.263 212.658C786.26 214.392 786.261 216.127 786.265 217.861C786.27 220.221 786.264 222.58 786.254 224.939C786.259 225.632 786.263 226.326 786.268 227.04C786.229 231.771 786.228 231.772 784 234C782.146 234.246 782.145 234.246 779.849 234.24C778.98 234.243 778.11 234.246 777.214 234.249C775.781 234.238 775.78 234.238 774.318 234.227C773.313 234.228 772.308 234.228 771.273 234.228C767.94 234.227 764.607 234.211 761.274 234.195C758.967 234.191 756.66 234.188 754.354 234.186C748.274 234.179 742.195 234.16 736.116 234.138C729.916 234.117 723.716 234.108 717.516 234.097C705.344 234.076 693.172 234.042 681 234C681.28 234.954 681.56 235.908 681.849 236.891C682.213 238.147 682.578 239.402 682.953 240.695C683.316 241.938 683.679 243.181 684.052 244.462C685.094 248.351 685.68 251.996 686 256C686.833 255.989 687.665 255.979 688.523 255.969C691.615 255.934 694.706 255.909 697.798 255.89C699.793 255.875 701.789 255.85 703.784 255.824L707.582 255.805C708.74 255.794 709.897 255.784 711.089 255.773C714 256 714 256 717 258C717.43 260.79 717.496 262.313 715.821 264.637C713.309 266.518 711.619 266.377 708.496 266.381C707.352 266.389 706.208 266.398 705.03 266.407C703.145 266.398 703.145 266.398 701.223 266.388C699.887 266.393 698.552 266.398 697.216 266.404C693.588 266.418 689.96 266.413 686.332 266.403C682.538 266.396 678.744 266.402 674.95 266.407C668.577 266.413 662.205 266.406 655.833 266.391C648.463 266.375 641.092 266.38 633.722 266.396C627.398 266.41 621.073 266.412 614.748 266.404C610.97 266.399 607.191 266.399 603.412 266.409C599.86 266.418 596.308 266.412 592.755 266.394C590.827 266.388 588.899 266.398 586.971 266.407C585.255 266.394 585.254 266.394 583.503 266.381C582.507 266.38 581.511 266.379 580.485 266.378C578 266 578 266 576.144 264.672C575 263 575 263 575.188 259.875L576 257C578.818 255.591 581.173 255.888 584.321 255.902L588.129 255.912L592.125 255.937C593.465 255.942 594.805 255.947 596.145 255.951C599.43 255.963 602.715 255.979 606 256L606.332 253.98L606.813 251.187L607.27 248.48C608.296 243.593 609.651 238.806 611 234C609.071 234.006 609.071 234.007 607.103 234.013C595.007 234.054 582.911 234.084 570.815 234.103C564.596 234.114 558.377 234.129 552.158 234.151C546.16 234.173 540.162 234.185 534.164 234.19C531.872 234.194 529.579 234.201 527.286 234.212C524.085 234.226 520.883 234.228 517.682 234.227C516.726 234.235 515.77 234.241 514.785 234.249C513.481 234.245 513.481 234.244 512.151 234.24C511.393 234.242 510.635 234.244 509.855 234.246C508 234 508 234 506 232C505.803 229.608 505.731 227.332 505.746 224.939C505.743 224.204 505.74 223.468 505.737 222.711C505.729 220.234 505.735 217.758 505.742 215.281C505.739 213.511 505.735 211.74 505.731 209.97C505.722 205.152 505.725 200.333 505.732 195.515C505.737 190.482 505.732 185.449 505.729 180.416C505.725 171.962 505.73 163.508 505.74 155.055C505.75 145.27 505.747 135.485 505.736 125.7C505.727 117.311 505.726 108.922 505.731 100.533C505.734 95.5173 505.734 90.5009 505.728 85.4852C505.722 80.7707 505.726 76.0561 505.738 71.3416C505.74 69.6076 505.739 67.8735 505.735 66.1395C505.729 63.7798 505.736 61.42 505.746 59.0604C505.742 58.3672 505.737 57.6739 505.733 56.9598C505.779 51.317 506.919 49.75 512.551 49.7479C513.515 49.7426 514.48 49.7376 515.473 49.7322C517.073 49.7389 517.073 49.7391 518.705 49.7459C519.833 49.7428 520.96 49.7394 522.121 49.7361C525.925 49.7281 529.728 49.7348 533.532 49.741C536.248 49.7394 538.964 49.7347 541.68 49.7303C548.307 49.7214 554.935 49.7235 561.562 49.7293C566.946 49.7338 572.33 49.7344 577.714 49.7322C578.479 49.7319 579.244 49.7316 580.033 49.7313C581.587 49.7306 583.141 49.73 584.696 49.7293C599.283 49.7236 613.87 49.7303 628.457 49.741C640.985 49.75 653.512 49.7483 666.039 49.7391C680.573 49.7284 695.106 49.7241 709.64 49.7303C711.188 49.7309 712.737 49.7316 714.285 49.7322C715.428 49.7327 715.429 49.7327 716.595 49.7332C721.975 49.7349 727.355 49.7321 732.736 49.7274C739.289 49.7218 745.842 49.7235 752.395 49.7342ZM621 234C618 245 618 245 617 256H676C676 252 676 252 675.414 249.449L674.625 246.687L673.852 243.949L673 241L671 234H621ZM516 224H776V60.9998H516V224Z" fill="#FCBD36"/>
<path d="M148.054 260.741C149.326 260.735 150.597 260.729 151.907 260.722C153.302 260.726 154.696 260.73 156.09 260.734C157.515 260.733 158.94 260.731 160.364 260.729C163.353 260.726 166.341 260.73 169.33 260.739C173.161 260.751 176.992 260.744 180.824 260.732C183.767 260.725 186.71 260.727 189.654 260.732C191.066 260.734 192.479 260.732 193.891 260.727C195.866 260.722 197.841 260.731 199.816 260.741C201.503 260.744 201.503 260.744 203.223 260.746C206 261 206 261 209 263C209.389 266.045 209.633 268.076 207.856 270.668C205.188 272.583 203.189 272.374 199.924 272.372C198.672 272.379 197.421 272.385 196.132 272.391C194.765 272.382 193.398 272.373 192.031 272.363C190.63 272.363 189.229 272.363 187.828 272.365C184.893 272.365 181.957 272.354 179.022 272.336C175.259 272.313 171.496 272.313 167.733 272.32C164.841 272.323 161.948 272.316 159.055 272.307C157.668 272.303 156.28 272.302 154.893 272.303C152.954 272.304 151.015 272.289 149.076 272.275C147.421 272.268 147.421 272.268 145.732 272.261C143 272 143 272 140 270C139.688 266.5 139.688 266.5 140 263C142.732 260.268 144.231 260.747 148.054 260.741Z" fill="#FCC03F"/>
<path d="M149.076 242.741C150.328 242.735 151.579 242.729 152.868 242.722C154.235 242.726 155.602 242.73 156.969 242.734C158.37 242.733 159.771 242.731 161.172 242.729C164.107 242.726 167.043 242.73 169.978 242.739C173.741 242.751 177.504 242.744 181.267 242.732C184.159 242.725 187.052 242.727 189.945 242.732C191.332 242.734 192.72 242.732 194.107 242.727C196.046 242.722 197.985 242.731 199.924 242.741C201.027 242.743 202.131 242.744 203.268 242.746C206 243 206 243 209 245C209.312 248 209.312 248 209 251C206.25 253.75 204.688 253.253 200.838 253.259C199.543 253.265 198.248 253.271 196.914 253.278C195.495 253.274 194.076 253.27 192.656 253.266C191.207 253.267 189.757 253.269 188.307 253.271C185.267 253.274 182.228 253.27 179.188 253.261C175.287 253.249 171.386 253.256 167.485 253.268C164.492 253.275 161.498 253.273 158.504 253.268C157.065 253.266 155.627 253.268 154.188 253.273C152.179 253.278 150.171 253.269 148.162 253.259C147.018 253.257 145.874 253.256 144.695 253.254C142 253 142 253 140 251C139.688 248 139.688 248 140 245C143.508 242.661 144.927 242.747 149.076 242.741Z" fill="#FCBD33"/>
<path d="M370 185C378.384 176.17 389.006 171.016 400.812 177C407.992 181.621 411.935 186.72 414 195C414.885 194.977 414.885 194.976 415.788 194.952C418.463 194.89 421.137 194.851 423.812 194.813L426.627 194.737L429.332 194.707C430.154 194.692 430.976 194.676 431.823 194.659C434.582 195.091 435.29 195.824 437 198C437.381 200.125 437.381 200.125 437.389 202.608C437.398 203.539 437.407 204.47 437.417 205.429C437.411 206.432 437.405 207.435 437.398 208.469C437.401 209.501 437.404 210.533 437.407 211.596C437.409 213.778 437.404 215.96 437.391 218.142C437.375 221.487 437.391 224.831 437.41 228.176C437.408 230.294 437.404 232.413 437.398 234.531C437.404 235.535 437.411 236.538 437.417 237.571C437.403 238.968 437.403 238.968 437.389 240.393C437.386 241.212 437.383 242.031 437.381 242.875C436.908 245.512 436.12 246.404 434 248C431.438 248.313 431.437 248.313 429 248C427 246 427 246 426.773 242.101C426.774 240.419 426.784 238.737 426.805 237.055C426.807 236.17 426.81 235.285 426.813 234.373C426.825 231.541 426.849 228.708 426.875 225.875C426.885 223.957 426.894 222.039 426.902 220.121C426.924 215.414 426.959 210.707 427 206L414 207L412.812 210.125C409.741 217.112 405.697 220.904 398.82 224.086C392.743 226.056 386.054 226.095 380.062 223.75C372.527 219.444 368.386 214.399 366 206C365.188 198.392 365.116 191.208 370 185ZM393 185C386.492 183.805 381.818 187.042 377.562 191.625C375.755 195.528 375.425 198.343 375.617 202.602C376.421 207.64 379.067 210.23 382.875 213.375C386.378 215.197 388.113 215.486 392 215C397.505 213.597 399.671 212.067 402.687 207.375C404.699 202.203 404.906 197.493 403 192.25C400.11 188.999 396.939 186.834 393 185Z" fill="#FCBE39"/>
<path d="M381.5 58.0629C388.738 55.8657 395.268 56.6578 402 60.0004C407.909 64.1696 412.513 68.7419 414 76.0004C414.84 85.5076 413.457 92.6524 407.688 100.313C404.577 103.424 401.956 105.096 398 107H395V127L399 129C400.711 130.481 400.711 130.481 402.375 132.188L404.024 133.856C406 136 406 136 407.003 137.799C408.494 140.154 409.643 141.479 412 143C416.59 143.571 421.098 143.328 425.702 143.096C443.754 142.317 443.755 142.318 450.262 147.098C453.426 150.052 456.096 153.291 458.462 156.913C459.901 159.034 459.902 159.034 461.779 160.511C465.34 163.624 466.838 166.036 467.628 170.752C467.935 175.499 467.842 180.24 467.754 184.993C467.746 186.747 467.741 188.502 467.739 190.257C467.726 193.921 467.691 197.583 467.638 201.246C467.57 205.947 467.541 210.648 467.527 215.349C467.512 219.834 467.478 224.32 467.442 228.805C467.434 230.091 467.433 230.091 467.425 231.403C467.407 233.818 467.375 236.233 467.338 238.648C467.334 239.367 467.33 240.086 467.327 240.827C467.23 245.77 467.23 245.771 465 248C462.278 248.349 460.675 248.446 458.352 246.912C456.297 244.006 456.711 241.628 456.806 238.105C456.827 237.058 456.827 237.057 456.848 235.989C456.878 234.471 456.915 232.954 456.956 231.437C457.037 228.191 457.063 224.945 457.091 221.698C457.144 215.658 457.217 209.621 457.394 203.583C459.003 181.948 459.003 181.947 450.546 163.158C447.528 160.469 444.367 158.235 441 156V154C440.111 154.11 439.221 154.22 438.304 154.333C411.392 157.214 411.392 157.213 402.765 150.757C396.483 145.417 385.545 135.889 384.773 127.548C384.783 126.601 384.794 125.653 384.805 124.676L384.825 121.561L384.875 118.313L384.903 115.03C384.926 112.353 384.959 109.677 385 107C384.219 106.86 383.437 106.719 382.631 106.575C377.116 105.37 373.043 101.318 369.625 97.0004C365.522 89.4255 364.433 81.032 366.618 72.6254C369.486 66.126 375.179 61.1584 381.5 58.0629ZM394 68.0004C388.371 67.3591 384.381 67.0854 380 71.0004C376.319 75.2959 375.451 78.4114 375.754 83.8988C376.399 89.4021 378.712 92.3868 382.922 95.8363C386.485 97.8319 390.047 97.6365 394 97.0004C399.083 94.4588 402.08 91.3578 404 86.0004C404.695 81.2806 404.46 77.9545 402.375 73.6254C399.623 70.5836 397.901 69.3007 394 68.0004Z" fill="#FCBE38"/>
<path d="M444 21.1253C451.016 18.8632 457.456 19.8183 464 23.0003C469.059 26.4594 474.353 30.9189 476 37.0003C477.055 45.6379 477.15 53.56 471.922 60.9417C467.985 65.1596 463.469 68.1774 458 70.0003C457.7 75.0493 457.485 80.0929 457.341 85.1487C457.281 86.8622 457.2 88.5752 457.095 90.2864C456.254 101.144 456.253 101.144 460.581 110.72C463.478 113.796 466.704 116.366 470 119C471.391 120.488 472.756 122.002 474.063 123.563C475.548 125.32 476.966 126.969 478.664 128.524C480 130 480 130.001 480.313 133.063C480 136 480 136 478 138C475.73 138.447 475.729 138.447 473 138C470.894 136.343 469.167 134.775 467.332 132.856C466.812 132.33 466.29 131.805 465.753 131.263C464.094 129.583 462.454 127.885 460.813 126.188C459.698 125.056 458.581 123.925 457.463 122.795C446.743 111.897 446.742 111.896 446.773 106.896C446.773 106.075 446.774 105.255 446.774 104.409C446.784 103.528 446.794 102.647 446.805 101.739C446.808 100.833 446.81 99.9267 446.813 98.9935C446.824 96.0998 446.85 93.2064 446.875 90.3128C446.885 88.3513 446.895 86.3895 446.903 84.428C446.925 79.6188 446.959 74.8094 447 70.0003C446.055 69.6987 445.109 69.397 444.135 69.0862C437.741 66.8712 433.335 62.1753 430 56.3753C426.993 49.6551 426.513 42.3906 428.887 35.3831C432.236 28.7746 437.156 23.9849 444 21.1253ZM458 31.0003C451.779 30.3184 446.322 29.7069 441.614 34.3753C438.16 38.6901 437.273 42.12 437.582 47.637C438.463 52.6169 441.064 55.2099 444.813 58.3753C448.54 60.2753 450.868 60.3901 455 60.0003C460.461 58.1801 463.387 55.1333 466 50.0003C466.67 45.4105 466.591 41.4307 464.813 37.1253L463 35.0003C461.063 32.6879 461.062 32.6876 458 31.0003Z" fill="#FCBE38"/>
<path d="M297.426 -0.489929C308.674 -0.57832 318.799 0.125456 327.465 8.15656C332.529 14.2387 335.111 21.3644 335.147 29.1976C335.158 30.774 335.158 30.7746 335.169 32.3831C335.172 33.531 335.174 34.6789 335.177 35.8616C335.183 37.0751 335.19 38.2891 335.197 39.5394C335.217 43.5601 335.228 47.5811 335.238 51.6019C335.242 52.9896 335.247 54.3773 335.251 55.765C335.27 62.2886 335.284 68.8126 335.292 75.3362C335.302 82.8478 335.329 90.359 335.369 97.8704C335.399 103.688 335.414 109.506 335.417 115.324C335.419 118.792 335.428 122.261 335.453 125.73C335.481 129.607 335.477 133.484 335.47 137.362C335.489 139.066 335.489 139.066 335.509 140.804C335.447 150.284 333.281 158.447 326.715 165.532C321.238 170.222 314.974 172.128 307.876 172.114C306.615 172.114 305.354 172.114 304.055 172.114C302.678 172.108 301.302 172.103 299.926 172.098C298.518 172.096 297.109 172.094 295.701 172.093C291.997 172.089 288.294 172.08 284.59 172.069C280.809 172.058 277.029 172.054 273.248 172.049C265.832 172.038 258.416 172.021 251 172L251.438 174.266L252 177.25L252.562 180.203C253 183 253 183 253 187C254.014 186.977 254.014 186.976 255.048 186.952C258.115 186.89 261.182 186.851 264.25 186.813L267.473 186.737L270.578 186.707C271.992 186.684 271.992 186.684 273.435 186.659C276.467 187.062 277.819 187.884 280 190C280.437 192.5 280.437 192.5 280 195C278.424 197.056 277.539 197.9 274.965 198.374C274.181 198.374 273.398 198.375 272.591 198.374C271.689 198.381 270.787 198.389 269.858 198.396C268.872 198.388 267.885 198.38 266.869 198.372C265.828 198.376 264.787 198.379 263.715 198.383C260.267 198.391 256.819 198.378 253.371 198.364C250.981 198.363 248.591 198.363 246.201 198.365C241.19 198.364 236.179 198.354 231.168 198.336C224.733 198.314 218.298 198.313 211.862 198.32C206.927 198.323 201.992 198.317 197.057 198.307C194.683 198.303 192.309 198.301 189.936 198.303C186.624 198.303 183.313 198.291 180.002 198.275C178.519 198.278 178.519 198.279 177.006 198.283C176.107 198.275 175.208 198.268 174.282 198.261C173.499 198.259 172.716 198.256 171.909 198.254C170 198 170 198 168 196C167.688 192.5 167.688 192.5 168 189C171.351 186.766 172.418 186.762 176.324 186.805L179.439 186.825L182.688 186.875L185.971 186.903C188.647 186.926 191.324 186.962 194 187L196 172L190.375 172.064C184.209 172.129 178.043 172.174 171.876 172.207C168.141 172.228 164.406 172.256 160.671 172.302C157.059 172.346 153.448 172.369 149.836 172.379C148.465 172.387 147.095 172.401 145.725 172.423C136.236 172.568 127.909 172.036 120.344 165.817L118.5 163.563L116.594 161.317C113.676 157.076 112.75 153.459 112.719 148.341C112.707 147.213 112.696 146.085 112.685 144.922C112.682 143.694 112.68 142.464 112.678 141.199C112.668 139.897 112.658 138.596 112.647 137.255C112.621 133.691 112.609 130.126 112.6 126.562C112.594 124.331 112.585 122.101 112.576 119.87C112.549 112.881 112.53 105.892 112.522 98.9026C112.514 90.8542 112.478 82.8063 112.42 74.7581C112.377 68.5244 112.357 62.2908 112.354 56.0569C112.352 52.3397 112.341 48.6227 112.305 44.9056C112.265 40.7528 112.274 36.6015 112.287 32.4485C112.269 31.2301 112.25 30.0115 112.231 28.7562C112.317 19.9902 114.516 13.9033 120.474 7.38898C127.605 0.928361 136.045 -0.116007 145.26 -0.147156C145.968 -0.150832 146.677 -0.15411 147.407 -0.157898C149.77 -0.168867 152.132 -0.173609 154.495 -0.177429C156.194 -0.183699 157.893 -0.189965 159.592 -0.19696C165.16 -0.21794 170.729 -0.228005 176.297 -0.237976C178.218 -0.242026 180.139 -0.246488 182.06 -0.250671C191.084 -0.269708 200.108 -0.284324 209.133 -0.292664C219.534 -0.302436 229.936 -0.328434 240.338 -0.368835C248.389 -0.39903 256.44 -0.413378 264.491 -0.416687C269.295 -0.419033 274.099 -0.428587 278.902 -0.453796C283.423 -0.47714 287.944 -0.480647 292.465 -0.470398C294.118 -0.469904 295.772 -0.476156 297.426 -0.489929ZM206 172L205 187H243L241 172H206ZM122 146C122.953 151.721 123.394 153.747 127 158C133.626 162.613 133.626 162.613 149.531 162.491C151.213 162.477 152.895 162.471 154.576 162.471C159.167 162.481 163.758 162.477 168.349 162.453C173.226 162.428 178.103 162.42 182.98 162.417C191.148 162.414 199.315 162.399 207.482 162.368C218.048 162.328 228.613 162.302 239.179 162.292C248.333 162.284 257.488 162.269 266.643 162.25C268.591 162.246 270.54 162.243 272.488 162.239C278.147 162.229 283.807 162.218 289.466 162.197C291.187 162.19 292.909 162.183 294.63 162.177C297.034 162.173 299.439 162.17 301.843 162.159C302.58 162.155 303.296 162.15 304.012 162.147C309.183 162.13 312.401 161.919 316.938 159.313C321.994 155.494 323.762 152.19 325 146H122ZM148.686 10.3909C136.247 9.893 136.247 9.89294 126 16.0003C121.465 21.8303 121.444 27.9688 121.546 35.098C121.545 36.1991 121.544 37.3004 121.544 38.4349C121.547 41.9778 121.578 45.5201 121.609 49.0628C121.615 51.2587 121.619 53.4548 121.621 55.6507C121.642 63.7672 121.698 71.8839 121.75 80.0003L122 135H325L325.188 79.8753C325.215 74.1349 325.242 68.3941 325.271 62.4798C325.281 57.3268 325.28 57.3263 325.286 52.1732C325.291 49.8811 325.301 47.5891 325.316 45.2972C325.338 41.8216 325.342 38.346 325.341 34.8704C325.352 33.8522 325.362 32.8336 325.373 31.7845C325.345 25.5108 324.709 20.9373 320.281 16.137L318.5 14.6878L316.719 13.1995C312.968 10.5827 309.36 10.865 304.936 10.846C303.85 10.8394 303.85 10.839 302.742 10.8323C300.31 10.819 297.878 10.8131 295.446 10.8069C293.705 10.799 291.964 10.7911 290.223 10.7825C284.499 10.7563 278.775 10.7411 273.051 10.7269C271.08 10.7215 269.109 10.7157 267.139 10.7103C258.94 10.6886 250.741 10.6698 242.543 10.6585C230.796 10.6423 219.048 10.6091 207.301 10.5521C199.04 10.5134 190.779 10.4939 182.519 10.4886C177.585 10.4849 172.652 10.4732 167.719 10.4407C163.075 10.4106 158.432 10.4046 153.789 10.4163C152.088 10.4165 150.386 10.4085 148.686 10.3909Z" fill="#FCBE38"/>
<path d="M303 244C306.407 246.148 308.778 248.113 310 252C310.685 258.049 309.409 261.17 306 266C301.868 268.607 297.748 268.695 293 268C289.371 265.838 287.625 263.835 286 260C285.232 256.005 285.139 252.464 287.238 248.895C291.868 243.322 295.825 242.178 303 244Z" fill="#FCC03D"/>
<path d="M212.832 59.3946C218.179 55.6298 222.908 54.5963 229.141 56.7344C234.99 59.3777 238.424 63.1072 241 69.0001C242.05 75.4969 240.581 80.5734 237 86.0001C233.765 89.9659 230.777 91.6931 225.668 92.2579C219.889 92.5178 216.484 91.9631 212 88.0001C207.041 82.8395 205.561 78.7047 205.664 71.6329C206.334 66.3831 208.911 62.8304 212.832 59.3946ZM227 67.0001C221.689 65.3563 219.45 66.7452 216 71.0001C215.516 74.3207 215.662 76.2641 217.062 79.3126C220.001 81.8723 222.148 82.0665 226 82.0001C229.462 79.5694 230.794 78.1218 231.562 73.9376C230.869 70.3157 229.961 69.1608 227 67.0001Z" fill="#FCBE38"/>
</g>
<defs>
<clipPath id="clip0_1_102">
<rect width="900" height="300" fill="white"/>
</clipPath>
</defs>
</svg>
