<?xml version="1.0" encoding="UTF-8" ?>
<svg version="1.1" xmlns="http://www.w3.org/2000/svg" width="900" height="300">
<path
        d="M0 0 C297 0 594 0 900 0 C900 99 900 198 900 300 C603 300 306 300 0 300 C0 201 0 102 0 0 Z "
        fill="#FFFFFF"
        transform="translate(0,0)"
    />
<path
        d="M0 0 C0.96416588 -0.00521549 1.92833176 -0.01043099 2.92171478 -0.01580453 C4.52178249 -0.00911236 4.52178249 -0.00911236 6.1541748 -0.002285 C7.28153297 -0.00540498 8.40889114 -0.00852497 9.57041168 -0.01173949 C13.37377547 -0.01976021 17.17698151 -0.01337999 20.98034668 -0.00710678 C23.69657728 -0.00871395 26.41280104 -0.01330196 29.12902832 -0.0177269 C35.7562515 -0.02663861 42.38342947 -0.024691 49.01065445 -0.01890162 C54.39484275 -0.0143921 59.77901836 -0.01376913 65.16320801 -0.01594925 C65.92835928 -0.01625572 66.69351056 -0.01656218 67.48184824 -0.01687793 C69.03604571 -0.01751736 70.59024318 -0.01816579 72.14444065 -0.01882312 C86.73172303 -0.02453162 101.31898032 -0.01796038 115.90625858 -0.00722238 C128.43357136 0.0017136 140.96084707 0.0001617 153.48815918 -0.00905991 C168.02183391 -0.01975337 182.55548662 -0.02398225 197.08916473 -0.01783538 C198.6377716 -0.01719825 200.18637848 -0.01656951 201.73498535 -0.01594925 C202.8780199 -0.01548642 202.8780199 -0.01548642 204.04414606 -0.01501425 C209.42433353 -0.01328453 214.80450707 -0.01620835 220.18469238 -0.02090836 C226.73780697 -0.02650695 233.29087363 -0.02502236 239.8439827 -0.01434687 C243.19003021 -0.00907628 246.53593112 -0.00812624 249.88198853 -0.01364517 C253.50274636 -0.01906867 257.12327549 -0.01230547 260.74401855 -0.002285 C261.81073036 -0.00674645 262.87744217 -0.01120789 263.97647858 -0.01580453 C265.42272739 -0.00798129 265.42272739 -0.00798129 266.89819336 0 C268.15306171 0.00048706 268.15306171 0.00048706 269.43328094 0.00098395 C271.44909668 0.25168228 271.44909668 0.25168228 273.44909668 2.25168228 C273.64635227 4.64339694 273.7184647 6.91939545 273.70306396 9.31222916 C273.70618395 10.0475663 273.70930393 10.78290344 273.71251845 11.54052353 C273.72052865 14.01724008 273.71416317 16.49371368 273.70788574 18.97043228 C273.71059427 20.74086018 273.71415442 22.51128695 273.71850586 24.28171158 C273.72764863 29.09978353 273.72407785 33.91777015 273.71774769 38.73584366 C273.71269744 43.7691204 273.71737642 48.80238964 273.72052002 53.83566666 C273.72416252 62.2894561 273.71935314 70.74321064 273.70983887 79.19699478 C273.69895378 88.98203452 273.70247915 98.76699093 273.71349168 108.55202866 C273.72255648 116.94099772 273.72385379 125.32994165 273.71861434 133.71891403 C273.71549019 138.73465212 273.71509745 143.75035099 273.72168732 148.76608658 C273.72744845 153.48069551 273.72348659 158.19519661 273.7118988 162.90979385 C273.70924559 164.6440653 273.7100285 166.37834577 273.71442413 168.11261368 C273.71985511 170.47224505 273.71307561 172.83152658 273.70306396 175.19113541 C273.70752541 175.88431618 273.71198685 176.57749695 273.71658349 177.2916832 C273.67739689 182.02338207 273.67739689 182.02338207 271.44909668 184.25168228 C269.59441185 184.49777794 269.59441185 184.49777794 267.29830933 184.49219131 C266.42890213 184.49494064 265.55949493 184.49768997 264.66374207 184.50052261 C263.22983879 184.48973679 263.22983879 184.48973679 261.76696777 184.47873306 C260.76205795 184.47902512 259.75714813 184.47931717 258.7217865 184.47961807 C255.38861561 184.47822084 252.05566619 184.4626411 248.72253418 184.44699478 C246.41610842 184.44326605 244.10968108 184.44041842 241.80325317 184.43841934 C235.72375132 184.43077187 229.64434457 184.41111382 223.56488037 184.38901138 C217.36484056 184.36857692 211.16478543 184.35942277 204.96472168 184.34933853 C192.79280483 184.32786899 180.62095865 184.29371963 168.44909668 184.25168228 C168.72914551 185.20574966 169.00919434 186.15981705 169.29772949 187.14279556 C169.66221191 188.3981813 170.02669434 189.65356705 170.40222168 190.94699478 C170.76477051 192.18981216 171.12731934 193.43262955 171.50085449 194.71310806 C172.54313397 198.60260309 173.12876935 202.24759069 173.44909668 206.25168228 C174.28158936 206.24120865 175.11408203 206.23073502 175.97180176 206.219944 C179.06358824 206.18583786 182.15527876 206.16077152 185.24719238 206.141819 C187.24229286 206.12682734 189.23730614 206.10141497 191.2322998 206.07590103 C193.11271973 206.06623306 193.11271973 206.06623306 195.03112793 206.05636978 C196.18846436 206.04589615 197.34580078 206.03542252 198.53820801 206.0246315 C201.44909668 206.25168228 201.44909668 206.25168228 204.44909668 208.25168228 C204.87842609 211.04232348 204.94453944 212.5643193 203.26963806 214.8880291 C200.75802297 216.76932219 199.06821708 216.6290878 195.94543457 216.63263321 C194.80132111 216.64109268 193.65720764 216.64955215 192.47842407 216.65826797 C190.59412186 216.64915894 190.59412186 216.64915894 188.67175293 216.63986588 C187.33628917 216.64393068 186.00082877 216.64927205 184.66537476 216.65579605 C181.03728382 216.6694865 177.40944847 216.66416402 173.781353 216.65465879 C169.98708144 216.64707109 166.19283197 216.65410533 162.39855957 216.65881729 C156.02636785 216.66427745 149.65428039 216.65707646 143.28210449 216.64279556 C135.91173351 216.62646848 128.54161148 216.63175681 121.17124653 216.64827478 C114.84675367 216.66188228 108.52233582 216.66381293 102.19783306 216.65595877 C98.41892605 216.65127818 94.6401361 216.65066792 90.86123657 216.66056824 C87.30875095 216.66922501 83.75658674 216.66324001 80.20413589 216.64588547 C78.27601821 216.64001678 76.34787338 216.64894719 74.41976929 216.65826797 C72.70359909 216.64557877 72.70359909 216.64557877 70.95275879 216.63263321 C69.95650986 216.63150213 68.96026093 216.63037106 67.93382263 216.6292057 C65.44909668 216.25168228 65.44909668 216.25168228 63.59339905 214.92318535 C62.44909668 213.25168228 62.44909668 213.25168228 62.63659668 210.12668228 C62.90472168 209.17793228 63.17284668 208.22918228 63.44909668 207.25168228 C66.2673386 205.84256132 68.6216095 206.13984675 71.76940918 206.15402603 C73.02624512 206.15724869 74.28308105 206.16047134 75.57800293 206.16379166 C76.89671387 206.17217056 78.2154248 206.18054947 79.57409668 206.18918228 C80.91393879 206.19419739 82.25378268 206.19876028 83.59362793 206.20285416 C86.87882874 206.21467143 90.16394065 206.23114611 93.44909668 206.25168228 C93.55866699 205.58523697 93.6682373 204.91879166 93.78112793 204.23215103 C93.93968262 203.31047134 94.0982373 202.38879166 94.26159668 201.43918228 C94.48782715 200.09920181 94.48782715 200.09920181 94.71862793 198.73215103 C95.74433277 193.84496914 97.09966354 189.0580661 98.44909668 184.25168228 C96.52017075 184.25834412 96.52017075 184.25834412 94.55227661 184.26514053 C82.45623858 184.30561603 70.36021421 184.33563267 58.26412392 184.35530663 C52.0448284 184.36576107 45.82558739 184.3799505 39.60632324 184.40256119 C33.60874264 184.42423043 27.61121458 184.43623838 21.61359787 184.44143677 C19.32096911 184.44514319 17.02834335 184.45238049 14.73573685 184.4631424 C11.53416897 184.47757864 8.33282056 184.47966353 5.13122559 184.47873306 C4.17529007 184.48592361 3.21935455 184.49311417 2.23445129 184.50052261 C0.9303405 184.49639862 0.9303405 184.49639862 -0.40011597 184.49219131 C-1.1578298 184.4940349 -1.91554363 184.49587849 -2.69621849 184.49777794 C-4.55090332 184.25168228 -4.55090332 184.25168228 -6.55090332 182.25168228 C-6.74815891 179.85996762 -6.82027134 177.58396912 -6.80487061 175.19113541 C-6.80799059 174.45579826 -6.81111057 173.72046112 -6.81432509 172.96284103 C-6.82233529 170.48612448 -6.81596981 168.00965089 -6.80969238 165.53293228 C-6.81240091 163.76250438 -6.81596106 161.99207761 -6.8203125 160.22165298 C-6.82945527 155.40358103 -6.8258845 150.58559441 -6.81955433 145.7675209 C-6.81450408 140.73424417 -6.81918306 135.70097492 -6.82232666 130.66769791 C-6.82596916 122.21390847 -6.82115978 113.76015393 -6.81164551 105.30636978 C-6.80076042 95.52133004 -6.8042858 85.73637363 -6.81529832 75.95133591 C-6.82436313 67.56236684 -6.82566043 59.17342291 -6.82042098 50.78445053 C-6.81729683 45.76871245 -6.8169041 40.75301358 -6.82349396 35.73727798 C-6.82925509 31.02266905 -6.82529323 26.30816795 -6.81370544 21.59357071 C-6.81105223 19.85929926 -6.81183515 18.12501879 -6.81623077 16.39075089 C-6.82166175 14.03111951 -6.81488225 11.67183798 -6.80487061 9.31222916 C-6.80933205 8.61904839 -6.81379349 7.92586761 -6.81839013 7.21168137 C-6.77165696 1.5687497 -5.63239057 0.00218612 0 0 Z "
        fill="#FDFDFD"
        transform="translate(512.5509033203125,49.74831771850586)"
    />
<path
        d="M0 0 C0.708609 -0.00367669 1.417218 -0.00735338 2.1473 -0.01114148 C4.50993032 -0.02211069 6.87251657 -0.02601055 9.23516846 -0.02983093 C10.9340936 -0.0361006 12.63301739 -0.04274785 14.3319397 -0.04974365 C19.90025895 -0.0707233 25.4685783 -0.08113908 31.03692627 -0.09111023 C32.95781722 -0.09515981 34.87870803 -0.09927679 36.79959869 -0.10346031 C45.82418196 -0.12249714 54.84875711 -0.13673236 63.87335658 -0.14507228 C74.27498562 -0.15484489 84.67640188 -0.18117142 95.07795596 -0.22157317 C103.12912382 -0.25176798 111.18023077 -0.26654427 119.23145413 -0.26985329 C124.03508288 -0.27219953 128.83848391 -0.28110482 133.6420517 -0.30631447 C138.1631063 -0.32965979 142.68378423 -0.33380256 147.20488358 -0.32355309 C148.85840994 -0.32305922 150.51195527 -0.3293355 152.16542435 -0.34310913 C163.4139272 -0.43152291 173.53856044 0.27220789 182.20489502 8.30342102 C187.26910193 14.38562372 189.85053692 21.51112926 189.88722229 29.34434509 C189.89795525 30.9211908 189.89795525 30.9211908 189.90890503 32.52989197 C189.91159393 33.67799347 189.91428284 34.82609497 189.91705322 36.00898743 C189.92362442 37.2224585 189.93019562 38.43592957 189.93696594 39.68617249 C189.95669608 43.70702869 189.96836632 47.72784501 189.97833252 51.74873352 C189.98238224 53.13656509 189.98649923 54.52439646 189.9906826 55.91222763 C190.00972691 62.4358606 190.02395766 68.95948232 190.03229457 75.48313773 C190.04205447 82.99489817 190.06834422 90.50636297 190.10879546 98.01801932 C190.13904043 103.83562033 190.15377148 109.65313701 190.15707558 115.47081506 C190.15941718 118.93982544 190.16825979 122.40851972 190.19353676 125.87744522 C190.22133301 129.75472012 190.21696078 133.63161202 190.21002197 137.50898743 C190.22923706 139.2129216 190.22923706 139.2129216 190.24884033 140.95127869 C190.18721209 150.43139115 188.02122086 158.59414072 181.45489502 165.67842102 C175.97830951 170.36907285 169.71457601 172.27486468 162.61627197 172.26069641 C161.35519119 172.26062088 160.09411041 172.26054535 158.79481506 172.26046753 C157.41848715 172.25536091 156.04215964 172.25014491 154.66583252 172.24482727 C153.25764516 172.24296188 151.84945716 172.24153855 150.44126892 172.24053955 C146.73737797 172.2367239 143.03352632 172.22690174 139.32965088 172.21583557 C135.54913871 172.20560099 131.76862018 172.20103754 127.98809814 172.19599915 C120.57206462 172.18527862 113.15606345 172.16821362 105.74005127 172.14717102 C105.95661377 173.2686554 105.95661377 173.2686554 106.17755127 174.41279602 C106.36317627 175.39763977 106.54880127 176.38248352 106.74005127 177.39717102 C106.92567627 178.37170227 107.11130127 179.34623352 107.30255127 180.35029602 C107.74005127 183.14717102 107.74005127 183.14717102 107.74005127 187.14717102 C108.75373779 187.12360535 108.75373779 187.12360535 109.78790283 187.0995636 C112.85520024 187.03713235 115.92236386 186.99815455 118.99005127 186.95967102 C120.05352783 186.9345343 121.11700439 186.90939758 122.21270752 186.88349915 C123.74991455 186.86899719 123.74991455 186.86899719 125.31817627 186.85420227 C126.7321167 186.8306366 126.7321167 186.8306366 128.17462158 186.80659485 C131.20719905 187.20918769 132.5588479 188.03125237 134.74005127 190.14717102 C135.17755127 192.64717102 135.17755127 192.64717102 134.74005127 195.14717102 C133.16381708 197.20330342 132.27993189 198.04773723 129.70543575 198.52190113 C128.92174397 198.52173339 128.1380522 198.52156565 127.33061218 198.52139282 C126.42906403 198.52840714 125.52751587 198.53542145 124.59864807 198.54264832 C123.61204697 198.53500458 122.62544586 198.52736084 121.60894775 198.51948547 C120.56809021 198.52313614 119.52723267 198.5267868 118.45483398 198.5305481 C115.00677284 198.53866876 111.55917936 198.52503147 108.11114502 198.51045227 C105.72125753 198.50993389 103.33136961 198.51045074 100.94148254 198.51196289 C95.93034509 198.5118731 90.9193683 198.50142912 85.90826416 198.48335266 C79.47280102 198.46065315 73.03757251 198.46012293 66.60208035 198.46687031 C61.66685385 198.47020545 56.73168122 198.46358898 51.79646492 198.45374107 C49.42290593 198.44988185 47.04934095 198.44874383 44.67577934 198.45032692 C41.36432263 198.45069618 38.05317127 198.43811669 34.74176025 198.42182922 C33.25882225 198.42554535 33.25882225 198.42554535 31.7459259 198.42933655 C30.84719757 198.42225174 29.94846924 198.41516693 29.02250671 198.40786743 C28.23919196 198.40581456 27.45587721 198.40376169 26.64882565 198.40164661 C24.74005127 198.14717102 24.74005127 198.14717102 22.74005127 196.14717102 C22.42755127 192.64717102 22.42755127 192.64717102 22.74005127 189.14717102 C26.09124646 186.91304089 27.15782677 186.9086934 31.06427002 186.95185852 C32.60631104 186.96152649 32.60631104 186.96152649 34.17950439 186.97138977 C35.25135986 186.98814758 36.32321533 187.0049054 37.42755127 187.02217102 C38.5110083 187.03119446 39.59446533 187.0402179 40.71075439 187.04951477 C43.38728075 187.0730965 46.06369368 187.10896766 48.74005127 187.14717102 C49.73005127 179.72217102 49.73005127 179.72217102 50.74005127 172.14717102 C48.8839624 172.16811829 47.02787354 172.18906555 45.11553955 172.21064758 C38.94895962 172.27542651 32.78246084 172.32123538 26.61563301 172.35441971 C22.88054337 172.37520026 19.14582547 172.40334025 15.41094971 172.44892883 C11.79935992 172.49273133 8.18812527 172.51637961 4.57629013 172.52667999 C3.20570163 172.5340103 1.83513021 172.548323 0.46469498 172.57009125 C-9.02411446 172.71467256 -17.35086604 172.18272576 -24.91619873 165.96357727 C-25.52463623 165.21978821 -26.13307373 164.47599915 -26.75994873 163.70967102 C-27.38901123 162.96846008 -28.01807373 162.22724915 -28.66619873 161.46357727 C-31.58373891 157.22313284 -32.5096941 153.60654386 -32.54083252 148.48806763 C-32.55225281 147.35973511 -32.5636731 146.23140259 -32.57543945 145.06887817 C-32.57767517 143.8402153 -32.57991089 142.61155243 -32.58221436 141.34565735 C-32.59214417 140.04425812 -32.60207397 138.74285889 -32.61230469 137.40202332 C-32.63848007 133.83771399 -32.65142871 130.27347989 -32.660326 126.70908952 C-32.66620036 124.47858254 -32.67441245 122.24809583 -32.68333435 120.01759911 C-32.71066762 113.02837468 -32.73000798 106.03919692 -32.73773813 99.04992276 C-32.74669037 91.00145482 -32.78174964 82.95366777 -32.83973932 74.90540677 C-32.88308437 68.67164167 -32.90315263 62.43806732 -32.90582037 56.20415324 C-32.90790896 52.48686699 -32.91955968 48.77022147 -32.95545959 45.05309486 C-32.99478911 40.90020108 -32.98580021 36.74871738 -32.97283936 32.59565735 C-32.99126892 31.37711563 -33.00969849 30.15857391 -33.02868652 28.90310669 C-32.94322159 20.13715533 -30.74381586 14.05020726 -24.7864151 7.53588581 C-17.65471325 1.07523981 -9.21485062 0.03113946 0 0 Z "
        fill="#FDFCFC"
        transform="translate(145.25994873046875,-0.1471710205078125)"
    />
<path
        d="M0 0 C0.79748358 -0.00623996 1.59496716 -0.01247993 2.41661692 -0.01890898 C5.06821347 -0.03476525 7.7188813 -0.0222641 10.3704834 -0.00964355 C12.27984653 -0.01506796 14.18920547 -0.0221924 16.09855652 -0.03088379 C21.27004748 -0.04908213 26.44121838 -0.04206396 31.61271477 -0.02936745 C37.03153199 -0.01922174 42.4503223 -0.02863749 47.86914062 -0.03491211 C56.96810818 -0.04218392 66.06694575 -0.03261299 75.16589355 -0.0135498 C85.67696821 0.00821798 96.18773248 0.00116629 106.69879961 -0.02085543 C115.73258379 -0.03902265 124.76627468 -0.04156126 133.80007124 -0.03110075 C139.19153905 -0.02487312 144.58286109 -0.02401016 149.97431946 -0.0372467 C155.04370932 -0.04882377 160.11270003 -0.0407454 165.18204689 -0.01766968 C167.03957774 -0.01239253 168.89714234 -0.01387931 170.75465965 -0.02272034 C173.29611773 -0.03369899 175.83630763 -0.01988518 178.37768555 0 C179.10766078 -0.00892289 179.837636 -0.01784577 180.58973169 -0.02703905 C185.99532415 0.0546489 190.1535464 1.55207504 194.68884277 4.50793457 C199.12614869 9.1787829 200.93195277 12.9185655 200.97937012 19.34289551 C200.99212982 20.51801697 201.00488953 21.69313843 201.01803589 22.90386963 C201.02026154 24.17055481 201.02248718 25.43723999 201.02478027 26.74230957 C201.03476547 28.70300385 201.03476547 28.70300385 201.04495239 30.70330811 C201.05691742 33.47057393 201.06063424 36.23771502 201.05944824 39.00500488 C201.05924556 42.53335258 201.08649728 46.06089024 201.12099266 49.58904648 C201.14872659 52.97347814 201.14741426 56.35776595 201.14978027 59.74230957 C201.16415131 61.00089783 201.17852234 62.25948608 201.19332886 63.55621338 C201.15388464 71.16991565 200.71003099 77.20159823 195.27682495 83.02008057 C189.84818032 87.86998978 184.91655095 88.80535288 177.84561157 88.76863098 C176.67054875 88.7743693 176.67054875 88.7743693 175.47174728 88.78022355 C172.85019627 88.79053158 170.22886519 88.78656558 167.6072998 88.78259277 C165.7263163 88.78694048 163.84533457 88.79212383 161.96435547 88.79808044 C156.85688647 88.81147587 151.74949145 88.81204846 146.6420083 88.80951715 C142.37758789 88.80844772 138.11318246 88.81333011 133.84876525 88.81812257 C123.78747111 88.82921981 113.7262143 88.82965405 103.66491699 88.8236084 C93.28742685 88.81756859 82.9100723 88.82987933 72.53260529 88.85117847 C63.62120739 88.86879568 54.70985263 88.8747956 45.79843795 88.87154073 C40.47683583 88.86972779 35.1553304 88.87236505 29.83374405 88.88625526 C24.82849346 88.89883075 19.82345414 88.89689207 14.81820679 88.88384438 C12.98282678 88.88147838 11.14743192 88.88421411 9.31206894 88.8924675 C6.80314832 88.90293485 4.29493662 88.8948346 1.78604126 88.88215637 C1.06277968 88.88953066 0.33951809 88.89690494 -0.40566051 88.90450269 C-8.20813276 88.82177254 -13.81623116 85.87507166 -19.31115723 80.50793457 C-21.25699818 76.66587498 -21.57635961 73.45359908 -21.61755371 69.1763916 C-21.63354111 67.91803497 -21.6495285 66.65967834 -21.66600037 65.3631897 C-21.67237753 63.99737963 -21.67777012 62.63156467 -21.68225098 61.26574707 C-21.69122612 59.85476592 -21.70034812 58.44378569 -21.70960999 57.0328064 C-21.72606955 54.07901707 -21.73379459 51.12534068 -21.73669434 48.17150879 C-21.74207682 44.39970945 -21.77976219 40.62898175 -21.8254385 36.85748482 C-21.85528436 33.94396147 -21.86241949 31.03069398 -21.86342049 28.1170311 C-21.86760753 26.72722335 -21.87998083 25.33741376 -21.90093803 23.94775772 C-22.09001215 10.32728644 -22.09001215 10.32728644 -17.94998598 5.94842672 C-12.61944042 1.26300183 -6.92013624 -0.08458861 0 0 Z "
        fill="#FDFCFA"
        transform="translate(134.3111572265625,211.4920654296875)"
    />
<path
        d="M0 0 C0.708609 -0.00367669 1.417218 -0.00735338 2.1473 -0.01114148 C4.50993032 -0.02211069 6.87251657 -0.02601055 9.23516846 -0.02983093 C10.9340936 -0.0361006 12.63301739 -0.04274785 14.3319397 -0.04974365 C19.90025895 -0.0707233 25.4685783 -0.08113908 31.03692627 -0.09111023 C32.95781722 -0.09515981 34.87870803 -0.09927679 36.79959869 -0.10346031 C45.82418196 -0.12249714 54.84875711 -0.13673236 63.87335658 -0.14507228 C74.27498562 -0.15484489 84.67640188 -0.18117142 95.07795596 -0.22157317 C103.12912382 -0.25176798 111.18023077 -0.26654427 119.23145413 -0.26985329 C124.03508288 -0.27219953 128.83848391 -0.28110482 133.6420517 -0.30631447 C138.1631063 -0.32965979 142.68378423 -0.33380256 147.20488358 -0.32355309 C148.85840994 -0.32305922 150.51195527 -0.3293355 152.16542435 -0.34310913 C163.4139272 -0.43152291 173.53856044 0.27220789 182.20489502 8.30342102 C187.26910193 14.38562372 189.85053692 21.51112926 189.88722229 29.34434509 C189.89795525 30.9211908 189.89795525 30.9211908 189.90890503 32.52989197 C189.91159393 33.67799347 189.91428284 34.82609497 189.91705322 36.00898743 C189.92362442 37.2224585 189.93019562 38.43592957 189.93696594 39.68617249 C189.95669608 43.70702869 189.96836632 47.72784501 189.97833252 51.74873352 C189.98238224 53.13656509 189.98649923 54.52439646 189.9906826 55.91222763 C190.00972691 62.4358606 190.02395766 68.95948232 190.03229457 75.48313773 C190.04205447 82.99489817 190.06834422 90.50636297 190.10879546 98.01801932 C190.13904043 103.83562033 190.15377148 109.65313701 190.15707558 115.47081506 C190.15941718 118.93982544 190.16825979 122.40851972 190.19353676 125.87744522 C190.22133301 129.75472012 190.21696078 133.63161202 190.21002197 137.50898743 C190.22923706 139.2129216 190.22923706 139.2129216 190.24884033 140.95127869 C190.18721209 150.43139115 188.02122086 158.59414072 181.45489502 165.67842102 C175.97830951 170.36907285 169.71457601 172.27486468 162.61627197 172.26069641 C161.35519119 172.26062088 160.09411041 172.26054535 158.79481506 172.26046753 C157.41848715 172.25536091 156.04215964 172.25014491 154.66583252 172.24482727 C153.25764516 172.24296188 151.84945716 172.24153855 150.44126892 172.24053955 C146.73737797 172.2367239 143.03352632 172.22690174 139.32965088 172.21583557 C135.54913871 172.20560099 131.76862018 172.20103754 127.98809814 172.19599915 C120.57206462 172.18527862 113.15606345 172.16821362 105.74005127 172.14717102 C105.95661377 173.2686554 105.95661377 173.2686554 106.17755127 174.41279602 C106.36317627 175.39763977 106.54880127 176.38248352 106.74005127 177.39717102 C106.92567627 178.37170227 107.11130127 179.34623352 107.30255127 180.35029602 C107.74005127 183.14717102 107.74005127 183.14717102 107.74005127 187.14717102 C108.75373779 187.12360535 108.75373779 187.12360535 109.78790283 187.0995636 C112.85520024 187.03713235 115.92236386 186.99815455 118.99005127 186.95967102 C120.05352783 186.9345343 121.11700439 186.90939758 122.21270752 186.88349915 C123.74991455 186.86899719 123.74991455 186.86899719 125.31817627 186.85420227 C126.7321167 186.8306366 126.7321167 186.8306366 128.17462158 186.80659485 C131.20719905 187.20918769 132.5588479 188.03125237 134.74005127 190.14717102 C135.17755127 192.64717102 135.17755127 192.64717102 134.74005127 195.14717102 C133.16381708 197.20330342 132.27993189 198.04773723 129.70543575 198.52190113 C128.92174397 198.52173339 128.1380522 198.52156565 127.33061218 198.52139282 C126.42906403 198.52840714 125.52751587 198.53542145 124.59864807 198.54264832 C123.61204697 198.53500458 122.62544586 198.52736084 121.60894775 198.51948547 C120.56809021 198.52313614 119.52723267 198.5267868 118.45483398 198.5305481 C115.00677284 198.53866876 111.55917936 198.52503147 108.11114502 198.51045227 C105.72125753 198.50993389 103.33136961 198.51045074 100.94148254 198.51196289 C95.93034509 198.5118731 90.9193683 198.50142912 85.90826416 198.48335266 C79.47280102 198.46065315 73.03757251 198.46012293 66.60208035 198.46687031 C61.66685385 198.47020545 56.73168122 198.46358898 51.79646492 198.45374107 C49.42290593 198.44988185 47.04934095 198.44874383 44.67577934 198.45032692 C41.36432263 198.45069618 38.05317127 198.43811669 34.74176025 198.42182922 C33.25882225 198.42554535 33.25882225 198.42554535 31.7459259 198.42933655 C30.84719757 198.42225174 29.94846924 198.41516693 29.02250671 198.40786743 C28.23919196 198.40581456 27.45587721 198.40376169 26.64882565 198.40164661 C24.74005127 198.14717102 24.74005127 198.14717102 22.74005127 196.14717102 C22.42755127 192.64717102 22.42755127 192.64717102 22.74005127 189.14717102 C26.09124646 186.91304089 27.15782677 186.9086934 31.06427002 186.95185852 C32.60631104 186.96152649 32.60631104 186.96152649 34.17950439 186.97138977 C35.25135986 186.98814758 36.32321533 187.0049054 37.42755127 187.02217102 C38.5110083 187.03119446 39.59446533 187.0402179 40.71075439 187.04951477 C43.38728075 187.0730965 46.06369368 187.10896766 48.74005127 187.14717102 C49.73005127 179.72217102 49.73005127 179.72217102 50.74005127 172.14717102 C48.8839624 172.16811829 47.02787354 172.18906555 45.11553955 172.21064758 C38.94895962 172.27542651 32.78246084 172.32123538 26.61563301 172.35441971 C22.88054337 172.37520026 19.14582547 172.40334025 15.41094971 172.44892883 C11.79935992 172.49273133 8.18812527 172.51637961 4.57629013 172.52667999 C3.20570163 172.5340103 1.83513021 172.548323 0.46469498 172.57009125 C-9.02411446 172.71467256 -17.35086604 172.18272576 -24.91619873 165.96357727 C-25.52463623 165.21978821 -26.13307373 164.47599915 -26.75994873 163.70967102 C-27.38901123 162.96846008 -28.01807373 162.22724915 -28.66619873 161.46357727 C-31.58373891 157.22313284 -32.5096941 153.60654386 -32.54083252 148.48806763 C-32.55225281 147.35973511 -32.5636731 146.23140259 -32.57543945 145.06887817 C-32.57767517 143.8402153 -32.57991089 142.61155243 -32.58221436 141.34565735 C-32.59214417 140.04425812 -32.60207397 138.74285889 -32.61230469 137.40202332 C-32.63848007 133.83771399 -32.65142871 130.27347989 -32.660326 126.70908952 C-32.66620036 124.47858254 -32.67441245 122.24809583 -32.68333435 120.01759911 C-32.71066762 113.02837468 -32.73000798 106.03919692 -32.73773813 99.04992276 C-32.74669037 91.00145482 -32.78174964 82.95366777 -32.83973932 74.90540677 C-32.88308437 68.67164167 -32.90315263 62.43806732 -32.90582037 56.20415324 C-32.90790896 52.48686699 -32.91955968 48.77022147 -32.95545959 45.05309486 C-32.99478911 40.90020108 -32.98580021 36.74871738 -32.97283936 32.59565735 C-32.99126892 31.37711563 -33.00969849 30.15857391 -33.02868652 28.90310669 C-32.94322159 20.13715533 -30.74381586 14.05020726 -24.7864151 7.53588581 C-17.65471325 1.07523981 -9.21485062 0.03113946 0 0 Z M-19.25994873 16.14717102 C-23.79540921 21.97724728 -23.8155298 28.11564562 -23.71405029 35.24482727 C-23.71453243 36.34604416 -23.71501457 37.44726105 -23.71551132 38.58184814 C-23.71254034 42.12479161 -23.68214714 45.66687935 -23.65057373 49.20967102 C-23.64468807 51.40563044 -23.64061014 53.60159548 -23.6383667 55.79756165 C-23.61744757 63.91418402 -23.56160241 72.03068605 -23.50994873 80.14717102 C-23.42744873 98.29717102 -23.34494873 116.44717102 -23.25994873 135.14717102 C43.73005127 135.14717102 110.72005127 135.14717102 179.74005127 135.14717102 C179.80192627 116.95592102 179.86380127 98.76467102 179.92755127 80.02217102 C179.95486328 74.28181458 179.98217529 68.54145813 180.01031494 62.62715149 C180.02034929 57.4739712 180.02034929 57.4739712 180.02638245 52.32078552 C180.03098409 50.02853142 180.04152478 47.73628451 180.05677795 45.44407654 C180.07874608 41.96851517 180.08176897 38.49339692 180.08062744 35.01777649 C180.09142177 33.99947691 180.10221609 32.98117733 180.11333752 31.93202019 C180.08576374 25.65806307 179.44938955 21.08434002 175.02130127 16.28388977 C174.43348877 15.80564758 173.84567627 15.3274054 173.24005127 14.83467102 C172.65223877 14.34353821 172.06442627 13.8524054 171.45880127 13.34638977 C167.70831965 10.72957646 164.10049932 11.01224553 159.67555237 10.99327087 C158.58986577 10.98669749 158.58986577 10.98669749 157.4822461 10.97999132 C155.05035626 10.96660796 152.61850266 10.96042549 150.18658447 10.95429993 C148.44544816 10.94639855 146.70431349 10.93812958 144.96318054 10.92951965 C139.23908044 10.90330223 133.51497303 10.88799166 127.79083252 10.87373352 C125.82006513 10.86837361 123.84929779 10.8629961 121.8785305 10.85760117 C113.68009354 10.83597229 105.48165854 10.81723597 97.28320026 10.80597878 C85.53569207 10.78974218 73.78851477 10.75657145 62.04113132 10.69957793 C53.78029225 10.66086699 45.51954163 10.64134467 37.25861424 10.63605821 C32.3252825 10.63240617 27.39230371 10.62040052 22.45907021 10.58795547 C17.81571353 10.55785483 13.17292298 10.55157011 8.52948952 10.56333923 C6.82835275 10.56355981 5.12718956 10.55526824 3.42614365 10.53768539 C-9.01248661 10.03973163 -9.01248661 10.03973163 -19.25994873 16.14717102 Z "
        fill="#FCBE38"
        transform="translate(145.25994873046875,-0.1471710205078125)"
    />
<path
        d="M0 0 C0.96416588 -0.00521549 1.92833176 -0.01043099 2.92171478 -0.01580453 C4.52178249 -0.00911236 4.52178249 -0.00911236 6.1541748 -0.002285 C7.28153297 -0.00540498 8.40889114 -0.00852497 9.57041168 -0.01173949 C13.37377547 -0.01976021 17.17698151 -0.01337999 20.98034668 -0.00710678 C23.69657728 -0.00871395 26.41280104 -0.01330196 29.12902832 -0.0177269 C35.7562515 -0.02663861 42.38342947 -0.024691 49.01065445 -0.01890162 C54.39484275 -0.0143921 59.77901836 -0.01376913 65.16320801 -0.01594925 C65.92835928 -0.01625572 66.69351056 -0.01656218 67.48184824 -0.01687793 C69.03604571 -0.01751736 70.59024318 -0.01816579 72.14444065 -0.01882312 C86.73172303 -0.02453162 101.31898032 -0.01796038 115.90625858 -0.00722238 C128.43357136 0.0017136 140.96084707 0.0001617 153.48815918 -0.00905991 C168.02183391 -0.01975337 182.55548662 -0.02398225 197.08916473 -0.01783538 C198.6377716 -0.01719825 200.18637848 -0.01656951 201.73498535 -0.01594925 C202.8780199 -0.01548642 202.8780199 -0.01548642 204.04414606 -0.01501425 C209.42433353 -0.01328453 214.80450707 -0.01620835 220.18469238 -0.02090836 C226.73780697 -0.02650695 233.29087363 -0.02502236 239.8439827 -0.01434687 C243.19003021 -0.00907628 246.53593112 -0.00812624 249.88198853 -0.01364517 C253.50274636 -0.01906867 257.12327549 -0.01230547 260.74401855 -0.002285 C261.81073036 -0.00674645 262.87744217 -0.01120789 263.97647858 -0.01580453 C265.42272739 -0.00798129 265.42272739 -0.00798129 266.89819336 0 C268.15306171 0.00048706 268.15306171 0.00048706 269.43328094 0.00098395 C271.44909668 0.25168228 271.44909668 0.25168228 273.44909668 2.25168228 C273.64635227 4.64339694 273.7184647 6.91939545 273.70306396 9.31222916 C273.70618395 10.0475663 273.70930393 10.78290344 273.71251845 11.54052353 C273.72052865 14.01724008 273.71416317 16.49371368 273.70788574 18.97043228 C273.71059427 20.74086018 273.71415442 22.51128695 273.71850586 24.28171158 C273.72764863 29.09978353 273.72407785 33.91777015 273.71774769 38.73584366 C273.71269744 43.7691204 273.71737642 48.80238964 273.72052002 53.83566666 C273.72416252 62.2894561 273.71935314 70.74321064 273.70983887 79.19699478 C273.69895378 88.98203452 273.70247915 98.76699093 273.71349168 108.55202866 C273.72255648 116.94099772 273.72385379 125.32994165 273.71861434 133.71891403 C273.71549019 138.73465212 273.71509745 143.75035099 273.72168732 148.76608658 C273.72744845 153.48069551 273.72348659 158.19519661 273.7118988 162.90979385 C273.70924559 164.6440653 273.7100285 166.37834577 273.71442413 168.11261368 C273.71985511 170.47224505 273.71307561 172.83152658 273.70306396 175.19113541 C273.70752541 175.88431618 273.71198685 176.57749695 273.71658349 177.2916832 C273.67739689 182.02338207 273.67739689 182.02338207 271.44909668 184.25168228 C269.59441185 184.49777794 269.59441185 184.49777794 267.29830933 184.49219131 C266.42890213 184.49494064 265.55949493 184.49768997 264.66374207 184.50052261 C263.22983879 184.48973679 263.22983879 184.48973679 261.76696777 184.47873306 C260.76205795 184.47902512 259.75714813 184.47931717 258.7217865 184.47961807 C255.38861561 184.47822084 252.05566619 184.4626411 248.72253418 184.44699478 C246.41610842 184.44326605 244.10968108 184.44041842 241.80325317 184.43841934 C235.72375132 184.43077187 229.64434457 184.41111382 223.56488037 184.38901138 C217.36484056 184.36857692 211.16478543 184.35942277 204.96472168 184.34933853 C192.79280483 184.32786899 180.62095865 184.29371963 168.44909668 184.25168228 C168.72914551 185.20574966 169.00919434 186.15981705 169.29772949 187.14279556 C169.66221191 188.3981813 170.02669434 189.65356705 170.40222168 190.94699478 C170.76477051 192.18981216 171.12731934 193.43262955 171.50085449 194.71310806 C172.54313397 198.60260309 173.12876935 202.24759069 173.44909668 206.25168228 C174.28158936 206.24120865 175.11408203 206.23073502 175.97180176 206.219944 C179.06358824 206.18583786 182.15527876 206.16077152 185.24719238 206.141819 C187.24229286 206.12682734 189.23730614 206.10141497 191.2322998 206.07590103 C193.11271973 206.06623306 193.11271973 206.06623306 195.03112793 206.05636978 C196.18846436 206.04589615 197.34580078 206.03542252 198.53820801 206.0246315 C201.44909668 206.25168228 201.44909668 206.25168228 204.44909668 208.25168228 C204.87842609 211.04232348 204.94453944 212.5643193 203.26963806 214.8880291 C200.75802297 216.76932219 199.06821708 216.6290878 195.94543457 216.63263321 C194.80132111 216.64109268 193.65720764 216.64955215 192.47842407 216.65826797 C190.59412186 216.64915894 190.59412186 216.64915894 188.67175293 216.63986588 C187.33628917 216.64393068 186.00082877 216.64927205 184.66537476 216.65579605 C181.03728382 216.6694865 177.40944847 216.66416402 173.781353 216.65465879 C169.98708144 216.64707109 166.19283197 216.65410533 162.39855957 216.65881729 C156.02636785 216.66427745 149.65428039 216.65707646 143.28210449 216.64279556 C135.91173351 216.62646848 128.54161148 216.63175681 121.17124653 216.64827478 C114.84675367 216.66188228 108.52233582 216.66381293 102.19783306 216.65595877 C98.41892605 216.65127818 94.6401361 216.65066792 90.86123657 216.66056824 C87.30875095 216.66922501 83.75658674 216.66324001 80.20413589 216.64588547 C78.27601821 216.64001678 76.34787338 216.64894719 74.41976929 216.65826797 C72.70359909 216.64557877 72.70359909 216.64557877 70.95275879 216.63263321 C69.95650986 216.63150213 68.96026093 216.63037106 67.93382263 216.6292057 C65.44909668 216.25168228 65.44909668 216.25168228 63.59339905 214.92318535 C62.44909668 213.25168228 62.44909668 213.25168228 62.63659668 210.12668228 C62.90472168 209.17793228 63.17284668 208.22918228 63.44909668 207.25168228 C66.2673386 205.84256132 68.6216095 206.13984675 71.76940918 206.15402603 C73.02624512 206.15724869 74.28308105 206.16047134 75.57800293 206.16379166 C76.89671387 206.17217056 78.2154248 206.18054947 79.57409668 206.18918228 C80.91393879 206.19419739 82.25378268 206.19876028 83.59362793 206.20285416 C86.87882874 206.21467143 90.16394065 206.23114611 93.44909668 206.25168228 C93.55866699 205.58523697 93.6682373 204.91879166 93.78112793 204.23215103 C93.93968262 203.31047134 94.0982373 202.38879166 94.26159668 201.43918228 C94.48782715 200.09920181 94.48782715 200.09920181 94.71862793 198.73215103 C95.74433277 193.84496914 97.09966354 189.0580661 98.44909668 184.25168228 C96.52017075 184.25834412 96.52017075 184.25834412 94.55227661 184.26514053 C82.45623858 184.30561603 70.36021421 184.33563267 58.26412392 184.35530663 C52.0448284 184.36576107 45.82558739 184.3799505 39.60632324 184.40256119 C33.60874264 184.42423043 27.61121458 184.43623838 21.61359787 184.44143677 C19.32096911 184.44514319 17.02834335 184.45238049 14.73573685 184.4631424 C11.53416897 184.47757864 8.33282056 184.47966353 5.13122559 184.47873306 C4.17529007 184.48592361 3.21935455 184.49311417 2.23445129 184.50052261 C0.9303405 184.49639862 0.9303405 184.49639862 -0.40011597 184.49219131 C-1.1578298 184.4940349 -1.91554363 184.49587849 -2.69621849 184.49777794 C-4.55090332 184.25168228 -4.55090332 184.25168228 -6.55090332 182.25168228 C-6.74815891 179.85996762 -6.82027134 177.58396912 -6.80487061 175.19113541 C-6.80799059 174.45579826 -6.81111057 173.72046112 -6.81432509 172.96284103 C-6.82233529 170.48612448 -6.81596981 168.00965089 -6.80969238 165.53293228 C-6.81240091 163.76250438 -6.81596106 161.99207761 -6.8203125 160.22165298 C-6.82945527 155.40358103 -6.8258845 150.58559441 -6.81955433 145.7675209 C-6.81450408 140.73424417 -6.81918306 135.70097492 -6.82232666 130.66769791 C-6.82596916 122.21390847 -6.82115978 113.76015393 -6.81164551 105.30636978 C-6.80076042 95.52133004 -6.8042858 85.73637363 -6.81529832 75.95133591 C-6.82436313 67.56236684 -6.82566043 59.17342291 -6.82042098 50.78445053 C-6.81729683 45.76871245 -6.8169041 40.75301358 -6.82349396 35.73727798 C-6.82925509 31.02266905 -6.82529323 26.30816795 -6.81370544 21.59357071 C-6.81105223 19.85929926 -6.81183515 18.12501879 -6.81623077 16.39075089 C-6.82166175 14.03111951 -6.81488225 11.67183798 -6.80487061 9.31222916 C-6.80933205 8.61904839 -6.81379349 7.92586761 -6.81839013 7.21168137 C-6.77165696 1.5687497 -5.63239057 0.00218612 0 0 Z M3.44909668 11.25168228 C3.44909668 65.04168228 3.44909668 118.83168228 3.44909668 174.25168228 C89.24909668 174.25168228 175.04909668 174.25168228 263.44909668 174.25168228 C263.44909668 120.46168228 263.44909668 66.67168228 263.44909668 11.25168228 C177.64909668 11.25168228 91.84909668 11.25168228 3.44909668 11.25168228 Z "
        fill="#FCBD36"
        transform="translate(512.5509033203125,49.74831771850586)"
    />
<path
        d="M0 0 C1.10472656 -0.00386719 2.20945313 -0.00773437 3.34765625 -0.01171875 C4.50136719 -0.00011719 5.65507812 0.01148437 6.84375 0.0234375 C8.57431641 0.00603516 8.57431641 0.00603516 10.33984375 -0.01171875 C11.44457031 -0.00785156 12.54929688 -0.00398438 13.6875 0 C14.70005859 0.00338379 15.71261719 0.00676758 16.75585938 0.01025391 C19.34375 0.3984375 19.34375 0.3984375 21.1652832 1.75463867 C22.87264212 4.13616915 22.8609099 6.19015587 23.03125 9.0859375 C23.12986328 10.57673828 23.12986328 10.57673828 23.23046875 12.09765625 C23.28654297 13.23654297 23.28654297 13.23654297 23.34375 14.3984375 C28.07467864 13.92588661 28.07467864 13.92588661 32.46875 12.2734375 C34.34375 11.3984375 34.34375 11.3984375 36.84375 11.4609375 C42.6500414 13.63829677 45.33014107 20.68628907 48.09375 25.8984375 C48.50496094 26.64480469 48.91617188 27.39117187 49.33984375 28.16015625 C53.21291401 35.43020508 53.21291401 35.43020508 52.34375 39.3984375 C50.8828125 41.19921875 50.8828125 41.19921875 48.96875 42.7109375 C48.34226562 43.22269531 47.71578125 43.73445313 47.0703125 44.26171875 C45.34375 45.3984375 45.34375 45.3984375 43.34375 45.3984375 C43.34375 47.0484375 43.34375 48.6984375 43.34375 50.3984375 C44.4575 50.7696875 44.4575 50.7696875 45.59375 51.1484375 C48.70932547 52.56460817 50.36935769 53.58872537 52.34375 56.3984375 C52.15722202 62.75660858 49.55356818 67.29472515 46.40625 72.7109375 C45.95056641 73.52111328 45.49488281 74.33128906 45.02539062 75.16601562 C41.66210183 81.08008567 41.66210183 81.08008567 39.34375 83.3984375 C34.54845694 83.93124784 32.36158519 82.83028511 28.34375 80.3984375 C26.22452463 80.75867665 26.22452463 80.75867665 24.34375 81.3984375 C24.13878906 82.25308594 23.93382812 83.10773438 23.72265625 83.98828125 C23.45324219 85.09300781 23.18382812 86.19773437 22.90625 87.3359375 C22.63941406 88.43808594 22.37257812 89.54023437 22.09765625 90.67578125 C21.34375 93.3984375 21.34375 93.3984375 20.34375 94.3984375 C15.87106037 94.6799265 11.38674265 94.63025184 6.90625 94.6484375 C5.00649414 94.679375 5.00649414 94.679375 3.06835938 94.7109375 C1.86115234 94.71609375 0.65394531 94.72125 -0.58984375 94.7265625 C-1.70415771 94.7359082 -2.81847168 94.74525391 -3.96655273 94.75488281 C-5.29795288 94.57844238 -5.29795288 94.57844238 -6.65625 94.3984375 C-8.65918347 91.39403729 -9.14896626 89.68849805 -9.78125 86.2109375 C-9.94882813 85.30988281 -10.11640625 84.40882812 -10.2890625 83.48046875 C-10.41023438 82.79339844 -10.53140625 82.10632813 -10.65625 81.3984375 C-13.86247446 80.35727644 -14.38066033 80.26357447 -17.59375 81.8359375 C-19.1096875 82.609375 -19.1096875 82.609375 -20.65625 83.3984375 C-23.16796875 83.7265625 -23.16796875 83.7265625 -25.65625 83.3984375 C-28.26053084 80.86613427 -29.85627618 77.53652135 -31.65625 74.3984375 C-32.30722656 73.32722656 -32.95820313 72.25601563 -33.62890625 71.15234375 C-38.68188455 62.46282839 -38.68188455 62.46282839 -38.56640625 57.66796875 C-37.65625 54.3984375 -37.65625 54.3984375 -36.0625 52.76171875 C-35.4334375 52.41496094 -34.804375 52.06820312 -34.15625 51.7109375 C-31.28637208 50.14076517 -31.28637208 50.14076517 -29.9375 47.25390625 C-29.8446875 46.64160156 -29.751875 46.02929688 -29.65625 45.3984375 C-30.39875 45.1509375 -31.14125 44.9034375 -31.90625 44.6484375 C-34.98435608 43.24929837 -36.62648779 42.10478711 -38.65625 39.3984375 C-39.75671461 33.1100683 -36.34733278 28.40565427 -33.34375 23.1484375 C-32.84423828 22.23835938 -32.34472656 21.32828125 -31.83007812 20.390625 C-28.06732192 13.67248545 -28.06732192 13.67248545 -24.65625 11.3984375 C-21.89471451 11.68912545 -19.71117205 12.37509563 -17.15625 13.4609375 C-14.4618301 14.47134496 -12.50537437 14.46966561 -9.65625 14.3984375 C-9.61886719 13.63917969 -9.58148438 12.87992188 -9.54296875 12.09765625 C-9.47722656 11.10378906 -9.41148437 10.10992187 -9.34375 9.0859375 C-9.28574219 8.09980469 -9.22773438 7.11367188 -9.16796875 6.09765625 C-8.12461166 0.59414671 -5.21181126 0.01741694 0 0 Z "
        fill="#FDFBF7"
        transform="translate(216.65625,26.6015625)"
    />
<path
        d="M0 0 C0.79748358 -0.00623996 1.59496716 -0.01247993 2.41661692 -0.01890898 C5.06821347 -0.03476525 7.7188813 -0.0222641 10.3704834 -0.00964355 C12.27984653 -0.01506796 14.18920547 -0.0221924 16.09855652 -0.03088379 C21.27004748 -0.04908213 26.44121838 -0.04206396 31.61271477 -0.02936745 C37.03153199 -0.01922174 42.4503223 -0.02863749 47.86914062 -0.03491211 C56.96810818 -0.04218392 66.06694575 -0.03261299 75.16589355 -0.0135498 C85.67696821 0.00821798 96.18773248 0.00116629 106.69879961 -0.02085543 C115.73258379 -0.03902265 124.76627468 -0.04156126 133.80007124 -0.03110075 C139.19153905 -0.02487312 144.58286109 -0.02401016 149.97431946 -0.0372467 C155.04370932 -0.04882377 160.11270003 -0.0407454 165.18204689 -0.01766968 C167.03957774 -0.01239253 168.89714234 -0.01387931 170.75465965 -0.02272034 C173.29611773 -0.03369899 175.83630763 -0.01988518 178.37768555 0 C179.10766078 -0.00892289 179.837636 -0.01784577 180.58973169 -0.02703905 C185.99532415 0.0546489 190.1535464 1.55207504 194.68884277 4.50793457 C199.12614869 9.1787829 200.93195277 12.9185655 200.97937012 19.34289551 C200.99212982 20.51801697 201.00488953 21.69313843 201.01803589 22.90386963 C201.02026154 24.17055481 201.02248718 25.43723999 201.02478027 26.74230957 C201.03476547 28.70300385 201.03476547 28.70300385 201.04495239 30.70330811 C201.05691742 33.47057393 201.06063424 36.23771502 201.05944824 39.00500488 C201.05924556 42.53335258 201.08649728 46.06089024 201.12099266 49.58904648 C201.14872659 52.97347814 201.14741426 56.35776595 201.14978027 59.74230957 C201.16415131 61.00089783 201.17852234 62.25948608 201.19332886 63.55621338 C201.15388464 71.16991565 200.71003099 77.20159823 195.27682495 83.02008057 C189.84818032 87.86998978 184.91655095 88.80535288 177.84561157 88.76863098 C176.67054875 88.7743693 176.67054875 88.7743693 175.47174728 88.78022355 C172.85019627 88.79053158 170.22886519 88.78656558 167.6072998 88.78259277 C165.7263163 88.78694048 163.84533457 88.79212383 161.96435547 88.79808044 C156.85688647 88.81147587 151.74949145 88.81204846 146.6420083 88.80951715 C142.37758789 88.80844772 138.11318246 88.81333011 133.84876525 88.81812257 C123.78747111 88.82921981 113.7262143 88.82965405 103.66491699 88.8236084 C93.28742685 88.81756859 82.9100723 88.82987933 72.53260529 88.85117847 C63.62120739 88.86879568 54.70985263 88.8747956 45.79843795 88.87154073 C40.47683583 88.86972779 35.1553304 88.87236505 29.83374405 88.88625526 C24.82849346 88.89883075 19.82345414 88.89689207 14.81820679 88.88384438 C12.98282678 88.88147838 11.14743192 88.88421411 9.31206894 88.8924675 C6.80314832 88.90293485 4.29493662 88.8948346 1.78604126 88.88215637 C1.06277968 88.88953066 0.33951809 88.89690494 -0.40566051 88.90450269 C-8.20813276 88.82177254 -13.81623116 85.87507166 -19.31115723 80.50793457 C-21.25699818 76.66587498 -21.57635961 73.45359908 -21.61755371 69.1763916 C-21.63354111 67.91803497 -21.6495285 66.65967834 -21.66600037 65.3631897 C-21.67237753 63.99737963 -21.67777012 62.63156467 -21.68225098 61.26574707 C-21.69122612 59.85476592 -21.70034812 58.44378569 -21.70960999 57.0328064 C-21.72606955 54.07901707 -21.73379459 51.12534068 -21.73669434 48.17150879 C-21.74207682 44.39970945 -21.77976219 40.62898175 -21.8254385 36.85748482 C-21.85528436 33.94396147 -21.86241949 31.03069398 -21.86342049 28.1170311 C-21.86760753 26.72722335 -21.87998083 25.33741376 -21.90093803 23.94775772 C-22.09001215 10.32728644 -22.09001215 10.32728644 -17.94998598 5.94842672 C-12.61944042 1.26300183 -6.92013624 -0.08458861 0 0 Z M-11.31115723 14.50793457 C-12.5781071 17.04183433 -12.46580878 18.85185256 -12.50402832 21.68859863 C-12.52009125 22.77022278 -12.53615417 23.85184692 -12.55270386 24.96624756 C-12.59711435 29.92007876 -12.63822468 34.87377507 -12.66125488 39.82775879 C-12.67781164 42.44080513 -12.70509751 45.05380624 -12.74328613 47.66662598 C-12.79804531 51.43167653 -12.81992958 55.19566443 -12.83459473 58.96105957 C-12.8572641 60.12687561 -12.87993347 61.29269165 -12.90328979 62.49383545 C-12.90043976 63.58806824 -12.89758972 64.68230103 -12.89465332 65.80969238 C-12.90274017 66.7674054 -12.91082703 67.72511841 -12.91915894 68.71185303 C-12.09330526 72.50979338 -10.28331779 75.07917627 -7.31115723 77.50793457 C-4.40307009 78.11301385 -2.31874591 78.31880369 0.58349609 78.2631073 C1.37236599 78.27176168 2.1612359 78.28041606 2.97401094 78.28933269 C5.61469192 78.31090652 8.25326272 78.28963775 10.8939209 78.26843262 C12.78800971 78.27492637 14.68209121 78.28398779 16.57615662 78.29542542 C21.71884936 78.31851654 26.86080046 78.30378143 32.00346947 78.28095603 C37.38367148 78.26205084 42.76382337 78.27319666 48.14404297 78.27986145 C57.17944122 78.2862034 66.21454207 78.26792499 75.24987793 78.23522949 C85.69796946 78.19773455 96.14549756 78.1995133 106.59361887 78.22227067 C116.64182412 78.24321445 126.68982102 78.23594868 136.73802185 78.21595192 C141.01547694 78.20796242 145.29275595 78.20996164 149.57020569 78.21997643 C154.60682178 78.23052159 159.64278074 78.21641773 164.67929268 78.18323326 C166.52839433 78.17501993 168.37755612 78.17531723 170.22665215 78.18471146 C172.74990196 78.19612339 175.27110307 78.17678558 177.79418945 78.14958191 C178.89365678 78.16528914 178.89365678 78.16528914 180.01533556 78.18131369 C183.91013172 78.10300434 185.56464693 77.6075282 188.64299679 75.13897514 C191.03753382 72.0595038 191.31619706 70.62845471 191.31994629 66.7713623 C191.3324794 65.64346786 191.34501251 64.51557343 191.35792542 63.35350037 C191.34466721 62.14504959 191.331409 60.93659882 191.31774902 59.69152832 C191.32136696 57.81860863 191.32136696 57.81860863 191.32505798 55.90785217 C191.32407904 53.27016687 191.31327682 50.63475458 191.2857666 47.99743652 C191.2516471 44.62215255 191.25771778 41.24838787 191.27642918 37.87303066 C191.28955309 34.64577494 191.27128244 31.4187512 191.25524902 28.19152832 C191.26020889 26.98105331 191.26516876 25.77057831 191.27027893 24.52342224 C191.24652443 22.83630882 191.24652443 22.83630882 191.22229004 21.1151123 C191.21609146 20.1264769 191.20989288 19.13784149 191.20350647 18.11924744 C190.54873597 14.79705735 189.27348885 13.62350205 186.68884277 11.50793457 C183.66812646 9.99757642 180.54463661 10.35993114 177.23088074 10.36076355 C176.45274122 10.35708686 175.67460169 10.35341017 174.87288219 10.34962207 C172.25122641 10.33856098 169.62961022 10.33473731 167.00793457 10.33093262 C165.1340014 10.32466984 163.26006947 10.31802321 161.38613892 10.3110199 C156.28484898 10.29359391 151.18356842 10.28305398 146.08225608 10.27481437 C142.89717492 10.26966805 139.71209669 10.26359218 136.52701759 10.25730324 C126.5675088 10.23824748 116.60800745 10.22401665 106.64848393 10.21569127 C95.14083406 10.20591369 83.63337628 10.17958214 72.12579411 10.13919038 C63.23827405 10.10906237 54.35080916 10.09422558 45.46323901 10.09091026 C40.15166735 10.08855615 34.84030081 10.07954886 29.5287838 10.05444908 C24.5325789 10.03122107 19.53671495 10.02691386 14.54047012 10.03721046 C12.70585435 10.03770721 10.87122209 10.03134615 9.03665733 10.01765442 C6.53327871 10.0000153 4.03113428 10.00700159 1.52775574 10.02018738 C0.43689172 10.00373351 0.43689172 10.00373351 -0.67600995 9.98694724 C-5.48800593 10.0482056 -7.93295272 11.09395592 -11.31115723 14.50793457 Z "
        fill="#FCBE37"
        transform="translate(134.3111572265625,211.4920654296875)"
    />
<path
        d="M0 0 C5.90907118 4.16929238 10.51235139 8.74130074 12 16 C12.83929776 25.50745501 11.45686387 32.65185459 5.6875 40.3125 C2.57670976 43.42329024 -0.04458681 45.0955418 -4 47 C-4.99 47 -5.98 47 -7 47 C-7 53.6 -7 60.2 -7 67 C-5.68 67.66 -4.36 68.32 -3 69 C-1.2890625 70.48046875 -1.2890625 70.48046875 0.375 72.1875 C0.91898437 72.73792969 1.46296875 73.28835937 2.0234375 73.85546875 C4 76 4 76 5.00317383 77.79931641 C6.49383599 80.15436692 7.64310628 81.47816639 10 83 C14.58949445 83.57116547 19.0985166 83.32838218 23.70196533 83.09646606 C41.75429386 82.31748593 41.75429386 82.31748593 48.26171875 87.09765625 C51.4255473 90.05200671 54.09666713 93.29039025 56.46270752 96.91331482 C57.90146063 99.0334919 57.90146063 99.0334919 59.77864075 100.51075745 C63.34037322 103.62361131 64.83854529 106.03605014 65.628479 110.75227356 C65.93484022 115.49846161 65.84119468 120.24002085 65.75390625 124.9921875 C65.7459165 126.74715142 65.74074725 128.50213024 65.73826599 130.2571106 C65.7260661 133.92063113 65.69121899 137.58294354 65.63793945 141.24609375 C65.5697825 145.94728845 65.54107461 150.64763417 65.52694798 155.34927177 C65.51184989 159.83452332 65.47741704 164.31956328 65.44140625 168.8046875 C65.43349154 170.09064631 65.43349154 170.09064631 65.42541695 171.40258408 C65.40702514 173.81798014 65.37489295 176.23277153 65.33813477 178.64794922 C65.334328 179.36689865 65.33052124 180.08584808 65.32659912 180.82658386 C65.22962786 185.77037214 65.22962786 185.77037214 63 188 C60.27736074 188.34905632 58.67503828 188.44588377 56.35198975 186.91143799 C54.2965676 184.00548994 54.71041052 181.62752463 54.80566406 178.10449219 C54.82651817 177.05733032 54.82651817 177.05733032 54.84779358 175.98901367 C54.87819124 174.471481 54.9145351 172.95405853 54.95609283 171.43679047 C55.03695621 168.19053474 55.0624056 164.94459732 55.09092331 161.69752884 C55.14422434 155.65777864 55.21735211 149.6205417 55.39404297 143.58300781 C57.00354432 121.9474949 57.00354432 121.9474949 48.54656982 103.15802002 C45.52788479 100.46937765 42.36658794 98.2352519 39 96 C39 95.34 39 94.68 39 94 C38.11030518 94.10997314 37.22061035 94.21994629 36.30395508 94.33325195 C9.39152626 97.21356415 9.39152626 97.21356415 0.76472473 90.75733948 C-5.51713352 85.4165845 -16.45470938 75.88855237 -17.22705078 67.5480957 C-17.21657715 66.60023193 -17.20610352 65.65236816 -17.1953125 64.67578125 C-17.18886719 63.64775391 -17.18242187 62.61972656 -17.17578125 61.56054688 C-17.15902344 60.48869141 -17.14226562 59.41683594 -17.125 58.3125 C-17.11597656 57.22904297 -17.10695313 56.14558594 -17.09765625 55.02929688 C-17.0740734 52.3526429 -17.04116126 49.67643203 -17 47 C-17.78173584 46.85973389 -18.56347168 46.71946777 -19.36889648 46.57495117 C-24.88392965 45.36980103 -28.95711545 41.31732786 -32.375 37 C-36.47809582 29.42505387 -37.56744365 21.03168189 -35.3828125 12.625 C-32.51395997 6.12565268 -26.82110775 1.15796238 -20.5 -1.9375 C-13.26207035 -4.13472864 -6.73221627 -3.34265093 0 0 Z "
        fill="#FCBE38"
        transform="translate(402,60)"
    />
<path
        d="M0 0 C3.53716008 1.58457845 6.90454849 3.36327205 10.25390625 5.3046875 C10.94162109 5.69760986 11.62933594 6.09053223 12.33789062 6.49536133 C13.83606298 7.35195832 15.33292276 8.21085418 16.82861328 9.07177734 C19.23568504 10.45513476 21.64829678 11.82834915 24.0625 13.19921875 C33.86234173 18.76949631 43.62893035 24.39762764 53.37890625 30.0546875 C54.42498047 30.65885498 55.47105469 31.26302246 56.54882812 31.88549805 C57.51755859 32.44922119 58.48628906 33.01294434 59.484375 33.59375 C60.34571045 34.09342285 61.2070459 34.5930957 62.09448242 35.10791016 C64.19140625 36.4296875 64.19140625 36.4296875 66.19140625 38.4296875 C66.54467773 40.87890625 66.54467773 40.87890625 66.19140625 43.4296875 C64.69946289 44.94921875 64.69946289 44.94921875 62.5390625 46.2421875 C61.71293457 46.7475 60.88680664 47.2528125 60.03564453 47.7734375 C59.0970459 48.32 58.15844727 48.8665625 57.19140625 49.4296875 C56.17675293 50.038125 55.16209961 50.6465625 54.11669922 51.2734375 C50.63383723 53.34864062 47.13388881 55.39220154 43.62890625 57.4296875 C42.3534604 58.17367538 41.07815307 58.91790076 39.80297852 59.66235352 C37.20672159 61.17753545 34.60956598 62.69115974 32.01171875 64.20361328 C28.37043588 66.32419698 24.73357191 68.45226222 21.09765625 70.58203125 C18.94145178 71.84382781 16.78520409 73.1055505 14.62890625 74.3671875 C13.63109131 74.95177734 12.63327637 75.53636719 11.60522461 76.13867188 C10.68362549 76.67685547 9.76202637 77.21503906 8.8125 77.76953125 C7.61258423 78.47130493 7.61258423 78.47130493 6.38842773 79.18725586 C0.5879722 82.46745569 0.5879722 82.46745569 -2.43359375 82.1796875 C-4.80859375 81.4296875 -4.80859375 81.4296875 -6.80859375 79.4296875 C-7.01723777 76.97711431 -7.10226292 74.63643348 -7.09912109 72.18188477 C-7.10583832 71.43538666 -7.11255554 70.68888855 -7.11947632 69.91976929 C-7.13851813 67.4451436 -7.14238352 64.9707882 -7.14453125 62.49609375 C-7.15095466 60.77977892 -7.15768267 59.0634652 -7.16470337 57.34715271 C-7.17669144 53.7466274 -7.1803826 50.14619816 -7.17919922 46.5456543 C-7.17899589 41.92722192 -7.2063053 37.30940395 -7.24074364 32.69111729 C-7.26295801 29.14553487 -7.26703846 25.60010161 -7.26597977 22.05445671 C-7.2683437 20.35156065 -7.27721161 18.64866097 -7.2926445 16.94583321 C-7.31219596 14.56574336 -7.30651049 12.18699526 -7.29443359 9.80688477 C-7.30567261 9.10080582 -7.31691162 8.39472687 -7.32849121 7.66725159 C-7.28696262 4.45384581 -7.18249875 2.83219566 -4.95376587 0.43296814 C-2.80859375 -0.5703125 -2.80859375 -0.5703125 0 0 Z "
        fill="#FCBE39"
        transform="translate(621.80859375,101.5703125)"
    />
<path
        d="M0 0 C1.10472656 -0.00386719 2.20945313 -0.00773437 3.34765625 -0.01171875 C4.50136719 -0.00011719 5.65507812 0.01148437 6.84375 0.0234375 C8.57431641 0.00603516 8.57431641 0.00603516 10.33984375 -0.01171875 C11.44457031 -0.00785156 12.54929688 -0.00398438 13.6875 0 C14.70005859 0.00338379 15.71261719 0.00676758 16.75585938 0.01025391 C19.34375 0.3984375 19.34375 0.3984375 21.1652832 1.75463867 C22.87264212 4.13616915 22.8609099 6.19015587 23.03125 9.0859375 C23.12986328 10.57673828 23.12986328 10.57673828 23.23046875 12.09765625 C23.28654297 13.23654297 23.28654297 13.23654297 23.34375 14.3984375 C28.07467864 13.92588661 28.07467864 13.92588661 32.46875 12.2734375 C34.34375 11.3984375 34.34375 11.3984375 36.84375 11.4609375 C42.6500414 13.63829677 45.33014107 20.68628907 48.09375 25.8984375 C48.50496094 26.64480469 48.91617188 27.39117187 49.33984375 28.16015625 C53.21291401 35.43020508 53.21291401 35.43020508 52.34375 39.3984375 C50.8828125 41.19921875 50.8828125 41.19921875 48.96875 42.7109375 C48.34226562 43.22269531 47.71578125 43.73445313 47.0703125 44.26171875 C45.34375 45.3984375 45.34375 45.3984375 43.34375 45.3984375 C43.34375 47.0484375 43.34375 48.6984375 43.34375 50.3984375 C44.4575 50.7696875 44.4575 50.7696875 45.59375 51.1484375 C48.70932547 52.56460817 50.36935769 53.58872537 52.34375 56.3984375 C52.15722202 62.75660858 49.55356818 67.29472515 46.40625 72.7109375 C45.95056641 73.52111328 45.49488281 74.33128906 45.02539062 75.16601562 C41.66210183 81.08008567 41.66210183 81.08008567 39.34375 83.3984375 C34.54845694 83.93124784 32.36158519 82.83028511 28.34375 80.3984375 C26.22452463 80.75867665 26.22452463 80.75867665 24.34375 81.3984375 C24.13878906 82.25308594 23.93382812 83.10773438 23.72265625 83.98828125 C23.45324219 85.09300781 23.18382812 86.19773437 22.90625 87.3359375 C22.63941406 88.43808594 22.37257812 89.54023437 22.09765625 90.67578125 C21.34375 93.3984375 21.34375 93.3984375 20.34375 94.3984375 C15.87106037 94.6799265 11.38674265 94.63025184 6.90625 94.6484375 C5.00649414 94.679375 5.00649414 94.679375 3.06835938 94.7109375 C1.86115234 94.71609375 0.65394531 94.72125 -0.58984375 94.7265625 C-1.70415771 94.7359082 -2.81847168 94.74525391 -3.96655273 94.75488281 C-5.29795288 94.57844238 -5.29795288 94.57844238 -6.65625 94.3984375 C-8.65918347 91.39403729 -9.14896626 89.68849805 -9.78125 86.2109375 C-9.94882813 85.30988281 -10.11640625 84.40882812 -10.2890625 83.48046875 C-10.41023438 82.79339844 -10.53140625 82.10632813 -10.65625 81.3984375 C-13.86247446 80.35727644 -14.38066033 80.26357447 -17.59375 81.8359375 C-19.1096875 82.609375 -19.1096875 82.609375 -20.65625 83.3984375 C-23.16796875 83.7265625 -23.16796875 83.7265625 -25.65625 83.3984375 C-28.26053084 80.86613427 -29.85627618 77.53652135 -31.65625 74.3984375 C-32.30722656 73.32722656 -32.95820313 72.25601563 -33.62890625 71.15234375 C-38.68188455 62.46282839 -38.68188455 62.46282839 -38.56640625 57.66796875 C-37.65625 54.3984375 -37.65625 54.3984375 -36.0625 52.76171875 C-35.4334375 52.41496094 -34.804375 52.06820312 -34.15625 51.7109375 C-31.28637208 50.14076517 -31.28637208 50.14076517 -29.9375 47.25390625 C-29.8446875 46.64160156 -29.751875 46.02929688 -29.65625 45.3984375 C-30.39875 45.1509375 -31.14125 44.9034375 -31.90625 44.6484375 C-34.98435608 43.24929837 -36.62648779 42.10478711 -38.65625 39.3984375 C-39.75671461 33.1100683 -36.34733278 28.40565427 -33.34375 23.1484375 C-32.84423828 22.23835938 -32.34472656 21.32828125 -31.83007812 20.390625 C-28.06732192 13.67248545 -28.06732192 13.67248545 -24.65625 11.3984375 C-21.89471451 11.68912545 -19.71117205 12.37509563 -17.15625 13.4609375 C-14.4618301 14.47134496 -12.50537437 14.46966561 -9.65625 14.3984375 C-9.61886719 13.63917969 -9.58148438 12.87992188 -9.54296875 12.09765625 C-9.47722656 11.10378906 -9.41148437 10.10992187 -9.34375 9.0859375 C-9.28574219 8.09980469 -9.22773438 7.11367188 -9.16796875 6.09765625 C-8.12461166 0.59414671 -5.21181126 0.01741694 0 0 Z M0.34375 10.3984375 C0.01375 12.1309375 -0.31625 13.8634375 -0.65625 15.6484375 C-2.07247387 20.86363155 -2.07247387 20.86363155 -4.42578125 23.01953125 C-8.4559705 25.1232438 -12.09487674 26.0066206 -16.65625 25.3984375 C-18.3328523 24.75716771 -20.00134079 24.09377751 -21.65625 23.3984375 C-22.66133801 25.18725486 -23.66017736 26.97958446 -24.65625 28.7734375 C-25.213125 29.77117188 -25.77 30.76890625 -26.34375 31.796875 C-27.80639268 34.21039259 -27.80639268 34.21039259 -27.65625 36.3984375 C-26.19251953 37.21634766 -26.19251953 37.21634766 -24.69921875 38.05078125 C-21.65625 40.3984375 -21.65625 40.3984375 -20.89453125 43.96484375 C-20.91902344 45.28355469 -20.94351563 46.60226563 -20.96875 47.9609375 C-20.95392578 48.63318359 -20.93910156 49.30542969 -20.92382812 49.99804688 C-20.95703125 51.96484375 -20.95703125 51.96484375 -21.65625 55.3984375 C-24.19921875 57.36328125 -24.19921875 57.36328125 -26.65625 58.3984375 C-26.14099397 63.67981179 -24.40147883 66.97064906 -21.65625 71.3984375 C-21.12 71.2540625 -20.58375 71.1096875 -20.03125 70.9609375 C-19.2475 70.7753125 -18.46375 70.5896875 -17.65625 70.3984375 C-16.769375 70.1096875 -15.8825 69.8209375 -14.96875 69.5234375 C-10.58797713 69.35812532 -8.25869733 70.99180796 -4.609375 73.26953125 C-2.74364097 74.56524478 -2.74364097 74.56524478 -0.65625 74.3984375 C-0.676875 75.4915625 -0.6975 76.5846875 -0.71875 77.7109375 C-0.84169452 81.34227941 -0.84169452 81.34227941 0.34375 84.3984375 C4.63375 84.3984375 8.92375 84.3984375 13.34375 84.3984375 C13.529375 82.078125 13.529375 82.078125 13.71875 79.7109375 C14.38237234 76.3007906 14.82600192 74.8281962 17.52734375 72.5859375 C22.24577663 70.11804987 25.11058441 68.97718531 30.34375 70.3984375 C31.7359375 70.676875 31.7359375 70.676875 33.15625 70.9609375 C33.878125 71.1053125 34.6 71.2496875 35.34375 71.3984375 C36.21291887 69.99092529 37.06360149 68.5719854 37.90625 67.1484375 C38.38191406 66.35953125 38.85757813 65.570625 39.34765625 64.7578125 C40.48378605 62.51088124 40.48378605 62.51088124 40.30859375 60.3515625 C39.40589947 58.14627327 39.40589947 58.14627327 36.82421875 56.55078125 C34.34375 54.3984375 34.34375 54.3984375 33.64453125 51.33984375 C33.67565803 42.36495672 33.67565803 42.36495672 35.69921875 39.4375 C37.34375 38.0859375 37.34375 38.0859375 40.34375 36.3984375 C39.86050181 31.24379016 37.15764239 27.58293431 34.34375 23.3984375 C33.663125 23.7490625 32.9825 24.0996875 32.28125 24.4609375 C27.9255791 25.85104523 24.58418682 25.4077656 20.41015625 23.52734375 C17.43258812 21.73832672 15.7114796 20.36982941 14.4609375 17.06640625 C13.90625 14.5859375 13.90625 14.5859375 13.34375 10.3984375 C9.05375 10.3984375 4.76375 10.3984375 0.34375 10.3984375 Z "
        fill="#FCBE37"
        transform="translate(216.65625,26.6015625)"
    />
<path
        d="M0 0 C66.99 0 133.98 0 203 0 C201.76208537 6.18957313 199.99425712 9.49413238 194.9375 13.3125 C190.40079705 15.91869105 187.18278088 16.1299692 182.01142883 16.14717102 C181.29580487 16.15084771 180.58018091 16.1545244 179.84287137 16.1583125 C177.438616 16.16934859 175.03440386 16.17319306 172.63012695 16.17700195 C170.9086951 16.18326671 169.18726459 16.18991352 167.46583557 16.19691467 C161.80666038 16.21795756 156.14748491 16.22831784 150.48828125 16.23828125 C148.53980177 16.24232884 146.59132243 16.24644576 144.64284325 16.25063133 C135.48797342 16.26968416 126.33311166 16.28391453 117.17822582 16.2922433 C106.61297662 16.30201395 96.04793703 16.32832862 85.48276168 16.36874419 C77.31533834 16.39891444 69.14797504 16.41371308 60.98049706 16.41702431 C56.1031125 16.41937394 51.22595184 16.42832286 46.34862709 16.45348549 C41.75785413 16.47678682 37.16745216 16.48099116 32.57663536 16.47072411 C30.8948582 16.47022912 29.21306265 16.47653854 27.53134155 16.49028015 C11.62619084 16.61293548 11.62619084 16.61293548 5 12 C1.39347311 7.74614778 0.95352439 5.72114634 0 0 Z "
        fill="#FDFDFC"
        transform="translate(122,146)"
    />
<path
        d="M0 0 C5.05905701 3.45910789 10.35248231 7.91842237 12 14 C13.05428595 22.63774627 13.15014135 30.5595921 7.921875 37.94140625 C3.98409119 42.15931696 -0.53141634 45.17713878 -6 47 C-6.29990233 52.0491248 -6.51578787 57.09293046 -6.65917969 62.14892578 C-6.7190085 63.86241021 -6.80051858 65.57529565 -6.90527344 67.28662109 C-7.74646754 78.14410585 -7.74646754 78.14410585 -3.41821289 87.72045898 C-0.52197214 90.79615583 2.70409449 93.36601569 6 96 C7.39058046 97.4876113 8.75518504 99.00120919 10.0625 100.5625 C11.54806685 102.32023177 12.96573554 103.96863113 14.6640625 105.5234375 C16 107 16 107 16.3125 110.0625 C16 113 16 113 14 115 C11.72924805 115.4465332 11.72924805 115.4465332 9 115 C6.89347871 113.34223402 5.16725074 111.77509503 3.33203125 109.85546875 C2.81114426 109.32987869 2.29025726 108.80428864 1.75358582 108.26277161 C0.094517 106.5823814 -1.54612122 104.88515463 -3.1875 103.1875 C-4.30293512 102.0555543 -5.41946045 100.9246818 -6.53710938 99.79492188 C-17.25782324 88.8962767 -17.25782324 88.8962767 -17.22705078 83.89575195 C-17.22689972 83.07512772 -17.22674866 82.25450348 -17.22659302 81.40901184 C-17.21627045 80.52767075 -17.20594788 79.64632965 -17.1953125 78.73828125 C-17.1924826 77.83248825 -17.18965271 76.92669525 -17.18673706 75.99345398 C-17.17553964 73.09966842 -17.15043589 70.20619206 -17.125 67.3125 C-17.11496963 65.35091593 -17.10584388 63.389327 -17.09765625 61.42773438 C-17.07560173 56.6183704 -17.04107489 51.80923763 -17 47 C-17.94544678 46.69835937 -18.89089355 46.39671875 -19.86499023 46.0859375 C-26.25976026 43.87085012 -30.66540061 39.17512471 -34 33.375 C-37.00721971 26.65478452 -37.48748803 19.39038317 -35.11328125 12.3828125 C-31.7645244 5.77430231 -26.84442355 0.98456574 -20 -1.875 C-12.98444459 -4.13721365 -6.54398922 -3.18204287 0 0 Z "
        fill="#FCBE38"
        transform="translate(464,23)"
    />
<path
        d="M0 0 C7.17985588 4.62121633 11.12248213 9.71997665 13.1875 18 C14.07272339 17.97643433 14.07272339 17.97643433 14.97583008 17.95239258 C17.65045586 17.89002061 20.32492864 17.85100343 23 17.8125 C23.92876953 17.78736328 24.85753906 17.76222656 25.81445312 17.73632812 C26.70712891 17.72666016 27.59980469 17.71699219 28.51953125 17.70703125 C29.34171143 17.6913208 30.1638916 17.67561035 31.01098633 17.65942383 C33.76942975 18.09105911 34.47758504 18.82394109 36.1875 21 C36.56845093 23.12487793 36.56845093 23.12487793 36.57568359 25.60742188 C36.58514008 26.53848755 36.59459656 27.46955322 36.6043396 28.42883301 C36.59826691 29.43200562 36.59219421 30.43517822 36.5859375 31.46875 C36.58880768 32.50060425 36.59167786 33.5324585 36.59463501 34.59558105 C36.59667701 36.77775623 36.59113771 38.95994965 36.57861328 41.14208984 C36.56256205 44.487069 36.57845791 47.83083979 36.59765625 51.17578125 C36.59567384 53.29427351 36.59183022 55.41276501 36.5859375 57.53125 C36.59201019 58.53442261 36.59808289 59.53759521 36.6043396 60.57116699 C36.59015488 61.9677655 36.59015488 61.9677655 36.57568359 63.39257812 C36.57329681 64.21181763 36.57091003 65.03105713 36.56845093 65.87512207 C36.09567637 68.51217623 35.30749182 69.40398489 33.1875 71 C30.625 71.3125 30.625 71.3125 28.1875 71 C26.1875 69 26.1875 69 25.96044922 65.10107422 C25.96076659 63.41891207 25.97210604 61.73672981 25.9921875 60.0546875 C25.9950174 59.1696756 25.99784729 58.2846637 26.00076294 57.37283325 C26.0119776 54.54008588 26.0370843 51.70765216 26.0625 48.875 C26.07252815 46.95703581 26.08165428 45.03906667 26.08984375 43.12109375 C26.11192111 38.41394124 26.14645955 33.70702384 26.1875 29 C19.7525 29.495 19.7525 29.495 13.1875 30 C12.795625 31.03125 12.40375 32.0625 12 33.125 C8.92900673 40.11221404 4.88465527 43.90411473 -1.9921875 47.0859375 C-8.06936381 49.05554866 -14.75871919 49.09441423 -20.75 46.75 C-28.2855065 42.44399629 -32.42607184 37.39858837 -34.8125 29 C-35.62429428 21.39178845 -35.69666841 14.20753248 -30.8125 8 C-22.42787123 -0.83061966 -11.80597408 -5.98384987 0 0 Z "
        fill="#FCBE39"
        transform="translate(400.8125,177)"
    />
<path
        d="M0 0 C3.88969233 1.55587693 7.26899256 3.16727493 10.90234375 5.1953125 C12.03438232 5.8255835 13.1664209 6.45585449 14.33276367 7.10522461 C15.53440796 7.77836613 16.73598568 8.45162651 17.9375 9.125 C19.15915978 9.8069035 20.38092104 10.48862522 21.6027832 11.17016602 C29.76509874 15.72768247 37.90811111 20.31837112 46 25 C46 25.99 46 26.98 46 28 C44.19921875 29.39453125 44.19921875 29.39453125 41.6875 30.8125 C40.88699219 31.27269531 40.08648438 31.73289063 39.26171875 32.20703125 C37.38902025 33.23645474 35.5142715 34.26220919 33.63378906 35.27734375 C25.33563398 39.76705081 17.2087753 44.52519416 9.08203125 49.31640625 C8.05207031 49.92097656 7.02210938 50.52554688 5.9609375 51.1484375 C5.03071777 51.69677246 4.10049805 52.24510742 3.14208984 52.81005859 C1 54 1 54 0 54 C0 36.18 0 18.36 0 0 Z "
        fill="#FDFCF8"
        transform="translate(625,116)"
    />
<path
        d="M0 0 C16.5 0 33 0 50 0 C50.66 2.31 51.32 4.62 52 7 C52.28101563 7.97324219 52.56203125 8.94648438 52.8515625 9.94921875 C53.10679687 10.85285156 53.36203125 11.75648438 53.625 12.6875 C54.01558594 14.05455078 54.01558594 14.05455078 54.4140625 15.44921875 C55 18 55 18 55 22 C35.53 22 16.06 22 -4 22 C-3 11 -3 11 0 0 Z "
        fill="#FDFAF5"
        transform="translate(621,234)"
    />
<path
        d="M0 0 C5.84992905 2.64330127 9.28398441 6.37278212 11.859375 12.265625 C12.90962635 18.76252871 11.44023117 23.83896668 7.859375 29.265625 C4.62403472 33.23152599 1.63633051 34.95862489 -3.47265625 35.5234375 C-9.25184319 35.78337095 -12.65610335 35.22869065 -17.140625 31.265625 C-22.09908862 26.10505009 -23.57965139 21.97033562 -23.4765625 14.8984375 C-22.80670484 9.64862281 -20.22928612 6.09598688 -16.30859375 2.66015625 C-10.96196862 -1.10462713 -6.23257348 -2.13818214 0 0 Z "
        fill="#FCBE38"
        transform="translate(229.140625,56.734375)"
    />
<path
        d="M0 0 C1.27149399 -0.00630432 2.54298798 -0.01260864 3.85301208 -0.019104 C5.24714292 -0.01552394 6.6412725 -0.01142191 8.03540039 -0.00683594 C9.46025153 -0.00818278 10.88510222 -0.01012348 12.30995178 -0.01263428 C15.29847584 -0.01558559 18.28688044 -0.01128838 21.27539062 -0.00195312 C25.10672251 0.00943119 28.93777388 0.00288863 32.76909542 -0.00909805 C35.71246961 -0.01632533 38.65577732 -0.01402457 41.59915352 -0.00884247 C43.01175533 -0.00750783 44.42436316 -0.0091472 45.83695793 -0.01380157 C47.81187703 -0.01887959 49.78681727 -0.00976774 51.76171875 0 C53.44810707 0.00238678 53.44810707 0.00238678 55.16856384 0.00482178 C57.94555664 0.25878906 57.94555664 0.25878906 60.94555664 2.25878906 C61.33424216 5.30349226 61.57888847 7.33502805 59.80187988 9.92692566 C57.13312068 11.84169063 55.13452099 11.63296595 51.86938477 11.63110352 C50.61798706 11.63733231 49.36658936 11.6435611 48.07727051 11.64997864 C46.71044517 11.64129053 45.34362372 11.63197255 43.97680664 11.62207031 C42.57580567 11.62155163 41.17480396 11.62206963 39.77380371 11.62358093 C36.83826831 11.62349123 33.90300769 11.61306706 30.9675293 11.5949707 C27.20458698 11.57228338 23.44204614 11.5717396 19.67905426 11.57848835 C16.78627962 11.58182974 13.89359651 11.57519507 11.00083923 11.56535912 C9.61336242 11.56150975 8.22587541 11.56035781 6.83839417 11.56194496 C4.89948238 11.56231577 2.96058409 11.54821571 1.02172852 11.53344727 C-0.63348816 11.52653618 -0.63348816 11.52653618 -2.32214355 11.51948547 C-5.05444336 11.25878906 -5.05444336 11.25878906 -8.05444336 9.25878906 C-8.36694336 5.75878906 -8.36694336 5.75878906 -8.05444336 2.25878906 C-5.32248572 -0.47316858 -3.82356232 0.0054154 0 0 Z "
        fill="#FCC03F"
        transform="translate(148.054443359375,260.7412109375)"
    />
<path
        d="M0 0 C1.25139771 -0.00630432 2.50279541 -0.01260864 3.79211426 -0.019104 C5.15893698 -0.01552421 6.52575841 -0.01142224 7.89257812 -0.00683594 C9.29357979 -0.00818322 10.69458099 -0.01012428 12.09558105 -0.01263428 C15.03105116 -0.01558257 17.96639952 -0.01129745 20.90185547 -0.00195312 C24.66477907 0.00944135 28.42741737 0.00288029 32.19033051 -0.00909805 C35.08309072 -0.01632466 37.97578328 -0.01402506 40.86854553 -0.00884247 C42.25602756 -0.00750819 43.64351574 -0.00914596 45.0309906 -0.01380157 C46.96987796 -0.01887964 48.90878685 -0.00976768 50.84765625 0 C51.95113403 0.00159119 53.05461182 0.00318237 54.19152832 0.00482178 C56.92382812 0.25878906 56.92382812 0.25878906 59.92382812 2.25878906 C60.23632812 5.25878906 60.23632812 5.25878906 59.92382812 8.25878906 C57.17371213 11.00890506 55.61196871 10.51222397 51.76171875 10.51757812 C50.46697632 10.52388245 49.17223389 10.53018677 47.83825684 10.53668213 C46.41886256 10.53310246 44.99946951 10.52900052 43.58007812 10.52441406 C42.13041112 10.52576076 40.68074456 10.52770132 39.2310791 10.5302124 C36.19128117 10.53316348 33.1516007 10.52886663 30.11181641 10.51953125 C26.21088564 10.50813662 22.31023005 10.51469619 18.40930939 10.52667618 C15.41536375 10.53389528 12.4214836 10.53160664 9.42753601 10.52642059 C7.98898791 10.52508423 6.55043391 10.52673136 5.1118927 10.5313797 C3.10324209 10.53644546 1.09457069 10.5273585 -0.9140625 10.51757812 C-2.05830688 10.51598694 -3.20255127 10.51439575 -4.38146973 10.51275635 C-7.07617188 10.25878906 -7.07617188 10.25878906 -9.07617188 8.25878906 C-9.38867188 5.25878906 -9.38867188 5.25878906 -9.07617188 2.25878906 C-5.5679473 -0.08002732 -4.14916866 0.00598299 0 0 Z "
        fill="#FCBD33"
        transform="translate(149.076171875,242.7412109375)"
    />
<path
        d="M0 0 C3.93900328 1.83419237 7.11015195 3.99892094 10 7.25 C11.90637399 12.49252847 11.69910094 17.20231188 9.6875 22.375 C6.67127924 27.06689896 4.50558393 28.59661586 -1 30 C-4.88650992 30.48581374 -6.6219246 30.19659921 -10.125 28.375 C-13.93244082 25.2297228 -16.57871923 22.639453 -17.3828125 17.6015625 C-17.5746503 13.3427633 -17.24457528 10.52828261 -15.4375 6.625 C-11.18196694 2.04211825 -6.50833888 -1.19540918 0 0 Z "
        fill="#FDFBF7"
        transform="translate(393,185)"
    />
<path
        d="M0 0 C3.90098666 1.30032889 5.6227828 2.58307572 8.375 5.625 C10.45946833 9.95428038 10.69486489 13.28000314 10 18 C8.07936852 23.35755096 5.08325568 26.45837216 0 29 C-3.95343894 29.63609303 -7.51514728 29.83174081 -11.078125 27.8359375 C-15.28847638 24.38627986 -17.60162992 21.40195404 -18.24609375 15.8984375 C-18.54891482 10.41095271 -17.68188433 7.29553172 -14 3 C-9.61888608 -0.91503797 -5.62959941 -0.64134677 0 0 Z "
        fill="#FDFBF8"
        transform="translate(394,68)"
    />
<path
        d="M0 0 C3.0625 1.6875 3.0625 1.6875 5 4 C5.8971875 5.051875 5.8971875 5.051875 6.8125 6.125 C8.59088873 10.43057271 8.66935907 14.41010925 8 19 C5.38679161 24.13308791 2.46062759 27.1797908 -3 29 C-7.1320154 29.38981277 -9.46020609 29.27518905 -13.1875 27.375 C-16.93607852 24.20953369 -19.53719217 21.61681065 -20.41796875 16.63671875 C-20.72772599 11.11969116 -19.84065496 7.68982721 -16.38671875 3.375 C-11.67852503 -1.29340617 -6.2209523 -0.68186351 0 0 Z "
        fill="#FDFBF8"
        transform="translate(458,31)"
    />
<path
        d="M0 0 C11.55 0 23.1 0 35 0 C35.66 4.95 36.32 9.9 37 15 C24.46 15 11.92 15 -1 15 C-0.67 10.05 -0.34 5.1 0 0 Z "
        fill="#FDFBF5"
        transform="translate(206,172)"
    />
<path
        d="M0 0 C3.40654184 2.14760246 5.77828524 4.11272577 7 8 C7.68482879 14.049321 6.40910735 17.17043126 3 22 C-1.13203714 24.60742805 -5.25201525 24.69524062 -10 24 C-13.6287881 21.83816879 -15.37457752 19.83487121 -17 16 C-17.76806044 12.00460869 -17.86098715 8.46394977 -15.76171875 4.89453125 C-11.13169891 -0.67757699 -7.17479948 -1.82172643 0 0 Z "
        fill="#FCC03D"
        transform="translate(303,244)"
    />
<path
        d="M0 0 C2.96102497 2.16074795 3.86895034 3.31562954 4.5625 6.9375 C3.79395747 11.12178713 2.46194162 12.56927503 -1 15 C-4.85210127 15.06641554 -6.99848005 14.87229157 -9.9375 12.3125 C-11.33817538 9.26397123 -11.4842732 7.32073048 -11 4 C-7.55013333 -0.25483556 -5.3106559 -1.64377445 0 0 Z "
        fill="#FCF9F2"
        transform="translate(227,67)"
    />
</svg>
