<svg width="800" height="800" viewBox="0 0 800 800" fill="none" xmlns="http://www.w3.org/2000/svg">
<g clip-path="url(#clip0_1_2)">
<path d="M629.75 57.5C630.512 57.4983 631.274 57.4966 632.06 57.4949C666.003 57.5723 694.082 70.3685 718 94C730.443 106.639 739.397 122.283 744.812 139.062C745.103 139.96 745.393 140.858 745.692 141.783C751.837 161.754 752.426 183.864 746.585 203.974C746.005 205.981 745.486 207.998 744.973 210.023C740.647 226.204 731.713 240.286 721 253C720.21 253.954 719.42 254.908 718.605 255.891C712.455 263.005 705.67 268.64 698 274C697.005 274.7 696.01 275.4 694.984 276.121C667.86 293.961 634.151 297.905 602.688 291.638C573.03 284.597 546.85 265.224 530.504 239.66C529.261 237.472 528.131 235.247 527 233C526.459 232.046 525.917 231.092 525.359 230.109C516.481 213.819 511.573 193.916 511.687 175.375C511.692 174.425 511.696 173.475 511.7 172.496C511.838 163.743 513.02 155.512 515 147C515.267 145.813 515.534 144.626 515.809 143.402C520.583 124.579 531.525 106.816 545 93C545.804 92.1453 546.609 91.2907 547.437 90.4101C552.861 84.7752 558.461 80.2607 565 76C566.104 75.1743 566.104 75.1743 567.23 74.332C573.644 69.7602 580.547 66.9907 587.875 64.1875C588.867 63.8022 589.859 63.4169 590.881 63.02C603.576 58.3344 616.344 57.5232 629.75 57.5ZM616.203 77.9453C601.452 78.1923 585.646 85.178 574 94C572.751 94.9223 572.751 94.9223 571.477 95.8633C558.763 105.623 549.737 116.665 542.187 130.687C541.802 131.4 541.416 132.113 541.019 132.848C538.761 137.156 537.213 141.264 536 146C535.647 147.067 535.294 148.135 534.93 149.234C527.665 173.451 531.465 198.601 543.039 220.738C556.269 244.997 575.104 260.994 601 270C602.075 270.414 603.15 270.828 604.258 271.254C627.501 278.992 654.051 274.665 675.691 264.277C682.327 260.9 688.18 256.612 694 252C694.744 251.439 695.488 250.878 696.254 250.301C711.439 238.122 722.11 218.638 726.625 200.062C726.842 199.207 727.058 198.352 727.281 197.471C733.737 171.351 728.995 145.35 715.262 122.383C704.003 105.021 688.414 93.0576 669.687 84.625C668.577 84.124 668.577 84.124 667.443 83.613C652.997 77.3289 638.029 77.7401 622.553 77.9716C620.436 77.9951 618.319 77.9758 616.203 77.9453Z" fill="#FBBD2A"/>
<path d="M541.062 353.875C545.193 352.645 548.743 352.102 553 353C559.902 356.835 565.02 364.521 570.039 370.496C573.27 374.34 576.625 378.064 579.996 381.785C583.042 385.152 586.033 388.563 589 392C589.453 392.521 589.906 393.042 590.372 393.578C591.899 395.339 593.419 397.107 594.938 398.875C595.435 399.447 595.933 400.019 596.445 400.609C600 404.771 600 404.772 600 407C603.946 403.164 607.552 399.121 611.125 394.938C615.255 390.131 619.434 385.391 623.75 380.75C627.169 377.059 630.42 373.304 633.562 369.375C644.556 355.722 644.557 355.722 650 353C656.29 352.586 661.091 353.692 667 355.75C673.165 357.804 679.304 359.679 685.625 361.188C690.363 362.323 694.964 363.605 699.559 365.227C702.854 366.271 706.204 367.064 709.562 367.875C715.115 369.219 720.563 370.747 726 372.5C732.022 374.441 738.069 376.067 744.218 377.553C749.373 378.81 754.405 380.332 759.461 381.938C763.758 383.228 768.091 384.329 772.438 385.438C794.812 391.219 794.813 391.219 798 396C798.87 400.427 798.84 402.643 796.445 406.512C791.151 413.154 785.059 419.052 779.008 424.996C776.065 427.904 773.348 430.957 770.672 434.11C768.703 436.337 766.616 438.413 764.5 440.5C761.591 443.39 758.711 446.293 755.938 449.313L754.215 451.176C752.631 453.19 752.63 453.19 753 457C754.155 458.689 754.155 458.689 755.816 460.172C756.412 460.75 757.008 461.327 757.621 461.922C758.262 462.525 758.903 463.129 759.562 463.75C760.866 465.013 762.169 466.277 763.469 467.543C764.401 468.447 764.401 468.447 765.352 469.368C767.191 471.188 768.899 473.081 770.562 475.063C774.196 479.362 778.223 483.249 782.223 487.203C785.862 490.818 789.345 494.504 792.633 498.446C794.072 500.175 794.073 500.175 796.438 501.938C798.611 504.806 798.525 507.163 798.629 510.684C797.683 514.167 795.697 515.653 793 518C789.869 519.346 789.869 519.347 786.371 520.352C785.741 520.537 785.11 520.723 784.461 520.914C782.457 521.5 780.448 522.063 778.438 522.625C777.116 523.009 775.795 523.395 774.475 523.782C766.692 526.04 758.867 528.057 751 530C751.009 531.279 751.018 532.558 751.027 533.876C751.108 545.927 751.168 557.978 751.207 570.03C751.228 576.225 751.256 582.421 751.302 588.617C751.345 594.595 751.37 600.573 751.38 606.551C751.387 608.833 751.401 611.114 751.423 613.396C751.452 616.59 751.456 619.783 751.454 622.977C751.468 623.922 751.483 624.867 751.498 625.841C751.472 630.049 751.379 632.377 749.153 636.037C746.48 638.473 744.154 639.401 740.723 640.535L736.975 641.799C735.671 642.221 734.367 642.642 733.062 643.063C731.793 643.486 730.524 643.912 729.256 644.338C722.152 646.704 715.014 648.944 707.846 651.103C705.048 651.985 702.307 652.966 699.562 654C694.256 655.978 688.859 657.483 683.406 659C680.378 659.889 677.452 660.889 674.5 662C670.44 663.528 666.368 664.78 662.188 665.938C657.438 667.259 652.815 668.74 648.188 670.438C642.344 672.573 636.462 674.393 630.488 676.116C625.347 677.598 620.23 679.148 615.125 680.75C614.453 680.961 613.781 681.172 613.089 681.389C610.386 682.24 607.689 683.104 605 684C599.067 684.329 594.321 683.542 588.688 681.75C587.944 681.523 587.201 681.295 586.435 681.061C581.445 679.515 576.534 677.797 571.645 675.957C568.766 674.916 565.867 674.012 562.938 673.125C557.826 671.577 552.751 669.946 547.688 668.25C546.945 668.002 546.202 667.753 545.437 667.497C541.982 666.34 538.528 665.178 535.075 664.013C524.419 660.417 513.798 656.846 502.953 653.86C499.154 652.754 495.479 651.392 491.777 650C488.711 648.896 485.62 647.941 482.5 647C477.452 645.475 472.503 643.789 467.57 641.926C465.897 641.324 464.204 640.776 462.492 640.293L460.125 639.625L458.07 639.102C454.863 637.395 452.758 635.129 451 632C450.301 628.614 450.367 625.311 450.433 621.864C450.432 620.858 450.43 619.853 450.43 618.817C450.433 615.505 450.472 612.195 450.512 608.883C450.521 606.582 450.528 604.281 450.533 601.981C450.552 595.934 450.601 589.888 450.656 583.841C450.707 577.668 450.731 571.494 450.756 565.321C450.809 553.214 450.895 541.107 451 529C449.729 528.848 448.458 528.695 447.148 528.538C444.195 528.185 441.515 527.7 438.703 526.696C437.615 526.317 437.615 526.317 436.505 525.931C435.761 525.665 435.017 525.399 434.25 525.125C428.95 523.281 423.733 521.609 418.25 520.375C412.633 519.047 409.237 517.238 405.125 513.125C403.562 510.173 403.647 508.321 404 505C405.898 502.008 405.899 502.008 408.375 499.125L410.836 496.196L413 494H415C415.214 493.46 415.427 492.919 415.647 492.363C417.487 489.149 420.007 486.767 422.637 484.203C423.194 483.651 423.752 483.098 424.326 482.529C426.108 480.764 427.898 479.007 429.688 477.25C438.668 468.461 438.668 468.461 447.395 459.422C447.936 458.846 448.477 458.269 449.034 457.675C450.205 456.02 450.206 456.02 449.792 453.927C448.576 450.967 446.298 449.139 444 447C439.358 442.475 434.94 437.849 430.715 432.934C429.04 431.045 427.3 429.269 425.5 427.5C422.497 424.544 419.721 421.451 416.973 418.258C413.732 414.549 410.378 410.942 407.039 407.321C404.753 404.719 404.09 403.662 403.625 400.25C404.113 396.021 405.777 393.644 409 391C412.297 389.519 415.682 388.665 419.188 387.813C420.994 387.341 422.8 386.868 424.605 386.395C425.507 386.165 426.409 385.934 427.338 385.698C431.594 384.582 435.793 383.287 440 382C466.58 373.981 466.58 373.981 479.586 370.86C484.006 369.747 488.324 368.373 492.668 366.996C497.019 365.696 501.422 364.639 505.835 363.575C511.44 362.197 516.909 360.494 522.399 358.722C526.891 357.292 531.333 356.213 535.973 355.403C538.21 355.013 538.21 355.013 541.062 353.875ZM591 521C589.887 521 589.887 521 585.518 525.395C584.56 526.365 584.56 526.365 583.621 527.317C580.891 530.063 578.162 532.811 575.438 535.563C573.388 537.632 571.338 539.701 569.285 541.766C568.613 542.442 567.961 543.098 567.309 543.754C564.221 546.884 561.095 549.962 557.903 552.986C557.185 553.641 556.487 554.277 555.789 554.913C553.946 556.671 553.946 556.672 552 558C547.421 558.727 544.346 558.223 540 556.813C536.59 555.549 533.159 554.4 529.686 553.321C528.313 552.897 526.94 552.471 525.568 552.045C524.827 551.815 524.107 551.59 523.387 551.367C520.574 550.492 517.764 549.611 514.957 548.721C512.305 547.879 509.653 547.039 507 546.201C505.667 545.781 504.333 545.359 503 544.938C500.99 544.297 498.981 543.656 496.969 543.022C496.299 542.811 495.65 542.607 495 542.403C488.998 540.5 488.998 540.5 471 536V622C476.587 624.235 481.578 626.284 487.263 627.875C492.066 629.193 496.818 630.564 501.492 632.289C506.852 634.425 512.123 636.394 517.688 637.938C524.873 639.914 531.912 642.248 538.969 644.633C540.312 645.09 541.656 645.546 543 646C546.191 647.063 549.381 648.129 552.567 649.205C555.317 650.136 558.067 651.063 560.818 651.989C562.317 652.492 563.815 652.996 565.312 653.5C567.533 654.253 569.753 655.006 571.976 655.752C572.702 655.996 573.408 656.233 574.113 656.469C579.714 658.38 585.172 659.705 591 661V521ZM611 661C614 661 614 661 617.074 659.977C621.485 658.327 625.878 656.59 630.418 655.328C633.619 654.587 636.601 653.776 639.688 652.625C643.104 651.296 646.554 650.189 650.062 649.125C654.903 647.659 659.706 646.113 664.5 644.5C668.045 643.304 671.591 642.124 675.172 641.039C681.807 639.069 688.277 636.819 694.75 634.375C699.372 632.589 703.877 630.95 708.73 629.91C711.238 629.393 713.558 628.821 716.004 628.035L718.562 627.063L721.129 626.098L724 625L732 622V536C729 536 729 536 726.581 536.719C719.923 539.038 713.229 541.206 706.496 543.298C705.244 543.686 704.028 544.062 702.812 544.438C694.723 546.945 686.631 549.442 678.5 551.813C674.772 552.887 671.059 553.981 667.371 555.188C663.446 556.474 659.634 557.791 655.527 558.317C651.175 558.435 648.823 557.677 645.585 554.699C645.083 554.191 644.596 553.699 644.108 553.206C643.534 552.628 642.976 552.067 642.418 551.506C641.505 550.58 641.505 550.58 640.609 549.672C637.987 547.034 635.367 544.394 632.75 541.75C630.775 539.755 628.8 537.761 626.821 535.77C626.176 535.12 625.548 534.49 624.922 533.86C624.315 533.245 623.726 532.647 623.138 532.05C622.55 531.459 621.98 530.885 621.409 530.312C618.873 527.749 618.873 527.749 611 521V661ZM736 468C730.129 465.759 730.129 465.759 713.5 472C710.767 473.04 708.087 473.978 705.256 474.713C699.093 476.149 693.113 477.867 687.124 479.905C678.672 482.815 670.226 485.627 661.609 488.012C651.112 490.886 640.605 493.784 630.238 497.104C629.562 497.324 628.906 497.537 628.25 497.75L624.641 498.922C622 500 622 500 621 502C626.41 507.343 631.94 512.604 637.031 518.254C640.198 521.994 643.46 525.61 646.867 529.132C647.465 529.746 648.045 530.342 648.625 530.938C650.662 533.084 652.679 535.159 655 537C659.908 539.055 659.909 539.055 674.139 533.843C679.871 531.724 685.551 529.747 691.5 528.313C694.793 527.544 697.991 526.727 701.188 525.625C704.773 524.382 708.386 523.277 712.027 522.21C719.006 520.176 725.971 518.109 732.914 515.957C734.949 515.326 736.986 514.698 739.023 514.075L742.125 513.125C745.215 512.165 748.304 511.206 751.407 510.287C753.15 509.773 754.893 509.253 756.633 508.728C757.523 508.459 758.386 508.199 759.25 507.938C760.546 507.562 760.547 507.562 761.817 507.194C762.628 506.946 763.416 506.706 764.203 506.465C764.933 506.249 765.641 506.038 766.349 505.827C768 505 768 505 769 502C764.31 497.38 759.524 492.826 755.137 487.914C751.813 483.981 748.356 480.202 744.771 476.505C744.127 475.845 743.501 475.204 742.875 474.563C740.673 472.252 738.496 469.995 736 468ZM470.254 467.071C467 467 467 467 464.523 468.914C461.713 472.46 458.951 476.019 455.801 479.27C452.608 482.382 449.43 485.509 446.26 488.643L443.812 491.063L441.33 493.494L438.957 495.848C436.339 498.427 434.464 500.616 433 504C440.756 506.84 448.46 509.751 456.5 511.688C459.85 512.429 463.072 513.332 466.32 514.426C469.902 515.641 473.497 516.768 477.125 517.838C495.312 523.32 495.312 523.321 513.426 529.041C515.586 529.723 517.747 530.404 519.908 531.083C521.939 531.721 523.97 532.36 526 533C529.417 534.096 532.831 535.185 536.273 536.201C537.2 536.472 538.1 536.737 539 537L542.781 538.246C546.986 537.925 546.987 537.925 552.316 532.436L554.5 530.063C558.689 525.712 562.771 521.291 566.73 516.731C569.303 513.762 571.976 510.972 574.812 508.25C577.538 505.642 579.516 503.487 581 500C578.183 498.983 575.365 498.09 572.457 497.375C567.364 496.166 562.375 494.842 557.415 493.158C553.306 491.746 549.22 490.318 545.012 489.223C538.874 487.788 532.96 486.037 527 484C522.911 482.602 518.851 481.225 514.672 480.121C510.644 479.179 506.702 478.244 502.789 476.887C496.878 474.703 491.007 472.641 484.946 470.915C484.136 470.689 483.349 470.47 482.562 470.25C480.387 469.636 478.214 469.037 476.021 468.489C475.001 468.242 475.001 468.242 474 468L470.254 467.071ZM616.594 432.965C608.901 430.411 601.649 427.559 593.688 430.25C591.203 431.202 588.798 432.053 586.223 432.731C582.208 433.686 578.207 434.634 574.258 435.832C567.834 437.878 561.388 439.729 554.876 441.474C537.829 446.021 520.828 450.693 504 456L505 458L507.09 458.641C512.471 459.792 517.705 461.174 522.91 462.947C530.332 465.5 537.79 467.883 545.311 470.13C546.522 470.49 547.699 470.839 548.875 471.188C554.268 472.796 559.653 474.414 565.113 475.778C571.787 477.39 578.216 479.337 584.688 481.625C592.258 484.333 599.478 487.052 607.527 485.18C609.295 484.504 611.064 483.829 612.842 483.178L614.84 482.461C618.423 481.167 622.036 480.108 625.713 479.112C631.525 477.558 637.291 475.956 642.989 474.023C648.045 472.285 653.047 470.675 658.25 469.438C661.04 468.774 663.743 468.09 666.449 467.141C672.883 464.677 679.365 462.717 686 460.875C687.428 460.487 687.428 460.486 688.828 460.106C689.736 459.855 690.618 459.611 691.5 459.367C694.587 458.53 696.27 457.82 699 456C692.627 454.55 686.394 452.846 680.174 450.846C673.568 448.71 667.003 446.681 660.25 445.063C653.432 443.429 646.759 441.451 640.062 439.375C634.809 437.724 629.602 436.077 624.215 434.918C621.606 434.369 619.154 433.743 616.594 432.965ZM547 374C543.94 373.557 541.677 373.894 538.656 374.367L536.5 374.875C534.993 375.219 533.493 375.597 532 376C527.484 377.526 522.954 378.881 518.362 380.157C510.397 382.359 502.437 384.583 494.492 386.861C493.726 387.081 492.982 387.295 492.238 387.508C489.2 388.38 486.163 389.253 483.125 390.125C473.858 392.788 464.593 395.425 455.25 397.813C447.36 399.826 439.683 402.302 432 405C438.9 413.332 446.212 421.251 453.625 429.125C454.265 429.802 454.887 430.458 455.508 431.115C456.135 431.779 456.743 432.425 457.352 433.071C458.582 434.367 459.798 435.678 461 437C463.874 440.581 466.03 444.623 470.711 445.52L473.375 444.813L476.508 444.043C478.319 443.502 480.131 442.963 481.948 442.444C484.785 441.638 487.615 440.818 490.437 439.96C494.628 438.682 498.821 437.51 503.079 436.476C509.131 435.023 515.074 433.408 521 431.5C526.356 429.775 531.718 428.261 537.188 426.938C540.843 426.054 544.482 425.156 548.086 424.075C563.506 419.483 563.506 419.483 579.095 415.488C580.057 415.242 580.057 415.241 581 415C581 411.892 581 411.892 564.812 394.375C562.287 391.666 559.785 388.953 557.429 386.093L555.836 384.117C554.785 382.83 553.735 381.541 552.688 380.25C550.875 377.902 549.194 376.052 547 374ZM659.289 374.157C656 374 656 374 653.883 375.52L652.125 377.813L650.086 380.352C648.745 382.054 647.357 383.72 645.914 385.336C640.426 391.3 635.154 397.441 629.895 403.606C627.305 406.645 624.708 409.677 622.108 412.708C621.549 413.361 621.549 413.361 621 414C624.426 415.489 627.836 416.523 631.467 417.395C636.134 418.498 640.779 419.636 645.375 421.008C651.218 422.863 657.045 424.554 663 426C666.809 426.925 670.587 427.877 674.344 429C679.91 430.764 685.445 432.387 691.125 433.75C695.194 434.72 699.226 435.771 703.238 436.957C704.442 437.323 705.609 437.677 706.777 438.032C709.207 438.768 711.635 439.508 714.062 440.25C719.056 441.817 724.027 443.469 729.188 444.391C732.479 444.618 733.95 444.037 736.625 442.094L739 439.5C741.821 436.476 744.552 433.384 747.25 430.25C750.648 426.268 754.342 422.615 758.062 418.938C762.626 414.469 766.899 409.9 771 405C767.795 403.505 764.705 402.703 761.25 402.063C757.952 401.5 754.883 400.656 751.723 399.578C748.002 398.309 744.276 397.235 740.469 396.263C732.727 394.31 725.069 392.161 717.438 389.813C713.486 388.572 709.567 387.326 705.509 386.482C700.605 385.556 695.92 384.45 691.177 382.893C683.03 380.174 674.85 377.828 666.516 375.762L663 375L659.289 374.157Z" fill="#FBBD2A"/>
<path d="M685 129C688.375 130.438 688.375 130.438 691 133C692.381 137.137 692.723 140.513 690.793 144.484C688.827 147.242 686.691 149.466 684.25 151.813C681.251 154.703 678.41 157.645 675.695 160.801C671.879 165.21 667.784 169.292 663.625 173.375C662.198 174.776 660.774 176.18 659.352 177.586C658.731 178.195 658.111 178.804 657.471 179.431C655.905 180.951 655.905 180.951 655 183C654.34 183 653.68 183 653 183C652.755 183.572 652.509 184.144 652.257 184.733C650.785 187.387 649.064 189.145 646.895 191.266C645.666 192.478 645.666 192.478 644.412 193.715C643.554 194.551 642.696 195.388 641.812 196.25C636.487 201.465 631.258 206.675 626.418 212.349C623.231 216.06 620.867 218.218 615.922 218.623C610.422 218.508 607.829 215.862 604.06 212.105C603.256 211.258 602.453 210.412 601.625 209.539C600.774 208.678 599.924 207.817 599.048 206.93C596.343 204.182 593.672 201.404 591 198.625C589.173 196.761 587.343 194.899 585.512 193.039C582.179 189.64 578.852 186.236 575.551 182.807C574.887 182.119 574.224 181.43 573.54 180.721C571.339 178.261 571.012 177.105 570.625 173.75C570.999 170.01 571.644 167.863 574.259 165.101C577.845 162.833 581.957 163.246 586 164C588.945 165.666 591.043 167.864 593.32 170.344C594.265 171.309 594.265 171.309 595.228 172.294C597.219 174.341 599.171 176.419 601.125 178.5C602.474 179.899 603.826 181.297 605.18 182.691C608.481 186.102 611.748 189.542 615 193C618.032 190.662 620.7 188.378 623.137 185.426C628.172 179.539 633.749 174.194 639.261 168.759C640.662 167.377 642.06 165.991 643.457 164.605C644.282 163.792 645.107 162.979 645.956 162.141C648.141 159.976 648.141 159.976 650 157C650.66 157 651.32 157 652 157C652.495 155.515 652.495 155.515 653 154C653.66 154 654.32 154 655 154C655.392 153.118 655.392 153.118 655.792 152.219C657.071 149.87 658.423 148.363 660.336 146.504C660.988 145.863 661.64 145.221 662.312 144.561C662.993 143.901 663.674 143.242 664.375 142.563C668.518 138.526 672.412 134.549 676 130C679.11 128.445 681.563 128.714 685 129Z" fill="#FBBD29"/>
<path d="M238.125 306.188C241.773 306.298 243.488 306.594 246.371 308.879C247.854 310.483 249.322 312.101 250.777 313.73C256.34 319.41 262.867 320.246 270.562 320.5C276.906 320.321 281.601 319.308 287 316C288.072 315.361 289.145 314.721 290.25 314.062C293.11 312.079 293.11 312.079 295.312 309.25C298.657 306.45 300.59 306.317 304.844 306.586C308.229 307.236 309.823 308.347 312 311C313.348 315.201 313.263 317.311 311.688 321.438C305.171 331.357 292.203 338.031 281 341C264.673 342.662 251.281 339.961 238 330C234.026 326.648 230.056 323.282 229 318C229.357 311.211 230.712 306.473 238.125 306.188Z" fill="#FBBD2A"/>
<path d="M279.846 44.639C293.75 44.5757 307.26 46.4387 320.375 51.2504C321.217 51.5541 322.059 51.8574 322.926 52.1703C337.148 57.4973 350.143 67.5616 359 80.0004C360.219 83.2695 360.219 83.27 361 86.0004L363.422 85.8597C377.546 85.3956 389.628 90.0815 400.543 99.1019C405.852 104.136 409.639 109.53 413 116L414.559 118.856C427.675 144.664 426.445 181.826 418 209C416.71 212.875 415.382 216.737 414.035 220.592L413.242 222.918C413.004 223.607 412.765 224.295 412.52 225.004C411.833 227.301 411.832 227.302 412 231C414.199 232.977 414.2 232.977 417.062 234.75C426.447 241.308 432.717 248.818 436 260C437.891 272.908 435.629 283.899 428.375 294.75C420.391 305.076 409.711 309.882 397 312C395.564 312.063 394.125 312.087 392.688 312.063L389 312L388.668 313.688L388.188 316L387.73 318.25C383.113 335.633 372.94 350.831 361 364C360.524 364.526 360.049 365.052 359.559 365.593C352.814 372.92 345.239 379.407 337 385H335L335.496 388.375C336.107 393.26 336.112 398.084 336.062 403L336.049 405.637C336.037 407.758 336.019 409.879 336 412C338.77 412.628 341.541 413.253 344.312 413.875L346.635 414.403C350.808 415.338 354.977 416.185 359.191 416.914C366.075 418.142 372.839 419.828 379.625 421.5C382.138 422.116 384.651 422.73 387.164 423.344C388.34 423.633 389.516 423.921 390.728 424.219C393.547 424.892 396.369 425.502 399.207 426.086C403.693 427.167 405.422 428.175 408 432C408.637 434.81 408.63 437.19 408 440C406.206 442.81 404.981 444.51 402 446C396.436 446.283 392.362 445.636 387 444C385.441 443.713 383.877 443.444 382.312 443.188C376.883 442.247 371.585 440.928 366.25 439.563C358.954 437.696 351.666 436.052 344.262 434.676C340.769 433.953 337.417 433.018 334 432L333.711 435.516C333.134 440.051 331.69 443.699 329.625 447.75C329.275 448.44 328.925 449.129 328.564 449.839C319.564 466.696 304.257 476.618 286.289 482.141C270.504 485.848 252.938 483.859 238.711 476.239C223.996 467.056 212.774 453.786 208 437C207.967 435.334 207.962 433.666 208 432C207.403 432.106 206.806 432.211 206.19 432.32C203.357 432.819 200.522 433.316 197.688 433.813C196.116 434.089 196.115 434.088 194.512 434.37C188.934 435.341 183.354 436.265 177.754 437.1C166.902 438.723 156.241 441.031 145.54 443.442C143.374 443.918 141.206 444.362 139.027 444.778C130.271 446.477 122.141 449.266 113.799 452.353C111.7 453.108 109.577 453.747 107.438 454.375C91.2315 459.736 75.6728 469.822 63 481L61.1133 482.633C55.0836 488.227 50.6029 495.235 46 502L43.9453 505C40.1053 510.802 37.365 516.479 35 523L33.5312 526.657C29.9388 535.66 27.6476 544.421 26 554C25.7346 555.359 25.4649 556.717 25.1914 558.075C23.5943 566.12 22.6886 573.737 22 582H115V571C115.337 562.349 115.337 562.348 118.125 558.5C121.591 555.486 123.431 554.919 128 555C132.252 556.74 133.958 558.965 136 563C136.328 565.512 136.328 565.513 136.25 568.356C136.209 570.069 136.209 570.069 136.168 571.818C136.114 573.212 136.058 574.606 136 576C135.969 576.836 135.938 577.672 135.905 578.533C135.642 585.461 135.324 592.387 135 599.313C134.903 601.421 134.807 603.53 134.711 605.639C134.477 610.759 134.24 615.88 134 621C143.685 620.962 153.369 620.902 163.054 620.816C167.552 620.776 172.05 620.744 176.549 620.729C180.9 620.714 185.25 620.679 189.601 620.631C191.25 620.617 192.901 620.609 194.551 620.608C213.428 620.588 227.467 615.73 241.188 602.313C246.982 596.417 251.596 590.003 256 583L258.086 579.84C266.819 565.805 272.139 548.544 273.188 532.051C273.696 524.122 275.599 520.011 281.625 514.688C287.684 509.647 294.45 510.336 302 511C305.757 512.147 308.772 513.782 312 516L313.918 517.282C321.647 523.151 326.592 532.115 328.57 541.504C330.158 554.419 330.124 568.934 325.454 581.185C325.182 581.901 324.911 582.616 324.631 583.354C324.423 583.897 324.214 584.441 324 585C324.55 584.991 325.1 584.982 325.666 584.973C331.442 584.884 337.218 584.824 342.994 584.781C345.143 584.761 347.292 584.733 349.441 584.699C375.225 584.291 375.225 584.291 385.254 591.262C393.383 599.804 395.485 606.282 395.656 617.977C395.445 624.275 392.919 627.741 389.293 632.649L388 635C389.343 638.43 389.343 638.43 390.844 640.512C393.787 646.846 393.241 656.409 390.977 662.961C389.781 665.142 388.536 667.049 387 669L385.457 671.231L384 673H382L383.438 675.625C386.787 682.861 387.541 692.756 385.281 700.446C383.68 703.843 382.189 705.838 379.312 708.313C376.222 711.905 376.524 714.553 376.289 719.161C375.542 726.499 371.25 733.895 366 739C359.728 743 353.935 745.101 346.515 745.177C345.41 745.19 344.304 745.202 343.165 745.215C341.37 745.227 341.37 745.227 339.539 745.239C338.293 745.248 337.047 745.258 335.763 745.268C331.717 745.293 327.671 745.307 323.625 745.313C322.599 745.315 322.599 745.314 321.553 745.316C267.49 745.379 267.49 745.38 246 735C245.291 734.664 244.583 734.327 243.853 733.981C231.999 728.332 231.998 728.332 227 725C223.888 724.733 223.888 724.733 220.25 724.848C219.199 724.865 219.199 724.865 218.127 724.882C215.751 724.928 213.375 724.994 211 725.063C209.757 725.095 209.757 725.095 208.488 725.127C180.84 725.88 153.279 728.759 125.751 731.3C112.91 732.48 100.141 733.395 87.2412 733.425C84.7713 733.437 82.3034 733.488 79.834 733.537C69.7557 733.639 62.1719 732.492 53 728C52.0204 727.544 51.0405 727.087 50.0312 726.618C38.504 721.094 29.6368 711.769 23 701L20.8125 697.75C15.2423 687.69 13.8098 675.569 13.8438 664.274C13.8455 663.318 13.8468 662.363 13.8486 661.378C13.9357 649.437 14.7246 637.538 15.5 625.625C15.6451 623.317 15.7897 621.008 15.9336 618.7C16.2819 613.133 16.6378 607.566 17 602L13.7031 602.075C9.52826 601.991 7.46805 601.286 4 599C1.21548 596.03 0.793271 593.432 0.6875 589.5C0.759761 587.333 0.869716 585.165 1 583C1.05583 581.933 1.05634 581.932 1.11328 580.843C1.90962 566.801 4.67251 553.539 8.23828 539.955C8.75247 537.96 9.24387 535.958 9.71289 533.952C11.3006 527.201 13.3896 520.968 16.1875 514.625C16.5848 513.718 16.9823 512.81 17.3916 511.874C28.6973 486.482 45.6276 465.197 69 450C69.5557 449.632 70.112 449.263 70.6846 448.883C78.1514 443.954 85.6389 440.147 94 437L97.6758 435.575C101.766 433.999 105.878 432.488 110 431L112.214 430.198C121.366 426.912 130.287 424.311 139.891 422.711C143.561 422.1 147.183 421.327 150.815 420.524C159.31 418.648 167.793 417.24 176.413 416.078C182.932 415.189 189.341 414.024 195.773 412.649C199.17 411.966 202.567 411.461 206 411C208.126 396.915 208.126 396.915 204.575 383.685C200.903 379.805 196.504 377.019 191.962 374.255C174.357 362.987 159.581 337.436 154.062 317.637C153.615 315.442 153.287 313.222 153 311L150.867 311.141C139.453 311.558 128.673 309.521 119.891 301.844L118 300L116.297 298.344C107.99 289.45 104.394 278.212 104.621 266.223C106.056 254.017 112.636 244.321 121.852 236.606C130.868 229.868 137.926 228.867 149 229V211H141C138.737 210.613 136.484 210.155 134.25 209.625C129.671 208.569 125.154 207.705 120.5 207.063C115.64 206.279 112.679 205.292 109 202C102.797 192.911 107.437 174.755 109.161 164.769C116.032 128.439 140.744 96.5884 170.695 75.8246C188.823 63.4857 207.732 54.6936 229.125 49.6879C230.16 49.4454 231.196 49.2024 232.263 48.9525C245.884 45.9359 259.312 44.6425 273.227 44.684C275.433 44.6871 277.639 44.6642 279.846 44.639ZM301.23 532.286C298.361 530.632 296.256 530.773 293 531C292.419 540.894 291.237 549.947 287.965 559.309L287 562C280.39 581.085 271.448 598.617 257.488 613.469L255 616C249.21 621.974 243.273 627.51 236.164 631.894C235.166 632.484 235.166 632.485 234.188 633.063C211.2 641.077 211.2 641.077 186.423 640.409C183.838 640.402 181.252 640.4 178.667 640.402C172.55 640.41 166.433 640.412 160.315 640.397C153.991 640.38 147.666 640.375 141.341 640.391C135.835 640.405 130.33 640.412 124.824 640.407C122.202 640.403 119.579 640.401 116.957 640.399C113.198 640.409 109.438 640.417 105.679 640.404C104.509 640.398 103.373 640.393 102.237 640.388C97.1008 640.417 92.5948 640.704 87.8467 638.606C85.8631 637.138 85.8624 637.139 85.2227 634.914C84.9148 630.515 84.5664 626.894 87 623C89.8782 621.908 89.8784 621.908 92.5439 621.794C93.5636 621.757 94.5533 621.721 95.543 621.684L98.7949 621.557L102.188 621.438C104.41 621.353 106.633 621.268 108.855 621.184L114 621V602H37C35.6667 621.5 33.9465 641.097 33.6426 660.661L33.625 663.688C33.5093 671.453 34.5698 678.593 37 686L39 689C41.4773 692.844 44.06 696.494 47 700C56.7904 708.921 67.5751 713.615 80.8262 713.489L84.5625 713.375C91.1009 713.3 97.5888 713.149 104.103 712.555C117.64 711.324 117.64 711.325 131.186 710.184C133.895 709.957 136.604 709.73 139.312 709.5C155.327 708.114 171.288 706.873 187.355 706.407C193.777 706.25 200.168 706.143 206.562 705.485C210.362 705.043 214.11 704.844 217.936 704.815L220.188 704.813C226.451 704.711 232.451 704.767 237.949 708.227C247.81 716.16 261.556 721.118 274.062 722.438C276.375 722.623 278.688 722.81 281 723C284 724 284 724 286.884 724.134C288.094 724.138 289.269 724.141 290.443 724.145C292.507 724.156 294.57 724.164 296.634 724.166C298.111 724.167 299.588 724.169 301.064 724.172C304.142 724.179 307.22 724.186 310.298 724.186C314.303 724.185 318.308 724.188 322.313 724.205C325.437 724.219 328.561 724.227 331.685 724.229C333.175 724.229 334.666 724.23 336.156 724.231C338.301 724.242 340.445 724.252 342.59 724.248C343.259 724.246 343.908 724.244 344.557 724.243C348.116 724.247 348.116 724.248 351 724C354.011 721.993 354.63 721.161 356 718C353.9 717.901 351.799 717.8 349.699 717.694L347.125 717.563L344.574 717.444L342.133 717.317C341.367 717.279 340.623 717.242 339.88 717.205C337.068 716.898 336.144 716.17 334.312 714C332.52 709.904 332.735 706.276 334 702C335.721 699.701 336.588 699.062 339.465 698.631C340.452 698.63 341.409 698.63 342.367 698.629C344.536 698.593 346.706 698.572 348.875 698.563C352.947 698.56 356.961 698.557 361 698C364.141 696.261 365.554 695.418 366.629 692L366.562 690C366.568 687.257 366.068 686.103 364.535 683.793C361.368 681.553 361.368 681.553 355.348 681.342C351.561 681.297 347.783 681.167 344 681C340.276 678.225 340.276 678.225 338 674C337.694 670.813 337.567 668.866 339 666C341.091 663.473 342.28 662.151 345.534 661.47C346.957 661.448 346.957 661.448 348.352 661.426L351.43 661.342C353.568 661.323 355.706 661.291 357.844 661.248L360.914 661.176C363.718 661.142 365.493 661.254 368 660C371.417 657.235 372.854 655.83 373.625 651.438C373 648 373 648 371.066 645.828C367.456 643.676 365.032 643.48 360.904 643.342C359.165 643.322 357.425 643.291 355.686 643.248L353.176 643.176C351.783 643.155 350.389 643.105 349 643C346.193 641.597 344.885 640.577 343 638C342.31 634.545 341.989 631.393 343 628C347.216 624.018 350.949 623.519 356.49 623.342C358.3 623.323 360.11 623.291 361.92 623.248L364.543 623.176C366.03 623.155 367.517 623.101 369 623C372.48 621.84 373.781 620.907 376 618C376.294 614.595 376.546 612.092 375 609C372.434 606.557 370.755 605.134 367.23 604.508C366.196 604.511 365.192 604.515 364.188 604.518C363.008 604.511 361.863 604.503 360.719 604.496C359.454 604.508 358.227 604.52 357 604.532C351.666 604.502 346.334 604.487 341 604.5C336.948 604.51 332.896 604.512 328.844 604.49C327.537 604.482 326.268 604.476 325 604.469C323.736 604.481 322.508 604.492 321.281 604.503C320.102 604.496 318.957 604.49 317.812 604.483C314.8 604.583 314.8 604.583 312 604C307.93 601.213 305.25 598.417 303 594C302.254 589.456 302.537 586.06 304.391 581.817C305.989 578.264 306.886 574.738 307.688 570.932C307.858 570.063 308.022 569.219 308.188 568.375C309.544 561.446 310.607 554.72 310.309 547.629C309.492 540.676 306.334 536.921 301.23 532.286ZM316 395C314 395 314 395 311.262 395.989C288.557 404.401 260.449 406.895 237.438 398.438C233.603 396.944 230.041 395.753 226 395C225.938 398.764 225.886 402.527 225.854 406.291C225.841 407.84 225.828 409.389 225.812 410.938C225.672 419.197 224.999 427.498 228.19 435.292C228.599 436.155 228.599 436.155 229 437C231.148 441.864 234.009 445.862 237.496 449.868C246.19 458.873 257.013 464.118 269.625 464.625C283.469 463.902 295.356 458.873 305 449C314.482 438.054 316.641 425.847 316.302 411.775C316.267 410.36 316.24 408.945 316.22 407.531C316.172 403.353 316.1 399.177 316 395ZM323 156C295.563 184.427 263.764 202.131 224.785 209.485C223.838 209.66 222.919 209.83 222 210C210.041 212.289 198.222 213.215 186.062 213.522C184.537 213.56 183.013 213.599 181.488 213.641C177.943 213.74 174.398 213.836 170.853 213.928C169.883 213.953 168.941 213.977 168 214C167.979 222.638 167.962 231.277 167.951 239.914C167.946 244.325 167.942 248.736 167.932 253.147C167.921 257.461 167.91 261.775 167.906 266.088C167.905 267.736 167.904 269.384 167.902 271.032C167.894 273.39 167.886 275.749 167.886 278.108C167.886 278.853 167.887 279.576 167.887 280.299C167.843 305.641 177.972 332.041 195.473 350.469L198 353C209.44 364.633 221.889 373.164 237.301 378.715L241 380C244.445 381.312 247.807 382.406 251.383 383.309C275.774 387.703 302.841 383.163 323.719 369.578L326 368C345.635 354.949 363.198 334.834 369.12 311.502C369.419 310.312 369.71 309.156 370 308C373.251 296.37 374.578 285.661 374.484 273.583C374.469 271.758 374.459 269.933 374.457 268.108C374.458 264.26 374.455 260.411 374.433 256.563C374.398 251.603 374.371 246.644 374.371 241.684C374.372 237.777 374.368 233.871 374.356 229.964C374.349 228.105 374.342 226.246 374.336 224.387C374.334 221.731 374.33 219.075 374.311 216.418C374.304 215.592 374.298 214.789 374.291 213.987C374.294 211.29 374.201 208.697 374 206C371.599 199.669 371.599 199.668 360.008 192.498C347.219 184.612 337.764 176.128 329.258 163.682C327.355 160.88 325.53 158.271 323 156ZM149 248C142.76 248 140.167 247.772 135.312 251.188C130.093 255.328 125.544 259.962 124.625 266.782C124.448 275.014 126.42 280.049 131.938 286.129C137.204 290.907 141.983 292 149 292V248ZM393 292C400.484 292 405.961 289.96 411.375 284.688L413 282C414.631 279.405 416.002 276.906 417 274C417.904 266.248 415.756 261.104 411 255C404.973 249.546 401.536 248.949 393 248V292ZM275.75 64.8754C265.747 64.8408 256.42 65.7018 246.561 67.3636L243.562 67.8754C237.221 68.9123 231.157 70.0887 225.094 72.2455C223.731 72.7366 222.36 73.2081 220.982 73.6566C203.406 79.2623 186.89 87.7788 172.396 99.2719C144.675 122.284 129.588 152.494 126 188C130.783 188.906 135.573 189.759 140.374 190.564L143 191C166.66 195.005 190.812 195.697 214.518 191.637L217.438 191.125C255.846 184.677 290.519 166.549 313.727 134.625C315.836 131.684 317.66 129.272 320.5 127C324.302 125.479 327.372 125.458 331.25 126.75C334.24 129.854 334.24 129.855 335.818 134.008C342.546 151.586 350.763 164.535 367.115 174.588C373.202 178.256 379.251 181.791 384.56 186.555C392.464 194.484 392.811 204.756 392.992 215.266L393 219H394C397.948 207.821 401.17 196.769 402.539 184.965C404.585 162.601 406.154 136.563 391.125 118.125C381.631 108.043 371.234 104.677 357.662 104.239C355.774 104.183 353.887 104.094 352 104C349.802 103.107 349.802 103.107 348.484 100.743C345.051 95.0671 341.65 89.7457 337 85.0004C320.833 68.8055 301.344 64.8898 279.094 64.8636L275.75 64.8754Z" fill="#FBBD29"/>
<path d="M318 233C320.977 234.773 323.428 236.856 325 240C325.293 243.431 325.278 246.871 325.312 250.313C325.342 251.263 325.371 252.214 325.4 253.193C325.441 257.637 325.461 260.244 323.105 264.106C319.819 267.063 317.47 267.337 313.039 267.289C309.835 266.835 308.173 265.304 306 263C304.579 258.737 304.735 254.654 304.688 250.188C304.658 249.297 304.629 248.407 304.6 247.49C304.543 241.666 305.144 238.443 309 234C312.149 232.425 314.52 232.652 318 233Z" fill="#FBBE2D"/>
<path d="M229 233C231.857 234.603 233.202 235.381 235 238C235.876 242.015 235.793 245.907 235.688 250C235.702 251.08 235.717 252.161 235.732 253.273C235.65 261.119 235.65 261.119 232.645 265.191C229.581 267.287 227.706 267.923 224 268C220.864 267.271 219.45 266.54 217.387 264.066C215.359 259.582 215.487 255.43 215.5 250.563C215.472 249.634 215.443 248.705 215.414 247.748C215.401 243.225 215.485 240.001 218.406 236.402C222.065 233.014 224.022 232.426 229 233Z" fill="#FBBD2A"/>
<path d="M685 129C685.33 129.66 685.66 130.32 686 131C684.397 131.337 682.792 131.669 681.188 132C680.294 132.186 679.401 132.371 678.48 132.562C676 133 676 133 673 133C677.001 129.12 679.481 128.567 685 129Z" fill="#FBC246"/>
<path d="M299 399C299 399.66 299 400.32 299 401C295.7 401.33 292.4 401.66 289 402C289 401.34 289 400.68 289 400C292.38 398.96 295.478 398.92 299 399Z" fill="#FBC038"/>
<path d="M634 542C637.367 543.393 638.986 544.979 641 548C638 548 638 548 635.812 546.125C634 544 634 544 634 542Z" fill="#FBBF38"/>
<path d="M402 179C402.33 179 402.66 179 403 179C403.251 180.413 403.475 181.831 403.688 183.25C403.815 184.039 403.943 184.828 404.074 185.641C404 188 404 188 401 192C401.33 187.71 401.66 183.42 402 179Z" fill="#FCD171"/>
<path d="M452 456C450.607 459.367 449.021 460.986 446 463C445.34 462.67 444.68 462.34 444 462C444.952 460.994 445.912 459.995 446.875 459C447.409 458.443 447.942 457.886 448.492 457.312C450 456 450 456 452 456Z" fill="#FBC242"/>
<path d="M331 78C332.98 78.99 332.98 78.99 335 80C335 80.66 335 81.32 335 82C335.99 82.33 336.98 82.66 338 83C337.34 83.66 336.68 84.32 336 85C334.291 83.3766 332.626 81.7068 331 80C331 79.34 331 78.68 331 78Z" fill="#FCC23C"/>
</g>
<defs>
<clipPath id="clip0_1_2">
<rect width="800" height="800" fill="white"/>
</clipPath>
</defs>
</svg>
