<?xml version="1.0" encoding="UTF-8" ?>
<svg version="1.1" xmlns="http://www.w3.org/2000/svg" width="800" height="800">
<path
        d="M0 0 C264 0 528 0 800 0 C800 264 800 528 800 800 C536 800 272 800 0 800 C0 536 0 272 0 0 Z "
        fill="#FFFFFF"
        transform="translate(0,0)"
    />
<path
        d="M0 0 C2.20679907 0.00316824 4.41226041 -0.02046495 6.61889648 -0.0456543 C20.52301781 -0.10903172 34.03362324 1.75397189 47.14819336 6.56567383 C47.98979004 6.86940918 48.83138672 7.17314453 49.69848633 7.48608398 C63.92126745 12.81310206 76.91616277 22.87675586 85.77319336 35.31567383 C86.99194336 38.58520508 86.99194336 38.58520508 87.77319336 41.31567383 C88.57241211 41.26926758 89.37163086 41.22286133 90.19506836 41.17504883 C104.31961313 40.71086191 116.401056 45.39676461 127.31616211 54.41723633 C132.62559036 59.45096563 136.41173944 64.84557729 139.77319336 71.31567383 C140.54469727 72.72913086 140.54469727 72.72913086 141.33178711 74.17114258 C154.44842757 99.97919575 153.21802347 137.14141693 144.77319336 164.31567383 C143.48306706 168.19042012 142.15508224 172.05205706 140.80834961 175.9074707 C140.54666992 176.67510742 140.28499023 177.44274414 140.01538086 178.23364258 C139.77674316 178.92224365 139.53810547 179.61084473 139.29223633 180.3203125 C138.60536204 182.61724182 138.60536204 182.61724182 138.77319336 186.31567383 C140.97285912 188.29238297 140.97285912 188.29238297 143.83569336 190.06567383 C153.22053686 196.62303243 159.49046716 204.13352521 162.77319336 215.31567383 C164.66401797 228.22323842 162.40208531 239.21420388 155.14819336 250.06567383 C147.16459968 260.39131805 136.48429307 265.19715721 123.77319336 267.31567383 C122.33690879 267.37833895 120.89813786 267.40253729 119.46069336 267.37817383 C118.24381836 267.35754883 117.02694336 267.33692383 115.77319336 267.31567383 C115.60883789 268.15098633 115.60883789 268.15098633 115.44116211 269.00317383 C115.28260742 269.76629883 115.12405273 270.52942383 114.96069336 271.31567383 C114.73446289 272.42942383 114.73446289 272.42942383 114.50366211 273.56567383 C109.88647187 290.94803709 99.71296876 306.14609787 87.77319336 319.31567383 C87.29736816 319.84128906 86.82154297 320.3669043 86.33129883 320.90844727 C79.5864572 328.23552567 72.01185193 334.72212213 63.77319336 340.31567383 C63.11319336 340.31567383 62.45319336 340.31567383 61.77319336 340.31567383 C61.9369043 341.42942383 62.10061523 342.54317383 62.26928711 343.69067383 C62.8798865 348.57546898 62.88477833 353.39962527 62.83569336 358.31567383 C62.83118164 359.18579102 62.82666992 360.0559082 62.82202148 360.95239258 C62.81036696 363.07351676 62.79243693 365.19460493 62.77319336 367.31567383 C65.54341849 367.94346962 68.31432852 368.56794484 71.08569336 369.19067383 C72.23521484 369.45170898 72.23521484 369.45170898 73.40795898 369.71801758 C77.58096175 370.65304724 81.75060124 371.50018105 85.96459961 372.22973633 C92.84792759 373.4571133 99.61169199 375.14353586 106.39819336 376.81567383 C108.91103 377.43100985 111.42404679 378.04561071 113.93725586 378.65942383 C115.11328369 378.94833496 116.28931152 379.23724609 117.50097656 379.53491211 C120.32011781 380.20756851 123.14182698 380.81756471 125.98022461 381.40161133 C130.46659971 382.4827769 132.19502641 383.49000674 134.77319336 387.31567383 C135.41012274 390.12498733 135.40332522 392.50562633 134.77319336 395.31567383 C132.97955425 398.12570843 131.75438401 399.8250785 128.77319336 401.31567383 C123.20889553 401.59860423 119.13480157 400.95141871 113.77319336 399.31567383 C112.21373968 399.02781768 110.6506988 398.75913266 109.08569336 398.50317383 C103.65591647 397.56211208 98.3579702 396.24321073 93.02319336 394.87817383 C85.72678517 393.01146054 78.43906471 391.36759747 71.03491211 389.99145508 C67.54230955 389.26783802 64.19025959 388.3334312 60.77319336 387.31567383 C60.67780273 388.47583008 60.58241211 389.63598633 60.48413086 390.83129883 C59.90772678 395.36674134 58.46364813 399.01374051 56.39819336 403.06567383 C56.04805176 403.7552417 55.69791016 404.44480957 55.3371582 405.15527344 C46.3364382 422.01162835 31.02978403 431.93364806 13.06225586 437.45629883 C-2.72291122 441.16299093 -20.28922897 439.17416258 -34.51586914 431.55395508 C-49.23070528 422.37115227 -60.45277692 409.10177833 -65.22680664 392.31567383 C-65.25967007 390.64933119 -65.26495921 388.98190375 -65.22680664 387.31567383 C-65.82404541 387.42113525 -66.42128418 387.52659668 -67.03662109 387.63525391 C-69.87054814 388.1346255 -72.70486267 388.63174453 -75.53930664 389.12817383 C-77.11131836 389.40383179 -77.11131836 389.40383179 -78.71508789 389.68505859 C-84.29328643 390.65608147 -89.87282764 391.58088573 -95.47290039 392.41601562 C-106.32467053 394.03931443 -116.98605168 396.347116 -127.68725586 398.75756836 C-129.85378343 399.23369622 -132.02068331 399.67755059 -134.19946289 400.09301758 C-142.95625788 401.7920972 -151.08616783 404.58118093 -159.42797852 407.66821289 C-161.52650397 408.42354534 -163.64984433 409.06190055 -165.78930664 409.69067383 C-181.99532057 415.05088346 -197.55393767 425.13734352 -210.22680664 436.31567383 C-210.84942383 436.85450195 -211.47204102 437.39333008 -212.11352539 437.94848633 C-218.14329993 443.54254289 -222.62389124 450.55003435 -227.22680664 457.31567383 C-227.90485352 458.30567383 -228.58290039 459.29567383 -229.28149414 460.31567383 C-233.12161359 466.11705599 -235.86172252 471.79377519 -238.22680664 478.31567383 C-238.71149414 479.52223633 -239.19618164 480.72879883 -239.69555664 481.97192383 C-243.28806679 490.97536152 -245.57920729 499.73591954 -247.22680664 509.31567383 C-247.49226583 510.67454857 -247.76188338 512.03261678 -248.03540039 513.38989258 C-249.63255437 521.43509583 -250.53814587 529.05174458 -251.22680664 537.31567383 C-220.53680664 537.31567383 -189.84680664 537.31567383 -158.22680664 537.31567383 C-158.22680664 533.68567383 -158.22680664 530.05567383 -158.22680664 526.31567383 C-157.88972514 517.66391544 -157.88972514 517.66391544 -155.10180664 513.81567383 C-151.63574544 510.80170756 -149.79532436 510.23409315 -145.22680664 510.31567383 C-140.97497775 512.05505838 -139.2687901 514.27992846 -137.22680664 518.31567383 C-136.89868164 520.828125 -136.89868164 520.828125 -136.97680664 523.67114258 C-137.01741211 525.38503174 -137.01741211 525.38503174 -137.05883789 527.13354492 C-137.11286989 528.52766514 -137.16906065 529.92170251 -137.22680664 531.31567383 C-137.25822754 532.15132874 -137.28964844 532.98698364 -137.32202148 533.84796143 C-137.5850449 540.77656004 -137.90231455 547.70222769 -138.22680664 554.62817383 C-138.32343093 556.73688543 -138.41978723 558.84560932 -138.51586914 560.9543457 C-138.74975946 566.0749354 -138.987274 571.1953451 -139.22680664 576.31567383 C-129.54191276 576.27743182 -119.85744426 576.21780444 -110.17285633 576.13177109 C-105.67463148 576.09246375 -101.17659748 576.06019398 -96.67822266 576.04467773 C-92.32724257 576.02939977 -87.97678781 575.99476054 -83.62604332 575.94736481 C-81.97613816 575.93266478 -80.32615794 575.92463944 -78.67618752 575.92378998 C-59.79861448 575.90431845 -45.75945674 571.04527278 -32.03930664 557.62817383 C-26.24499046 551.73207192 -21.63112024 545.31803758 -17.22680664 538.31567383 C-16.19426758 536.75139648 -16.19426758 536.75139648 -15.14086914 535.15551758 C-6.40822913 521.11972261 -1.08786955 503.85947588 -0.03930664 487.36645508 C0.46881154 479.43769423 2.37161444 475.32665187 8.39819336 470.00317383 C14.45726138 464.96277008 21.22280956 465.65124005 28.77319336 466.31567383 C32.53000141 467.46248892 35.5455152 469.09701389 38.77319336 471.31567383 C39.40612305 471.73848633 40.03905273 472.16129883 40.69116211 472.59692383 C48.42009056 478.46613219 53.36558326 487.43055241 55.34350586 496.81958008 C56.93085613 509.73483908 56.89772198 524.24919593 52.22753906 536.50048828 C51.9556929 537.21630569 51.68384674 537.93212311 51.40376282 538.66963196 C51.1956749 539.21282578 50.98758698 539.75601959 50.77319336 540.31567383 C51.32283752 540.30679138 51.87248169 540.29790894 52.43878174 540.28875732 C58.21485886 540.19952792 63.99073688 540.13962994 69.76733398 540.09594727 C71.91650357 540.07596399 74.06561971 540.04876789 76.21459961 540.01391602 C101.99824152 539.60655364 101.99824152 539.60655364 112.02709961 546.57739258 C120.15658766 555.119545 122.25780694 561.59760201 122.42895508 573.29272461 C122.21728938 579.59088928 119.69253392 583.05656624 116.06616211 587.96411133 C115.63948242 588.74012695 115.21280273 589.51614258 114.77319336 590.31567383 C116.11654518 593.7454681 116.11654518 593.7454681 117.61694336 595.82739258 C120.56004849 602.16103436 120.01448645 611.72445184 117.74975586 618.27661133 C116.55409957 620.45777825 115.30964932 622.36372556 113.77319336 624.31567383 C113.26401367 625.05172852 112.75483398 625.7877832 112.23022461 626.54614258 C111.7494043 627.13008789 111.26858398 627.7140332 110.77319336 628.31567383 C110.11319336 628.31567383 109.45319336 628.31567383 108.77319336 628.31567383 C109.24756836 629.18192383 109.72194336 630.04817383 110.21069336 630.94067383 C113.56033158 638.17589238 114.31463644 648.07141638 112.05444336 655.76098633 C110.45277716 659.15806868 108.9622955 661.15295804 106.08569336 663.62817383 C102.99482783 667.22026079 103.29725627 669.86858527 103.06225586 674.47583008 C102.31531022 681.81406627 98.0235527 689.20992185 92.77319336 694.31567383 C86.50088084 698.31526551 80.70808081 700.41709451 73.28735352 700.49267578 C72.18225433 700.50531967 71.07715515 700.51796356 69.93856812 700.5309906 C68.14354355 700.54235802 68.14354355 700.54235802 66.31225586 700.55395508 C65.06618561 700.56374893 63.82011536 700.57354279 62.5362854 700.58363342 C58.49021453 700.60887797 54.44432915 700.62232694 50.39819336 700.62817383 C49.37256538 700.62989971 49.37256538 700.62989971 48.32621765 700.63166046 C-5.73655864 700.69515694 -5.73655864 700.69515694 -27.22680664 690.31567383 C-27.93562988 689.97922852 -28.64445313 689.6427832 -29.37475586 689.29614258 C-41.22872862 683.64772584 -41.22872862 683.64772584 -46.22680664 680.31567383 C-49.33864305 680.04781132 -49.33864305 680.04781132 -52.97680664 680.16333008 C-54.02794899 680.18029434 -54.02794899 680.18029434 -55.10032654 680.19760132 C-57.47638235 680.24343007 -59.851318 680.30909052 -62.22680664 680.37817383 C-63.47000168 680.41009323 -63.47000168 680.41009323 -64.73831177 680.44265747 C-92.38650284 681.1954346 -119.94758255 684.07476377 -147.4760437 686.61557007 C-160.31699498 687.79579317 -173.08582912 688.71129259 -185.98583984 688.74121094 C-188.45576931 688.75337808 -190.92339319 688.80316711 -193.39282227 688.8527832 C-203.47112982 688.95406079 -211.05481397 687.80718977 -220.22680664 683.31567383 C-221.20641357 682.8595874 -222.18602051 682.40350098 -223.1953125 681.93359375 C-234.72284502 676.41014264 -243.58997143 667.08417266 -250.22680664 656.31567383 C-250.94868164 655.24317383 -251.67055664 654.17067383 -252.41430664 653.06567383 C-257.98458824 643.00555318 -259.41703729 630.88450729 -259.38305664 619.58911133 C-259.38132446 618.63370453 -259.37959229 617.67829773 -259.37780762 616.69393921 C-259.29077509 604.75233149 -258.50225674 592.85346091 -257.72680664 580.94067383 C-257.58164926 578.63211936 -257.43711497 576.32352563 -257.29321289 574.01489258 C-256.9448909 568.44801536 -256.58901479 562.88166394 -256.22680664 557.31567383 C-257.31477539 557.34016602 -258.40274414 557.3646582 -259.52368164 557.38989258 C-263.69861768 557.3062177 -265.75864885 556.6015051 -269.22680664 554.31567383 C-272.01142401 551.3454153 -272.4335532 548.74721349 -272.53930664 544.81567383 C-272.46704114 542.64770869 -272.35710083 540.48092637 -272.22680664 538.31567383 C-272.17097412 537.24784668 -272.17097412 537.24784668 -272.11401367 536.15844727 C-271.31766603 522.1158921 -268.55410801 508.85442525 -264.98828125 495.27075195 C-264.47406015 493.27519819 -263.98320403 491.27349863 -263.51416016 489.2668457 C-261.9264271 482.51587178 -259.83727407 476.283337 -257.03930664 469.94067383 C-256.64203369 469.03293213 -256.24476074 468.12519043 -255.83544922 467.18994141 C-244.5296864 441.79757189 -227.59929432 420.51279207 -204.22680664 405.31567383 C-203.67105957 404.94716309 -203.1153125 404.57865234 -202.54272461 404.19897461 C-195.07577328 399.2699539 -187.58814065 395.46263145 -179.22680664 392.31567383 C-177.40729492 391.60991211 -177.40729492 391.60991211 -175.55102539 390.88989258 C-171.46097208 389.31466588 -167.34934152 387.80359008 -163.22680664 386.31567383 C-162.49623047 386.05077148 -161.7656543 385.78586914 -161.01293945 385.51293945 C-151.86081824 382.22756261 -142.93968303 379.62621258 -133.33618164 378.02661133 C-129.6655645 377.41484181 -126.04407954 376.64249198 -122.41113281 375.83935547 C-113.91649891 373.96380326 -105.43364829 372.55586493 -96.81347656 371.39428711 C-90.29444084 370.50524454 -83.88610768 369.33938646 -77.45336914 367.96411133 C-74.05678912 367.28150566 -70.65990857 366.77631789 -67.22680664 366.31567383 C-65.10101397 352.23050982 -65.10101397 352.23050982 -68.65209961 339.00073242 C-72.32485137 335.1211483 -76.72324858 332.33479786 -81.26538086 329.57104492 C-98.87089407 318.30299054 -113.64548094 292.75117978 -119.16430664 272.95239258 C-119.61144735 270.75705589 -119.94009835 268.53766311 -120.22680664 266.31567383 C-120.93063477 266.36208008 -121.63446289 266.40848633 -122.35961914 266.45629883 C-133.77400308 266.87353479 -144.55332008 264.83629542 -153.33618164 257.15942383 C-153.96008789 256.55098633 -154.58399414 255.94254883 -155.22680664 255.31567383 C-155.78883789 254.76911133 -156.35086914 254.22254883 -156.92993164 253.65942383 C-165.2370918 244.76488871 -168.8330703 233.52764392 -168.60571289 221.53833008 C-167.17061255 209.33257975 -160.59086636 199.63613666 -151.37524414 191.92114258 C-142.35926998 185.18375098 -135.30061233 184.18225448 -124.22680664 184.31567383 C-124.22680664 178.37567383 -124.22680664 172.43567383 -124.22680664 166.31567383 C-126.86680664 166.31567383 -129.50680664 166.31567383 -132.22680664 166.31567383 C-134.49007369 165.9281281 -136.74253614 165.47039524 -138.97680664 164.94067383 C-143.55597516 163.88432057 -148.07231011 163.02077223 -152.72680664 162.37817383 C-157.58663997 161.59412072 -160.54769136 160.60751382 -164.22680664 157.31567383 C-170.43009221 148.22613733 -165.78998381 130.07096054 -164.06542969 120.0847168 C-157.19430015 83.75467344 -132.48246948 51.90420507 -102.53149414 31.14038086 C-84.40336918 18.80146019 -65.4947259 10.00894048 -44.10180664 5.00317383 C-43.06628662 4.76066895 -42.0307666 4.51816406 -40.96386719 4.26831055 C-27.34222816 1.25170217 -13.91468794 -0.04151802 0 0 Z "
        fill="#FBBD29"
        transform="translate(273.226806640625,44.684326171875)"
    />
<path
        d="M0 0 C6.90196281 3.83442378 12.01964251 11.52044249 17.0390625 17.49609375 C20.27018791 21.33994707 23.62481391 25.06408351 26.99609375 28.78515625 C30.04234209 32.15206231 33.03309948 35.56309544 36 39 C36.45262207 39.52094238 36.90524414 40.04188477 37.37158203 40.57861328 C38.89893996 42.3395031 40.41883269 44.10661244 41.9375 45.875 C42.43491699 46.44710205 42.93233398 47.0192041 43.44482422 47.60864258 C47 51.77169493 47 51.77169493 47 54 C50.94598028 50.16322581 54.55216228 46.12122629 58.125 41.9375 C62.25460447 37.13098825 66.43443434 32.39025254 70.75 27.75 C74.1689551 24.05891388 77.42035945 20.30405141 80.5625 16.375 C91.55656934 2.72171533 91.55656934 2.72171533 97 0 C103.28996667 -0.4138136 108.09103129 0.69185433 114 2.75 C120.165167 4.80364506 126.30349738 6.67820344 132.625 8.1875 C137.3631936 9.32274 141.96384501 10.60488647 146.55859375 12.2265625 C149.85404865 13.27056261 153.20406671 14.06412352 156.5625 14.875 C162.11549359 16.21897031 167.56268879 17.7462229 173 19.5 C179.02227989 21.44074207 185.06842814 23.06728468 191.2175293 24.55297852 C196.37333254 25.81019888 201.40525106 27.33172366 206.4609375 28.9375 C210.75773148 30.22748671 215.09121146 31.32858633 219.4375 32.4375 C241.81256028 38.21884043 241.81256028 38.21884043 245 43 C245.86966339 47.42737728 245.83989311 49.64308726 243.4453125 53.51171875 C238.15092293 60.15394742 232.05856894 66.05209966 226.0078125 71.99609375 C223.06522795 74.90332377 220.34808592 77.95621559 217.671875 81.109375 C215.70245971 83.33647079 213.61625658 85.41214954 211.5 87.5 C208.59070753 90.38933163 205.71123848 93.29220699 202.9375 96.3125 C202.36902344 96.92738281 201.80054688 97.54226563 201.21484375 98.17578125 C199.63047411 100.18959691 199.63047411 100.18959691 200 104 C201.15522832 105.68854746 201.15522832 105.68854746 202.81640625 107.171875 C203.41203369 107.74945557 204.00766113 108.32703613 204.62133789 108.92211914 C205.26192139 109.52531982 205.90250488 110.12852051 206.5625 110.75 C207.8663946 112.01245487 209.1685006 113.27675986 210.46875 114.54296875 C211.40074219 115.44668213 211.40074219 115.44668213 212.3515625 116.36865234 C214.19055116 118.18857566 215.89927889 120.08106057 217.5625 122.0625 C221.19621736 126.36193658 225.22307495 130.24889042 229.22265625 134.203125 C232.86222534 137.81730174 236.34519449 141.50344216 239.6328125 145.4453125 C241.07258694 147.17499485 241.07258694 147.17499485 243.4375 148.9375 C245.61081447 151.80627511 245.52479716 154.16225704 245.62890625 157.68359375 C244.6832631 161.16661478 242.69704614 162.65268123 240 165 C236.86889648 166.34619141 236.86889648 166.34619141 233.37109375 167.3515625 C232.74074722 167.53713715 232.1104007 167.72271179 231.46095276 167.91390991 C229.45719557 168.49956055 227.44781169 169.06231611 225.4375 169.625 C224.11611745 170.00897765 222.79514917 170.39438396 221.47460938 170.78125 C213.69230743 173.03986209 205.86667038 175.05634217 198 177 C198.00888245 178.27928879 198.01776489 179.55857758 198.0269165 180.87663269 C198.10797236 192.92754874 198.16795116 204.97840954 198.20724869 217.02953625 C198.22813109 223.22529135 198.25646127 229.42082654 198.30175781 235.61645508 C198.34519134 241.59461443 198.36913219 247.57256213 198.37950897 253.55086708 C198.38690475 255.83266851 198.4013468 258.11445824 198.42292023 260.39616966 C198.45192029 263.59013353 198.45595732 266.78322076 198.45410156 269.97729492 C198.46848267 270.92244461 198.48286377 271.8675943 198.49768066 272.84138489 C198.47119598 277.0488111 198.37872489 279.37699251 196.15348816 283.03753662 C193.48043363 285.47347833 191.15354723 286.40114393 187.72265625 287.53515625 C186.48580078 287.95216797 185.24894531 288.36917969 183.97460938 288.79882812 C182.67066095 289.22032452 181.36662412 289.64154752 180.0625 290.0625 C178.79312948 290.48616396 177.52424377 290.91128343 176.25585938 291.33789062 C169.15216344 293.70334436 162.01407728 295.9438996 154.84521484 298.10327148 C152.04717897 298.98513057 149.30733 299.96546551 146.5625 301 C141.2560163 302.97737966 135.85917526 304.48266427 130.40625 306 C127.37803833 306.88901627 124.45212937 307.88861012 121.5 309 C117.43983564 310.52776316 113.36839811 311.77949819 109.1875 312.9375 C104.43840958 314.25898603 99.81509073 315.73930157 95.1875 317.4375 C89.34366465 319.57262196 83.4624956 321.393612 77.48852539 323.1159668 C72.34694867 324.59844987 67.23044325 326.14746783 62.125 327.75 C61.45291504 327.96076172 60.78083008 328.17152344 60.08837891 328.38867188 C57.38514239 329.23931633 54.6885448 330.1038184 52 331 C46.06730646 331.32854107 41.32126465 330.54179618 35.6875 328.75 C34.9440332 328.52256104 34.20056641 328.29512207 33.43457031 328.06079102 C28.44493143 326.51465237 23.53362901 324.79685664 18.64453125 322.95703125 C15.76643971 321.9154767 12.86700417 321.01151247 9.9375 320.125 C4.82605166 318.57716705 -0.24864178 316.94525018 -5.3125 315.25 C-6.05540283 315.0015332 -6.79830566 314.75306641 -7.5637207 314.49707031 C-11.01888659 313.3394765 -14.47270777 312.17796443 -17.92529297 311.01269531 C-28.58169084 307.4170718 -39.20174447 303.84571529 -50.046875 300.859375 C-53.84585381 299.75385207 -57.5208146 298.39158805 -61.22265625 297 C-64.28866302 295.89606507 -67.38017447 294.94072478 -70.5 294 C-75.54797088 292.47484292 -80.49671087 290.78823161 -85.4296875 288.92578125 C-87.10254317 288.32324813 -88.79646705 287.77545088 -90.5078125 287.29296875 C-91.28898437 287.07253906 -92.07015625 286.85210938 -92.875 286.625 C-93.89207031 286.36589844 -93.89207031 286.36589844 -94.9296875 286.1015625 C-98.13693699 284.39506372 -100.24220331 282.12868505 -102 279 C-102.69913108 275.6137824 -102.63344106 272.31093563 -102.56762695 268.86376953 C-102.56835709 267.8582756 -102.56908722 266.85278168 -102.56983948 265.81681824 C-102.56636579 262.50492756 -102.5275132 259.19445643 -102.48828125 255.8828125 C-102.47895239 253.58211027 -102.47183663 251.28139809 -102.46684265 248.98068237 C-102.44777886 242.93388302 -102.39868232 236.88768696 -102.34332275 230.84112549 C-102.29211756 224.66760417 -102.26932583 218.4939851 -102.24414062 212.3203125 C-102.19056386 200.21327703 -102.10525771 188.10668874 -102 176 C-103.27111633 175.84771942 -104.54223267 175.69543884 -105.85186768 175.5385437 C-108.80512522 175.18474149 -111.48492836 174.69937555 -114.296875 173.6953125 C-115.38500488 173.31705322 -115.38500488 173.31705322 -116.49511719 172.93115234 C-117.23922852 172.66512207 -117.98333984 172.3990918 -118.75 172.125 C-124.04968269 170.2802566 -129.26669848 168.60874284 -134.75 167.375 C-140.3669466 166.04651055 -143.76243808 164.23756192 -147.875 160.125 C-149.43803657 157.17259759 -149.35294357 155.32087809 -149 152 C-147.1015625 149.0078125 -147.1015625 149.0078125 -144.625 146.125 C-143.81289063 145.15820312 -143.00078125 144.19140625 -142.1640625 143.1953125 C-141.09285156 142.10863281 -141.09285156 142.10863281 -140 141 C-139.34 141 -138.68 141 -138 141 C-137.78625732 140.45956055 -137.57251465 139.91912109 -137.35229492 139.36230469 C-135.51252094 136.14842979 -132.99260168 133.76647363 -130.36328125 131.203125 C-129.80561569 130.65066101 -129.24795013 130.09819702 -128.67338562 129.5289917 C-126.89112195 127.76449486 -125.10233665 126.00681205 -123.3125 124.25 C-114.33184238 115.46066368 -114.33184238 115.46066368 -105.60546875 106.421875 C-105.0643042 105.8453418 -104.52313965 105.26880859 -103.96557617 104.67480469 C-102.79434306 103.01972939 -102.79434306 103.01972939 -103.20825195 100.92675781 C-104.42464091 97.96661546 -106.70186376 96.13925274 -109 94 C-113.64178292 89.47499149 -118.05958785 84.84905087 -122.28515625 79.93359375 C-123.96004299 78.04505403 -125.69947587 76.26844352 -127.5 74.5 C-130.50290643 71.54370187 -133.27908475 68.45055075 -136.02734375 65.2578125 C-139.26821658 61.54845706 -142.62221092 57.94146913 -145.9609375 54.3203125 C-148.24712631 51.7187873 -148.90970226 50.66218343 -149.375 47.25 C-148.88702952 43.02092249 -147.22317826 40.64333285 -144 38 C-140.70267445 36.51896095 -137.31817439 35.66483098 -133.8125 34.8125 C-132.00634382 34.34048078 -130.20035356 33.86782619 -128.39453125 33.39453125 C-127.49283203 33.16467529 -126.59113281 32.93481934 -125.66210938 32.69799805 C-121.40566577 31.58196978 -117.20732676 30.28676101 -113 29 C-86.42038217 20.98089172 -86.42038217 20.98089172 -73.4140625 17.859375 C-68.99381873 16.74672783 -64.67582598 15.3726107 -60.33203125 13.99609375 C-55.98060288 12.69525643 -51.57870501 11.63936883 -47.16552734 10.57470703 C-41.56037168 9.19727127 -36.09175208 7.49392758 -30.60083008 5.72167969 C-26.10868715 4.29162398 -21.66684546 3.21290561 -17.02734375 2.40234375 C-14.78998943 2.01293222 -14.78998943 2.01293222 -11.9375 0.875 C-7.807281 -0.355278 -4.25675469 -0.89808032 0 0 Z "
        fill="#FBBD2A"
        transform="translate(553,353)"
    />
<path
        d="M0 0 C0.76223877 -0.00168182 1.52447754 -0.00336365 2.30981445 -0.00509644 C36.25298754 0.07235291 64.33209723 12.86853918 88.25 36.5 C100.69264632 49.13859351 109.6471938 64.78297701 115.0625 81.5625 C115.3527002 82.46025146 115.64290039 83.35800293 115.94189453 84.28295898 C122.08725966 104.25448925 122.67568247 126.36416029 116.83544922 146.47363281 C116.25539914 148.4813124 115.73620384 150.49785977 115.22265625 152.5234375 C110.89683947 168.70365602 101.96253698 182.78621985 91.25 195.5 C90.45980469 196.45390625 89.66960937 197.4078125 88.85546875 198.390625 C82.70529 205.50456358 75.92006009 211.13962209 68.25 216.5 C67.25484375 217.19996094 66.2596875 217.89992188 65.234375 218.62109375 C38.10989665 236.46065451 4.40135144 240.40544062 -27.06201172 234.13818359 C-56.71978967 227.09681833 -82.900282 207.72449368 -99.24609375 182.16015625 C-100.48865051 179.97244156 -101.61900665 177.74729848 -102.75 175.5 C-103.29140625 174.54609375 -103.8328125 173.5921875 -104.390625 172.609375 C-113.26920227 156.31911583 -118.17653431 136.41563743 -118.0625 117.875 C-118.05831055 116.92496094 -118.05412109 115.97492188 -118.04980469 114.99609375 C-117.91175183 106.24295491 -116.73002756 98.01154703 -114.75 89.5 C-114.48316406 88.31277344 -114.21632813 87.12554687 -113.94140625 85.90234375 C-109.16668556 67.07933374 -98.22490826 49.3163333 -84.75 35.5 C-83.945625 34.64535156 -83.14125 33.79070312 -82.3125 32.91015625 C-76.88939506 27.27521128 -71.28860562 22.760771 -64.75 18.5 C-63.64591797 17.67435547 -63.64591797 17.67435547 -62.51953125 16.83203125 C-56.10639185 12.26018473 -49.20249507 9.49068109 -41.875 6.6875 C-40.88290527 6.30223145 -39.89081055 5.91696289 -38.86865234 5.52001953 C-26.17375089 0.83442794 -13.4059839 0.0232007 0 0 Z "
        fill="#FDFCFB"
        transform="translate(629.75,57.5)"
    />
<path
        d="M0 0 C2.52994266 2.27046136 4.35409721 4.87975637 6.25732422 7.68188477 C14.76395737 20.12764058 24.21888464 28.611968 37.00732422 36.49829102 C48.59880159 43.66845095 48.59880159 43.66845095 51 50 C51.20068029 52.69665707 51.29377016 55.29038579 51.29052734 57.98706055 C51.29724457 58.78939117 51.30396179 59.5917218 51.31088257 60.41836548 C51.3298932 63.07454627 51.33379028 65.7304741 51.3359375 68.38671875 C51.34237038 70.24599814 51.3490991 72.10527653 51.35610962 73.96455383 C51.36809506 77.87100563 51.37178985 81.777369 51.37060547 85.68383789 C51.37040383 90.64384657 51.39753843 95.60327224 51.43214989 100.56314373 C51.45461946 104.41124465 51.45843671 108.25921064 51.45738602 112.10737038 C51.4597184 113.93266595 51.46840553 115.75796663 51.48405075 117.58319664 C51.57775795 129.6604668 50.25065389 140.36999866 47 152 C46.70958832 153.1557402 46.41917664 154.31148041 46.1199646 155.50224304 C40.1982831 178.8344347 22.63454148 198.94880478 3 212 C1.87078125 212.78117187 1.87078125 212.78117187 0.71875 213.578125 C-20.15903834 227.16298728 -47.22625943 231.70300164 -71.6171875 227.30859375 C-75.19284589 226.40522974 -78.5548391 225.31185842 -82 224 C-83.22074219 223.57589844 -84.44148438 223.15179688 -85.69921875 222.71484375 C-101.11103318 217.16318025 -113.559624 208.63242068 -125 197 C-125.83402344 196.1646875 -126.66804688 195.329375 -127.52734375 194.46875 C-145.02845783 176.04022646 -155.15691891 149.64064144 -155.11352539 124.29882812 C-155.11367142 123.57589569 -155.11381744 122.85296326 -155.1139679 122.10812378 C-155.11327838 119.74913394 -155.10553163 117.39022583 -155.09765625 115.03125 C-155.09578865 113.38358605 -155.09436636 111.73592154 -155.09336853 110.08825684 C-155.0895703 105.77452024 -155.07976332 101.46081789 -155.06866455 97.14709473 C-155.05839221 92.7360887 -155.05385849 88.32507707 -155.04882812 83.9140625 C-155.03813838 75.27602604 -155.0210947 66.63801729 -155 58 C-154.05859161 57.97625305 -153.11718323 57.9525061 -152.14724731 57.92803955 C-148.60204177 57.83631261 -145.05700514 57.74025804 -141.51199341 57.64141846 C-139.98750258 57.59976823 -138.46296569 57.55976558 -136.93838501 57.52154541 C-124.77824173 57.21503332 -112.95952735 56.28899308 -101 54 C-100.08105957 53.82984375 -99.16211914 53.6596875 -98.21533203 53.484375 C-59.23628488 46.13107656 -27.43676091 28.42646371 0 0 Z "
        fill="#FDFCFB"
        transform="translate(323,156)"
    />
<path
        d="M0 0 C3.25591109 -0.22758865 5.36139832 -0.36795088 8.23046875 1.28515625 C13.33460973 5.92065355 16.49241356 9.67587757 17.30859375 16.62890625 C17.60745561 23.72008322 16.54411522 30.44591479 15.1875 37.375 C15.02241943 38.21893311 14.85733887 39.06286621 14.68725586 39.93237305 C13.88588795 43.73802293 12.98899071 47.26358202 11.390625 50.81640625 C9.53711338 55.0596983 9.25356698 58.45505229 10 63 C12.25024865 67.41715475 14.93025317 70.21246463 19 73 C21.80006004 73.58227009 21.80006004 73.58227009 24.8125 73.48242188 C25.9571875 73.48922974 27.101875 73.4960376 28.28125 73.50305176 C29.5084375 73.49173218 30.735625 73.4804126 32 73.46875 C33.2684375 73.47579956 34.536875 73.48284912 35.84375 73.4901123 C39.89605125 73.51217362 43.9476872 73.50995802 48 73.5 C53.33366629 73.48689323 58.66635054 73.50160732 64 73.53125 C65.2271875 73.51993042 66.454375 73.50861084 67.71875 73.49694824 C68.8634375 73.5037561 70.008125 73.51056396 71.1875 73.51757812 C72.19167969 73.51439575 73.19585937 73.51121338 74.23046875 73.50793457 C77.75515721 74.13416955 79.4344395 75.5561954 82 78 C83.54586876 81.09173752 83.29359521 83.59429552 83 87 C80.78136971 89.90717073 79.48055071 90.83981643 76 92 C74.51660893 92.1010968 73.02964916 92.15454514 71.54296875 92.17578125 C70.24456055 92.21155273 70.24456055 92.21155273 68.91992188 92.24804688 C67.11025966 92.29073369 65.3002932 92.32213657 63.49023438 92.34179688 C57.94867028 92.5184368 54.2156981 93.01736488 50 97 C48.98879662 100.39242426 49.31013207 103.54491147 50 107 C51.88515223 109.57637471 53.19334857 110.59667428 56 112 C57.38926033 112.10416315 58.78277521 112.15508346 60.17578125 112.17578125 C61.00400391 112.19962891 61.83222656 112.22347656 62.68554688 112.24804688 C64.42488743 112.29072215 66.16454402 112.32213124 67.90429688 112.34179688 C72.03218135 112.47928644 74.45621957 112.67580988 78.06640625 114.828125 C80 117 80 117 80.625 120.4375 C79.85443373 124.82972774 78.41675276 126.23405729 75 129 C72.49253884 130.25373058 70.71769698 130.14193505 67.9140625 130.17578125 C66.90085937 130.19962891 65.88765625 130.22347656 64.84375 130.24804688 C62.70592936 130.29085518 60.56784683 130.32219272 58.4296875 130.34179688 C57.41390625 130.36951172 56.398125 130.39722656 55.3515625 130.42578125 C53.95671631 130.44765503 53.95671631 130.44765503 52.53369141 130.4699707 C49.27931308 131.15076231 48.09056101 132.47260094 46 135 C44.56695936 137.86608129 44.69355845 139.81300783 45 143 C47.2758823 147.22481746 47.2758823 147.22481746 51 150 C54.78346536 150.16659094 58.56086491 150.29692968 62.34765625 150.34179688 C68.3678925 150.55294709 68.3678925 150.55294709 71.53515625 152.79296875 C73.06851209 155.10322488 73.56785854 156.25642969 73.5625 159 C73.58441406 159.66 73.60632813 160.32 73.62890625 161 C72.55412144 164.41794922 71.14077642 165.26020022 68 167 C63.96130834 167.55641009 59.94721144 167.56009041 55.875 167.5625 C53.70563458 167.57142218 51.53627371 167.5929766 49.3671875 167.62890625 C48.40925293 167.62963135 47.45131836 167.63035645 46.46435547 167.63110352 C43.58740358 168.06176275 42.72109257 168.70090252 41 171 C39.73487889 175.27578908 39.52018346 178.90327649 41.3125 183 C43.14363666 185.17023604 44.06776274 185.89815387 46.87939453 186.20532227 C47.62302246 186.24197998 48.36665039 186.2786377 49.1328125 186.31640625 C49.93847656 186.35830078 50.74414062 186.40019531 51.57421875 186.44335938 C52.41597656 186.48267578 53.25773437 186.52199219 54.125 186.5625 C55.39923828 186.62727539 55.39923828 186.62727539 56.69921875 186.69335938 C58.79928223 186.79954236 60.89961948 186.90028497 63 187 C61.63016497 190.16115776 61.0109362 190.9927092 58 193 C55.11584473 193.24723816 55.11584473 193.24723816 51.55664062 193.24291992 C50.9075322 193.24481827 50.25842377 193.24671661 49.58964539 193.24867249 C47.44505719 193.25237564 45.30080808 193.24168251 43.15625 193.23046875 C41.66556844 193.22927652 40.17488612 193.22882388 38.6842041 193.2290802 C35.56041763 193.22751611 32.43674589 193.21923236 29.31298828 193.20581055 C25.30799521 193.18882084 21.30312822 193.18499628 17.29810333 193.18575573 C14.22006018 193.18548385 11.1420446 193.17999973 8.06401062 193.17275429 C6.58721628 193.16957121 5.11041881 193.16760105 3.63362122 193.16686058 C1.57014641 193.16469319 -0.49319457 193.15594034 -2.55664062 193.14526367 C-3.73117798 193.14145187 -4.90571533 193.13764008 -6.11584473 193.13371277 C-9 193 -9 193 -12 192 C-14.31229498 191.8099884 -16.62483731 191.62298259 -18.9375 191.4375 C-31.44403377 190.11719624 -45.18970796 185.15974056 -55.05078125 177.2265625 C-60.54859901 173.76701385 -66.54897487 173.7108715 -72.8125 173.8125 C-73.9272168 173.8134668 -73.9272168 173.8134668 -75.06445312 173.81445312 C-78.89031552 173.84411097 -82.63838509 174.04373612 -86.43896484 174.48510742 C-92.83212309 175.1433028 -99.22304485 175.2501314 -105.64453125 175.40625 C-121.71196195 175.87248895 -137.6725382 177.11408037 -153.6875 178.5 C-156.39635315 178.72943259 -159.10540548 178.95647094 -161.81445312 179.18359375 C-175.36021003 180.32419762 -175.36021003 180.32419762 -188.89794922 181.55517578 C-195.41163975 182.1492024 -201.89908272 182.30004159 -208.4375 182.375 C-210.28698242 182.43107422 -210.28698242 182.43107422 -212.17382812 182.48828125 C-225.42501904 182.61428307 -236.20956549 177.92084002 -246 169 C-248.94010752 165.49393377 -251.52260625 161.84337527 -254 158 C-254.66 157.01 -255.32 156.02 -256 155 C-258.43024285 147.5925009 -259.49074261 140.45258885 -259.375 132.6875 C-259.36919922 131.68855713 -259.36339844 130.68961426 -259.35742188 129.66040039 C-259.05352398 110.09697328 -257.333291 90.49938088 -256 71 C-230.59 71 -205.18 71 -179 71 C-179 77.27 -179 83.54 -179 90 C-180.69769531 90.06058594 -182.39539063 90.12117187 -184.14453125 90.18359375 C-186.36719626 90.26799875 -188.58985205 90.35264677 -190.8125 90.4375 C-191.93205078 90.47681641 -193.05160156 90.51613281 -194.20507812 90.55664062 C-195.27822266 90.59853516 -196.35136719 90.64042969 -197.45703125 90.68359375 C-198.44678955 90.72025146 -199.43654785 90.75690918 -200.45629883 90.79467773 C-203.1218351 90.90790331 -203.1218351 90.90790331 -206 92 C-208.43384445 95.89415111 -208.08516854 99.51442036 -207.77734375 103.9140625 C-207.13749658 106.13866194 -207.13749658 106.13866194 -205.15376282 107.60610962 C-200.40542404 109.70476577 -195.89911395 109.41734651 -190.76245117 109.38818359 C-189.62674683 109.39344055 -188.49104248 109.39869751 -187.32092285 109.40411377 C-183.56146526 109.41732825 -179.80243078 109.40856368 -176.04296875 109.3984375 C-173.42043476 109.40045935 -170.79790133 109.40337171 -168.17536926 109.40713501 C-162.67000777 109.41259265 -157.16476697 109.4054097 -151.65942383 109.39111328 C-145.33444365 109.37487585 -139.009755 109.38000975 -132.68478221 109.3965925 C-126.56748369 109.41197789 -120.45031204 109.4101796 -114.33300209 109.4014473 C-111.74772411 109.39945979 -109.1624386 109.40185303 -106.57716942 109.40888596 C-81.79999471 110.07702737 -81.79999471 110.07702737 -58.8125 102.0625 C-57.83398071 101.48423462 -57.83398071 101.48423462 -56.83569336 100.89428711 C-49.72705427 96.51049667 -43.79008543 90.97322682 -38 85 C-37.17886719 84.1646875 -36.35773438 83.329375 -35.51171875 82.46875 C-21.55147087 67.61639647 -12.61026328 50.08480402 -6 31 C-5.68160156 30.11183594 -5.36320313 29.22367188 -5.03515625 28.30859375 C-1.76247919 18.94645789 -0.5811164 9.89427131 0 0 Z "
        fill="#FDFCFB"
        transform="translate(293,531)"
    />
<path
        d="M0 0 C1.1034375 -0.00386719 2.206875 -0.00773437 3.34375 -0.01171875 C25.59397121 0.01439653 45.083206 3.93008984 61.25 20.125 C65.90001474 24.87034533 69.3012375 30.19168542 72.734375 35.8671875 C74.05233583 38.23173838 74.05233583 38.23173838 76.25 39.125 C78.13679053 39.21902611 80.02404958 39.30808792 81.91235352 39.36401367 C95.48375043 39.8023644 105.88094676 43.16716827 115.375 53.25 C130.40445226 71.68777067 128.83520428 97.72512808 126.7890625 120.08984375 C125.42027187 131.8941821 122.19790954 142.94564451 118.25 154.125 C117.92 154.125 117.59 154.125 117.25 154.125 C117.24742187 152.89265625 117.24484375 151.6603125 117.2421875 150.390625 C117.06143525 139.88041315 116.71396929 129.60868653 108.80932617 121.67993164 C103.50050027 116.91564026 97.45237016 113.38071786 91.36523438 109.71289062 C75.01333134 99.65930318 66.79613582 86.71074567 60.06860352 69.1328125 C58.49031047 64.97909523 58.49031047 64.97909523 55.5 61.875 C51.62197952 60.58232651 48.55244014 60.60402394 44.75 62.125 C41.90983742 64.39713007 40.08563097 66.80811987 37.9765625 69.75 C14.76901025 101.67351078 -19.90344224 119.80119917 -58.3125 126.25 C-59.75786133 126.50330078 -59.75786133 126.50330078 -61.23242188 126.76171875 C-84.93780491 130.82184504 -109.08993035 130.12956309 -132.75 126.125 C-133.61657227 125.98094727 -134.48314453 125.83689453 -135.37597656 125.68847656 C-140.1772014 124.88371026 -144.96674587 124.03028702 -149.75 123.125 C-146.16155914 87.61832198 -131.07560245 57.40897475 -103.35400391 34.39697266 C-88.86059863 22.90372433 -72.34407014 14.38742067 -54.76733398 8.78173828 C-53.38973032 8.33326268 -52.01946757 7.86175275 -50.65649414 7.37060547 C-44.59337217 5.21377438 -38.52935771 4.03692899 -32.1875 3 C-30.7034668 2.74669922 -30.7034668 2.74669922 -29.18945312 2.48828125 C-19.32956802 0.82642935 -10.00276364 -0.03457176 0 0 Z "
        fill="#FDFCFB"
        transform="translate(275.75,64.875)"
    />
<path
        d="M0 0 C0.76223877 -0.00168182 1.52447754 -0.00336365 2.30981445 -0.00509644 C36.25298754 0.07235291 64.33209723 12.86853918 88.25 36.5 C100.69264632 49.13859351 109.6471938 64.78297701 115.0625 81.5625 C115.3527002 82.46025146 115.64290039 83.35800293 115.94189453 84.28295898 C122.08725966 104.25448925 122.67568247 126.36416029 116.83544922 146.47363281 C116.25539914 148.4813124 115.73620384 150.49785977 115.22265625 152.5234375 C110.89683947 168.70365602 101.96253698 182.78621985 91.25 195.5 C90.45980469 196.45390625 89.66960937 197.4078125 88.85546875 198.390625 C82.70529 205.50456358 75.92006009 211.13962209 68.25 216.5 C67.25484375 217.19996094 66.2596875 217.89992188 65.234375 218.62109375 C38.10989665 236.46065451 4.40135144 240.40544062 -27.06201172 234.13818359 C-56.71978967 227.09681833 -82.900282 207.72449368 -99.24609375 182.16015625 C-100.48865051 179.97244156 -101.61900665 177.74729848 -102.75 175.5 C-103.29140625 174.54609375 -103.8328125 173.5921875 -104.390625 172.609375 C-113.26920227 156.31911583 -118.17653431 136.41563743 -118.0625 117.875 C-118.05831055 116.92496094 -118.05412109 115.97492188 -118.04980469 114.99609375 C-117.91175183 106.24295491 -116.73002756 98.01154703 -114.75 89.5 C-114.48316406 88.31277344 -114.21632813 87.12554687 -113.94140625 85.90234375 C-109.16668556 67.07933374 -98.22490826 49.3163333 -84.75 35.5 C-83.945625 34.64535156 -83.14125 33.79070312 -82.3125 32.91015625 C-76.88939506 27.27521128 -71.28860562 22.760771 -64.75 18.5 C-63.64591797 17.67435547 -63.64591797 17.67435547 -62.51953125 16.83203125 C-56.10639185 12.26018473 -49.20249507 9.49068109 -41.875 6.6875 C-40.88290527 6.30223145 -39.89081055 5.91696289 -38.86865234 5.52001953 C-26.17375089 0.83442794 -13.4059839 0.0232007 0 0 Z M-13.546875 20.4453125 C-28.29796175 20.69234027 -44.10428522 27.67807894 -55.75 36.5 C-56.99910156 37.42232422 -56.99910156 37.42232422 -58.2734375 38.36328125 C-70.98672217 48.12317209 -80.01333534 59.1654663 -87.5625 73.1875 C-87.94801025 73.90043213 -88.33352051 74.61336426 -88.73071289 75.34790039 C-90.98861092 79.65597584 -92.53740616 83.7638151 -93.75 88.5 C-94.10320313 89.56734375 -94.45640625 90.6346875 -94.8203125 91.734375 C-102.08521912 115.95073041 -98.28455896 141.10144959 -86.71069336 163.23779297 C-73.48062018 187.49659604 -54.64606821 203.49386211 -28.75 212.5 C-27.67492187 212.91378906 -26.59984375 213.32757813 -25.4921875 213.75390625 C-2.24945306 221.49249649 24.3013033 217.16506695 45.94140625 206.77734375 C52.57674098 203.39970516 58.4297761 199.11181999 64.25 194.5 C64.99378906 193.93925781 65.73757813 193.37851563 66.50390625 192.80078125 C81.6891463 180.62191196 92.36005941 161.13785744 96.875 142.5625 C97.0915625 141.70720703 97.308125 140.85191406 97.53125 139.97070312 C103.98655082 113.85064334 99.2452288 87.85047312 85.51171875 64.8828125 C74.25305514 47.52090007 58.66380442 35.55761671 39.9375 27.125 C38.82665039 26.62407837 38.82665039 26.62407837 37.69335938 26.11303711 C23.2466123 19.8289608 8.27873142 20.24013206 -7.19726562 20.47167969 C-9.31369009 20.49515953 -11.4305398 20.47579469 -13.546875 20.4453125 Z "
        fill="#FBBD2A"
        transform="translate(629.75,57.5)"
    />
<path
        d="M0 0 C7.8730947 6.74836689 7.8730947 6.74836689 10.40917969 9.31152344 C10.9795697 9.88521667 11.54995972 10.45890991 12.13763428 11.04998779 C12.72643372 11.64708557 13.31523315 12.24418335 13.921875 12.859375 C14.54854065 13.48982727 15.1752063 14.12027954 15.82086182 14.76983643 C17.79971407 16.76078835 19.77525662 18.75497312 21.75 20.75 C24.36691062 23.39350396 26.98711796 26.03367564 29.609375 28.671875 C30.50471954 29.57966705 30.50471954 29.57966705 31.41815186 30.50579834 C31.97593323 31.06688293 32.5337146 31.62796753 33.10839844 32.20605469 C33.59580505 32.69869812 34.08321167 33.19134155 34.58538818 33.69891357 C37.823708 36.67735183 40.1748473 37.43489526 44.52734375 37.31640625 C48.63427833 36.79087434 52.44606923 35.47351486 56.37109375 34.1875 C60.05926018 32.98060808 63.77190379 31.88666628 67.5 30.8125 C75.63101132 28.44183626 83.72282529 25.94482081 91.8125 23.4375 C93.02808594 23.06149658 94.24367188 22.68549316 95.49609375 22.2980957 C102.22855385 20.20566104 108.92267643 18.03803077 115.58081055 15.71899414 C118 15 118 15 121 15 C121 43.38 121 71.76 121 101 C118.36 101.99 115.72 102.98 113 104 C111.57880859 104.54333984 111.57880859 104.54333984 110.12890625 105.09765625 C109.28199219 105.41605469 108.43507813 105.73445312 107.5625 106.0625 C106.71816406 106.38347656 105.87382813 106.70445312 105.00390625 107.03515625 C102.5579793 107.82077908 100.23781332 108.39263771 97.73046875 108.91015625 C92.87688811 109.95017317 88.37226856 111.58890655 83.75 113.375 C77.27736504 115.81890395 70.80720798 118.06867174 64.171875 120.0390625 C60.59067653 121.12400686 57.04498512 122.30347179 53.5 123.5 C48.70646516 125.11268561 43.90285251 126.65890479 39.0625 128.125 C35.55376309 129.18877354 32.10427788 130.29551444 28.6875 131.625 C25.60081222 132.77596833 22.61887667 133.58699662 19.41796875 134.328125 C14.87800142 135.5896345 10.48495005 137.32671058 6.07421875 138.9765625 C3 140 3 140 0 140 C0 93.8 0 47.6 0 0 Z "
        fill="#FCFCFB"
        transform="translate(611,521)"
    />
<path
        d="M0 0 C0 46.2 0 92.4 0 140 C-5.82772625 138.70494972 -11.28558592 137.3798253 -16.88671875 135.46875 C-17.59222366 135.23216675 -18.29772858 134.9955835 -19.02461243 134.75183105 C-21.24704193 134.00549727 -23.467288 133.25290146 -25.6875 132.5 C-27.18540473 131.99567135 -28.68345067 131.49176194 -30.18164062 130.98828125 C-32.93276639 130.06313303 -35.68305275 129.13557748 -38.43237305 128.20507812 C-41.6189755 127.128703 -44.80887537 126.06286866 -48 125 C-49.344078 124.5452391 -50.68786132 124.08960565 -52.03125 123.6328125 C-59.08841101 121.24730439 -66.12686695 118.91334747 -73.3125 116.9375 C-78.87657772 115.39334082 -84.14806716 113.42509793 -89.5078125 111.2890625 C-94.1821621 109.56363144 -98.93400342 108.19268669 -103.73754883 106.87524414 C-109.42180631 105.28398113 -114.41314286 103.23474286 -120 101 C-120 72.62 -120 44.24 -120 15 C-102.00208117 19.49947971 -102.00208117 19.49947971 -96 21.40234375 C-95.3503125 21.60678604 -94.700625 21.81122833 -94.03125 22.02186584 C-92.01940319 22.65599355 -90.00965963 23.29647942 -88 23.9375 C-86.66680698 24.35916786 -85.33347353 24.78039196 -84 25.20117188 C-81.34687092 26.03880528 -78.69465987 26.8792622 -76.04296875 27.72143555 C-73.23564806 28.61152286 -70.42557182 29.49219784 -67.61328125 30.36645508 C-66.89333984 30.59035416 -66.17339844 30.81425323 -65.43164062 31.04493713 C-64.0595544 31.47109597 -62.68717669 31.89631793 -61.31445312 32.32041931 C-57.8411893 33.39955668 -54.4104171 34.54916955 -51 35.8125 C-46.65430961 37.2225817 -43.57872477 37.72678171 -39 37 C-37.05423124 35.67124101 -37.05423124 35.67124101 -35.21069336 33.91381836 C-34.51297821 33.27757538 -33.81526306 32.6413324 -33.09640503 31.98580933 C-29.90462663 28.96241297 -26.77903514 25.88341611 -23.69140625 22.75390625 C-23.03921616 22.09792953 -22.38702606 21.44195282 -21.71507263 20.76609802 C-19.66173293 18.70067831 -17.61171986 16.63200677 -15.5625 14.5625 C-12.83746809 11.81097166 -10.10919782 9.06271438 -7.37890625 6.31640625 C-6.43997276 5.36502525 -6.43997276 5.36502525 -5.48207092 4.39442444 C-1.11275901 0 -1.11275901 0 0 0 Z "
        fill="#FCFCFC"
        transform="translate(591,521)"
    />
<path
        d="M0 0 C2.19392022 2.05130024 3.87489851 3.90126835 5.6875 6.25 C6.73499937 7.54067181 7.78452044 8.82970515 8.8359375 10.1171875 C9.36155273 10.76913086 9.88716797 11.42107422 10.42871094 12.09277344 C12.78480431 14.95259343 15.28653169 17.66552493 17.8125 20.375 C34 37.89202089 34 37.89202089 34 41 C33.0570105 41.24121582 33.0570105 41.24121582 32.0949707 41.48730469 C16.50582604 45.48304029 16.50582604 45.48304029 1.0859375 50.07421875 C-2.51798334 51.155395 -6.15652766 52.05404267 -9.8125 52.9375 C-15.28200851 54.26046154 -20.64405211 55.77436947 -26 57.5 C-31.92560584 59.40749863 -37.86870824 61.02336978 -43.92089844 62.47607422 C-48.17917658 63.50993001 -52.37198432 64.6815744 -56.56323242 65.96020508 C-59.38444498 66.81787637 -62.21529657 67.63817341 -65.05175781 68.44384766 C-66.86934385 68.96270242 -68.68104331 69.50205656 -70.4921875 70.04296875 C-71.52601563 70.29691406 -72.55984375 70.55085938 -73.625 70.8125 C-74.94371094 71.16248047 -74.94371094 71.16248047 -76.2890625 71.51953125 C-80.97014479 70.62243623 -83.12549439 66.58066585 -86 63 C-87.20231055 61.67739381 -88.41837277 60.36714655 -89.6484375 59.0703125 C-90.25703613 58.42497559 -90.86563477 57.77963867 -91.49267578 57.11474609 C-92.11384277 56.45812988 -92.73500977 55.80151367 -93.375 55.125 C-100.78851866 47.25076452 -108.10034562 39.33210858 -115 31 C-107.31732676 28.30130312 -99.63988727 25.82586695 -91.75 23.8125 C-82.40709623 21.42507791 -73.14229405 18.78759274 -63.875 16.125 C-60.83728238 15.25245503 -57.7995457 14.37997675 -54.76171875 13.5078125 C-54.01807571 13.2942662 -53.27443268 13.08071991 -52.508255 12.86070251 C-44.5637002 10.58254357 -36.6039469 8.35960029 -28.63818359 6.15673828 C-24.04634895 4.88109586 -19.51627674 3.52567794 -15 2 C-13.50728772 1.59696768 -12.00739335 1.21907892 -10.5 0.875 C-9.7884375 0.70742188 -9.076875 0.53984375 -8.34375 0.3671875 C-5.3228539 -0.10608622 -3.05966761 -0.44320471 0 0 Z "
        fill="#FCFCFA"
        transform="translate(547,374)"
    />
<path
        d="M0 0 C1.83691406 0.41765625 1.83691406 0.41765625 3.7109375 0.84375 C5.45117188 1.22080078 5.45117188 1.22080078 7.2265625 1.60546875 C15.56077729 3.67158685 23.74089366 6.01771553 31.88769531 8.73706055 C36.63120778 10.29407174 41.31597405 11.39899409 46.21972656 12.32519531 C50.27781844 13.16990201 54.19689786 14.41561778 58.1484375 15.65625 C65.77977738 18.00418802 73.43755334 20.15360856 81.17944336 22.10668945 C84.98715153 23.07837566 88.71329962 24.1526299 92.43359375 25.421875 C95.59382671 26.49948396 98.66241238 27.34375317 101.9609375 27.90625 C105.41612067 28.54669673 108.50601721 29.34812053 111.7109375 30.84375 C107.60988387 35.74379125 103.33665016 40.31274083 98.7734375 44.78125 C95.05313956 48.45898603 91.35927841 52.11144597 87.9609375 56.09375 C85.26303894 59.22767257 82.53222932 62.31973063 79.7109375 65.34375 C78.9271875 66.1996875 78.1434375 67.055625 77.3359375 67.9375 C74.66046397 69.88040339 73.18971553 70.46182228 69.89794922 70.234375 C64.73768632 69.31269375 59.76681123 67.66000098 54.7734375 66.09375 C52.34585184 65.3515458 49.91746775 64.61194789 47.48828125 63.875 C46.32022949 63.52050781 45.15217773 63.16601562 43.94873047 62.80078125 C39.93625224 61.61476748 35.90526246 60.56383835 31.8359375 59.59375 C26.15637434 58.23065484 20.62105178 56.60735056 15.0546875 54.84375 C11.29838129 53.7203687 7.51985495 52.76887606 3.7109375 51.84375 C-2.24447901 50.39727312 -8.07072527 48.70682207 -13.9140625 46.8515625 C-18.51023018 45.47909576 -23.15485289 44.34124334 -27.82226562 43.23828125 C-31.45273902 42.36638148 -34.86331581 41.33263222 -38.2890625 39.84375 C-37.74052612 39.20433472 -37.74052612 39.20433472 -37.1809082 38.55200195 C-34.58163796 35.52097303 -31.98448961 32.48821014 -29.39453125 29.44921875 C-24.13544761 23.28483923 -18.86293937 17.14311621 -13.375 11.1796875 C-11.93188344 9.56361315 -10.54370993 7.89740348 -9.203125 6.1953125 C-8.19378906 4.93847656 -8.19378906 4.93847656 -7.1640625 3.65625 C-6.58398438 2.89957031 -6.00390625 2.14289063 -5.40625 1.36328125 C-3.2890625 -0.15625 -3.2890625 -0.15625 0 0 Z "
        fill="#FCFCFA"
        transform="translate(659.2890625,374.15625)"
    />
<path
        d="M0 0 C2.56044546 0.77811703 5.01239952 1.40380397 7.62109375 1.953125 C13.00825976 3.11156396 18.21560782 4.75895444 23.46875 6.41015625 C30.16484231 8.48603014 36.83827235 10.46382339 43.65625 12.09765625 C50.40972317 13.71625726 56.97424713 15.74521278 63.58032227 17.8815918 C69.80018833 19.88113306 76.03288639 21.5849298 82.40625 23.03515625 C79.67637355 24.85507389 77.99366637 25.56470664 74.90625 26.40234375 C74.02445068 26.64621826 73.14265137 26.89009277 72.23413086 27.14135742 C70.83432983 27.52191284 70.83432983 27.52191284 69.40625 27.91015625 C62.77157719 29.75234205 56.28919386 31.71137163 49.85546875 34.17578125 C47.14940638 35.12527682 44.44594953 35.80931951 41.65625 36.47265625 C36.45274447 37.70999368 31.45168058 39.32037205 26.39550781 41.05834961 C20.69752017 42.99195496 14.93063419 44.59321389 9.11889648 46.14648438 C5.44241187 47.14237185 1.8295183 48.20158056 -1.75390625 49.49609375 C-2.41326172 49.73263672 -3.07261719 49.96917969 -3.75195312 50.21289062 C-5.52954561 50.86376295 -7.29838012 51.5384168 -9.06640625 52.21484375 C-17.11551041 54.08672844 -24.33600733 51.36821054 -31.90625 48.66015625 C-38.37770988 46.3721195 -44.80692042 44.42520178 -51.48022461 42.8125 C-56.94108693 41.44910428 -62.3257171 39.83040821 -67.71875 38.22265625 C-68.8951001 37.87372314 -70.0714502 37.52479004 -71.28344727 37.1652832 C-78.80368285 34.91759062 -86.26219655 32.53518195 -93.68383789 29.98217773 C-98.88896227 28.20968193 -104.1230949 26.82723059 -109.50390625 25.67578125 C-110.19355469 25.464375 -110.88320313 25.25296875 -111.59375 25.03515625 C-111.92375 24.37515625 -112.25375 23.71515625 -112.59375 23.03515625 C-95.76563577 17.72758775 -78.76427278 13.05688114 -61.7175293 8.50952148 C-55.20597396 6.76435241 -48.75951263 4.91263487 -42.3359375 2.8671875 C-38.38650094 1.66885418 -34.38528117 0.72037917 -30.37109375 -0.234375 C-27.79532826 -0.91182668 -25.39061027 -1.76329502 -22.90625 -2.71484375 C-14.94508445 -5.40654373 -7.69275254 -2.55453777 0 0 Z "
        fill="#FCFBF9"
        transform="translate(616.59375,432.96484375)"
    />
<path
        d="M0 0 C2.49631071 1.99467259 4.67321868 4.25166679 6.875 6.5625 C7.50067871 7.20364746 8.12635742 7.84479492 8.77099609 8.50537109 C12.35583371 12.20255672 15.81267409 15.98018019 19.13671875 19.9140625 C23.5238363 24.8254268 28.3104299 29.37973389 33 34 C32 37 32 37 30.34863281 37.82788086 C29.64061523 38.03807861 28.93259766 38.24827637 28.203125 38.46484375 C27.41566895 38.70541504 26.62821289 38.94598633 25.81689453 39.19384766 C24.54628174 39.56195557 24.54628174 39.56195557 23.25 39.9375 C22.38616699 40.19837402 21.52233398 40.45924805 20.63232422 40.72802734 C18.89211273 41.25284275 17.15041541 41.77275799 15.40722656 42.28759766 C12.30449986 43.20582854 9.21490808 44.16462317 6.125 45.125 C5.10148438 45.43824219 4.07796875 45.75148438 3.0234375 46.07421875 C0.98584552 46.69813257 -1.0505951 47.32581747 -3.0859375 47.95703125 C-10.02938212 50.10864187 -16.99384241 52.17635411 -23.97241211 54.21020508 C-27.61370877 55.27723202 -31.22647136 56.38193018 -34.8125 57.625 C-38.00904848 58.72704814 -41.20739991 59.5437823 -44.5 60.3125 C-50.44885917 61.7463276 -56.12919463 63.72395759 -61.86132812 65.84301758 C-76.09146164 71.05455107 -76.09146164 71.05455107 -81 69 C-83.32066304 67.15855464 -85.33806094 65.08401274 -87.375 62.9375 C-87.95515869 62.34187256 -88.53531738 61.74624512 -89.13305664 61.13256836 C-92.54041037 57.61034387 -95.80218978 53.99400161 -98.96875 50.25390625 C-104.06050961 44.60401146 -109.58983294 39.34263377 -115 34 C-114 32 -114 32 -111.359375 30.921875 C-110.16828125 30.53515625 -108.9771875 30.1484375 -107.75 29.75 C-107.09394775 29.53674072 -106.43789551 29.32348145 -105.76196289 29.10375977 C-95.39469973 25.78427518 -84.88848008 22.88613145 -74.390625 20.01171875 C-65.77438945 17.62649257 -57.32829592 14.81519163 -48.87573242 11.90478516 C-42.88626432 9.86676775 -36.90729859 8.14926536 -30.74462891 6.71313477 C-27.91345318 5.97751261 -25.23279724 5.03960595 -22.5 4 C-5.87132417 -2.24177832 -5.87132417 -2.24177832 0 0 Z "
        fill="#FCFCFA"
        transform="translate(736,468)"
    />
<path
        d="M0 0 C1.23621094 0.30679687 2.47242188 0.61359375 3.74609375 0.9296875 C4.74672852 1.17162842 4.74672852 1.17162842 5.76757812 1.41845703 C7.96033006 1.96664502 10.13356974 2.56503747 12.30859375 3.1796875 C13.09508301 3.39931152 13.88157227 3.61893555 14.69189453 3.84521484 C20.75289412 5.57078818 26.62410591 7.63188765 32.53515625 9.81640625 C36.44772998 11.17295554 40.38983915 12.10837125 44.41796875 13.05078125 C48.5974936 14.15452901 52.65729575 15.53161243 56.74609375 16.9296875 C62.70639662 18.96599584 68.62002461 20.71764644 74.7578125 22.15234375 C78.96635967 23.24711615 83.05109761 24.67562991 87.16064453 26.08740234 C92.12104864 27.7715612 97.10972628 29.09491938 102.203125 30.3046875 C105.11156358 31.01951111 107.92953349 31.9125963 110.74609375 32.9296875 C109.26195645 36.41623226 107.28395323 38.57159822 104.55859375 41.1796875 C101.72250296 43.90153995 99.0493901 46.69165058 96.4765625 49.66015625 C92.51683053 54.22081881 88.43538078 58.64177404 84.24609375 62.9921875 C83.52550781 63.77529297 82.80492187 64.55839844 82.0625 65.36523438 C76.73249623 70.85427081 76.73249623 70.85427081 72.52734375 71.17578125 C71.27953125 70.76457031 70.03171875 70.35335937 68.74609375 69.9296875 C67.84640869 69.66599365 66.94672363 69.4022998 66.01977539 69.13061523 C62.57740278 68.1153545 59.16355454 67.02582872 55.74609375 65.9296875 C53.71610241 65.28896854 51.68519659 64.65119985 49.65429688 64.0133667 C47.49280486 63.33412378 45.3320044 62.65272175 43.17138672 61.97070312 C25.05781406 56.2500024 25.05781406 56.2500024 6.87084961 50.76806641 C3.24310851 49.69833167 -0.35159006 48.57060603 -3.93359375 47.35546875 C-7.18242868 46.26088171 -10.40383549 45.35884473 -13.75390625 44.6171875 C-21.79401033 42.68006398 -29.49808413 39.76920058 -37.25390625 36.9296875 C-35.79028494 33.54527092 -33.91472559 31.35667475 -31.296875 28.77734375 C-30.51376953 28.00068359 -29.73066406 27.22402344 -28.92382812 26.42382812 C-27.6950293 25.22016602 -27.6950293 25.22016602 -26.44140625 23.9921875 C-25.63380859 23.19361328 -24.82621094 22.39503906 -23.99414062 21.57226562 C-20.82343657 18.4379169 -17.64552402 15.31147386 -14.453125 12.19921875 C-11.30310771 8.94849042 -8.54066001 5.38970043 -5.73046875 1.84375 C-3.25390625 -0.0703125 -3.25390625 -0.0703125 0 0 Z "
        fill="#FCFCFA"
        transform="translate(470.25390625,467.0703125)"
    />
<path
        d="M0 0 C4.04136915 0.75254849 7.60252843 1.94341281 11.4375 3.4375 C34.44916127 11.89477722 62.55668631 9.40030966 85.26171875 0.98828125 C88 0 88 0 90 0 C90.10044978 4.17677912 90.17219399 8.35287985 90.21972656 12.53051758 C90.23958394 13.945356 90.26667966 15.36011531 90.30175781 16.7746582 C90.64145275 30.84702035 88.48184236 43.0534828 79 54 C69.35553011 63.87229201 57.46883949 68.90181435 43.625 69.625 C31.01264984 69.11804804 20.19005117 63.87229389 11.49609375 54.8671875 C8.00931452 50.86202951 5.14816703 46.86350687 3 42 C2.59938354 41.15465698 2.59938354 41.15465698 2.19067383 40.29223633 C-1.00057113 32.49735106 -0.32784996 24.19696275 -0.1875 15.9375 C-0.17242519 14.38868489 -0.15874173 12.83985559 -0.14648438 11.29101562 C-0.11370138 7.52698822 -0.06207498 3.76365362 0 0 Z "
        fill="#FCFCFA"
        transform="translate(226,395)"
    />
<path
        d="M0 0 C3.375 1.4375 3.375 1.4375 6 4 C7.38149891 8.13677886 7.72258824 11.512731 5.79296875 15.484375 C3.82743755 18.24211377 1.69104282 20.46621816 -0.75 22.8125 C-3.74891752 25.7029661 -6.5902145 28.64539043 -9.3046875 31.80078125 C-13.12052874 36.20986331 -17.2156317 40.29223149 -21.375 44.375 C-22.80175991 45.77632747 -24.22635507 47.1798635 -25.6484375 48.5859375 C-26.26895996 49.1948584 -26.88948242 49.8037793 -27.52880859 50.43115234 C-29.09461962 51.95123461 -29.09461962 51.95123461 -30 54 C-30.66 54 -31.32 54 -32 54 C-32.24532471 54.57202148 -32.49064941 55.14404297 -32.7434082 55.73339844 C-34.21475473 58.38736797 -35.93552401 60.14499183 -38.10546875 62.265625 C-39.33426758 63.47798828 -39.33426758 63.47798828 -40.58789062 64.71484375 C-41.44576172 65.55144531 -42.30363281 66.38804687 -43.1875 67.25 C-48.5130097 72.46498797 -53.7419367 77.6749806 -58.58178711 83.34863281 C-61.76940219 87.06029203 -64.13344707 89.21789976 -69.078125 89.62255859 C-74.57841604 89.50799223 -77.17116142 86.86179636 -80.94018555 83.10513306 C-81.74367432 82.25832977 -82.54716309 81.41152649 -83.375 80.5390625 C-84.22553955 79.6781601 -85.0760791 78.81725769 -85.95239258 77.93026733 C-88.65674591 75.18227031 -91.32789897 72.40433129 -94 69.625 C-95.82739414 67.76102561 -97.65680068 65.89902185 -99.48828125 64.0390625 C-102.820705 60.6400072 -106.14753559 57.2360755 -109.44921875 53.80712891 C-110.11268311 53.11873932 -110.77614746 52.43034973 -111.4597168 51.72109985 C-113.66134682 49.26101648 -113.98789814 48.10488281 -114.375 44.75 C-114.00102205 41.01022047 -113.35623397 38.8629038 -110.74142456 36.10119629 C-107.15474077 33.83314347 -103.04286868 34.24639278 -99 35 C-96.05497791 36.66624011 -93.95724894 38.86446203 -91.6796875 41.34375 C-90.73538376 42.30927795 -90.73538376 42.30927795 -89.77200317 43.29431152 C-87.78147677 45.34048426 -85.82867763 47.41867824 -83.875 49.5 C-82.52579064 50.89940797 -81.17424848 52.2965708 -79.8203125 53.69140625 C-76.51931369 57.10221614 -73.25169445 60.54218097 -70 64 C-66.96775923 61.6617976 -64.30014664 59.37759488 -61.86328125 56.42578125 C-56.82774022 50.53893228 -51.2513566 45.19383951 -45.73852539 39.7590332 C-44.3379919 38.37654966 -42.9404363 36.99105139 -41.54296875 35.60546875 C-40.71821045 34.79231201 -39.89345215 33.97915527 -39.04370117 33.14135742 C-36.85877021 30.97577525 -36.85877021 30.97577525 -35 28 C-34.34 28 -33.68 28 -33 28 C-32.505 26.515 -32.505 26.515 -32 25 C-31.34 25 -30.68 25 -30 25 C-29.60820557 24.1181604 -29.60820557 24.1181604 -29.20849609 23.21850586 C-27.92903318 20.86972212 -26.57736167 19.36282963 -24.6640625 17.50390625 C-24.01179687 16.86259766 -23.35953125 16.22128906 -22.6875 15.56054688 C-22.006875 14.90119141 -21.32625 14.24183594 -20.625 13.5625 C-16.48158857 9.52624577 -12.58788122 5.54861719 -9 1 C-5.89046621 -0.5547669 -3.43733239 -0.28644437 0 0 Z "
        fill="#FBBD29"
        transform="translate(685,129)"
    />
<path
        d="M0 0 C3.64789641 0.1102518 5.36264828 0.40650136 8.24609375 2.69140625 C9.72885913 4.2957531 11.19730787 5.91343122 12.65234375 7.54296875 C18.21486972 13.22280634 24.74236728 14.05881431 32.4375 14.3125 C38.78138177 14.13343882 43.47575076 13.12025059 48.875 9.8125 C49.9475 9.173125 51.02 8.53375 52.125 7.875 C54.98534695 5.89168164 54.98534695 5.89168164 57.1875 3.0625 C60.53175012 0.26266269 62.46520166 0.12904611 66.71875 0.3984375 C70.10363592 1.04843371 71.69797073 2.15924558 73.875 4.8125 C75.22256057 9.01371824 75.13798809 11.12372166 73.5625 15.25 C67.04566513 25.16982372 54.07783478 31.84307391 42.875 34.8125 C26.54786563 36.47407827 13.15575517 33.77306638 -0.125 23.8125 C-4.09919487 20.46016656 -8.0685601 17.09469948 -9.125 11.8125 C-8.76766647 5.02316291 -7.41322462 0.28512402 0 0 Z "
        fill="#FBBD2A"
        transform="translate(238.125,306.1875)"
    />
<path
        d="M0 0 C0 14.52 0 29.04 0 44 C-7.01694701 44 -11.7962842 42.90640127 -17.0625 38.12890625 C-22.57986044 32.04831527 -24.55205468 27.01429245 -24.375 18.78125 C-23.45553786 11.96190577 -18.90745188 7.32746183 -13.6875 3.1875 C-8.83326518 -0.22844302 -6.24039843 0 0 0 Z "
        fill="#FCFAF4"
        transform="translate(149,248)"
    />
<path
        d="M0 0 C8.5355371 0.94839301 11.97285468 1.54519988 18 7 C22.75619365 13.10378185 24.90406675 18.24731802 24 26 C23.00211019 28.90577241 21.63141748 31.40456311 20 34 C19.46375 34.886875 18.9275 35.77375 18.375 36.6875 C12.96070586 41.95931272 7.48445055 44 0 44 C0 29.48 0 14.96 0 0 Z "
        fill="#FDFAF3"
        transform="translate(393,248)"
    />
<path
        d="M0 0 C2.97672584 1.77280561 5.42804007 3.85608015 7 7 C7.29259649 10.4308452 7.27791989 13.87062655 7.3125 17.3125 C7.34150391 18.26318359 7.37050781 19.21386719 7.40039062 20.19335938 C7.44076288 24.63741318 7.4611984 27.24401499 5.10546875 31.10546875 C1.81913803 34.06255669 -0.52999325 34.33740007 -4.9609375 34.2890625 C-8.16544562 33.83478357 -9.82724211 32.30444019 -12 30 C-13.42098885 25.73703344 -13.26461062 21.653983 -13.3125 17.1875 C-13.34150391 16.29740234 -13.37050781 15.40730469 -13.40039062 14.49023438 C-13.45652158 8.66556791 -12.85606156 5.44269801 -9 1 C-5.85088521 -0.57455739 -3.47991184 -0.34799118 0 0 Z "
        fill="#FBBE2D"
        transform="translate(318,233)"
    />
<path
        d="M0 0 C2.85694024 1.60327672 4.20238616 2.3813307 6 5 C6.87592921 9.0149921 6.79252472 12.9064784 6.6875 17 C6.70232422 18.08023438 6.71714844 19.16046875 6.73242188 20.2734375 C6.65008982 28.11919837 6.65008982 28.11919837 3.64453125 32.19140625 C0.58096408 34.28657848 -1.29415007 34.92279479 -5 35 C-8.13623848 34.27064221 -9.54952776 33.53991225 -11.61328125 31.06640625 C-13.64133634 26.58183373 -13.51345448 22.42965767 -13.5 17.5625 C-13.52835938 16.63373047 -13.55671875 15.70496094 -13.5859375 14.74804688 C-13.59881413 10.22513161 -13.5147967 7.00103033 -10.59375 3.40234375 C-6.93492289 0.01352045 -4.9783145 -0.5744209 0 0 Z "
        fill="#FBBD2A"
        transform="translate(229,233)"
    />
<path
        d="M0 0 C0.33 0.66 0.66 1.32 1 2 C-0.60341555 2.33692785 -2.20776555 2.66941093 -3.8125 3 C-4.70582031 3.185625 -5.59914063 3.37125 -6.51953125 3.5625 C-9 4 -9 4 -12 4 C-7.99899414 0.12023674 -5.51903037 -0.43286513 0 0 Z "
        fill="#FBC246"
        transform="translate(685,129)"
    />
<path
        d="M0 0 C0 0.66 0 1.32 0 2 C-3.3 2.33 -6.6 2.66 -10 3 C-10 2.34 -10 1.68 -10 1 C-6.61981469 -0.04005702 -3.5219721 -0.08004482 0 0 Z "
        fill="#FBC038"
        transform="translate(299,399)"
    />
<path
        d="M0 0 C3.36720387 1.39332574 4.9859524 2.9789286 7 6 C4 6 4 6 1.8125 4.125 C0 2 0 2 0 0 Z "
        fill="#FBBF38"
        transform="translate(634,542)"
    />
<path
        d="M0 0 C0.33 0 0.66 0 1 0 C1.2506019 1.41303238 1.47461921 2.83079474 1.6875 4.25 C1.81511719 5.03890625 1.94273437 5.8278125 2.07421875 6.640625 C2 9 2 9 -1 13 C-0.67 8.71 -0.34 4.42 0 0 Z "
        fill="#FCD171"
        transform="translate(402,179)"
    />
<path
        d="M0 0 C-1.39332574 3.36720387 -2.9789286 4.9859524 -6 7 C-6.66 6.67 -7.32 6.34 -8 6 C-7.0479279 4.99403703 -6.08812654 3.99538437 -5.125 3 C-4.59132813 2.443125 -4.05765625 1.88625 -3.5078125 1.3125 C-2 0 -2 0 0 0 Z "
        fill="#FBC242"
        transform="translate(452,456)"
    />
<path
        d="M0 0 C1.98 0.99 1.98 0.99 4 2 C4 2.66 4 3.32 4 4 C4.99 4.33 5.98 4.66 7 5 C6.34 5.66 5.68 6.32 5 7 C3.29115995 5.37660195 1.62553283 3.70680947 0 2 C0 1.34 0 0.68 0 0 Z "
        fill="#FCC23C"
        transform="translate(331,78)"
    />
</svg>
