<svg width="800" height="800" viewBox="0 0 800 800" fill="none" xmlns="http://www.w3.org/2000/svg">
<g clip-path="url(#clip0_1_31)">
<path d="M692.11 212.619C694.626 215.789 694.432 217.576 694.297 221.59C694.28 222.241 694.263 222.892 694.245 223.563C694.183 225.71 694.092 227.854 694 230C693.952 231.5 693.906 233 693.861 234.5C693.736 238.397 693.562 242.289 693.365 246.183C693.288 247.785 693.218 249.388 693.156 250.99C693.065 253.35 692.949 255.708 692.828 258.066C692.805 258.776 692.782 259.485 692.758 260.216C692.465 265.178 691.108 268.152 688 272C685.191 273.405 683.112 273.249 680 273C676.864 271.22 676.159 270.477 675 267C674.853 265.374 674.753 263.744 674.684 262.113C674.642 261.175 674.6 260.238 674.557 259.271C674.517 258.295 674.478 257.319 674.438 256.312C674.394 255.324 674.351 254.336 674.307 253.318C674.201 250.879 674.099 248.44 674 246C668.755 251.222 663.513 256.446 658.274 261.675C655.84 264.103 653.406 266.53 650.97 268.955C648.162 271.75 645.358 274.549 642.555 277.348C641.689 278.208 640.823 279.069 639.931 279.956C635.402 284.485 631.112 289.09 627 294C625.345 295.678 623.678 297.345 622 299C621.026 300.049 620.056 301.101 619.09 302.156C610.878 310.966 603.395 316.888 590.875 317.687C579.138 317.035 571.682 308.142 563.68 300.469C559.804 296.771 555.738 293.422 551.547 290.086C548.908 287.924 546.429 285.642 543.938 283.312C538.734 278.597 533.196 273.798 526.145 272.457C521.463 273.265 519.204 275.949 515.938 279.25C514.612 280.538 513.287 281.826 511.961 283.113C511.299 283.765 510.638 284.417 509.956 285.088C507.047 287.932 504.06 290.687 501.063 293.437C500.25 294.186 500.25 294.186 499.421 294.95C494.273 299.689 489.024 304.288 483.684 308.809C477.838 313.768 472.116 318.718 466.77 324.223C464.401 326.601 461.876 328.765 459.332 330.953C456.337 333.582 453.42 336.289 450.5 339C447.08 342.172 443.662 345.333 440.125 348.375C436.149 351.809 432.332 355.407 428.5 359C419.138 367.774 419.138 367.774 414.621 371.602C412.98 372.983 412.98 372.983 411.473 374.523C408.722 377.165 406.628 378.355 402.875 378.562C399 378 399 378 396.5 376.562C394.248 372.715 394.142 369.344 395 365C396.637 362.442 397.816 360.972 400 359C400.581 358.47 401.163 357.94 401.762 357.395C403.086 356.22 404.423 355.059 405.77 353.91C409.041 351.108 412.226 348.212 415.422 345.324C417.135 343.779 418.854 342.24 420.578 340.707C424.476 337.233 428.297 333.744 431.938 330C434.789 327.103 437.756 324.53 440.938 322C448.355 316.047 455.132 309.415 462.023 302.868C468.166 297.063 474.474 291.443 480.852 285.898C483.535 283.527 486.175 281.11 488.813 278.687C489.324 278.218 489.836 277.748 490.363 277.265C492.867 274.964 495.367 272.66 497.863 270.352C515.845 253.82 515.845 253.82 526.25 253.75C527.002 253.729 527.753 253.709 528.527 253.687C536.546 253.632 541.273 256.911 547.188 262.125C548.339 263.122 549.491 264.118 550.645 265.113C551.213 265.605 551.781 266.097 552.366 266.604C554.658 268.562 557.017 270.434 559.375 272.312C563.988 276.056 568.309 280.048 572.625 284.125C578.728 289.879 578.728 289.879 585.062 295.375C585.693 295.898 586.323 296.422 586.973 296.961C589.841 298.431 591.82 298.398 595 298C597.287 296.663 597.287 296.663 599.312 294.562C600.161 293.75 601.009 292.938 601.883 292.102C602.923 291.069 603.962 290.035 605 289C606.393 287.633 607.786 286.266 609.18 284.898C617.549 276.685 617.549 276.685 625.461 268.039C629.411 263.46 633.652 259.201 637.938 254.937C638.697 254.174 639.457 253.41 640.24 252.623C644.458 248.413 648.768 244.382 653.283 240.494C655.274 238.762 657.154 236.947 659 235.062C660 234.042 661 233.021 662 232C660.686 232.13 659.373 232.26 658.02 232.395C656.284 232.535 654.548 232.674 652.812 232.812C651.948 232.902 651.084 232.992 650.193 233.084C645.633 233.416 643.717 233.528 639.922 230.73C637.412 227.165 637.312 225.278 638 221C640.086 217.55 641.201 216.208 645.152 215.18C646.401 215.079 647.651 214.979 648.938 214.875C650.367 214.743 651.797 214.607 653.227 214.469C653.993 214.399 654.759 214.33 655.548 214.258C659.075 213.887 662.569 213.337 666.073 212.796C687.961 209.435 687.961 209.435 692.11 212.619Z" fill="#F8BE2A"/>
<path d="M642.562 317.371C643.786 317.369 645.01 317.367 646.271 317.364C648.857 317.365 651.443 317.378 654.028 317.403C657.986 317.438 661.941 317.424 665.898 317.404C668.411 317.411 670.924 317.421 673.438 317.434C674.621 317.429 675.804 317.424 677.023 317.419C685.19 317.536 685.19 317.535 689.223 319.848C692.237 323.498 692.124 326.599 692.12 331.169C692.122 333.106 692.122 333.107 692.124 335.083C692.12 336.517 692.117 337.952 692.113 339.386C692.113 340.893 692.114 342.401 692.114 343.909C692.115 348.006 692.109 352.103 692.102 356.199C692.095 360.479 692.095 364.76 692.094 369.04C692.091 377.146 692.082 385.253 692.072 393.359C692.061 402.588 692.056 411.816 692.051 421.045C692.04 440.03 692.022 459.015 692 478L695.98 477.895C697.716 477.866 699.452 477.839 701.188 477.812L703.807 477.736C708.727 477.68 711.987 477.807 716 481C717.809 482.809 717.345 485.28 717.523 487.699C716.677 491.418 715.103 493.865 712 496C707.637 496.926 703.312 496.809 698.866 496.762C697.5 496.769 696.134 496.778 694.769 496.79C691.015 496.815 687.262 496.803 683.509 496.784C679.461 496.771 675.414 496.792 671.366 496.809C663.437 496.835 655.507 496.829 647.578 496.812C641.135 496.798 634.691 496.796 628.248 496.803C627.332 496.804 626.415 496.805 625.471 496.806C623.609 496.808 621.747 496.81 619.886 496.812C602.421 496.829 584.957 496.809 567.492 496.776C552.502 496.75 537.512 496.755 522.521 496.782C505.12 496.814 487.719 496.827 470.317 496.809C468.462 496.807 466.607 496.805 464.752 496.803C463.839 496.802 462.927 496.801 461.986 496.8C455.55 496.795 449.113 496.803 442.676 496.817C434.833 496.834 426.99 496.83 419.147 496.798C415.145 496.782 411.142 496.776 407.14 496.796C403.477 496.814 399.815 496.804 396.152 496.772C394.197 496.763 392.241 496.782 390.285 496.803C382.022 496.691 382.021 496.691 379.105 494.719C376.971 492.289 376.032 490.151 375.375 487C376.201 483.037 377.711 480.336 381 478C384.631 477.262 388.127 477.432 391.812 477.625L394.779 477.707C397.188 477.778 399.593 477.876 402 478C401.979 477.174 401.958 476.348 401.936 475.497C401.737 467.7 401.558 459.902 401.401 452.104C401.32 448.095 401.232 444.086 401.126 440.078C401.024 436.208 400.941 432.337 400.873 428.466C400.844 426.991 400.807 425.517 400.763 424.043C400.702 421.973 400.667 419.903 400.638 417.832C400.611 416.655 400.584 415.477 400.557 414.265C401.134 410.013 402.963 407.037 406 404C407.722 403.885 409.449 403.841 411.175 403.823C412.832 403.804 412.833 403.804 414.523 403.784C416.329 403.773 416.329 403.773 418.172 403.762C419.402 403.754 420.631 403.746 421.898 403.737C424.508 403.723 427.117 403.713 429.727 403.705C432.402 403.696 435.077 403.675 437.752 403.644C441.6 403.601 445.448 403.584 449.297 403.574C450.493 403.557 451.689 403.54 452.921 403.521C461.223 403.543 461.223 403.543 465.231 405.901C467.669 408.793 468.128 410.39 468.205 414.085C468.235 415.355 468.235 415.355 468.266 416.65C468.282 417.574 468.299 418.498 468.316 419.449C468.337 420.413 468.357 421.376 468.379 422.369C468.422 424.426 468.464 426.484 468.503 428.541C468.561 431.602 468.626 434.663 468.693 437.725C468.981 451.486 469.038 465.236 469 479H514C513.974 475.215 513.948 471.429 513.921 467.529C513.838 455.028 513.783 442.527 513.741 430.025C513.715 422.445 513.68 414.866 513.623 407.286C513.573 400.679 513.54 394.071 513.529 387.463C513.523 383.965 513.508 380.467 513.472 376.969C513.431 373.062 513.43 369.155 513.433 365.248C513.406 363.513 513.405 363.512 513.378 361.742C513.434 352.986 513.434 352.986 516.178 349.282C519.361 346.708 520.683 346.246 524.721 346.239C525.845 346.224 526.97 346.209 528.129 346.192C529.334 346.208 530.539 346.223 531.781 346.238C533.027 346.235 534.274 346.232 535.558 346.229C538.864 346.229 542.169 346.258 545.475 346.297C547.498 346.313 549.521 346.307 551.545 346.293C555.437 346.268 559.327 346.278 563.219 346.301C564.424 346.294 565.629 346.286 566.871 346.279C567.996 346.298 569.121 346.317 570.279 346.337C571.759 346.347 571.759 346.348 573.269 346.358C577.35 347.317 578.636 348.509 581 352C581.718 356.046 581.631 360.035 581.567 364.134C581.568 365.978 581.569 365.979 581.57 367.86C581.567 371.224 581.542 374.587 581.507 377.95C581.476 381.468 581.473 384.986 581.467 388.504C581.451 395.162 581.411 401.82 581.36 408.479C581.304 416.06 581.277 423.641 581.252 431.223C581.2 446.815 581.108 462.408 581 478H625C624.974 473.331 624.948 468.661 624.921 463.851C624.838 448.444 624.783 433.038 624.741 417.631C624.715 408.287 624.68 398.944 624.623 389.601C624.573 381.457 624.54 373.314 624.529 365.171C624.523 360.859 624.508 356.546 624.472 352.234C624.438 348.175 624.427 344.117 624.435 340.058C624.433 338.568 624.423 337.078 624.404 335.589C624.379 333.555 624.388 331.52 624.398 329.485C624.392 327.778 624.392 327.778 624.385 326.036C625.625 319.917 629.658 317.375 635.629 317.369C637.286 317.35 637.286 317.35 638.977 317.331C640.751 317.351 640.752 317.351 642.562 317.371ZM419 422V479H452C452.093 459.936 451.781 441.048 451 422H419ZM531 479H563L564 365H531V479ZM642 336C641.974 346.431 641.952 356.861 641.94 367.292C641.94 368.17 641.938 369.023 641.938 369.875C641.911 395.778 642.04 421.672 642.464 447.571C642.476 448.312 642.488 449.031 642.5 449.75C642.655 459.167 642.825 468.583 643 478H674L675 336H642Z" fill="#F8BE2B"/>
<path d="M764.729 107.495C780.08 107.392 780.08 107.392 787 112L789.688 113.75C795.751 119.65 798.077 125.602 798.238 133.945C798.269 136.338 798.293 138.731 798.312 141.125L798.4 144.718C798.462 153.277 797.528 160.526 792.105 167.402C787.195 171.333 782.55 175 776 175C775.999 175.774 775.999 176.549 775.998 177.347C775.962 223.233 775.906 269.12 775.822 315.005C775.812 320.512 775.803 326.019 775.793 331.525C775.79 333.169 775.789 333.169 775.786 334.846C775.755 352.61 775.738 370.374 775.727 388.137C775.714 406.356 775.687 424.576 775.646 442.795C775.62 454.042 775.607 465.289 775.608 476.537C775.608 484.243 775.594 491.95 775.567 499.657C775.553 504.107 775.546 508.557 775.555 513.007C775.563 517.079 775.552 521.151 775.527 525.222C775.522 526.697 775.523 528.173 775.531 529.648C775.542 531.65 775.526 533.651 775.508 535.653C775.506 536.766 775.504 537.879 775.503 539.026C774.883 542.692 773.556 544.349 771 547C766.731 549.499 762.277 549.276 757.464 549.241C756.178 549.243 756.178 549.243 754.865 549.246C751.992 549.249 749.12 549.238 746.247 549.227C744.187 549.227 742.127 549.227 740.067 549.228C734.475 549.229 728.882 549.217 723.29 549.203C717.446 549.19 711.601 549.19 705.757 549.187C694.69 549.181 683.622 549.164 672.555 549.144C659.955 549.122 647.355 549.11 634.756 549.1C608.837 549.079 582.919 549.044 557 549C556.895 553.733 556.857 558.462 556.878 563.197C556.876 564.805 556.856 566.413 556.818 568.021C556.271 577.383 556.271 577.383 560.216 585.342C562.763 586.848 565.25 587.927 568 589C574.265 595.023 577.027 601.12 577.312 609.75C577.084 620.031 574.042 628.366 567 636C562.17 639.767 557.231 642.734 551 643L548.953 643.148C541.143 643.498 534.738 641.98 528.875 636.625C522.556 629.684 517.639 621.873 517.312 612.312C517.984 601.78 522.106 593.996 530 587C533.088 584.99 536.215 583 540 583V549L526.218 549.063C511.21 549.129 496.203 549.175 481.195 549.208C472.094 549.228 462.993 549.256 453.892 549.301C445.959 549.341 438.027 549.368 430.095 549.377C425.894 549.382 421.694 549.393 417.493 549.422C413.539 549.45 409.586 549.459 405.632 549.453C404.181 549.454 402.73 549.462 401.279 549.477C399.298 549.497 397.316 549.49 395.334 549.481C394.225 549.485 393.116 549.488 391.974 549.492C388.307 548.885 386.645 547.558 384 545C382.549 542.097 382.628 540.227 383 537C386.703 531.279 386.703 531.279 391.529 530.241C392.92 530.206 394.312 530.204 395.703 530.228C396.476 530.218 397.25 530.207 398.047 530.196C400.654 530.168 403.259 530.183 405.866 530.198C407.757 530.187 409.647 530.173 411.538 530.157C416.763 530.12 421.987 530.12 427.212 530.128C432.865 530.129 438.519 530.097 444.173 530.069C455.425 530.02 466.677 530.006 477.93 530.005C487.463 530.003 496.996 529.991 506.529 529.972C547.811 529.894 589.093 529.908 630.375 529.937L758 530V176H335C335.119 270.885 335.119 270.885 335.271 365.77C335.284 384.092 335.284 384.092 335.286 392.661C335.289 398.665 335.3 404.669 335.316 410.672C335.335 417.593 335.345 424.514 335.341 431.434C335.339 434.976 335.341 438.518 335.357 442.06C335.372 445.849 335.369 449.638 335.36 453.427C335.369 454.537 335.379 455.647 335.388 456.79C335.354 462.539 335.282 466.717 331 471C329.074 471.273 329.074 471.273 326.688 471.375L324.324 471.523C322 471 322 471 319.885 469.193C317.037 464.368 317.461 459.896 317.519 454.389C317.515 453.201 317.512 452.012 317.509 450.788C317.503 447.492 317.516 444.197 317.536 440.902C317.553 437.347 317.547 433.793 317.544 430.238C317.542 424.08 317.555 417.922 317.577 411.764C317.61 402.861 317.62 393.958 317.625 385.055C317.634 370.611 317.66 356.166 317.698 341.721C317.735 327.69 317.763 313.658 317.78 299.627C317.781 298.762 317.782 297.897 317.783 297.005C317.788 292.667 317.794 288.328 317.799 283.989C317.84 247.993 317.911 211.996 318 176C317.388 175.876 316.776 175.754 316.146 175.627C315.34 175.457 314.534 175.287 313.703 175.113C312.507 174.866 312.507 174.867 311.286 174.615C305.339 173.016 300.148 168.425 296.913 163.266C293.331 156.159 293.37 149.337 293.438 141.5L293.365 137.66C293.38 128.445 294.998 122.618 301.027 115.66L302.938 114.062L304.84 112.41C310.033 109.02 315.415 108.679 321.46 108.592C322.286 108.573 323.113 108.554 323.964 108.535C326.693 108.475 329.422 108.431 332.151 108.386C334.089 108.349 336.027 108.31 337.965 108.272C357.52 107.906 377.076 107.836 396.635 107.825C401.779 107.821 406.923 107.812 412.067 107.803C424.37 107.784 436.672 107.773 448.975 107.764C453.624 107.761 458.274 107.757 462.924 107.753C483.474 107.734 504.024 107.718 524.574 107.711C529.559 107.709 534.544 107.707 539.529 107.705C541.387 107.704 541.388 107.704 543.283 107.704C563.46 107.695 583.637 107.67 603.814 107.637C624.608 107.604 645.402 107.586 666.195 107.583C677.84 107.58 689.486 107.572 701.131 107.547C711.014 107.525 720.898 107.517 730.781 107.527C735.819 107.532 740.857 107.529 745.896 107.509C750.506 107.492 755.116 107.493 759.727 107.508C761.394 107.511 763.061 107.507 764.729 107.495ZM554.75 601.25C547.137 597.789 542.204 598.561 536.98 605.086C535.071 608.814 535.364 612.943 536 617C537.583 620.83 539.421 622.821 543 625C546.904 625.719 550.058 625.363 553.75 623.937C557.957 620.314 559.787 616.767 560.438 611.375C559.824 606.639 558.519 604.181 554.75 601.25ZM326.155 125.356C325.35 125.363 324.569 125.37 323.788 125.377C317.4 125.268 312.119 126.555 310.369 133.507C310.37 134.397 310.37 135.261 310.371 136.125L310.365 139.015L310.438 142C310.382 146.998 309.942 151.218 312.554 155.618C315.277 158.27 316.732 158.595 320.473 158.665C321.586 158.647 321.586 158.647 322.678 158.63C325.186 158.653 327.693 158.668 330.202 158.653C332.055 158.641 333.907 158.638 335.76 158.643C340.866 158.67 345.973 158.679 351.08 158.664C356.664 158.647 362.248 158.652 367.832 158.665C378.77 158.691 389.708 158.695 400.646 158.681C409.626 158.67 418.606 158.662 427.586 158.667C428.896 158.667 430.168 158.669 431.44 158.67C434.026 158.671 436.612 158.672 439.197 158.673C463.461 158.689 487.724 158.679 511.987 158.652C533.591 158.628 555.196 158.626 576.8 158.65C600.456 158.676 624.112 158.69 647.769 158.676C650.364 158.675 652.959 158.673 655.554 158.672C657.509 158.67 657.509 158.671 659.426 158.67C668.412 158.664 677.399 158.665 686.386 158.676C697.447 158.691 708.508 158.696 719.569 158.673C725.214 158.66 730.859 158.643 736.504 158.654C741.741 158.669 746.978 158.68 752.215 158.659C754.118 158.649 756.021 158.641 757.924 158.635C760.557 158.653 763.191 158.669 765.824 158.651C766.631 158.644 767.414 158.637 768.196 158.63C770.996 158.675 773.194 158.492 776 158C778.919 155.64 780.706 154.236 781.584 150.552C781.564 149.693 781.543 148.858 781.523 148.023L781.488 145.242L781.375 142.375C781.299 137.236 782.198 131.31 778.416 127.337C775.714 125.842 773.6 125.634 770.538 125.597C769.79 125.604 769.064 125.61 768.338 125.617C765.835 125.601 763.333 125.59 760.83 125.597C758.982 125.603 757.133 125.603 755.284 125.598C750.189 125.578 745.093 125.57 739.998 125.575C734.426 125.581 728.853 125.574 723.281 125.562C712.368 125.538 701.454 125.528 690.54 125.53C681.58 125.531 672.619 125.531 663.658 125.524C661.089 125.522 658.519 125.519 655.949 125.517C653.992 125.516 653.991 125.516 652.072 125.514C634.068 125.5 616.064 125.489 598.061 125.494C597.36 125.494 596.681 125.495 596.001 125.495C592.556 125.496 589.111 125.497 585.666 125.498C584.961 125.498 584.277 125.497 583.593 125.498C582.208 125.498 580.824 125.498 579.439 125.499C557.882 125.505 536.326 125.494 514.769 125.462C491.164 125.426 467.559 125.403 443.954 125.407C431.11 125.409 418.265 125.411 405.421 125.387C394.384 125.366 383.347 125.353 372.31 125.368C366.677 125.378 361.044 125.391 355.411 125.376C350.185 125.356 344.96 125.342 339.734 125.359C337.836 125.368 335.937 125.374 334.038 125.379C331.41 125.359 328.783 125.34 326.155 125.356Z" fill="#F8BE2B"/>
<path d="M157.333 164.479C180.384 160.34 204.672 164.796 223.937 178.016C226.395 179.919 228.705 181.904 231 184L233.101 185.789C237.003 189.33 239.396 192.632 241.69 197.402C244.663 203.607 244.663 203.607 250.265 207.391C252.677 207.839 255.102 208.218 257.535 208.527C266.97 209.814 274.303 215.594 280 223C286.588 234.399 288.371 244.829 288.312 257.812C288.31 259.047 288.307 260.282 288.305 261.554C288.19 272.175 287.502 282.729 286.625 293.312C286.562 294.089 286.499 294.865 286.434 295.665C286.249 297.899 286.053 300.131 285.851 302.363C285.736 303.645 285.621 304.927 285.503 306.247C284.96 310.298 284.06 314.056 283 318H285C293.821 329.057 295.769 339.169 295 353C293.396 363.043 287.915 371.108 280.133 377.5C276.092 380.342 271.651 382.864 266.64 383.121C263.866 383.275 262.363 383.495 260 385C258.074 388.755 256.807 392.559 255.504 396.562C251.664 408.314 245.376 417.464 236.734 426.195L234 429L231.676 431.379C229.472 434.826 229.353 437.842 229.437 441.812C229.45 442.878 229.45 442.879 229.464 443.966C229.686 449.67 230.774 454.045 235 458C238.5 460.405 241.791 461.697 245.875 462.812L249.601 463.84C252.861 464.708 256.129 465.546 259.398 466.379C292.366 474.787 330.214 485.005 349 516L350.832 518.902C361.632 536.57 362.324 554.112 362.371 574.254C362.38 576.288 362.389 578.322 362.398 580.355C362.415 584.596 362.423 588.836 362.426 593.076C362.431 598.478 362.469 603.879 362.514 609.28C362.544 613.473 362.552 617.666 362.553 621.858C362.557 623.849 362.569 625.84 362.59 627.83C362.733 642.528 361.96 655.041 351.117 666.191C344.998 671.419 338.541 673.121 330.584 673.132C329.503 673.136 328.423 673.14 327.309 673.144C326.128 673.143 324.946 673.142 323.728 673.141C322.469 673.144 321.209 673.146 319.911 673.149C316.417 673.157 312.922 673.159 309.428 673.16C305.658 673.162 301.888 673.169 298.119 673.176C289.877 673.189 281.635 673.196 273.393 673.2C268.246 673.203 263.099 673.207 257.952 673.212C243.698 673.224 229.444 673.234 215.19 673.237C214.278 673.238 213.365 673.238 212.426 673.238C211.512 673.238 210.598 673.239 209.656 673.239C207.804 673.24 205.951 673.24 204.098 673.24C202.72 673.241 202.72 673.241 201.313 673.241C186.424 673.245 171.535 673.262 156.646 673.285C141.356 673.309 126.065 673.322 110.774 673.323C102.191 673.324 93.6076 673.329 85.0242 673.348C77.7153 673.363 70.4064 673.369 63.0975 673.36C59.3699 673.356 55.6424 673.357 51.9149 673.371C47.8697 673.386 43.8243 673.378 39.7791 673.367C38.6067 673.375 37.4343 673.383 36.2264 673.392C25.3379 673.326 17.8769 670.874 9.43732 663.875C3.08022 656.377 0.849388 648.61 0.854309 638.962C0.85095 638.036 0.848004 637.11 0.844543 636.156C0.835022 633.086 0.832921 630.016 0.831848 626.945C0.828634 624.806 0.82559 622.667 0.822083 620.527C0.816086 616.033 0.813678 611.539 0.81427 607.045C0.814371 601.315 0.801272 595.584 0.783997 589.854C0.772815 585.428 0.770774 581.003 0.771301 576.578C0.770128 574.468 0.765406 572.357 0.757629 570.247C0.673311 544.981 5.12679 524.702 21.9998 505C43.3493 483.845 72.686 473.865 101.312 466.938C117.414 463.939 117.414 463.939 129.812 454.438C133.02 447.925 133.18 441.446 131.332 434.484C129.44 429.628 126.785 426.569 123 423.078C118.683 418.593 115.406 413.189 112 408L110.68 406.098C107.16 400.652 104 391.542 104 385L101.472 384.738C90.5513 383.375 81.4812 379.879 74.4061 371C68.81 363.1 66.4243 355.347 66.4998 345.688L66.5106 343.189C66.7271 335.164 68.5275 327.632 74.2147 321.684C76.6826 317.974 76.0168 315.113 75.3123 310.938C75.0873 309.307 74.8675 307.675 74.6522 306.043C74.5386 305.204 74.4254 304.366 74.3084 303.502C72.7661 290.98 72.8884 278.218 72.8123 265.625C72.7993 264.39 72.7867 263.154 72.7733 261.882C72.7478 234.614 82.1128 212.265 100.875 192.75C116.516 177.648 133.726 168.975 155 165C155.77 164.828 156.54 164.656 157.333 164.479ZM253.625 493.312C251.326 497.688 249.032 502.066 246.706 506.427C241.754 515.684 237.003 524.985 232.562 534.5C232.137 535.43 231.723 536.334 231.31 537.236C230.909 538.102 230.519 538.941 230.129 539.781C229.145 542.015 229.145 542.015 228 544C225.766 546.711 225.128 546.972 221.5 547.75C214.296 545.735 214.295 545.735 208.644 540.418C207.12 539.024 205.582 537.643 204.012 536.301C201.403 534.083 198.859 531.805 196.36 529.465C195.74 528.881 195.137 528.313 194.535 527.746C193.273 526.561 192.011 525.374 190.75 524.188C190.129 523.594 189.526 523.018 188.923 522.442C188.327 521.882 187.749 521.337 187.172 520.793C184.932 518.663 182.813 517.289 180 516C177.932 518.14 175.839 520.134 173.555 522.043C169.766 525.075 165.998 528.11 162.375 531.34C160.724 532.849 159.068 534.351 157.406 535.848L155 538C152.779 540.009 150.549 541.928 148.176 543.754C144.586 545.81 142.047 545.568 138 545C135.615 544.055 135.615 544.055 134.312 540.688C133.089 538.136 131.811 535.674 130.394 533.223C127.991 529.186 125.597 525.17 123.461 520.984C120.981 515.92 118.449 510.972 115.562 506.125C112.871 501.62 110.51 497.041 108.25 492.312C106.578 488.738 106.578 488.738 105 486C101.315 484.772 101.315 484.772 88.5887 489.106C87.7086 489.41 86.854 489.705 85.9998 490C70.4544 495.357 52.7852 500.747 40.5662 512.359L38.9998 514C22.763 530.56 17.2063 546.957 17.3494 569.701C17.3643 571.7 17.3707 573.699 17.3699 575.698C17.3617 579.908 17.3595 584.118 17.3817 588.328C17.4169 593.758 17.4407 599.187 17.4236 604.617C17.409 608.886 17.4045 613.155 17.4149 617.425C17.4221 619.462 17.4282 621.498 17.4334 623.535C17.4243 626.44 17.4176 629.343 17.4402 632.248C17.4491 633.157 17.458 634.04 17.4666 634.922C17.4144 641.481 17.9708 645.666 21.9998 651C26.0238 654.438 29.9122 655.455 35.1297 655.453C35.8811 655.432 36.6104 655.411 37.3397 655.391C39.7207 655.373 42.1006 655.351 44.4813 655.302C46.1307 655.267 47.7808 655.24 49.4305 655.22C54.2875 655.172 59.1436 655.099 63.9998 655C64.0764 644.724 64.1607 634.448 64.2576 624.172C64.3078 618.937 64.3593 613.702 64.3992 608.467C64.4364 603.334 64.4757 598.202 64.5272 593.069C64.5476 591.122 64.5671 589.174 64.5858 587.227C64.6026 584.413 64.6202 581.6 64.6512 578.786C64.6666 577.487 64.6664 577.487 64.6815 576.214C64.6889 573.442 64.7822 570.769 64.9998 568C66.7794 565.803 66.7797 565.803 69.0936 565.77L71.4998 565.812C73.001 565.825 74.5034 565.88 75.9998 566C78.4998 567 78.4998 567 79.9998 571L80.9998 655H283C283.349 625.661 277.884 595.465 285 567L287.117 566.965L289.875 566.938C292.688 566.901 294.475 566.738 297 568C298.478 570.839 299.005 573.066 299.271 576.268C299.282 577.543 299.292 578.781 299.303 580.019C299.329 582.198 299.354 584.377 299.366 586.557C299.375 588.118 299.387 589.681 299.403 591.242C299.45 595.358 299.491 599.474 299.523 603.59C299.574 610.288 299.635 616.987 299.705 623.686C299.73 626.044 299.754 628.403 299.77 630.762C299.826 638.896 300.011 646.913 301 655C304.845 655.041 308.69 655.076 312.535 655.098C314.107 655.106 315.678 655.115 317.25 655.125C319.563 655.15 321.875 655.175 324.188 655.187C324.937 655.189 325.664 655.192 326.39 655.195C331.703 655.274 335.457 655.096 339.679 651.616C343.516 647.517 344.692 644.541 344.758 638.943C344.737 638.03 344.717 637.143 344.697 636.257C344.705 633.238 344.704 630.221 344.665 627.202C344.636 625.048 344.617 622.894 344.608 620.739C344.599 615.081 344.568 609.424 344.508 603.767C344.458 599.082 344.423 594.397 344.405 589.712C344.386 584.05 344.362 578.388 344.329 572.726C344.322 571.624 344.315 570.554 344.308 569.484C344.29 566.353 344.268 563.221 344.238 560.09C344.228 559.116 344.219 558.171 344.209 557.226C344.203 556.304 344.197 555.409 344.191 554.515C344.181 553.671 344.171 552.853 344.161 552.034C344.104 546.125 344.103 546.125 338 532C325.73 508.429 303.216 498.806 279.45 490.645C277.834 490.098 277.834 490.098 276.25 489.562C270.18 487.509 264.393 485.634 258 485L253.625 493.312ZM225 474C221.042 478.031 217.12 482.106 212.906 485.871C206.544 491.307 198.294 497.128 195 505C202.556 511.796 210.27 518.403 218 525C220.806 522.429 222.11 519.804 223.601 516.3C226.842 508.546 230.438 501.078 234.437 493.688C236.904 489.209 239.432 485.176 240 480L238.242 479.195L235.875 478.125C232.312 476.506 228.725 475.199 225 474ZM135.98 475.508C134 475 134 475 130.984 475.898L127.75 477.375C125.827 478.235 123.908 479.106 122 480C122 483 122 483 123.293 485.477C126.186 490.285 129.015 495.107 131.606 500.087C132.189 501.23 132.755 502.34 133.32 503.449C134.487 505.736 135.651 508.024 136.812 510.312C137.392 511.475 137.956 512.602 138.518 513.73C139.071 514.817 139.608 515.872 140.144 516.926C141.943 520.511 142.127 521.709 146 523L148.312 521.445L151 519.125L153.926 516.629C155.464 515.303 157.008 513.993 158.588 512.718C159.125 512.292 159.646 511.878 160.168 511.465L163.187 509.062C164.832 507.758 166.451 506.417 168 505V503L165.808 501.156C163.012 499.067 163.012 499.067 160.597 496.844C155.932 492.531 151.222 488.277 146.426 484.111C145.792 483.563 145.177 483.032 144.562 482.5C141.776 480.066 138.958 477.708 135.98 475.508ZM149.062 448.062C148.726 450.378 148.373 452.691 148 455C147.276 457.659 146.942 459.177 147 462C149.75 464.875 149.75 464.875 151.726 466.363C159.073 471.653 165.651 477.515 171.937 484C174.403 486.614 176.599 489.466 180.022 490.771C182 491 182 491 184.484 489.297L187 487C189.308 485.004 191.567 482.961 193.82 480.902C194.877 479.932 195.938 478.965 197 478C199.264 475.99 201.527 473.978 203.772 471.946L206.125 469.812C209.877 466.518 213.636 464.004 214.555 458.941L214 456L213.562 452.57L213 449.125C212.671 447.083 212.339 445.041 212 443H208C198.813 445.796 189.591 447.084 180 447.186C179.214 447.186 178.45 447.187 177.687 447.188C175.111 447.19 172.575 447.13 170 447C169 446 169 446 167.142 445.52C166.328 445.352 165.537 445.19 164.746 445.027L162.158 444.49L159.437 443.938C156.292 443.288 153.147 442.64 150 442C149.687 444.021 149.374 446.042 149.062 448.062ZM225.052 264.179C222.48 263.954 222.48 263.954 217.925 266.401C211.991 269.681 205.972 272.536 199.625 274.922C198.394 275.371 198.394 275.372 197.187 275.812C178.453 282.726 158.438 287.14 138.75 290.25C137.714 290.405 136.709 290.556 135.704 290.707C134.737 290.855 133.798 290.997 132.859 291.141C129.296 291.657 126.218 292.344 123 294C120.41 296.673 119.12 298.392 118.395 302.074C118.349 303.227 118.304 304.346 118.259 305.465C117.997 311.331 117.878 317.2 117.861 323.071C117.863 324.256 117.865 325.405 117.867 326.555C117.865 329.07 117.864 331.586 117.863 334.102C117.87 338.005 117.875 341.909 117.87 345.812C117.866 348.389 117.863 350.966 117.864 353.543C117.865 354.801 117.866 356.022 117.867 357.242C117.855 364.254 117.915 371.064 119 378C122.89 396.248 134.15 412.133 149.687 422.25C164.431 430.383 181.289 432.936 197.855 429.109L201 428C217.719 422.103 228.615 412.454 236.722 396.621L238 394C242.817 384.478 244.221 375.599 244.278 364.951C244.274 363.678 244.269 362.443 244.265 361.207C244.27 357.837 244.277 354.466 244.268 351.096C244.256 347.612 244.249 344.128 244.261 340.645C244.27 337.904 244.274 335.164 244.271 332.424C244.269 331.075 244.267 329.766 244.265 328.457C244.327 309.721 241.725 293.133 233.271 276.231L231.937 273.625L230.654 271.081L229.402 268.727C228.129 266.309 227.587 265.247 225.052 264.179ZM101 324C98.2233 324 96.3667 324.747 94.0975 326.312C88.3471 331.081 84.775 335.77 83.66 343.293C83.3124 351.37 86.1633 357.374 91.0115 363.652C92.9998 365 93 365 101 366V324ZM262 366L267 365C272.136 361.541 274.968 357.865 277 352C278.69 344.834 277.868 339.285 274.187 332.812C270.43 327.982 268.08 326.216 262 325V366ZM214.922 194.246C186.824 172.647 140.968 179.193 116.082 202.879L114 205C109.326 209.753 105.046 214.656 101.312 220.188C85.4659 246.537 88.2086 278.92 93.9998 308C96.3429 307.744 98.6783 307.407 101 307C102 305 102 305 102.176 302.715C102.501 296.111 103.473 290.668 107 285C119.704 276.539 119.704 276.539 135.375 274.188C143.247 272.748 151.085 271.185 158.901 269.468C160.267 269.165 161.633 268.864 163 268.562C171.649 266.706 179.858 264.542 188.07 261.225C189.55 260.606 189.55 260.606 191 260C193.302 259.058 195.599 258.108 197.883 257.121C198.602 256.804 199.301 256.496 200 256.188C205.06 253.972 209.813 251.62 214.431 248.584C219.119 245.469 223.114 242.607 228.934 243.395C236.427 248.298 236.427 248.299 241.185 256.317C241.881 257.483 241.881 257.483 242.562 258.625C251.217 273.005 256.124 288.005 259.484 304.395L260 307L263.437 307.062C267 307 267 307 268 306C271.268 287.951 273.746 266.461 270.516 248.279C270.256 247.129 270.256 247.128 270 246C268.787 240.509 266.894 236.453 263.25 232.125C257.338 226 252.988 224.967 244.687 224.375C242.457 224.275 240.227 224.156 238 224C234.02 220.43 234.02 220.43 231.687 215.312C227.237 206.981 222.067 200.514 214.922 194.246Z" fill="#F8BE2B"/>
<path d="M647 246C647.66 246.66 648.32 247.32 649 248C645.7 251.3 642.4 254.6 639 258C638.01 257.67 637.02 257.34 636 257C639.63 253.37 643.26 249.74 647 246Z" fill="#F8C33E"/>
<path d="M286 289C287.873 292.16 288.348 294.341 288 298C287.391 300.018 286.735 302.024 286 304C285.67 304 285.34 304 285 304C284.91 298.848 285.153 294.081 286 289Z" fill="#FBEDC8"/>
<path d="M521.188 347.312C521.786 347.539 522.384 347.766 523 348C522.01 348 521.02 348 520 348C519.567 348.928 519.567 348.928 519.125 349.875C518 352 518 352 516 354C516 350 516 350 517.25 348.187C519 347 519 347 521.188 347.312Z" fill="#F8C241"/>
</g>
<defs>
<clipPath id="clip0_1_31">
<rect width="800" height="800" fill="white"/>
</clipPath>
</defs>
</svg>
