<?xml version="1.0" encoding="UTF-8" ?>
<svg version="1.1" xmlns="http://www.w3.org/2000/svg" width="800" height="800">
<path
        d="M0 0 C264 0 528 0 800 0 C800 264 800 528 800 800 C536 800 272 800 0 800 C0 536 0 272 0 0 Z "
        fill="#FFFFFF"
        transform="translate(0,0)"
    />
<path
        d="M0 0 C2.45777768 1.90327906 4.76787598 3.88856317 7.0625 5.984375 C8.10277344 6.86996094 8.10277344 6.86996094 9.1640625 7.7734375 C13.06616865 11.31395852 15.45879674 14.61647692 17.75292969 19.38647461 C20.72529294 25.59148477 20.72529294 25.59148477 26.328125 29.375 C28.73932822 29.82383869 31.16457716 30.20271511 33.59765625 30.51171875 C43.03306355 31.79884872 50.3661353 37.57801172 56.0625 44.984375 C62.65066717 56.38317387 64.43416681 66.81334624 64.375 79.796875 C64.37226074 81.03139404 64.36952148 82.26591309 64.36669922 83.5378418 C64.25236698 94.15956952 63.56478024 104.71315323 62.6875 115.296875 C62.62446686 116.07318268 62.56143372 116.84949036 62.49649048 117.64932251 C62.31149271 119.88301139 62.11532791 122.11537942 61.9140625 124.34765625 C61.79885254 125.62938721 61.68364258 126.91111816 61.56494141 128.23168945 C61.02255013 132.28275664 60.12244149 136.04061642 59.0625 139.984375 C59.7225 139.984375 60.3825 139.984375 61.0625 139.984375 C69.8833021 151.04109072 71.83170039 161.1530125 71.0625 174.984375 C69.45891874 185.02714239 63.97792304 193.09257319 56.1953125 199.484375 C52.15479961 202.32605439 47.71403308 204.84828638 42.703125 205.10546875 C39.92827749 205.25910964 38.42528078 205.47956214 36.0625 206.984375 C34.13632963 210.73901144 32.86990375 214.54362259 31.56640625 218.546875 C27.72682097 230.29810075 21.43873059 239.44790179 12.796875 248.1796875 C11.89453125 249.10523438 10.9921875 250.03078125 10.0625 250.984375 C9.29550781 251.76941406 8.52851563 252.55445313 7.73828125 253.36328125 C5.53463412 256.81001137 5.41599575 259.82639787 5.5 263.796875 C5.51317261 264.86264771 5.51317261 264.86264771 5.52661133 265.94995117 C5.74844149 271.65406184 6.83655405 276.02972434 11.0625 279.984375 C14.56304785 282.38915068 17.85395643 283.68179265 21.9375 284.796875 C23.16726562 285.13589844 24.39703125 285.47492188 25.6640625 285.82421875 C28.92411967 286.69280741 32.1914997 287.53075902 35.4609375 288.36328125 C68.42872779 296.77104315 106.27645797 306.98977166 125.0625 337.984375 C125.66707031 338.94214844 126.27164062 339.89992188 126.89453125 340.88671875 C137.69513139 358.55422677 138.38707994 376.09616048 138.43359375 396.23828125 C138.44258378 398.27221229 138.45170596 400.30614275 138.46095276 402.34007263 C138.47733904 406.58016556 138.4851247 410.82018046 138.48803711 415.06030273 C138.49343226 420.46217127 138.53120444 425.86329622 138.57678127 431.26495457 C138.60667437 435.45772422 138.61376321 439.65031661 138.61476326 443.84318352 C138.61893559 445.83368296 138.63124785 447.82418442 138.65228081 449.8145771 C138.79535016 464.51259701 138.02312703 477.02545192 127.1796875 488.17578125 C121.06048028 493.4030745 114.6036014 495.10515953 106.64663315 495.11580276 C105.56585896 495.11964391 104.48508478 495.12348505 103.37155986 495.1274426 C102.18996012 495.12657612 101.00836038 495.12570963 99.79095459 495.12481689 C98.53121488 495.12778802 97.27147517 495.13075914 95.97356153 495.1338203 C92.47914339 495.1418775 88.98474581 495.14367915 85.49031949 495.14441776 C81.72059661 495.14627053 77.95088434 495.15381897 74.1811676 495.16055298 C65.93938817 495.17412745 57.6976136 495.18015956 49.45582485 495.18456364 C44.30865565 495.1873274 39.16148831 495.19156499 34.01432037 495.19606781 C19.76033522 495.20825903 5.50635156 495.21855882 -8.7476387 495.2219429 C-9.65969092 495.22216247 -10.57174313 495.22238203 -11.51143329 495.22260825 C-12.42565258 495.22282653 -13.33987188 495.22304481 -14.28179479 495.2232697 C-16.13431501 495.22371317 -17.98683524 495.22415973 -19.83935547 495.22460938 C-21.21772296 495.22494152 -21.21772296 495.22494152 -22.62393627 495.22528037 C-37.51320461 495.2292283 -52.40242401 495.24668283 -67.29167345 495.2699689 C-82.58207495 495.29368914 -97.87245189 495.30614505 -113.16287208 495.30731082 C-121.74634705 495.30822717 -130.32975824 495.31396946 -138.91321564 495.33213043 C-146.22217356 495.34754046 -153.53104799 495.35264654 -160.84001908 495.34439233 C-164.56772223 495.34048909 -168.29525728 495.34139938 -172.02293968 495.35544968 C-176.06808752 495.37055687 -180.11285753 495.36231254 -184.15802002 495.35186768 C-185.33069687 495.35992408 -186.50337372 495.36798048 -187.71158624 495.37628102 C-198.60009134 495.31052478 -206.06043993 492.85803457 -214.5 485.859375 C-220.85726673 478.3610604 -223.08775623 470.59426004 -223.08276367 460.94580078 C-223.08612228 460.02014816 -223.0894809 459.09449554 -223.09294128 458.14079285 C-223.10246357 455.07041083 -223.10439568 452.00008338 -223.10546875 448.9296875 C-223.10868275 446.79035418 -223.11204693 444.65102109 -223.11555481 442.51168823 C-223.12155089 438.01755261 -223.12339445 433.52343622 -223.12280273 429.02929688 C-223.12270161 423.29892464 -223.13629992 417.56867771 -223.15357494 411.83833504 C-223.16475721 407.41309048 -223.16671996 402.98787549 -223.16619301 398.56261826 C-223.16736583 396.45213264 -223.17174801 394.34164608 -223.17952538 392.23117447 C-223.26384419 366.96515277 -218.81057627 346.68688328 -201.9375 326.984375 C-180.58794356 305.82890544 -151.25132151 295.84949359 -122.625 288.921875 C-106.52329476 285.92357595 -106.52329476 285.92357595 -94.125 276.421875 C-90.91709494 269.90914932 -90.7569436 263.43044706 -92.60546875 256.46875 C-94.49685943 251.61225342 -97.15277189 248.55358541 -100.9375 245.0625 C-105.25395552 240.57743293 -108.53134522 235.17312829 -111.9375 229.984375 C-112.37320313 229.35660156 -112.80890625 228.72882813 -113.2578125 228.08203125 C-116.77742808 222.63632682 -119.9375 213.52598537 -119.9375 206.984375 C-120.77152344 206.89800781 -121.60554688 206.81164062 -122.46484375 206.72265625 C-133.38607724 205.35906581 -142.4560304 201.86308194 -149.53125 192.984375 C-155.12733307 185.08402243 -157.51301329 177.33161505 -157.4375 167.671875 C-157.43395508 166.8473584 -157.43041016 166.0228418 -157.42675781 165.17333984 C-157.21022342 157.14744565 -155.40984507 149.61594577 -149.72265625 143.66796875 C-147.25467974 139.95790341 -147.92056079 137.09760885 -148.625 132.921875 C-148.84997752 131.29103648 -149.06986154 129.65948876 -149.28515625 128.02734375 C-149.39875488 127.18864746 -149.51235352 126.34995117 -149.62939453 125.48583984 C-151.17171982 112.96391835 -151.0489509 100.20248576 -151.125 87.609375 C-151.13805176 86.37413086 -151.15110352 85.13888672 -151.16455078 83.86621094 C-151.19004806 56.59868978 -141.82455184 34.24931816 -123.0625 14.734375 C-107.42121912 -0.36755137 -90.21168733 -9.04014555 -68.9375 -13.015625 C-68.16752686 -13.18763428 -67.39755371 -13.35964355 -66.60424805 -13.53686523 C-43.55259774 -17.67531495 -19.26528857 -13.21926716 0 0 Z "
        fill="#F8BE2B"
        transform="translate(223.9375,178.015625)"
    />
<path
        d="M0 0 C5.14396312 -0.0040115 10.28791712 -0.01357561 15.43187416 -0.02221286 C27.73441639 -0.04163489 40.03695905 -0.05197821 52.33951268 -0.06094065 C56.98913144 -0.06447194 61.63874957 -0.06861416 66.2883678 -0.07278031 C86.83856695 -0.09117832 107.3887662 -0.10693642 127.93897235 -0.11467826 C132.92408392 -0.11658729 137.90919547 -0.11850781 142.89430702 -0.12046421 C144.75222952 -0.12118982 144.75222952 -0.12118982 146.6476858 -0.12193009 C166.8248379 -0.13027595 187.00193162 -0.15571938 207.1790581 -0.18804488 C227.97268737 -0.22108434 248.76628676 -0.23912238 269.55994242 -0.2423225 C281.2051178 -0.24448557 292.85020681 -0.25321 304.49535644 -0.27878368 C314.37881452 -0.30044403 324.26216502 -0.30856236 334.14564415 -0.2988169 C339.18385624 -0.29426485 344.221846 -0.29621312 349.26002777 -0.31557834 C353.87072862 -0.33314913 358.48104385 -0.33226225 363.09174845 -0.31668105 C364.75883602 -0.31429636 366.4259499 -0.31867303 368.09299716 -0.3305097 C383.44487072 -0.43276963 383.44487072 -0.43276963 390.364766 4.17470181 C391.251641 4.75220181 392.138516 5.32970181 393.052266 5.92470181 C399.11621247 11.82475783 401.44184363 17.77724502 401.60304725 26.12001431 C401.63362654 28.51317598 401.65812996 30.90642128 401.677266 33.29970181 C401.70626991 34.48563931 401.73527381 35.67157681 401.76515663 36.89345181 C401.8265631 45.45256975 400.89266741 52.70117734 395.47023475 59.57704556 C390.55931041 63.50778541 385.91486381 67.17470181 379.364766 67.17470181 C379.36416891 67.94936407 379.36357183 68.72402634 379.36295664 69.52216321 C379.32708314 115.40824053 379.2704757 161.29425195 379.18684505 207.18026836 C379.17682728 212.68663198 379.1669832 218.19299589 379.15724647 223.69936001 C379.15433441 225.34372612 379.15433441 225.34372612 379.15136352 227.02131174 C379.12032023 244.78471232 379.10335637 262.54809997 379.09157178 280.31152257 C379.07917228 298.5307736 379.05169808 316.74995666 379.01015294 334.96916479 C378.98498311 346.21652 378.97165126 357.4637625 378.97333643 368.71114627 C378.97336612 376.41798689 378.95878797 384.12471249 378.93260172 391.8315083 C378.91791593 396.28171018 378.90978676 400.73167616 378.91896331 405.18189824 C378.92721812 409.25388898 378.91718459 413.32540465 378.89242938 417.39732472 C378.88672072 418.87249437 378.88779972 420.34770868 378.89625356 421.82286515 C378.90674426 423.82452739 378.89035977 425.82627694 378.87257469 427.82788765 C378.87105581 428.94084794 378.86953692 430.05380823 378.86797202 431.20049459 C378.24771303 434.86654528 376.92104974 436.52423575 374.364766 439.17470181 C370.0957292 441.6736397 365.64238089 441.45032157 360.82904518 441.41521084 C359.54244333 441.41777412 359.54244333 441.41777412 358.22984952 441.42038918 C355.35701196 441.42368226 352.4844082 441.41268331 349.61159217 441.40175259 C347.5517676 441.40118844 345.49194263 441.40150512 343.4321183 441.4026376 C337.83958236 441.40321195 332.24713203 441.3914442 326.654616 441.37748969 C320.81030781 441.36499615 314.96599771 441.36381291 309.12167823 441.36143887 C298.05433602 441.35522006 286.98703326 441.33880378 275.91970843 441.31873989 C263.32007955 441.2963934 250.72044879 441.2853906 238.12080503 441.27534902 C212.20210346 441.25443793 186.28343694 441.21925413 160.364766 441.17470181 C160.2601144 445.90846796 160.22153637 450.63660029 160.24269569 455.37147915 C160.24075538 456.97967349 160.22113202 458.58795156 160.18312538 460.1956979 C159.63566578 469.55744901 159.63566578 469.55744901 163.58083045 477.51710904 C166.12830438 479.02287398 168.61444163 480.10206686 171.364766 481.17470181 C177.62958302 487.19856433 180.39142065 493.29437102 180.677266 501.92470181 C180.44878623 512.20629141 177.40714852 520.54107449 170.364766 528.17470181 C165.5352586 531.94202325 160.59598575 534.90954352 154.364766 535.17470181 C153.68929725 535.22368618 153.0138285 535.27267056 152.317891 535.32313931 C144.50727237 535.67327049 138.10326324 534.15480333 132.239766 528.79970181 C125.92055259 521.8587184 121.00421785 514.04772478 120.677266 504.48720181 C121.34901831 493.9546326 125.47076768 486.17100718 133.364766 479.17470181 C136.4528704 477.16472509 139.5793346 475.17470181 143.364766 475.17470181 C143.364766 463.95470181 143.364766 452.73470181 143.364766 441.17470181 C138.8167118 441.19564908 134.2686576 441.21659634 129.58278358 441.23817837 C114.57521392 441.30438444 99.5676386 441.34881533 84.5599612 441.3819505 C75.45860625 441.40257914 66.3573896 441.43070548 57.25612342 441.47645962 C49.32380958 441.51631818 41.39159591 441.54213243 33.45918471 441.55105579 C29.2586639 441.55627223 25.05842964 441.56853884 20.85800064 441.59762204 C16.90420116 441.62477577 12.95080624 441.63314699 8.99692237 441.62713253 C7.54608608 441.6282328 6.09523624 441.63618729 4.64448059 441.65152371 C2.66261421 441.67144667 0.68053068 441.66425124 -1.30141747 441.65571988 C-2.41033443 441.65940705 -3.51925139 441.66309422 -4.66177189 441.66689312 C-8.32855354 441.059938 -9.989786 439.73260449 -12.635234 437.17470181 C-14.08671303 434.27174376 -14.00762425 432.40208402 -13.635234 429.17470181 C-9.93233973 423.45370393 -9.93233973 423.45370393 -5.10624802 422.41563141 C-3.71524677 422.38080444 -2.32318745 422.37879476 -0.93195641 422.40274441 C-0.15859204 422.39221667 0.61477233 422.38168893 1.41157198 422.37084216 C4.01851612 422.34278975 6.62345886 422.35766457 9.23048866 422.37221158 C11.12135782 422.3610022 13.01221312 422.34720569 14.90304649 422.33104908 C20.12783317 422.29426435 25.35204128 422.29538486 30.57692754 422.3026818 C36.23046584 422.30425583 41.88382558 422.27167553 47.53728187 422.24393094 C58.78967971 422.19486595 70.04188308 422.18052601 81.29437828 422.17879385 C90.82775639 422.17712738 100.3610694 422.16501657 109.89442909 422.1465646 C151.17636441 422.06836617 192.45765141 422.08343077 233.739766 422.11220181 C275.856016 422.13282681 317.972266 422.15345181 361.364766 422.17470181 C361.364766 305.35470181 361.364766 188.53470181 361.364766 68.17470181 C221.774766 68.17470181 82.184766 68.17470181 -61.635234 68.17470181 C-61.51639987 163.05985904 -61.51639987 163.05985904 -61.36497033 257.94496548 C-61.35142052 276.26710904 -61.35142052 276.26710904 -61.34890282 284.83554471 C-61.34609988 290.8395273 -61.3350729 296.84342659 -61.31850731 302.84738553 C-61.29944081 309.76796774 -61.29071923 316.68846979 -61.29489915 323.60907849 C-61.29671015 327.15095488 -61.29379483 330.69265196 -61.27758861 334.23449564 C-61.26274643 338.02376892 -61.26623467 341.81258871 -61.27447045 345.60187161 C-61.26573246 346.71147401 -61.25699446 347.82107642 -61.24799168 348.96430314 C-61.28175773 354.71374456 -61.35282235 358.89229016 -65.635234 363.17470181 C-67.56101525 363.44813931 -67.56101525 363.44813931 -69.947734 363.54970181 C-70.72761681 363.59868618 -71.50749962 363.64767056 -72.31101525 363.69813931 C-74.635234 363.17470181 -74.635234 363.17470181 -76.75043404 361.3676616 C-79.59868501 356.54256025 -79.17385368 352.07032623 -79.11625206 346.56390774 C-79.11966976 345.37540543 -79.12308746 344.18690313 -79.12660873 342.96238559 C-79.13205804 339.66687086 -79.11955966 336.37230648 -79.09949648 333.07690668 C-79.08222172 329.52208774 -79.08806819 325.96729811 -79.09110558 322.412449 C-79.09320294 316.25463991 -79.08065357 310.09700035 -79.05815423 303.9392339 C-79.02564524 295.03616814 -79.01522835 286.13318436 -79.01020226 277.23006568 C-79.00144787 262.78537643 -78.97482841 248.34077754 -78.93699181 233.89613736 C-78.90027544 219.86456644 -78.87196185 205.83302006 -78.85496056 191.80141079 C-78.85390967 190.93649569 -78.85285877 190.07158059 -78.85177603 189.18045595 C-78.84655588 184.84142861 -78.84150105 180.5024011 -78.83652842 176.16337347 C-78.79506191 140.16708578 -78.72460958 104.17090083 -78.635234 68.17470181 C-79.24721642 68.05135464 -79.85919884 67.92800747 -80.48972619 67.80092251 C-81.29571251 67.63165249 -82.10169884 67.46238247 -82.932109 67.28798306 C-84.12852013 67.04108731 -84.12852013 67.04108731 -85.34910119 66.78920376 C-91.2965569 65.19055511 -96.48733132 60.59986618 -99.7223922 55.44105923 C-103.30449965 48.33394669 -103.26550742 41.51249817 -103.197734 33.67470181 C-103.22158165 32.40755337 -103.24542931 31.14040493 -103.26999962 29.83485806 C-103.2556158 20.61962035 -101.63723191 14.79357802 -95.60789025 7.83485806 C-94.97753869 7.3076315 -94.34718712 6.78040493 -93.697734 6.23720181 C-93.06996056 5.69192837 -92.44218712 5.14665493 -91.79539025 4.58485806 C-86.60238925 1.19485198 -81.22054797 0.85305173 -75.1753217 0.76686203 C-74.34899881 0.74793731 -73.52267591 0.72901258 -72.67131294 0.70951437 C-69.94240205 0.65012104 -67.21347502 0.60496997 -64.4842788 0.56076443 C-62.54627781 0.52321223 -60.60828393 0.48529158 -58.67029697 0.44702238 C-39.11468273 0.08064461 -19.55851105 0.01126748 0 0 Z "
        fill="#F8BE2B"
        transform="translate(396.63523399829865,107.82529819011688)"
    />
<path
        d="M0 0 C1.578125 2.73828125 1.578125 2.73828125 3.25 6.3125 C5.5106161 11.04149387 7.87128999 15.6197593 10.5625 20.125 C13.44897919 24.97222786 15.98156408 29.91955871 18.4609375 34.984375 C20.59721718 39.17018189 22.991512 43.1857961 25.39453125 47.22265625 C26.81157268 49.67403449 28.08897274 52.13583163 29.3125 54.6875 C30.61498582 58.05497965 30.61498582 58.05497965 33 59 C37.04750798 59.5680713 39.5863719 59.8096003 43.17578125 57.75390625 C45.54947491 55.92831237 47.77963806 54.00942756 50 52 C50.7940625 51.28972656 51.588125 50.57945312 52.40625 49.84765625 C54.06820813 48.351368 55.72437166 46.84862121 57.375 45.33984375 C60.99803007 42.11038688 64.7660038 39.07502028 68.5546875 36.04296875 C70.83935303 34.13421464 72.93250978 32.13961197 75 30 C77.81351786 31.28895717 79.9325707 32.66268505 82.171875 34.79296875 C82.7496167 35.33727539 83.3273584 35.88158203 83.92260742 36.44238281 C84.52564697 37.01827148 85.12868652 37.59416016 85.75 38.1875 C87.011012 39.37444922 88.27272509 40.56065405 89.53515625 41.74609375 C90.13730957 42.31312012 90.73946289 42.88014648 91.35986328 43.46435547 C93.85933329 45.80458565 96.40306332 48.08314483 99.01171875 50.30078125 C100.58228066 51.64301 102.119816 53.02387903 103.64453125 54.41796875 C109.29557516 59.73533461 109.29557516 59.73533461 116.5 61.75 C120.12860938 60.97244085 120.76656112 60.71112415 123 58 C124.14516559 56.01463477 124.14516559 56.01463477 125.12890625 53.78125 C125.51884766 52.94126465 125.90878906 52.1012793 126.31054688 51.23583984 C126.72369141 50.3330127 127.13683594 49.43018555 127.5625 48.5 C132.00374481 38.98468206 136.75396728 29.68375999 141.70605469 20.42626953 C144.03180516 16.06526799 146.3261425 11.68771844 148.625 7.3125 C149.47122594 5.7043596 150.31756766 4.09628012 151.1640625 2.48828125 C151.76992188 1.33714844 152.37578125 0.18601562 153 -1 C159.39320708 -0.36603673 165.18016651 1.50860795 171.25 3.5625 C172.83421753 4.09822632 172.83421753 4.09822632 174.45043945 4.64477539 C198.21657171 12.80671866 220.73060759 22.42902985 233 46 C239.10351228 60.12527128 239.10351228 60.12527128 239.16062927 66.03411865 C239.1706749 66.85271362 239.18072052 67.67130859 239.19107056 68.51470947 C239.19690155 69.40929871 239.20273254 70.30388794 239.20874023 71.22558594 C239.21852402 72.17062988 239.2283078 73.11567383 239.23838806 74.08935547 C239.26833484 77.22101432 239.2897253 80.3526305 239.30859375 83.484375 C239.31516558 84.55407784 239.3217374 85.62378067 239.32850838 86.72589874 C239.36109852 92.3878904 239.38555051 98.04986326 239.4050293 103.71191406 C239.42284519 108.39708831 239.45767123 113.08166102 239.50756836 117.76660156 C239.56775354 123.42409813 239.59850281 129.08103673 239.60820198 134.7388382 C239.61676031 136.89341981 239.63558759 139.04798636 239.6649456 141.20238495 C239.7038686 144.22119583 239.70489345 147.23783358 239.69702148 150.25683594 C239.71702209 151.14332825 239.73702271 152.02982056 239.75762939 152.94317627 C239.69224504 158.54102806 238.51594899 161.51691102 234.67862034 165.61597061 C230.45748876 169.096311 226.70331578 169.27352334 221.390625 169.1953125 C220.66381531 169.1924826 219.93700562 169.18965271 219.18817139 169.18673706 C216.87527749 169.17557523 214.56277612 169.15047851 212.25 169.125 C210.67839102 169.11496501 209.10677596 169.10584006 207.53515625 169.09765625 C203.68995378 169.07564904 199.84504336 169.04114715 196 169 C195.01166264 160.91256231 194.82548264 152.89577029 194.77020454 144.7614193 C194.75357782 142.40262492 194.73034188 140.04397629 194.70530701 137.68525696 C194.63507271 130.98677994 194.57423376 124.28825039 194.52319336 117.58959961 C194.49137346 113.4736581 194.45011433 109.35789895 194.40299797 105.24210548 C194.38702503 103.68047159 194.37468182 102.11879606 194.36609077 100.55710411 C194.35391058 98.37731736 194.32975699 96.19795996 194.30297852 94.01831055 C194.29267105 92.78050339 194.28236359 91.54269623 194.27174377 90.26737976 C194.00549496 87.06607005 193.47852519 84.83905311 192 82 C189.47524538 80.73762269 187.68799534 80.90143596 184.875 80.9375 C183.96492188 80.94652344 183.05484375 80.95554687 182.1171875 80.96484375 C181.06917969 80.98224609 181.06917969 80.98224609 180 81 C172.88378451 109.46486195 178.34927178 139.66117081 178 169 C111.34 169 44.68 169 -24 169 C-24.33 141.28 -24.66 113.56 -25 85 C-26.5 81 -26.5 81 -29 80 C-30.49649362 79.87994547 -31.99874793 79.82468549 -33.5 79.8125 C-34.69109375 79.79123047 -34.69109375 79.79123047 -35.90625 79.76953125 C-38.22033317 79.80333697 -38.22033317 79.80333697 -40 82 C-40.21763444 84.76924021 -40.31142149 87.44144644 -40.31884766 90.21337891 C-40.33391609 91.48665794 -40.33391609 91.48665794 -40.34928894 92.78565979 C-40.38024907 95.59928695 -40.39719155 98.41281843 -40.4140625 101.2265625 C-40.43276384 103.174274 -40.45233647 105.12197731 -40.4727478 107.06967163 C-40.52418427 112.20214013 -40.56374823 117.33463493 -40.60089111 122.46722412 C-40.64085875 127.70217455 -40.69198402 132.93701449 -40.7421875 138.171875 C-40.83908305 148.44783918 -40.92344405 158.72386558 -41 169 C-45.85630418 169.09938127 -50.71200765 169.17170794 -55.5690918 169.21972656 C-57.21893637 169.23975797 -58.8687107 169.26699142 -60.51831055 169.30175781 C-62.89910274 169.35065357 -65.278951 169.3730528 -67.66015625 169.390625 C-68.38960953 169.41127014 -69.11906281 169.43191528 -69.87062073 169.45318604 C-75.08813502 169.45543731 -78.97600086 168.4379767 -83 165 C-87.02907449 159.66630108 -87.58569005 155.48112779 -87.53344727 148.92211914 C-87.54206284 148.03971558 -87.55067841 147.15731201 -87.55955505 146.24816895 C-87.58217178 143.34352882 -87.57547839 140.439858 -87.56640625 137.53515625 C-87.57164761 135.49840512 -87.57792596 133.46165642 -87.58518982 131.4249115 C-87.59558916 127.1554727 -87.59104497 122.88636719 -87.57641602 118.61694336 C-87.55932057 113.18706661 -87.58261142 107.75825729 -87.61790562 102.32849979 C-87.64004988 98.11839488 -87.63839576 93.90853801 -87.6301403 89.69839287 C-87.6293283 87.69923172 -87.63604572 85.70005094 -87.65091133 83.7009449 C-87.79399529 60.95696299 -82.23688025 44.55985617 -66 28 C-65.48308594 27.45859375 -64.96617188 26.9171875 -64.43359375 26.359375 C-52.21453029 14.74647918 -34.54541031 9.35717112 -19 4 C-18.14583496 3.70512695 -17.29166992 3.41025391 -16.41162109 3.10644531 C-3.68467596 -1.22822532 -3.68467596 -1.22822532 0 0 Z "
        fill="#FCFCFB"
        transform="translate(105,486)"
    />
<path
        d="M0 0 C1.65696899 -0.01879967 1.65696899 -0.01879967 3.34741211 -0.03797913 C5.12257202 -0.01809181 5.12257202 -0.01809181 6.93359375 0.00219727 C8.15763916 -0.00021469 9.38168457 -0.00262665 10.64282227 -0.00511169 C13.22838585 -0.00413306 15.81397034 0.00926401 18.39941406 0.03417969 C22.35684395 0.06848001 26.31204037 0.05483845 30.26953125 0.03540039 C32.78256159 0.04229893 35.29558616 0.05197137 37.80859375 0.06469727 C38.99203369 0.0597374 40.17547363 0.05477753 41.39477539 0.04966736 C49.56126994 0.16674318 49.56126994 0.16674318 53.59375 2.47900391 C56.60840979 6.12930969 56.49509127 9.23013454 56.49134827 13.80033875 C56.49341026 15.73757309 56.49341026 15.73757309 56.49551392 17.71394348 C56.49197475 19.14816307 56.48833994 20.58238243 56.48461914 22.01660156 C56.48433712 23.52441404 56.4844953 25.03222666 56.48506165 26.54003906 C56.48534903 30.63685018 56.4794618 34.73363214 56.47248769 38.83043647 C56.46624436 43.1105737 56.46564957 47.39071158 56.46446228 51.67085266 C56.46135186 59.77747413 56.45314236 67.88408214 56.44311279 75.99069768 C56.43194269 85.2191267 56.42643894 94.44755636 56.42141736 103.67599046 C56.41095952 122.66103578 56.39336565 141.64606857 56.37109375 160.63110352 C57.68464844 160.59629883 58.99820312 160.56149414 60.3515625 160.52563477 C62.08722676 160.49748886 63.8229049 160.47018956 65.55859375 160.44360352 C66.42291016 160.4184668 67.28722656 160.39333008 68.17773438 160.36743164 C73.09807584 160.31087599 76.35802438 160.43834091 80.37109375 163.63110352 C82.17975863 165.43976839 81.71605196 167.91145822 81.89453125 170.33032227 C81.04855094 174.04884764 79.47396386 176.49642287 76.37109375 178.63110352 C72.0081311 179.55752814 67.68329413 179.43986228 63.23742676 179.39300537 C61.8713508 179.39991936 60.505286 179.40944908 59.13924456 179.42136884 C55.38596991 179.44643925 51.63360941 179.43402716 47.88033128 179.41545153 C43.83250596 179.40189102 39.78483923 179.42282264 35.73704529 179.43933105 C27.80769951 179.46603246 19.87869419 179.46023868 11.94933498 179.44285521 C5.50591349 179.4293133 -0.93741248 179.42746353 -7.38084412 179.43399811 C-8.29736762 179.43491751 -9.21389113 179.4358369 -10.15818807 179.43678416 C-12.01999878 179.43870249 -13.88180945 179.44064776 -15.7436201 179.44261971 C-33.20816567 179.45973531 -50.67252238 179.44004715 -68.13703698 179.40781751 C-83.12742263 179.38101032 -98.11752953 179.38566629 -113.10791016 179.41333008 C-130.50928924 179.4454281 -147.91050274 179.45808729 -165.31190729 179.4396565 C-167.16692763 179.43774517 -169.02194799 179.43585895 -170.87696838 179.43399811 C-171.78971038 179.43307245 -172.70245238 179.4321468 -173.64285323 179.4311931 C-180.07968647 179.4260092 -186.51641481 179.43476405 -192.95323181 179.44887543 C-200.79601053 179.46569088 -208.63842889 179.46117657 -216.48116624 179.42919096 C-220.48394888 179.413405 -224.48613037 179.40727542 -228.48890877 179.42708588 C-232.15199622 179.44494116 -235.81392439 179.43518288 -239.47690636 179.40322056 C-241.43244175 179.3933232 -243.38805736 179.4129546 -245.3435092 179.43356395 C-253.60717532 179.3220888 -253.60717532 179.3220888 -256.52307796 177.35009623 C-258.65798402 174.92057307 -259.59734223 172.78261081 -260.25390625 169.63110352 C-259.42833587 165.66836568 -257.917664 162.96699271 -254.62890625 160.63110352 C-250.99807888 159.89331224 -247.50225596 160.06302341 -243.81640625 160.25610352 C-242.3478418 160.29670898 -242.3478418 160.29670898 -240.84960938 160.33813477 C-238.44044004 160.40864704 -236.03581806 160.50711783 -233.62890625 160.63110352 C-233.65031677 159.80504608 -233.67172729 158.97898865 -233.69378662 158.12789917 C-233.89221829 150.3305795 -234.07080785 142.53310931 -234.22730637 134.73483086 C-234.30845306 130.72594641 -234.39717475 126.71753261 -234.50341797 122.70922852 C-234.60573047 118.83857317 -234.68787012 114.96795997 -234.75623322 111.09656143 C-234.78577762 109.6220813 -234.82250164 108.14772642 -234.86663055 106.67361069 C-234.92736551 104.60316799 -234.96218915 102.53374391 -234.99121094 100.46264648 C-235.01785828 99.28572235 -235.04450562 98.10879822 -235.07196045 96.89620972 C-234.49498462 92.64416252 -232.66594771 89.66814498 -229.62890625 86.63110352 C-227.90676803 86.51655479 -226.1799577 86.47148174 -224.45410156 86.45410156 C-222.79667938 86.43484871 -222.79667938 86.43484871 -221.10577393 86.41520691 C-219.2996463 86.40412651 -219.2996463 86.40412651 -217.45703125 86.39282227 C-216.22732605 86.38475052 -214.99762085 86.37667877 -213.73065186 86.36836243 C-211.12123026 86.35450012 -208.51179036 86.34378763 -205.90234375 86.3359375 C-203.22698145 86.32708299 -200.55213949 86.30622842 -197.87695312 86.27441406 C-194.0284854 86.23184883 -190.18070484 86.21558133 -186.33203125 86.20532227 C-185.13604309 86.18781418 -183.94005493 86.17030609 -182.70782471 86.15226746 C-174.40566942 86.17400104 -174.40566942 86.17400104 -170.39746094 88.53271484 C-167.96039505 91.4242915 -167.500854 93.02055152 -167.42358398 96.71582031 C-167.39366615 97.98567024 -167.39366615 97.98567024 -167.36314392 99.28117371 C-167.34643143 100.20489273 -167.32971893 101.12861176 -167.3125 102.08032227 C-167.2917189 103.04396194 -167.27093781 104.00760162 -167.24952698 105.0004425 C-167.2061612 107.05754019 -167.16513223 109.11468823 -167.1262207 111.171875 C-167.06802789 114.23329225 -167.00249043 117.29447599 -166.93554688 120.35571289 C-166.64784159 134.11671073 -166.59119664 147.86709702 -166.62890625 161.63110352 C-151.77890625 161.63110352 -136.92890625 161.63110352 -121.62890625 161.63110352 C-121.65509033 157.84561035 -121.68127441 154.06011719 -121.70825195 150.15991211 C-121.79106466 137.65897232 -121.84657028 125.15803677 -121.88796711 112.65689659 C-121.91373629 105.07670474 -121.94886176 97.49677296 -122.00610352 89.91674805 C-122.05597843 83.30909252 -122.08820663 76.70162537 -122.09934872 70.09378684 C-122.10586075 66.59567736 -122.12113764 63.09810671 -122.15755653 59.60017014 C-122.19790632 55.69289895 -122.19885303 51.78615235 -122.1965332 47.87866211 C-122.22349777 46.14373001 -122.22349777 46.14373001 -122.25100708 44.37374878 C-122.19467589 35.61728171 -122.19467589 35.61728171 -119.45097351 31.91316223 C-116.26797718 29.33923899 -114.94635744 28.87779967 -110.90820312 28.87060547 C-109.78353638 28.8549202 -108.65886963 28.83923492 -107.50012207 28.82307434 C-106.29480835 28.83835678 -105.08949463 28.85363922 -103.84765625 28.86938477 C-102.60141479 28.86601608 -101.35517334 28.8626474 -100.07116699 28.85917664 C-96.76477473 28.85955186 -93.46009694 28.88860164 -90.1539917 28.92767334 C-88.13039791 28.94359178 -86.1080694 28.93807821 -84.08447266 28.92431641 C-80.19244473 28.89936446 -76.30217238 28.90953873 -72.41015625 28.93188477 C-71.20484253 28.92490067 -69.99952881 28.91791656 -68.75769043 28.91072083 C-67.63302368 28.92970932 -66.50835693 28.94869781 -65.34960938 28.96826172 C-63.86998718 28.97875298 -63.86998718 28.97875298 -62.36047363 28.98945618 C-58.2788201 29.94823982 -56.99244455 31.14000247 -54.62890625 34.63110352 C-53.91050931 38.67699721 -53.99776724 42.66599416 -54.0612793 46.76513672 C-54.0601841 48.60965675 -54.0601841 48.60965675 -54.05906677 50.49143982 C-54.06194976 53.85527774 -54.08698945 57.2175738 -54.12193656 60.58113885 C-54.15323309 64.09914607 -54.15613336 67.61717473 -54.1620636 71.13529968 C-54.17759251 77.79353249 -54.21860754 84.4513539 -54.26881105 91.1094057 C-54.3247346 98.69093949 -54.3521985 106.27249312 -54.37728822 113.85418189 C-54.42952481 129.44676777 -54.52120391 145.03878711 -54.62890625 160.63110352 C-40.10890625 160.63110352 -25.58890625 160.63110352 -10.62890625 160.63110352 C-10.65509033 155.96187744 -10.68127441 151.29265137 -10.70825195 146.48193359 C-10.79100619 131.07524426 -10.84654674 115.66854631 -10.88796711 100.261693 C-10.91375401 90.91816192 -10.94891377 81.57484131 -11.00610352 72.23144531 C-11.05592368 64.08818014 -11.08819373 55.94506738 -11.09934872 47.80165404 C-11.10586988 43.48928472 -11.12120617 39.17735146 -11.15755653 34.86512184 C-11.19149435 30.80620736 -11.20196387 26.74790855 -11.19444466 22.68886566 C-11.19582022 21.19931632 -11.20576654 19.7097464 -11.22493362 18.22031975 C-11.24982922 16.18595658 -11.24084471 14.15126305 -11.23017883 12.11677551 C-11.23709228 10.40915401 -11.23709228 10.40915401 -11.24414539 8.6670351 C-10.00403826 2.54765783 -5.97076903 0.00592831 0 0 Z "
        fill="#F8BE2B"
        transform="translate(635.62890625,317.368896484375)"
    />
<path
        d="M0 0 C2.53596359 1.06814202 3.07794405 2.12995661 4.35107422 4.54736328 C4.97079102 5.71283691 4.97079102 5.71283691 5.60302734 6.90185547 C6.02648437 7.74135742 6.44994141 8.58085937 6.88623047 9.44580078 C7.54655273 10.73599121 7.54655273 10.73599121 8.22021484 12.05224609 C16.67433133 28.95421676 19.27625076 45.54149561 19.21435547 64.27783203 C19.21626892 65.58684982 19.21818237 66.89586761 19.22015381 68.24455261 C19.22306671 70.98478034 19.21893001 73.7248758 19.20947266 76.46508789 C19.19802326 79.94897519 19.20469647 83.432556 19.21661758 86.91643238 C19.22563634 90.28692264 19.21930035 93.65733311 19.21435547 97.02783203 C19.21840393 98.2634639 19.22245239 99.49909576 19.22662354 100.77217102 C19.1693523 111.42000099 17.76543139 120.29867586 12.94873047 129.82080078 C12.52720703 130.68576172 12.10568359 131.55072266 11.67138672 132.44189453 C3.56399344 148.27489249 -7.33208342 157.92380912 -24.05126953 163.82080078 C-25.6078125 164.36994141 -25.6078125 164.36994141 -27.19580078 164.93017578 C-43.76260218 168.75715726 -60.61972873 166.20387722 -75.36376953 158.07080078 C-90.90111115 147.95346205 -102.16104065 132.06849309 -106.05126953 113.82080078 C-107.13570123 106.88507179 -107.19630046 100.07448392 -107.18408203 93.06298828 C-107.18503876 91.84233673 -107.18599548 90.62168518 -107.1869812 89.36404419 C-107.18765976 86.78712919 -107.18582811 84.21021246 -107.18164062 81.63330078 C-107.17631566 77.72961488 -107.18158234 73.8260455 -107.18798828 69.92236328 C-107.1873269 67.40673803 -107.18604451 64.89111285 -107.18408203 62.37548828 C-107.18610626 61.22603729 -107.18813049 60.0765863 -107.19021606 58.89230347 C-107.17360581 53.02049747 -107.05465313 47.15223234 -106.79296875 41.28613281 C-106.74776093 40.1670755 -106.7025531 39.04801819 -106.65597534 37.89505005 C-105.93174864 34.21317139 -104.64092233 32.49411542 -102.05126953 29.82080078 C-98.83314322 28.16484676 -95.75559496 27.47812734 -92.19189453 26.96142578 C-91.2530542 26.81825928 -90.31421387 26.67509277 -89.34692383 26.52758789 C-88.34185791 26.37684814 -87.33679199 26.2261084 -86.30126953 26.07080078 C-66.6131962 22.96120193 -46.59781066 18.5472694 -27.86376953 11.63330078 C-26.65708618 11.19244141 -26.65708618 11.19244141 -25.42602539 10.74267578 C-19.07886285 8.3572655 -13.06006467 5.50219676 -7.12670898 2.22241211 C-2.57168106 -0.22466245 -2.57168106 -0.22466245 0 0 Z "
        fill="#FCFCFB"
        transform="translate(225.05126953125,264.17919921875)"
    />
<path
        d="M0 0 C0.78122273 -0.00666801 1.56244546 -0.01333602 2.36734161 -0.02020609 C4.99529216 -0.03649887 7.62176499 -0.01703766 10.24967861 0.00215912 C12.14855732 -0.0021682 14.0474321 -0.00868265 15.94629663 -0.01720095 C21.17216872 -0.03423781 26.39756367 -0.01997958 31.62341082 -0.00068617 C37.25605472 0.01470679 42.88863886 0.00134781 48.52128506 -0.00843048 C59.55845118 -0.02297687 70.59543374 -0.01070318 81.63258249 0.01068276 C94.47708996 0.03465991 107.32155506 0.03298043 120.16607993 0.03037685 C143.77092542 0.02657279 167.37565472 0.04953678 190.98046646 0.08472433 C212.53754462 0.11672214 234.09454016 0.12876739 255.65164089 0.12264252 C257.03592648 0.12225567 258.42021208 0.12186922 259.80449767 0.12148315 C260.48885632 0.1212918 261.17321497 0.12110046 261.87831176 0.12090331 C265.32314848 0.119949 268.76798521 0.11903463 272.21282196 0.11816406 C272.89240829 0.11799027 273.57199463 0.11781647 274.27217449 0.11763741 C292.27604923 0.11328427 310.27991275 0.12336918 328.28378195 0.13800192 C330.20287403 0.13956115 330.20287403 0.13956115 332.16073565 0.14115188 C334.73056752 0.14324282 337.30039937 0.1453538 339.8702312 0.14748505 C348.83073241 0.1543899 357.79122189 0.15504843 366.7517252 0.1536026 C377.66571916 0.15216516 388.57963879 0.16181239 399.49360806 0.18554896 C405.0656771 0.1974356 410.63764233 0.20451642 416.20972347 0.1987114 C421.30526694 0.19355954 426.40059064 0.20215679 431.49609642 0.221986 C433.34458666 0.22674637 435.19309815 0.22639974 437.04158533 0.22057563 C439.54456482 0.21344832 442.0468052 0.22458986 444.54972839 0.24050903 C445.27579 0.23405723 446.00185162 0.22760543 446.74991509 0.22095811 C449.81187685 0.25778449 451.92602176 0.4654828 454.62833208 1.96006346 C458.41090172 5.93358525 457.51056346 11.86031683 457.58694363 16.99861908 C457.62432644 17.94479095 457.66170925 18.89096283 457.70022488 19.86580658 C457.71182644 20.78361908 457.723428 21.70143158 457.73538113 22.64705658 C457.75520046 23.48156342 457.7750198 24.31607025 457.79543972 25.17586517 C456.9172324 28.85992652 455.13070382 30.26355804 452.21194363 32.62361908 C449.40605899 33.11589551 447.20779782 33.29800565 444.40826988 33.25282478 C443.62535878 33.26009199 442.84244767 33.26735919 442.03581199 33.27484661 C439.40213755 33.29315095 436.76990952 33.27571684 434.13624477 33.25853729 C432.2332397 33.26429634 430.33024019 33.27223599 428.42725235 33.28217351 C423.18999538 33.30309959 417.95319233 33.29270546 412.71593344 33.27724242 C407.07100691 33.26595649 401.42615991 33.28337786 395.78124905 33.29714203 C384.72003222 33.31940801 373.65898475 33.31455837 362.59776121 33.30007882 C353.61096208 33.28880038 344.62421052 33.28724964 335.63740635 33.29269791 C333.72099256 33.29384715 333.72099256 33.29384715 331.76586335 33.29501962 C329.17067693 33.2966182 326.57549052 33.29823926 323.98030413 33.29988258 C300.32404209 33.31374284 276.66788926 33.29935438 253.01164487 33.27316959 C231.40754453 33.24943818 209.80359152 33.25156654 188.19949245 33.27547455 C163.93601213 33.30223568 139.6726361 33.31277923 115.40913826 33.29741323 C112.82364723 33.29582043 110.23815619 33.29424858 107.65266514 33.29269791 C106.38044809 33.29192653 105.10823105 33.29115515 103.79746197 33.2903604 C94.81740723 33.28603706 85.83740464 33.29334354 76.85735798 33.30509567 C65.91954174 33.31909488 54.98190498 33.31537495 44.0441094 33.28869195 C38.45981879 33.27551949 32.87582782 33.2704598 27.29153919 33.28693771 C22.18476841 33.3017791 17.0785765 33.29374543 11.97185863 33.26704995 C10.11933052 33.26144027 8.26675403 33.26436069 6.41425674 33.27642889 C3.90539075 33.29152599 1.39853527 33.27615511 -1.11022377 33.25282478 C-2.2017227 33.27038353 -2.2017227 33.27038353 -3.31527212 33.288297 C-7.05581826 33.21825707 -8.51124533 32.893196 -11.23458046 30.241032 C-13.84610502 25.84093924 -13.40616901 21.62221391 -13.35055637 16.62361908 C-13.37440403 15.63877533 -13.39825169 14.65393158 -13.422822 13.63924408 C-13.4208884 12.68533783 -13.41895481 11.73143158 -13.41696262 10.74861908 C-13.41768772 9.8849472 -13.41841282 9.02127533 -13.41915989 8.13143158 C-11.66949111 1.17878256 -6.38820176 -0.10837239 0 0 Z "
        fill="#FDFCFB"
        transform="translate(323.7880563735962,125.37638092041016)"
    />
<path
        d="M0 0 C7.14562284 6.26827565 12.31574195 12.73519421 16.765625 21.06640625 C19.09869731 26.18363721 19.09869731 26.18363721 23.078125 29.75390625 C25.30533753 29.90989779 27.53517699 30.02935384 29.765625 30.12890625 C38.06606273 30.72119029 42.41653791 31.75390446 48.328125 37.87890625 C51.97222178 42.20671171 53.8656009 46.2624748 55.078125 51.75390625 C55.33396362 52.8823999 55.33396362 52.8823999 55.5949707 54.03369141 C58.8243744 72.21560953 56.34649793 93.70501946 53.078125 111.75390625 C52.078125 112.75390625 52.078125 112.75390625 48.515625 112.81640625 C47.38125 112.79578125 46.246875 112.77515625 45.078125 112.75390625 C44.90796875 111.89410156 44.7378125 111.03429687 44.5625 110.1484375 C41.20247033 93.75935661 36.29561769 78.75930819 27.640625 64.37890625 C26.95891235 63.23675659 26.95891235 63.23675659 26.26342773 62.0715332 C21.50501477 54.05257664 21.50501477 54.05257664 14.01220703 49.14892578 C8.19230518 48.36183707 4.19709638 51.22312097 -0.49047852 54.33764648 C-5.10918531 57.37389023 -9.86135644 59.72638975 -14.921875 61.94140625 C-15.62046631 62.24949219 -16.31905762 62.55757813 -17.03881836 62.875 C-19.32263209 63.86202995 -21.6192122 64.81168226 -23.921875 65.75390625 C-25.37207031 66.36020874 -25.37207031 66.36020874 -26.8515625 66.97875977 C-35.06341648 70.29600243 -43.27307057 72.45984243 -51.921875 74.31640625 C-53.28838283 74.61763761 -54.65475504 74.91948478 -56.02099609 75.22192383 C-63.83673467 76.93898371 -71.67517462 78.50191737 -79.546875 79.94140625 C-95.21802563 82.29294817 -95.21802563 82.29294817 -107.921875 90.75390625 C-111.44846373 96.42163814 -112.42102411 101.86519248 -112.74609375 108.46875 C-112.921875 110.75390625 -112.921875 110.75390625 -113.921875 112.75390625 C-116.24344097 113.16119853 -118.5787537 113.49829302 -120.921875 113.75390625 C-126.71314269 84.67434932 -129.45591513 52.29088577 -113.609375 25.94140625 C-109.87534432 20.41011684 -105.59582096 15.50720613 -100.921875 10.75390625 C-100.23480469 10.05394531 -99.54773438 9.35398438 -98.83984375 8.6328125 C-73.95362592 -15.05295697 -28.09747659 -21.59899604 0 0 Z "
        fill="#FCFCFA"
        transform="translate(214.921875,194.24609375)"
    />
<path
        d="M0 0 C2.51631257 3.17001423 2.32178145 4.95733343 2.18676758 8.97070312 C2.16974792 9.62199692 2.15272827 10.27329071 2.13519287 10.94432068 C2.07330935 13.09098036 1.98160962 15.23528489 1.88989258 17.38085938 C1.84218006 18.88097553 1.79597769 20.38114041 1.7512207 21.88134766 C1.62580954 25.77782281 1.4516338 29.67022739 1.25512695 33.5637207 C1.17754138 35.16589568 1.10803272 36.76847989 1.04614258 38.37133789 C0.9546369 40.73118346 0.83901206 43.08876984 0.71801758 45.44726562 C0.69491516 46.15669815 0.67181274 46.86613068 0.64801025 47.59706116 C0.35455333 52.55857286 -1.00204758 55.53311643 -4.11010742 59.38085938 C-6.91926216 60.78543674 -8.99821276 60.62981095 -12.11010742 60.38085938 C-15.24602312 58.60101533 -15.95113478 57.85777731 -17.11010742 54.38085938 C-17.25725941 52.75518858 -17.35732609 51.1249908 -17.42651367 49.49414062 C-17.4684082 48.55634766 -17.51030273 47.61855469 -17.5534668 46.65234375 C-17.5927832 45.67587891 -17.63209961 44.69941406 -17.67260742 43.69335938 C-17.71579102 42.70529297 -17.75897461 41.71722656 -17.8034668 40.69921875 C-17.90952396 38.25990391 -18.01158456 35.82048824 -18.11010742 33.38085938 C-23.35522113 38.60269361 -28.59754955 43.82730744 -33.83644295 49.05538273 C-36.26975319 51.48349805 -38.70397468 53.91068425 -41.14038086 56.33569336 C-43.94821543 59.13047698 -46.75190396 61.92939968 -49.55541992 64.72851562 C-50.42127716 65.58921158 -51.2871344 66.44990753 -52.17922974 67.33668518 C-56.70844058 71.86547903 -60.99779828 76.47127782 -65.11010742 81.38085938 C-66.76507861 83.05914002 -68.43169951 84.72601725 -70.11010742 86.38085938 C-71.08383554 87.42954137 -72.05367373 88.48184435 -73.02026367 89.53710938 C-81.23177398 98.34695562 -88.71473109 104.2688462 -101.23510742 105.06835938 C-112.97238 104.41544512 -120.42791886 95.52306023 -128.43041992 87.84960938 C-132.30601604 84.1520866 -136.37169093 80.80266865 -140.56323242 77.46679688 C-143.20246916 75.30521341 -145.68084959 73.02261126 -148.17260742 70.69335938 C-153.37602103 65.97802431 -158.91375771 61.17879728 -165.96557617 59.83789062 C-170.64690322 60.64621915 -172.90586302 63.32984093 -176.17260742 66.63085938 C-177.49765605 67.91910566 -178.8231858 69.20685725 -180.14916992 70.49414062 C-180.81078125 71.14592285 -181.47239258 71.79770508 -182.15405273 72.46923828 C-185.06350379 75.31259846 -188.05036704 78.0681589 -191.04760742 80.81835938 C-191.8599585 81.56714355 -191.8599585 81.56714355 -192.6887207 82.33105469 C-197.83690487 87.06974231 -203.08649297 91.66913976 -208.42651367 96.18945312 C-214.27245589 101.14929008 -219.99366059 106.09900674 -225.34057617 111.60351562 C-227.70888141 113.98227696 -230.23416779 116.14632351 -232.77807617 118.33398438 C-235.77280684 120.96252519 -238.68989404 123.67009521 -241.61010742 126.38085938 C-245.02966172 129.5532228 -248.44852212 132.7134694 -251.98510742 135.75585938 C-255.9608317 139.19020843 -259.77834995 142.7879744 -263.61010742 146.38085938 C-272.97177445 155.15491165 -272.97177445 155.15491165 -277.48901367 158.98242188 C-279.12971337 160.3637195 -279.12971337 160.3637195 -280.63745117 161.90429688 C-283.38847806 164.54586646 -285.48186628 165.7356154 -289.23510742 165.94335938 C-293.11010742 165.38085938 -293.11010742 165.38085938 -295.61010742 163.94335938 C-297.86249808 160.09552534 -297.96820515 156.7245045 -297.11010742 152.38085938 C-295.47313929 149.82309667 -294.29441496 148.35258224 -292.11010742 146.38085938 C-291.52874023 145.85105469 -290.94737305 145.32125 -290.34838867 144.77539062 C-289.02367274 143.60114952 -287.68695032 142.44035941 -286.34057617 141.29101562 C-283.06877323 138.4890688 -279.8845216 135.59252341 -276.68823242 132.70507812 C-274.97465325 131.16026054 -273.25591499 129.6211458 -271.53198242 128.08789062 C-267.63392749 124.61431713 -263.81291332 121.12496218 -260.17260742 117.38085938 C-257.32064913 114.48363191 -254.3542956 111.91087648 -251.17260742 109.38085938 C-243.75462381 103.42790173 -236.97805739 96.79561567 -230.0871582 90.24902344 C-223.94381379 84.44402573 -217.63654818 78.82425481 -211.25854492 73.27929688 C-208.57501332 70.90803077 -205.9346575 68.49098456 -203.29760742 66.06835938 C-202.78609131 65.59881836 -202.2745752 65.12927734 -201.74755859 64.64550781 C-199.24339007 62.34533607 -196.74299093 60.04128914 -194.24682617 57.73242188 C-176.26552099 41.20081174 -176.26552099 41.20081174 -165.86010742 41.13085938 C-165.10858398 41.11023438 -164.35706055 41.08960938 -163.58276367 41.06835938 C-155.56400561 41.01238201 -150.83734845 44.29138176 -144.92260742 49.50585938 C-143.77104879 50.50286068 -142.6186935 51.4989425 -141.46557617 52.49414062 C-140.89758301 52.9860791 -140.32958984 53.47801758 -139.74438477 53.98486328 C-137.45186251 55.94313072 -135.0930815 57.81473429 -132.73510742 59.69335938 C-128.12165434 63.43673139 -123.80062239 67.42887702 -119.48510742 71.50585938 C-113.38190547 77.26003117 -113.38190547 77.26003117 -107.04760742 82.75585938 C-106.41725586 83.27921875 -105.7869043 83.80257812 -105.13745117 84.34179688 C-102.26928676 85.81180022 -100.28972758 85.7793389 -97.11010742 85.38085938 C-94.82330381 84.04361604 -94.82330381 84.04361604 -92.79760742 81.94335938 C-91.9494043 81.13125 -91.10120117 80.31914062 -90.22729492 79.48242188 C-89.18735645 78.44944884 -88.14840077 77.415486 -87.11010742 76.38085938 C-85.7169925 75.01355546 -84.32375422 73.64637723 -82.93041992 72.27929688 C-74.56147329 64.06617099 -74.56147329 64.06617099 -66.64916992 55.41992188 C-62.69914863 50.84109184 -58.45780272 46.58185748 -54.17260742 42.31835938 C-53.41270508 41.55458984 -52.65280273 40.79082031 -51.86987305 40.00390625 C-47.65236244 35.7935989 -43.34253424 31.76288029 -38.82666016 27.87475586 C-36.83649492 26.1427375 -34.95610115 24.3278113 -33.11010742 22.44335938 C-32.11010742 21.42252604 -31.11010742 20.40169271 -30.11010742 19.38085938 C-31.42366211 19.51105469 -32.7372168 19.64125 -34.09057617 19.77539062 C-35.82614043 19.91611205 -37.56182479 20.05535769 -39.29760742 20.19335938 C-40.16192383 20.28294922 -41.02624023 20.37253906 -41.91674805 20.46484375 C-46.47727831 20.79683637 -48.39350134 20.90921995 -52.18823242 18.11132812 C-54.69806201 14.54553365 -54.79768142 12.65909762 -54.11010742 8.38085938 C-52.02386778 4.93093138 -50.90905196 3.58876316 -46.95776367 2.56054688 C-45.70866211 2.46 -44.45956055 2.35945312 -43.17260742 2.25585938 C-41.74263925 2.12343939 -40.31296181 1.9878533 -38.88354492 1.84960938 C-38.11751953 1.78 -37.35149414 1.71039063 -36.56225586 1.63867188 C-33.0352167 1.26784816 -29.54157654 0.71824592 -26.03735352 0.17651367 C-4.14958359 -3.18408404 -4.14958359 -3.18408404 0 0 Z "
        fill="#F8BE2A"
        transform="translate(692.110107421875,212.619140625)"
    />
<path
        d="M0 0 C10.89 0 21.78 0 33 0 C32.67 46.86 32.34 93.72 32 142 C21.77 142 11.54 142 1 142 C0.82492448 132.58343793 0.65549837 123.1668923 0.5 113.75 C0.48812275 113.03115883 0.4762455 112.31231766 0.46400833 111.57169342 C0.040364 85.67221306 -0.08870408 59.77773159 -0.0625 33.875 C-0.06164398 33.02270309 -0.06078796 32.17040619 -0.05990601 31.2922821 C-0.04863998 20.86148826 -0.02563545 10.43077904 0 0 Z "
        fill="#FDFCFB"
        transform="translate(642,336)"
    />
<path
        d="M0 0 C10.89 0 21.78 0 33 0 C32.67 37.62 32.34 75.24 32 114 C21.44 114 10.88 114 0 114 C0 76.38 0 38.76 0 0 Z "
        fill="#FDFCF9"
        transform="translate(531,365)"
    />
<path
        d="M0 0 C3.14710574 0.63973515 6.29243659 1.28780498 9.4375 1.9375 C10.33533203 2.11990234 11.23316406 2.30230469 12.15820312 2.49023438 C13.01220703 2.66748047 13.86621094 2.84472656 14.74609375 3.02734375 C15.53685303 3.18968506 16.3276123 3.35202637 17.14233398 3.51928711 C19 4 19 4 20 5 C22.57565746 5.13014485 25.11093299 5.19027707 27.6875 5.1875 C28.45046387 5.18669434 29.21342773 5.18588867 29.99951172 5.18505859 C39.59045737 5.08334551 48.81321756 3.79597726 58 1 C59.32 1 60.64 1 62 1 C62.33910994 3.04071515 62.67102704 5.08262621 63 7.125 C63.185625 8.26195312 63.37125 9.39890625 63.5625 10.5703125 C63.7790625 12.26800781 63.7790625 12.26800781 64 14 C64.18304688 14.97066406 64.36609375 15.94132812 64.5546875 16.94140625 C63.63650207 22.00435832 59.87691163 24.51840626 56.125 27.8125 C54.96049316 28.86872559 54.96049316 28.86872559 53.77246094 29.94628906 C51.52711964 31.97823402 49.26450909 33.98947892 47 36 C45.93795144 36.9650842 44.87772044 37.93217722 43.8203125 38.90234375 C41.56675449 40.96068473 39.30867013 43.00378147 37 45 C36.16984375 45.75796875 35.3396875 46.5159375 34.484375 47.296875 C32 49 32 49 30.02270508 48.77050781 C26.59961096 47.46655066 24.40322788 44.61449029 21.9375 42 C15.65074304 35.51483562 9.0734708 29.65255028 1.7265625 24.36328125 C-0.25 22.875 -0.25 22.875 -3 20 C-3.05761314 17.17695597 -2.72345812 15.6589435 -2 13 C-1.62680131 10.69049507 -1.27397379 8.37764053 -0.9375 6.0625 C-0.62536704 4.04160994 -0.31298952 2.02075757 0 0 Z "
        fill="#FCFCF9"
        transform="translate(150,442)"
    />
<path
        d="M0 0 C10.56 0 21.12 0 32 0 C32.78143712 19.04752984 33.09345189 37.93581414 33 57 C22.11 57 11.22 57 0 57 C0 38.19 0 19.38 0 0 Z "
        fill="#FDFCF9"
        transform="translate(419,422)"
    />
<path
        d="M0 0 C3.72542134 1.19861382 7.31250159 2.50568254 10.875 4.125 C12.04675781 4.65480469 12.04675781 4.65480469 13.2421875 5.1953125 C13.82226562 5.46085937 14.40234375 5.72640625 15 6 C14.43176789 11.17607795 11.90443068 15.20928187 9.4375 19.6875 C5.43841893 27.07840762 1.8422664 34.54581668 -1.39868164 42.29956055 C-2.89000062 45.80357995 -4.19406536 48.42940815 -7 51 C-14.72965152 44.40285788 -22.44392941 37.79646561 -30 31 C-26.70626946 23.12762207 -18.45545488 17.30722271 -12.09375 11.87109375 C-7.88002912 8.10547378 -3.9579303 4.03092492 0 0 Z "
        fill="#FCFBF8"
        transform="translate(225,474)"
    />
<path
        d="M0 0 C2.97775456 2.20019776 5.79578736 4.55807014 8.58203125 6.9921875 C9.1968335 7.52392578 9.81163574 8.05566406 10.44506836 8.60351562 C15.24193307 12.76919759 19.95211588 17.02308238 24.6171875 21.3359375 C27.03195777 23.55874574 27.03195777 23.55874574 29.828125 25.6484375 C30.55128906 26.256875 31.27445313 26.8653125 32.01953125 27.4921875 C32.01953125 28.1521875 32.01953125 28.8121875 32.01953125 29.4921875 C30.47064623 30.90925252 28.85191591 32.25028246 27.20703125 33.5546875 C26.21058594 34.34746094 25.21414062 35.14023437 24.1875 35.95703125 C23.66591309 36.37065918 23.14432617 36.78428711 22.60693359 37.21044922 C21.02705764 38.48611036 19.48326491 39.79530673 17.9453125 41.12109375 C16.97980469 41.94480469 16.01429688 42.76851562 15.01953125 43.6171875 C14.13265625 44.38289062 13.24578125 45.14859375 12.33203125 45.9375 C11.56890625 46.45054687 10.80578125 46.96359375 10.01953125 47.4921875 C6.14645228 46.20116118 5.96237742 45.00338375 4.1640625 41.41796875 C3.62740967 40.36367676 3.09075684 39.30938477 2.5378418 38.22314453 C1.97492432 37.09505371 1.41200684 35.96696289 0.83203125 34.8046875 C-0.32966137 32.51572278 -1.49371344 30.22795395 -2.66015625 27.94140625 C-3.22573242 26.83200684 -3.79130859 25.72260742 -4.37402344 24.57958984 C-6.96539882 19.59926566 -9.79375911 14.77772971 -12.6875 9.96875 C-13.98046875 7.4921875 -13.98046875 7.4921875 -13.98046875 4.4921875 C-12.07256843 3.59823421 -10.15373069 2.72759416 -8.23046875 1.8671875 C-7.163125 1.37992187 -6.09578125 0.89265625 -4.99609375 0.390625 C-1.98046875 -0.5078125 -1.98046875 -0.5078125 0 0 Z "
        fill="#FCFBF8"
        transform="translate(135.98046875,475.5078125)"
    />
<path
        d="M0 0 C0 13.86 0 27.72 0 42 C-8 41 -8 41 -9.98828125 39.65234375 C-14.83658592 33.37386071 -17.68741518 27.37052872 -17.33984375 19.29296875 C-16.22485418 11.76999317 -12.65277668 7.0806133 -6.90234375 2.3125 C-4.6330713 0.7468418 -2.77665748 0 0 0 Z "
        fill="#FDFCF8"
        transform="translate(101,324)"
    />
<path
        d="M0 0 C3.76958033 2.93189581 5.07362531 5.38939525 5.6875 10.125 C5.03673577 15.51704646 3.20749537 19.06437899 -1 22.6875 C-4.69157076 24.1137887 -7.84552797 24.46924485 -11.75 23.75 C-15.32906887 21.57143634 -17.16660201 19.58057854 -18.75 15.75 C-19.3859083 11.69357439 -19.67954126 7.56464231 -17.76953125 3.8359375 C-12.54621421 -2.68919087 -7.61333017 -3.46060462 0 0 Z "
        fill="#FDFBF5"
        transform="translate(554.75,601.25)"
    />
<path
        d="M0 0 C6.0805117 1.21610234 8.43005881 2.98150419 12.1875 7.8125 C15.86804019 14.28517413 16.68979383 19.83379403 15 27 C12.96790715 32.86464102 10.13646306 36.54074937 5 40 C2.525 40.495 2.525 40.495 0 41 C0 27.47 0 13.94 0 0 Z "
        fill="#FDFBF7"
        transform="translate(262,325)"
    />
<path
        d="M0 0 C0.66 0.66 1.32 1.32 2 2 C-1.3 5.3 -4.6 8.6 -8 12 C-8.99 11.67 -9.98 11.34 -11 11 C-7.37 7.37 -3.74 3.74 0 0 Z "
        fill="#F8C33E"
        transform="translate(647,246)"
    />
<path
        d="M0 0 C1.8725185 3.15987497 2.34846322 5.34113615 2 9 C1.39072482 11.01822402 0.73519522 13.02416285 0 15 C-0.33 15 -0.66 15 -1 15 C-1.09038099 9.84828377 -0.84681133 5.08086796 0 0 Z "
        fill="#FBEDC8"
        transform="translate(286,289)"
    />
<path
        d="M0 0 C0.598125 0.226875 1.19625 0.45375 1.8125 0.6875 C0.8225 0.6875 -0.1675 0.6875 -1.1875 0.6875 C-1.620625 1.615625 -1.620625 1.615625 -2.0625 2.5625 C-3.1875 4.6875 -3.1875 4.6875 -5.1875 6.6875 C-5.1875 2.6875 -5.1875 2.6875 -3.9375 0.875 C-2.1875 -0.3125 -2.1875 -0.3125 0 0 Z "
        fill="#F8C241"
        transform="translate(521.1875,347.3125)"
    />
</svg>
