<?xml version="1.0" encoding="UTF-8" ?>
<svg version="1.1" xmlns="http://www.w3.org/2000/svg" width="800" height="800">
<path
        d="M0 0 C264 0 528 0 800 0 C800 264 800 528 800 800 C536 800 272 800 0 800 C0 536 0 272 0 0 Z "
        fill="#FFFFFF"
        transform="translate(0,0)"
    />
<path
        d="M0 0 C264 0 528 0 800 0 C800 264 800 528 800 800 C536 800 272 800 0 800 C0 536 0 272 0 0 Z M211 50 C210.3925293 50.44907715 209.78505859 50.8981543 209.15917969 51.36083984 C202.57358268 56.24981466 196.27510496 61.3754231 190.24609375 66.94140625 C188.29045724 68.73378962 186.28955742 70.43039944 184.25 72.125 C166.14678622 87.96531206 152.4064239 107.5933941 140 128 C139.36505615 129.04365723 139.36505615 129.04365723 138.71728516 130.10839844 C130.30201215 144.07232241 124.04336978 158.5329989 119 174 C118.74863281 174.75877441 118.49726562 175.51754883 118.23828125 176.29931641 C113.64434459 190.29974646 110.50642045 204.4872998 108 219 C107.86577637 219.75861328 107.73155273 220.51722656 107.59326172 221.29882812 C103.90702872 243.17773568 104.36716871 268.15304208 108 290 C108.12358887 290.81017578 108.24717773 291.62035156 108.37451172 292.45507812 C110.56055327 306.68952081 114.07514889 320.42454261 118.17626953 334.22070312 C118.71045675 336.02307044 119.23300625 337.82894388 119.74169922 339.63867188 C121.37251747 345.35149098 123.47424944 350.62830075 126 356 C126.35594238 356.78616699 126.71188477 357.57233398 127.07861328 358.38232422 C137.04493198 380.39218907 149.50097324 401.2695345 165.125 419.765625 C165.74375 420.50296875 166.3625 421.2403125 167 422 C167.61875 422.65484375 168.2375 423.3096875 168.875 423.984375 C170 426 170 426 169.47265625 428.28515625 C167.58848133 431.75863521 165.56194692 435.10637366 163.4375 438.4375 C162.76279663 439.50508545 162.76279663 439.50508545 162.07446289 440.59423828 C160.72087554 442.73243453 159.36124252 444.86667135 158 447 C157.319375 448.07121094 156.63875 449.14242188 155.9375 450.24609375 C149.8328286 459.79656599 143.60235022 469.26575076 137.39651489 478.75062561 C128.56397994 492.25021314 119.75583133 505.75771674 111.16894531 519.4152832 C107.87610819 524.64247019 104.49918953 529.80348223 101.05078125 534.9296875 C94.46372165 544.79145673 88.10518214 554.79753593 81.86010742 564.87841797 C77.98993152 571.08825263 73.93323199 577.16949457 69.84594727 583.23803711 C69.35924561 583.96128174 68.87254395 584.68452637 68.37109375 585.4296875 C67.93724365 586.07147949 67.50339355 586.71327148 67.05639648 587.37451172 C64.26666399 591.66710219 64.29599323 596.00308237 65 601 C66.6720747 604.12578143 68.7856235 606.39281175 72 608 C75.08540201 608.1337338 78.13609326 608.19016645 81.22265625 608.1875 C82.71962791 608.1862915 82.71962791 608.1862915 84.24684143 608.18505859 C99.80925576 608.06722223 115.34986118 607.03705483 130.88287354 606.14575195 C135.19444022 605.89975933 139.50641687 605.66117287 143.81835938 605.421875 C152.21264653 604.95497054 160.60646051 604.48015741 169 604 C169.18515671 604.57028931 169.37031342 605.14057861 169.56108093 605.72814941 C171.12875527 610.50230745 172.8099178 615.18797276 174.70703125 619.84375 C175.21332589 621.0939497 175.71950672 622.3441955 176.22558594 623.59448242 C176.48496948 624.23259857 176.74435303 624.87071472 177.01159668 625.52816772 C184.23767395 643.31884485 184.23767395 643.31884485 187.25 652.1875 C190.11619662 660.60615876 193.55625343 668.75724507 197.10107422 676.91015625 C197.89386562 678.75325631 198.65455406 680.6100942 199.41015625 682.46875 C201.7577089 688.08476019 203.6097347 691.93494719 209 695 C213.2510781 695.93711141 215.94629779 695.58059631 219.77856445 693.46899414 C223.79603217 690.7188271 226.08193174 686.98085783 228.66796875 682.9296875 C229.18829178 682.13458771 229.70861481 681.33948792 230.2447052 680.52029419 C231.90345806 677.9789231 233.54533588 675.42711311 235.1875 672.875 C236.27045735 671.21417362 237.35443368 669.5540112 238.43945312 667.89453125 C244.12548634 659.16793901 249.64363205 650.35401257 255.03997803 641.44587708 C259.07683327 634.81024459 263.34038821 628.34436123 267.68920898 621.91015625 C269.87369578 618.67679109 272.04487787 615.43452848 274.21484375 612.19140625 C274.63800873 611.5590506 275.06117371 610.92669495 275.49716187 610.275177 C278.74978727 605.40221843 281.90669817 600.47574065 285 595.5 C290.57486624 586.5374629 296.45305149 577.78531442 302.32800293 569.01824951 C309.20291157 558.75804918 309.20291157 558.75804918 315.85229492 548.35083008 C316.77895139 546.87513976 317.72437719 545.41105952 318.6887207 543.9597168 C321.54989547 539.60853884 323.77716496 535.29916217 325.83984375 530.51171875 C329.16738659 523.5114081 332.25751458 517.19888906 339 513 C349.81172532 509.92782901 362.21831378 511.38350274 373.25141907 512.50091553 C378.38344744 513.01123213 382.90008485 512.81376212 388 512 C388.24878906 512.69915527 388.49757813 513.39831055 388.75390625 514.11865234 C390.17203299 517.39779258 391.94177095 520.13729134 393.9375 523.1015625 C394.33037201 523.68767807 394.72324402 524.27379364 395.12802124 524.87767029 C395.9745371 526.13943602 396.82310525 527.39982684 397.67352295 528.65896606 C399.01303284 530.64431658 400.3445989 532.63478891 401.67431641 534.62670898 C405.76678479 540.7494608 409.88377161 546.85299055 414.08026123 552.9050293 C415.78397614 555.36534604 417.47464605 557.834477 419.1640625 560.30462646 C419.96877582 561.47279926 420.78028367 562.63632167 421.59863281 563.79498291 C422.73567182 565.40534122 423.84893785 567.03240676 424.9609375 568.66015625 C425.91685791 570.03119507 425.91685791 570.03119507 426.89208984 571.42993164 C428 574 428 574 427.30761719 576.66333008 C425.70916753 579.51970828 423.87836062 582.03528993 421.875 584.625 C421.07964844 585.67558594 420.28429687 586.72617187 419.46484375 587.80859375 C417.88411449 589.87310492 416.27228196 591.893163 414.62890625 593.91015625 C409.25510724 600.59531434 409.25510724 600.59531434 408.2265625 608.8125 C411.11471109 616.98100105 419.78970934 622.83196952 427 627 C427.66 627 428.32 627 429 627 C428.65324219 628.11632812 428.30648438 629.23265625 427.94921875 630.3828125 C427.11099113 633.69924657 426.97507001 636.40707169 427.33203125 639.8046875 C428.65741856 652.83872163 428.65741856 652.83872163 425.58496094 656.84521484 C421.51018021 660.38291531 416.80193565 662.61215222 412 665 C409.6306014 667.03086333 409.01947928 667.94156216 408 671 C407.88179375 672.62189967 407.8248568 674.24884547 407.8125 675.875 C407.79832031 676.71804688 407.78414063 677.56109375 407.76953125 678.4296875 C408.02445961 681.27278688 408.89745999 683.383072 410 686 C409.12263184 686.86689453 408.24526367 687.73378906 407.34130859 688.62695312 C404.0597505 691.87206652 400.78501619 695.12399486 397.51220703 698.37792969 C396.09997169 699.78016291 394.68593953 701.18058907 393.27001953 702.57910156 C391.22463271 704.5999841 389.18598817 706.62747044 387.1484375 708.65625 C386.210569 709.57863464 386.210569 709.57863464 385.25375366 710.51965332 C374.63017995 721.14055309 368.09078576 733.15125027 367.625 748.5 C368.11355481 762.66808955 373.85856074 774.48922088 383.5078125 784.70703125 C393.03673966 793.47424167 402.9376418 797.5872265 415.75 797.5 C416.72356445 797.49427979 417.69712891 797.48855957 418.70019531 797.48266602 C435.09892223 797.07611995 446.70223032 787.80059497 457.8515625 776.51171875 C458.63647064 775.72730911 459.42137878 774.94289948 460.23007202 774.13471985 C461.86874715 772.49372394 463.50377956 770.84908283 465.13525391 769.20092773 C467.64443698 766.66787814 470.16697049 764.14869945 472.69140625 761.63085938 C474.28725629 760.02944062 475.8823372 758.42725496 477.4765625 756.82421875 C478.23264801 756.06904465 478.98873352 755.31387054 479.76773071 754.53581238 C480.45620087 753.83781021 481.14467102 753.13980804 481.85400391 752.4206543 C482.46337799 751.80667282 483.07275208 751.19269135 483.70059204 750.56010437 C485.213329 749.08226578 485.213329 749.08226578 485 747 C485.66 747 486.32 747 487 747 C486.87625 748.010625 486.7525 749.02125 486.625 750.0625 C487.11312854 755.18784969 489.17741342 757.67715525 493 761 C496.26766922 762.99997384 498.78711274 763.25687505 502.59130859 763.2746582 C503.71282318 763.28419022 504.83433777 763.29372223 505.98983765 763.30354309 C507.1971756 763.30263168 508.40451355 763.30172028 509.6484375 763.30078125 C510.89372223 763.30506638 512.13900696 763.3093515 513.42202759 763.31376648 C516.05656028 763.31951036 518.69070129 763.32094496 521.32519531 763.31567383 C524.02165371 763.31103612 526.71766205 763.31797651 529.4140625 763.33618164 C533.30482714 763.36068927 537.19510526 763.36483641 541.0859375 763.36328125 C542.89087173 763.37709587 542.89087173 763.37709587 544.73226929 763.39118958 C552.8016432 763.3971352 552.8016432 763.3971352 560 760 C563.69760539 756.10843842 563.69760539 756.10843842 564.99902344 751.13989258 C564.95293945 750.39892334 564.90685547 749.6579541 564.859375 748.89453125 C564.53931976 738.66992751 564.53931976 738.66992751 566 734 C569.86074614 730.24359835 574.01745229 728.84050382 579 727 C580.02738281 726.26652344 581.05476562 725.53304687 582.11328125 724.77734375 C585 723 585 723 587.48046875 723.0234375 C590.64521965 724.25008513 593.40406913 725.87645833 596.3125 727.625 C601.60039799 730.65704158 601.60039799 730.65704158 607.5 731.1875 C615.66159349 728.41838792 618.57212995 722.19203509 622.625 715.0625 C623.19734375 714.07314453 623.7696875 713.08378906 624.359375 712.06445312 C625.42599757 710.22018828 626.48850076 708.37353003 627.54541016 706.52368164 C628.55953662 704.76419435 629.60913017 703.02487986 630.68505859 701.30249023 C632.16530692 699.15246326 632.16530692 699.15246326 632 697 C632.66 697 633.32 697 634 697 C634.30292969 696.38253906 634.60585938 695.76507812 634.91796875 695.12890625 C635.54638672 693.85853516 635.54638672 693.85853516 636.1875 692.5625 C636.63867188 691.64984375 637.08984375 690.7371875 637.5546875 689.796875 C638.88068431 687.23089199 640.32094967 684.78421197 641.8125 682.3125 C644.00893683 678.33233263 644.93698698 675.59975427 644 671 C640.81005365 665.93361462 637.93897383 663.96740458 632.56787109 661.37011719 C629.20712183 659.64877841 626.26512636 658.09689332 624 655 C622.42649105 648.89915753 623.36785464 642.59210941 623.93945312 636.40136719 C624.02731002 632.9168495 623.19496782 630.25494965 622 627 C623.04414062 626.64035156 623.04414062 626.64035156 624.109375 626.2734375 C627.52543532 624.76852444 630.25234127 622.84740216 633.25 620.625 C634.83554688 619.46871094 634.83554688 619.46871094 636.453125 618.2890625 C638.92290617 616.06928985 639.73400698 615.23624838 640 612 C640.66 612 641.32 612 642 612 C642.46450943 605.49686791 641.32575612 601.5825192 638 596 C639.23234677 594.75243908 640.51371225 593.55323477 641.8125 592.375 C642.87404297 591.36566406 642.87404297 591.36566406 643.95703125 590.3359375 C648.07375771 588.52859418 650.60933353 589.46247371 654.90698242 590.4140625 C660.32548755 591.44053754 665.75092432 591.33978296 671.25 591.3125 C672.44149658 591.30686035 673.63299316 591.3012207 674.8605957 591.29541016 C703.6210775 590.89930889 729.15323042 578.38584979 749.33569336 558.09277344 C770.44281813 536.07963983 778.60773705 507.14932332 778.2890625 477.26171875 C777.94058301 465.72141573 775.52102835 452.53504726 769.5 442.5 C765.08004268 439.84802561 760.96354636 439.76398523 756 441 C751.89296221 443.89943349 748.59236446 447.33513262 745.20317268 451.0311451 C743.50787283 452.87736857 741.77860449 454.68488149 740.03648376 456.48692322 C735.72121337 460.96450427 731.46441632 465.49615475 727.21514893 470.03631592 C723.61600822 473.87958738 719.99177303 477.69526968 716.32803154 481.47704887 C714.6275192 483.2539518 712.96992726 485.06488799 711.31056213 486.88014221 C703.90681689 494.69870031 703.90681689 494.69870031 698.74307251 495.51463318 C695.69380435 495.27614285 692.96163083 494.74248574 690 494 C688.15391768 493.79397008 686.30489747 493.61115504 684.453125 493.46484375 C682.71862642 493.29028616 680.98427096 493.11430477 679.25 492.9375 C677.59994223 492.77019133 675.9498766 492.60296016 674.29980469 492.43579102 C672.86653646 492.29052734 671.43326823 492.14526367 670 492 C668.1324695 480.23230517 665.91409812 465.92363083 673.20977974 455.60952377 C678.86911225 448.4875845 685.72192675 442.4309401 692.53967285 436.44830322 C695.51926381 433.80405217 698.41577794 431.07191914 701.31835938 428.34375 C704.58277873 425.28011065 707.85168211 422.22616158 711.18928528 419.24215698 C712.17007553 418.36157623 713.15086578 417.48099548 714.16137695 416.57373047 C715.45710381 415.42491898 715.45710381 415.42491898 716.77900696 414.25289917 C720.47314601 410.50569121 722.42921828 407.30029917 722.4375 402 C722.31754551 398.63627611 722.04883819 397.0918158 720.4375 394.0625 C707.70346488 383.2875472 684.46382485 384.79373368 669 386 C639.36825343 389.80430021 612.59944281 404.42249289 594.125 427.95703125 C587.39624346 437.59251167 582.1403673 448.01450285 578 459 C577.34 459 576.68 459 576 459 C574.6953125 457.19140625 574.6953125 457.19140625 573.125 454.5625 C569.36915174 448.46420937 565.27068729 442.65253876 561.08837891 436.84008789 C560.58870605 436.14133545 560.0890332 435.44258301 559.57421875 434.72265625 C559.12651123 434.10140869 558.67880371 433.48016113 558.2175293 432.84008789 C556.97076318 430.95581353 555.9682675 429.03936236 555 427 C555.58265625 426.40316406 556.1653125 425.80632812 556.765625 425.19140625 C564.43408796 417.07682201 570.79693847 408.26877299 577 399 C577.433125 398.35434082 577.86625 397.70868164 578.3125 397.04345703 C591.91262388 376.55295789 602.52330104 354.71539661 609 331 C609.37390869 329.6377832 609.37390869 329.6377832 609.75537109 328.24804688 C622.97235459 279.77211733 622.76049479 232.85777542 610 184.375 C609.66790527 183.1060791 609.33581055 181.8371582 608.99365234 180.52978516 C607.09212729 173.46097088 604.89706091 166.72028066 602 160 C601.47596634 158.71899371 600.95249194 157.43775845 600.4296875 156.15625 C593.89521889 140.78875597 585.76414599 126.47494024 576.22802734 112.77490234 C575.0245138 111.03543049 573.84873601 109.27970734 572.67578125 107.51953125 C566.62225072 98.57627032 559.58069408 90.80601539 552.04150391 83.09277344 C549.96462699 80.96373865 547.91011773 78.8145341 545.85546875 76.6640625 C537.1706118 67.6731313 528.12807304 59.74342397 517.98730469 52.43603516 C516.10347195 51.07476929 514.2412614 49.6885993 512.3828125 48.29296875 C504.58557873 42.4982313 496.43892297 37.62940171 487.89013672 33.02734375 C486.13393399 32.07279698 484.39614498 31.08458333 482.66015625 30.09375 C474.41678315 25.4472999 465.91590083 22.08078038 457 19 C455.99001953 18.64615234 454.98003906 18.29230469 453.93945312 17.92773438 C434.46939582 11.12333093 434.46939582 11.12333093 414.41699219 6.43701172 C412.71618565 6.12949215 411.01909329 5.80106109 409.32519531 5.45751953 C341.36056962 -8.19763161 266.47609335 8.73323151 211 50 Z "
        fill="#FFFFFF"
        transform="translate(0,0)"
    />
<path
        d="M0 0 C0.9567865 -0.00012085 1.913573 -0.0002417 2.89935303 -0.00036621 C18.77381114 0.02805125 33.91009897 1.21319276 49.5 4.375 C51.05953055 4.65697573 52.6194042 4.93706349 54.1796875 5.21484375 C66.95789413 7.6342678 79.21337951 12.03851298 91.46582031 16.31591797 C94.01198381 17.20465769 96.56318694 18.07559427 99.1171875 18.94140625 C128.60388767 29.18794455 156.39156593 48.61936009 178.5 70.375 C179.19222656 71.04821289 179.88445312 71.72142578 180.59765625 72.41503906 C193.40339002 84.89033724 204.6309705 97.4084879 214.5 112.375 C215.2105957 113.45128662 215.2105957 113.45128662 215.93554688 114.54931641 C222.89312655 125.15805839 229.17992987 135.85586658 234.5 147.375 C234.96164551 148.35847412 234.96164551 148.35847412 235.43261719 149.36181641 C262.68879103 207.73331932 263.89870697 275.07673678 244.3112793 335.74121094 C243.45799284 338.51137472 242.71352761 341.29735557 241.98046875 344.1015625 C240.82235632 348.40910158 239.37288558 352.34255043 237.4375 356.375 C237.14294922 356.98891602 236.84839844 357.60283203 236.54492188 358.23535156 C230.52645524 370.63536206 224.26470943 382.96737623 216.5 394.375 C215.79101562 395.43074219 215.08203125 396.48648437 214.3515625 397.57421875 C207.70374931 407.38792964 200.39804947 416.53905715 192.5 425.375 C195.57001247 431.02712565 199.11975393 436.14218104 202.9375 441.3125 C207.0334131 446.86955587 210.93412572 452.46079323 214.5 458.375 C214.974375 457.240625 215.44875 456.10625 215.9375 454.9375 C229.79184759 424.06904133 250.13667204 402.77571767 281.8125 390.125 C283.69536981 389.50109048 285.59351093 388.92250455 287.5 388.375 C288.43875977 388.10429688 288.43875977 388.10429688 289.39648438 387.828125 C308.74372244 382.47098518 332.39419342 381.21284442 351.5 388.375 C355.16928947 390.48864601 357.14855193 391.84782789 359.5 395.375 C359.90625 397.57421875 359.90625 397.57421875 360 400.0625 C360.0515625 400.87074219 360.103125 401.67898438 360.15625 402.51171875 C358.1487079 411.27081614 349.22551226 417.45802809 342.8515625 423.12890625 C340.22486227 425.54354931 337.62007113 427.98170994 335.01424599 430.41883945 C332.31964552 432.9303508 329.60470708 435.40674203 326.82373047 437.82250977 C312.18344037 450.27774585 312.18344037 450.27774585 306.08886719 467.81591797 C305.74050583 475.37802539 306.40705119 482.89292234 307.5 490.375 C308.10737 490.43655777 308.71473999 490.49811554 309.34051514 490.5615387 C310.15208069 490.64379196 310.96364624 490.72604523 311.79980469 490.81079102 C312.6468396 490.89660431 313.49387451 490.9824176 314.36657715 491.0708313 C316.10543976 491.2471444 317.84424178 491.42405533 319.58300781 491.60131836 C321.22933787 491.76700279 322.87773152 491.91289828 324.52723694 492.04322815 C327.5 492.375 327.5 492.375 330.22380066 493.05786133 C335.19631565 494.07982395 338.23220917 494.20415719 342.57162476 491.36610413 C345.3766606 488.91401579 347.92103417 486.22823691 350.43312263 483.48015022 C352.12505626 481.63019719 353.85488921 479.82432591 355.59922791 478.02378845 C359.29168619 474.19697345 362.92876654 470.31998939 366.5625 466.4375 C370.78066064 461.93978998 375.01991005 457.46505559 379.30578423 453.03176689 C381.00501122 451.25419122 382.6664514 449.44619073 384.3283844 447.63380432 C391.68620995 439.84295972 391.68620995 439.84295972 396.61715698 438.57077026 C401.26761586 438.45683538 403.65889971 438.74864872 407.4375 441.5625 C418.36773709 458.35387872 417.60736371 485.05835749 413.875 503.875 C409.17101236 525.7318903 398.88314515 543.38493258 383.5 559.375 C382.92894531 560.02082031 382.35789062 560.66664063 381.76953125 561.33203125 C367.60843224 576.8764767 343.16031397 587.33005056 322.5 589.375 C318.08247131 589.53712479 313.67018126 589.5600846 309.25 589.5625 C308.08597656 589.57474609 306.92195312 589.58699219 305.72265625 589.59960938 C300.10655371 589.60904292 294.957058 589.37191329 289.46484375 588.15234375 C285.39244419 587.30372059 285.39244419 587.30372059 281.45703125 588.7109375 C280.39548828 589.72027344 280.39548828 589.72027344 279.3125 590.75 C278.57644531 591.41773438 277.84039063 592.08546875 277.08203125 592.7734375 C276.55996094 593.30195312 276.03789063 593.83046875 275.5 594.375 C275.78875 594.8596875 276.0775 595.344375 276.375 595.84375 C279.22856297 600.99601647 279.91931138 604.50464063 279.5 610.375 C278.84 610.375 278.18 610.375 277.5 610.375 C277.314375 611.09042969 277.12875 611.80585937 276.9375 612.54296875 C274.93774114 616.48271106 272.09898174 618.24843105 268.5 620.6875 C267.85804688 621.14189453 267.21609375 621.59628906 266.5546875 622.06445312 C261.79546523 625.375 261.79546523 625.375 259.5 625.375 C259.84675781 626.31730469 260.19351563 627.25960937 260.55078125 628.23046875 C261.47261376 631.42278517 261.49957207 634.00186717 261.16796875 637.30078125 C259.88510465 646.68503802 259.88510465 646.68503802 262.8828125 655.22363281 C266.44626596 658.30633402 270.47868976 660.24083151 274.68383789 662.29321289 C277.77231168 664.13284555 279.4503408 666.43689537 281.5 669.375 C283.01066043 676.37897107 278.90789589 681.55664116 275.5 687.375 C274.12579942 690.0234593 272.81420874 692.69603602 271.5 695.375 C270.84 695.375 270.18 695.375 269.5 695.375 C269.26796875 696.20386719 269.0359375 697.03273438 268.796875 697.88671875 C267.25258435 702.04048848 265.14301378 705.47744562 262.75 709.1875 C262.30043945 709.89092529 261.85087891 710.59435059 261.38769531 711.3190918 C260.49675746 712.71050068 259.60327912 714.10028676 258.70703125 715.48828125 C257.68764516 717.08169057 256.69954409 718.69505009 255.71875 720.3125 C252.93442112 724.81481904 250.83258981 727.85140291 245.5 729.375 C238.72458254 728.92276713 234.29756961 726.2058435 228.5859375 722.7734375 C225.67581344 721.18166989 225.67581344 721.18166989 222.94140625 721.453125 C220.01775599 722.55709534 217.6560618 724.00624356 215.0625 725.75 C211.31130103 728.25791396 207.56999394 730.42092338 203.5 732.375 C203.47421875 733.67695312 203.4484375 734.97890625 203.421875 736.3203125 C203.36557299 738.04690756 203.30822613 739.77346876 203.25 741.5 C203.23582031 742.3559375 203.22164062 743.211875 203.20703125 744.09375 C202.99342254 749.64757643 202.18141223 752.9614495 198.5 757.375 C194.52901715 760.8646516 191.21747056 761.50022923 186.0222168 761.55200195 C184.90062668 761.56483719 183.77903656 761.57767242 182.62345886 761.59089661 C180.80471001 761.60197701 180.80471001 761.60197701 178.94921875 761.61328125 C177.70251907 761.621353 176.4558194 761.62942474 175.17134094 761.63774109 C172.53093754 761.65158108 169.89065896 761.66259777 167.25024414 761.67016602 C164.54688998 761.67902761 161.84404957 761.69990559 159.14086914 761.73168945 C155.24349417 761.77428762 151.3467974 761.79052517 147.44921875 761.80078125 C146.24279221 761.81828934 145.03636566 761.83579742 143.79338074 761.85383606 C135.51296469 761.83241792 132.05449159 760.83595234 126.125 755.0625 C124.06514819 751.65582201 124.19321151 749.28655321 124.5 745.375 C123.84 745.375 123.18 745.375 122.5 745.375 C122.23825989 745.96009338 121.97651978 746.54518677 121.70684814 747.14801025 C120.43095723 749.50240422 119.05898618 751.09523948 117.19042969 753.00683594 C116.51502136 753.70145935 115.83961304 754.39608276 115.14373779 755.11175537 C114.04391571 756.22432709 114.04391571 756.22432709 112.921875 757.359375 C112.15885071 758.13379944 111.39582642 758.90822388 110.60968018 759.70611572 C108.98840372 761.34628596 107.36419717 762.98356423 105.73730469 764.61816406 C103.28661058 767.08810194 100.85815038 769.57854142 98.4296875 772.0703125 C86.55949221 784.10200704 74.58419295 795.41761635 56.75854492 795.80639648 C40.97887687 795.83979685 30.96548398 792.26523358 19.37890625 781.3828125 C10.41854945 772.13450472 5.73168018 760.07174262 5.125 747.3125 C5.37231907 736.33771641 7.97786157 725.54244222 15.5 717.375 C16.11649414 716.67697266 16.73298828 715.97894531 17.36816406 715.25976562 C23.51343803 708.32294583 29.98588805 701.77195295 36.5625 695.25 C37.62979417 694.18773794 38.69685278 693.12523917 39.76367188 692.0625 C42.33974925 689.49727641 44.91896071 686.9352322 47.5 684.375 C47.17620361 683.6015625 46.85240723 682.828125 46.51879883 682.03125 C45.46610069 679.28661647 45.20120135 677.29795534 45.1875 674.375 C45.17074219 673.55 45.15398437 672.725 45.13671875 671.875 C45.77268659 667.49844711 47.68686301 665.06226439 51.0234375 662.2421875 C51.96445312 661.58476563 52.90546875 660.92734375 53.875 660.25 C55.27878906 659.25613281 55.27878906 659.25613281 56.7109375 658.2421875 C59.5 656.375 59.5 656.375 62.33984375 655.23828125 C64.66901267 653.62395671 64.66901267 653.62395671 64.85839844 651.39648438 C64.92238321 648.80982138 64.83484557 646.27071038 64.6875 643.6875 C64.39189039 637.12108982 64.59316628 631.69920914 66.5 625.375 C65.94054687 625.11074219 65.38109375 624.84648438 64.8046875 624.57421875 C57.95795498 621.01159692 50.3729938 616.24060737 46.5 609.375 C45.56825572 604.65936966 45.93559902 600.62646481 48.625 596.6015625 C49.56265084 595.38481933 50.5219613 594.18452242 51.5 593 C51.99459717 592.36078613 52.48919434 591.72157227 52.9987793 591.06298828 C54.47975247 589.1506521 55.98505473 587.26048929 57.5 585.375 C59.12505632 583.34738504 60.72476425 581.30766104 62.3125 579.25 C62.97894531 578.42242188 63.64539063 577.59484375 64.33203125 576.7421875 C65.81486425 574.42447022 65.81486425 574.42447022 64.75561523 572.01318359 C63.52770998 569.43322166 62.17692864 567.1628665 60.578125 564.796875 C59.97484375 563.89855957 59.3715625 563.00024414 58.75 562.07470703 C58.09 561.10130371 57.43 560.12790039 56.75 559.125 C55.31761941 556.99224722 53.88533338 554.85943093 52.453125 552.7265625 C51.66233448 551.55225724 50.87131054 550.37810913 50.08007812 549.20410156 C45.71184641 542.72219565 41.35116145 536.23528896 37.00231934 529.74035645 C35.50949505 527.51415964 34.01116561 525.29173482 32.51269531 523.06933594 C31.59151593 521.6948497 30.67060455 520.32018381 29.75 518.9453125 C29.31951355 518.30991547 28.8890271 517.67451843 28.44549561 517.01986694 C25.5 512.60269014 25.5 512.60269014 25.5 510.375 C24.37384277 510.5488623 23.24768555 510.72272461 22.08740234 510.90185547 C17.36309993 511.49062747 12.83892899 511.24546091 8.1015625 510.9453125 C5.37756256 510.83015739 2.65323779 510.72831185 -0.07128906 510.62646484 C-1.93815428 510.54225758 -3.80405755 510.43291945 -5.66796875 510.29833984 C-15.96442168 509.24355061 -15.96442168 509.24355061 -25.26605225 512.73535156 C-28.42546796 516.25038946 -30.54817512 520.25817575 -32.57806396 524.50018311 C-33.80780086 527.00093306 -35.32137966 529.2529297 -36.8984375 531.546875 C-37.89180273 533.07215029 -38.8839915 534.59819243 -39.875 536.125 C-40.42406006 536.96949707 -40.97312012 537.81399414 -41.53881836 538.68408203 C-44.62208398 543.43853874 -47.66457535 548.21557674 -50.66845703 553.02050781 C-56.8644867 562.92981481 -63.32320403 572.64923957 -69.82809448 582.35702515 C-75.33578534 590.5798483 -80.75348037 598.83979305 -85.98217773 607.24389648 C-90.73871776 614.84721033 -95.75782818 622.27251593 -100.75747681 629.71676636 C-105.26273877 636.43163236 -109.68052385 643.17161567 -113.8125 650.125 C-118.60396411 658.13899868 -123.74317662 665.91799791 -128.94174194 673.67175293 C-129.8907662 675.0892373 -130.83631628 676.50905437 -131.77822876 677.93127441 C-133.1100182 679.93922766 -134.45533692 681.93741248 -135.8046875 683.93359375 C-136.20329483 684.53902512 -136.60190216 685.14445648 -137.0125885 685.76823425 C-139.43329784 689.30844449 -141.59212175 691.56755761 -145.5 693.375 C-149.33580886 693.93181096 -151.85275381 694.28080379 -155.27148438 692.40087891 C-160.84392552 687.92978041 -162.81103098 682.81659273 -165.125 676.1875 C-165.8432186 674.21369997 -166.56456996 672.24103704 -167.2890625 670.26953125 C-167.64524658 669.29209961 -168.00143066 668.31466797 -168.3684082 667.30761719 C-169.49981179 664.37548776 -170.75764367 661.54103405 -172.08203125 658.69140625 C-174.24171786 654.03961392 -175.96804817 649.36881938 -177.5625 644.5 C-181.07642026 634.07855782 -185.30351223 623.96961514 -189.58813477 613.84814453 C-190.09401123 612.64786621 -190.5998877 611.44758789 -191.12109375 610.2109375 C-191.80836548 608.59517822 -191.80836548 608.59517822 -192.50952148 606.94677734 C-193.5 604.375 -193.5 604.375 -193.5 602.375 C-194.37600357 602.4251123 -195.25200714 602.47522461 -196.15455627 602.52685547 C-204.52052313 603.00426312 -212.88682209 603.47528265 -221.25352573 603.93960571 C-225.55210981 604.17837537 -229.85054096 604.41938316 -234.14868164 604.66601562 C-245.26287663 605.30246597 -256.37790516 605.89376703 -267.5 606.375 C-268.76753113 606.42994629 -270.03506226 606.48489258 -271.34100342 606.54150391 C-274.59091735 606.66555288 -277.8382363 606.7502304 -281.08984375 606.8125 C-281.9973085 606.84682129 -282.90477325 606.88114258 -283.83973694 606.91650391 C-288.26424755 606.94684607 -289.91178668 606.85189042 -293.46313477 603.97265625 C-294.13530029 603.11542969 -294.80746582 602.25820313 -295.5 601.375 C-296.16 600.715 -296.82 600.055 -297.5 599.375 C-298.70226234 595.37318393 -298.44547364 591.44554093 -296.703125 587.62988281 C-293.9665744 582.66988486 -290.70736034 578.03740673 -287.5 573.375 C-286.01541679 571.16902442 -284.53845601 568.95809284 -283.0625 566.74633789 C-282.05898693 565.24351827 -281.05245162 563.74271256 -280.04296875 562.24389648 C-276.45666836 556.89720537 -273.06824796 551.4538341 -269.75 545.9375 C-266.83833227 541.09856356 -263.89584551 536.39589189 -260.5 531.875 C-257.1798724 527.44816319 -254.28747386 522.8602146 -251.4375 518.125 C-244.74633941 507.01922241 -237.62041981 496.20865702 -230.5 485.375 C-227.56013523 480.89738017 -224.6224585 476.41833715 -221.6875 471.9375 C-220.96602783 470.83623779 -220.24455566 469.73497559 -219.5012207 468.6003418 C-215.22368839 462.05611666 -211.01344859 455.4780905 -206.91308594 448.8215332 C-203.63824601 443.52588088 -200.18044743 438.36033517 -196.63305664 433.2434082 C-193.77802528 429.12124655 -193.77802528 429.12124655 -192.5 424.375 C-193.38858455 422.60408884 -193.38858455 422.60408884 -194.89453125 421.01171875 C-195.43303711 420.37999756 -195.97154297 419.74827637 -196.52636719 419.09741211 C-197.41050293 418.09013062 -197.41050293 418.09013062 -198.3125 417.0625 C-204.68308886 409.51788294 -210.25896316 401.7353849 -215.5 393.375 C-215.87576172 392.77896973 -216.25152344 392.18293945 -216.63867188 391.56884766 C-221.34840292 384.04919475 -225.66551927 376.34306932 -229.8125 368.5 C-230.42544922 367.34129395 -230.42544922 367.34129395 -231.05078125 366.15917969 C-248.92436575 331.8965765 -256.71937806 292.04255999 -256.75 253.625 C-256.75067474 252.857323 -256.75134949 252.089646 -256.75204468 251.29870605 C-256.70641542 218.39958246 -250.73999185 183.28306311 -236.5 153.375 C-236.22075684 152.7876709 -235.94151367 152.2003418 -235.65380859 151.59521484 C-223.68005242 126.60292737 -209.27315398 103.8359612 -190.5 83.375 C-189.54894285 82.31949341 -188.59844746 81.26348046 -187.6484375 80.20703125 C-169.27330539 59.87256516 -147.04163788 43.42259513 -123.1875 30 C-122.47062012 29.59483154 -121.75374023 29.18966309 -121.01513672 28.7722168 C-116.45689401 26.26513102 -111.83461537 24.2174419 -106.98461914 22.33984375 C-104.63441162 21.42719561 -102.31301704 20.46504769 -99.9921875 19.48046875 C-83.87643926 12.73773989 -67.30231031 7.59901356 -50.1875 4.0625 C-49.48560547 3.91522461 -48.78371094 3.76794922 -48.06054688 3.61621094 C-32.19308343 0.57245223 -16.11275155 -0.03157506 0 0 Z M-37.53762817 29.01483154 C-40.05330779 29.47655263 -42.57817472 29.86923799 -45.10546875 30.26171875 C-89.64802998 37.80548269 -129.02758005 60.63674114 -161.5 91.375 C-162.29325684 92.1172583 -162.29325684 92.1172583 -163.10253906 92.87451172 C-172.03708238 101.2798593 -179.4675692 110.33749146 -186.5 120.375 C-187.01481934 121.10412598 -187.52963867 121.83325195 -188.06005859 122.58447266 C-194.82401224 132.22661531 -200.66452809 141.97435303 -205.66357422 152.63623047 C-206.83639996 155.0743113 -208.15121608 157.4326995 -209.4375 159.8125 C-224.01370549 189.08438808 -230.16205335 221.59443456 -229.9375 254.0625 C-229.93412628 255.01789673 -229.93075256 255.97329346 -229.92727661 256.9576416 C-229.76135067 289.53613068 -223.37595791 322.38232366 -208.38549805 351.60742188 C-206.80301998 354.76626974 -205.68685677 358.05180105 -204.5 361.375 C-203.84 361.375 -203.18 361.375 -202.5 361.375 C-202.42394531 362.04917969 -202.34789062 362.72335937 -202.26953125 363.41796875 C-201.26206804 367.28928678 -199.32272876 370.3547183 -197.1875 373.6875 C-196.7445459 374.38536621 -196.3015918 375.08323242 -195.84521484 375.80224609 C-181.11598957 398.65688052 -162.93029525 419.599097 -141.5 436.375 C-140.448125 437.29732422 -140.448125 437.29732422 -139.375 438.23828125 C-126.08670209 449.6994382 -109.36337043 458.01377896 -93.5 465.375 C-92.84338379 465.68131348 -92.18676758 465.98762695 -91.51025391 466.30322266 C-77.03120383 472.99904031 -62.6521842 477.75554887 -46.9375 480.5625 C-45.90092758 480.7520224 -45.90092758 480.7520224 -44.84341431 480.94537354 C-9.39601848 487.40219977 25.06294882 486.51186516 59.9140625 477.2421875 C63.45940087 476.38481809 66.8861611 475.83021364 70.5 475.375 C70.5 474.715 70.5 474.055 70.5 473.375 C71.08523438 473.3234375 71.67046875 473.271875 72.2734375 473.21875 C82.1385563 471.91525082 90.64458883 467.67958895 99.5 463.375 C100.66958252 462.80966553 100.66958252 462.80966553 101.86279297 462.23291016 C114.51912094 456.04005879 126.12520979 448.67503416 137.5 440.375 C138.13776367 439.90980957 138.77552734 439.44461914 139.43261719 438.96533203 C146.65748994 433.62953151 153.36571947 427.80618514 159.9375 421.6875 C160.9133606 420.77895264 160.9133606 420.77895264 161.90893555 419.85205078 C166.40036415 415.59324597 170.47425174 411.07160429 174.5 406.375 C175.35722656 405.42238281 176.21445312 404.46976562 177.09765625 403.48828125 C191.43490656 387.19698414 204.87788285 367.56840682 212.1953125 347.00390625 C213.19446095 344.22483765 214.24786929 341.50770056 215.3671875 338.77734375 C220.83721747 325.27598278 224.57443059 311.63701945 227.5 297.375 C227.76997803 296.1588501 228.03995605 294.9427002 228.31811523 293.68969727 C230.73569488 282.16661177 230.99308834 270.79434964 230.94604492 259.04858398 C230.93757518 255.84097113 230.96634361 252.63517105 230.99804688 249.42773438 C231.06268388 230.56970661 228.68719011 212.07182355 223.375 193.9375 C223.08278564 192.92220215 222.79057129 191.9069043 222.48950195 190.86083984 C214.04888347 162.52805446 201.03208104 137.06554327 182.71728516 113.91699219 C181.5874386 112.48576258 180.47087548 111.04407394 179.35546875 109.6015625 C170.04677395 97.82321398 159.27569652 87.64596934 147.5 78.375 C145.66605175 76.83406488 143.83272376 75.29239128 142 73.75 C136.74127829 69.47084409 131.32536614 65.83507827 125.5 62.375 C124.78618164 61.94316406 124.07236328 61.51132812 123.33691406 61.06640625 C103.12676719 48.88585224 82.19586121 39.82722597 59.5 33.375 C58.35917969 33.04886719 57.21835937 32.72273438 56.04296875 32.38671875 C46.1735462 29.86438926 35.95812247 28.90665165 25.85913086 27.71630859 C23.5 27.375 23.5 27.375 21.59158325 26.86373901 C18.11766892 26.05199152 14.57804852 26.19086333 11.02734375 26.171875 C9.77166344 26.16332489 9.77166344 26.16332489 8.49061584 26.15460205 C6.71112322 26.14515647 4.93161313 26.13861982 3.15209961 26.13476562 C0.49884697 26.12522069 -2.15357513 26.09426432 -4.80664062 26.0625 C-15.97059663 25.9934825 -26.56409711 26.97827032 -37.53762817 29.01483154 Z "
        fill="#F7C237"
        transform="translate(362.5,1.625)"
    />
<path
        d="M0 0 C2.54237081 0.01615602 5.08316332 -0.00000848 7.62548828 -0.01904297 C17.29329507 -0.02993624 26.4205696 0.77083566 35.89624023 2.70532227 C38.78811032 3.2696337 41.5389496 3.64553096 44.47314453 3.82861328 C51.62471992 4.45467712 58.51808429 6.47209229 65.41064453 8.39111328 C66.48765625 8.68646973 66.48765625 8.68646973 67.58642578 8.98779297 C87.18683055 14.46232876 106.07902419 22.73466996 123.41064453 33.39111328 C124.23435547 33.85388672 125.05806641 34.31666016 125.90673828 34.79345703 C138.15060157 41.72963574 149.14567829 50.83407574 159.41064453 60.39111328 C160.71934068 61.52053598 162.03172617 62.64570088 163.34814453 63.76611328 C174.20144515 73.31701783 182.91002214 83.73559191 191.41064453 95.39111328 C191.84151367 95.97683105 192.27238281 96.56254883 192.71630859 97.16601562 C212.77662885 124.58395944 225.29442883 157.09930424 231.41064453 190.39111328 C231.5946582 191.3544458 231.77867187 192.31777832 231.96826172 193.31030273 C233.92086676 204.91638376 233.89383091 216.58768623 233.91064453 228.32861328 C233.91332336 229.43416565 233.9160022 230.53971802 233.91876221 231.67877197 C233.90898974 250.32295474 232.27358131 267.35238119 227.41064453 285.39111328 C227.050271 286.81327148 227.050271 286.81327148 226.68261719 288.26416016 C223.5137549 300.68843267 218.7122861 312.27609995 213.46801758 323.95336914 C212.39202157 326.434048 211.41961929 328.94003071 210.45361328 331.46533203 C208.53150772 336.31501037 206.11294102 340.6640738 203.34814453 345.07861328 C202.86917725 345.85043945 202.39020996 346.62226563 201.89672852 347.41748047 C193.8008467 360.29362392 184.53247202 372.05763119 174.41064453 383.39111328 C173.8929248 383.97199707 173.37520508 384.55288086 172.84179688 385.15136719 C167.03523849 391.63448769 161.18829225 397.90444608 154.41064453 403.39111328 C153.31167335 404.30255613 152.21271638 405.2140161 151.11376953 406.12548828 C134.59198496 419.70461734 116.8127706 430.4337829 97.59814453 439.76611328 C96.75106934 440.183125 95.90399414 440.60013672 95.03125 441.02978516 C88.30850449 444.22997386 80.95768229 447.39111328 73.41064453 447.39111328 C73.41064453 448.05111328 73.41064453 448.71111328 73.41064453 449.39111328 C72.20794922 449.64634766 72.20794922 449.64634766 70.98095703 449.90673828 C69.84400391 450.14908203 68.70705078 450.39142578 67.53564453 450.64111328 C66.25818359 450.91310547 64.98072266 451.18509766 63.66455078 451.46533203 C60.77027099 452.08847648 57.88403946 452.73965339 55.00048828 453.41064453 C45.49597755 455.61081047 36.12516068 457.35996352 26.41064453 458.39111328 C25.37037109 458.50326172 24.33009766 458.61541016 23.25830078 458.73095703 C-10.60204216 461.84798734 -48.12457693 457.65384714 -79.58935547 444.39111328 C-80.94722168 443.83327148 -80.94722168 443.83327148 -82.33251953 443.26416016 C-102.35382927 434.94168264 -121.75485329 424.13263515 -138.58935547 410.39111328 C-139.45572632 409.69091064 -139.45572632 409.69091064 -140.33959961 408.9765625 C-160.2612939 392.68921118 -195.84416483 362.44518773 -199.58935547 335.39111328 C-200.24935547 335.39111328 -200.90935547 335.39111328 -201.58935547 335.39111328 C-211.94261887 312.73397164 -220.80423264 289.09968998 -224.58935547 264.39111328 C-224.76160645 263.42592773 -224.93385742 262.46074219 -225.11132812 261.46630859 C-226.89486773 250.70154328 -226.98828185 240.02981157 -226.96435547 229.14111328 C-226.96347931 228.16823364 -226.96260315 227.195354 -226.96170044 226.19299316 C-226.80992619 175.03509387 -209.17826543 127.37712931 -177.90576172 87.09814453 C-176.81179709 85.67956131 -175.74398549 84.24085576 -174.68310547 82.79736328 C-164.95303444 69.88290537 -152.47107513 58.1309501 -139.58935547 48.39111328 C-138.64060547 47.64861328 -137.69185547 46.90611328 -136.71435547 46.14111328 C-129.64390969 40.69097799 -122.34669467 35.80623569 -114.58935547 31.39111328 C-113.86167969 30.97603516 -113.13400391 30.56095703 -112.38427734 30.13330078 C-90.28130338 17.69014507 -66.38635694 8.17695708 -41.2800293 4.15942383 C-38.27345892 3.67368901 -35.27562126 3.15684365 -32.2800293 2.60766602 C-21.46865431 0.68309739 -10.97555478 -0.08258666 0 0 Z M-44.58935547 44.39111328 C-45.70713379 44.71821289 -46.82491211 45.0453125 -47.9765625 45.38232422 C-60.5883716 49.15599096 -72.75597672 53.40108876 -84.35498047 59.66455078 C-87.58935547 61.39111328 -87.58935547 61.39111328 -91.05419922 62.82470703 C-94.98194846 64.56506885 -98.36230429 66.66736041 -101.90185547 69.07861328 C-102.55629639 69.52068115 -103.2107373 69.96274902 -103.88500977 70.41821289 C-113.07370862 76.6920165 -121.47735719 83.78539574 -129.58935547 91.39111328 C-130.1154541 91.87789551 -130.64155273 92.36467773 -131.18359375 92.86621094 C-145.34550564 106.06300264 -156.18731695 121.53179609 -165.58935547 138.39111328 C-166.19134766 139.44685547 -166.79333984 140.50259766 -167.41357422 141.59033203 C-173.32631004 152.60529382 -176.91788058 164.48311331 -180.58935547 176.39111328 C-180.8178418 177.12539551 -181.04632813 177.85967773 -181.28173828 178.61621094 C-189.16490796 204.3881118 -190.03204182 232.87648202 -185.58935547 259.39111328 C-185.41791016 260.60927734 -185.24646484 261.82744141 -185.06982422 263.08251953 C-183.69815915 271.71073529 -181.34818319 279.88497486 -178.71435547 288.20361328 C-178.22298096 289.76015625 -178.22298096 289.76015625 -177.72167969 291.34814453 C-175.46321907 298.26805904 -172.7519006 304.83732134 -169.58935547 311.39111328 C-169.24388672 312.11049072 -168.89841797 312.82986816 -168.54248047 313.57104492 C-152.07783851 347.14703784 -125.26452455 376.19346902 -92.58935547 394.39111328 C-91.7738623 394.85662598 -90.95836914 395.32213867 -90.11816406 395.80175781 C-69.07140539 407.74679494 -46.57949147 415.86615601 -22.58935547 419.39111328 C-21.92846924 419.49206299 -21.26758301 419.5930127 -20.58666992 419.69702148 C-13.10389817 420.69068297 -5.56124364 420.5912834 1.97314453 420.57861328 C2.69017548 420.5776767 3.40720642 420.57674011 4.14596558 420.57577515 C14.37641716 420.5467605 24.32606245 420.33512911 34.41064453 418.39111328 C35.25820313 418.23513672 36.10576172 418.07916016 36.97900391 417.91845703 C50.66580309 415.36106203 63.57271352 411.78635217 76.41064453 406.39111328 C77.10254883 406.10429687 77.79445313 405.81748047 78.50732422 405.52197266 C95.95799302 398.16295668 113.39968319 388.19423312 127.41064453 375.39111328 C128.24080078 374.66666016 129.07095703 373.94220703 129.92626953 373.19580078 C132.45940621 370.96570806 134.94343571 368.69384151 137.41064453 366.39111328 C138.22275391 365.63314453 139.03486328 364.87517578 139.87158203 364.09423828 C146.7965869 357.40953327 152.68657443 350.10244005 158.41064453 342.39111328 C159.01223389 341.5806958 159.01223389 341.5806958 159.62597656 340.75390625 C164.22521668 334.48712796 168.32859163 328.02072808 172.16064453 321.26611328 C172.51336426 320.64559082 172.86608398 320.02506836 173.22949219 319.38574219 C178.84195749 309.25907438 182.79256128 298.89069654 185.97314453 287.76611328 C186.26437698 286.74884659 186.26437698 286.74884659 186.56149292 285.71102905 C197.60839059 246.76748875 197.590069 208.01930079 185.41064453 169.39111328 C185.06549805 168.28533936 185.06549805 168.28533936 184.71337891 167.15722656 C173.2308094 130.634865 148.98595007 99.11461306 118.41064453 76.39111328 C117.53537109 75.73240234 116.66009766 75.07369141 115.75830078 74.39501953 C105.35971604 66.36487767 105.35971604 66.36487767 93.41064453 62.39111328 C93.41064453 61.73111328 93.41064453 61.07111328 93.41064453 60.39111328 C73.4606075 51.62331902 73.4606075 51.62331902 52.78564453 44.82861328 C51.62137939 44.50739502 51.62137939 44.50739502 50.43359375 44.1796875 C34.53034081 40.12784082 18.64805597 38.80503555 2.28564453 38.89111328 C1.3463208 38.89354034 0.40699707 38.89596741 -0.56079102 38.89846802 C-15.72506719 38.97419936 -29.97874809 40.05189984 -44.58935547 44.39111328 Z "
        fill="#FBFBFA"
        transform="translate(359.58935546875,27.60888671875)"
    />
<path
        d="M0 0 C0.90548584 -0.00476349 1.81097168 -0.00952698 2.74389648 -0.01443481 C19.62477931 -0.04792863 35.92051366 1.85691681 52.1875 6.5 C53.20900146 6.78689697 54.23050293 7.07379395 55.28295898 7.36938477 C67.64976629 11.00988302 79.3922568 16.20148108 91.125 21.5 C91.125 22.16 91.125 22.82 91.125 23.5 C91.99898438 23.76683594 92.87296875 24.03367187 93.7734375 24.30859375 C127.30031128 36.22665494 154.19289694 71.17465312 171.0625 101 C171.61079468 101.96933472 171.61079468 101.96933472 172.17016602 102.95825195 C176.80824148 111.32933324 179.7087257 120.02968907 182.625 129.125 C183.01558594 130.31996094 183.40617187 131.51492187 183.80859375 132.74609375 C189.77421908 151.28573072 192.55365731 169.44534985 192.5 188.875 C192.49912384 189.65758179 192.49824768 190.44016357 192.49734497 191.24645996 C192.41380156 214.02692695 188.10862863 234.8544947 181.125 256.5 C180.90730957 257.20189453 180.68961914 257.90378906 180.46533203 258.62695312 C172.47049274 284.37552796 155.47071328 306.21489778 137.125 325.5 C136.4340625 326.25539063 135.743125 327.01078125 135.03125 327.7890625 C117.74993013 346.06738159 94.21498696 359.44112987 71.04492188 368.72998047 C69.31725452 369.42289283 67.60294659 370.14889475 65.890625 370.87890625 C57.79339638 374.09161263 49.43348627 375.90227999 40.9375 377.75 C39.74914551 378.00861816 38.56079102 378.26723633 37.33642578 378.53369141 C25.63738738 380.97717177 14.32623015 381.68670722 2.39233398 381.68530273 C0.32579827 381.68748595 -1.74019884 381.70570974 -3.80664062 381.72460938 C-12.64146749 381.76224162 -21.15819642 381.00985163 -29.875 379.5 C-31.11382935 379.29685181 -31.11382935 379.29685181 -32.37768555 379.08959961 C-64.23455953 373.63655783 -96.64863692 359.07782178 -120.875 337.5 C-121.67679687 336.80648438 -122.47859375 336.11296875 -123.3046875 335.3984375 C-125.87224778 333.14259381 -128.38056486 330.8364665 -130.875 328.5 C-131.36726074 328.04173828 -131.85952148 327.58347656 -132.36669922 327.11132812 C-145.40132083 314.87689987 -155.91949457 300.94776949 -164.875 285.5 C-165.55175781 284.40558594 -166.22851562 283.31117188 -166.92578125 282.18359375 C-171.90214766 274.03524631 -175.22217754 265.76893045 -178.1484375 256.69873047 C-178.87075859 254.51283539 -179.6452808 252.35285084 -180.4375 250.19140625 C-197.21978177 203.6712757 -191.95018535 151.42607628 -171.96386719 106.80224609 C-163.82559291 89.59508771 -152.13755102 73.10647455 -138.875 59.5 C-138.39015137 58.98550293 -137.90530273 58.47100586 -137.40576172 57.94091797 C-124.37277523 44.11105061 -106.67155347 26.98190457 -88.03417969 21.28833008 C-85.36351482 20.31325355 -82.94370137 19.02362477 -80.42578125 17.703125 C-69.73176685 12.31164028 -58.33047647 8.89661603 -46.875 5.5 C-45.88935059 5.20609375 -44.90370117 4.9121875 -43.88818359 4.609375 C-29.38897588 0.50340468 -14.96511681 0.03866748 0 0 Z M-15.875 27.5 C-17.37091122 27.70243571 -18.87441456 27.84922471 -20.37890625 27.97265625 C-63.46024966 32.03864636 -99.90135218 54.24605067 -127.83056641 86.77783203 C-131.44524063 91.17852406 -134.75147526 95.74003402 -137.875 100.5 C-138.93654297 102.11068359 -138.93654297 102.11068359 -140.01953125 103.75390625 C-162.02217527 139.81741154 -170.11824871 184.92075339 -160.25683594 226.08007812 C-157.25747816 238.08624098 -153.32579309 249.39810908 -147.875 260.5 C-147.47651855 261.32532227 -147.07803711 262.15064453 -146.66748047 263.00097656 C-140.87650969 274.89700467 -134.65190114 285.58116768 -125.875 295.5 C-125.3888623 296.05623047 -124.90272461 296.61246094 -124.40185547 297.18554688 C-101.01713825 323.77604917 -70.64656204 343.67867218 -35.875 351.5 C-34.81635742 351.74556641 -34.81635742 351.74556641 -33.73632812 351.99609375 C-7.54936476 357.81541894 21.48568132 355.75473289 47.125 348.5 C48.08889648 348.23944824 48.08889648 348.23944824 49.07226562 347.97363281 C87.38839209 337.55703763 122.36211804 310.14872679 142.18408203 275.75683594 C144.24556892 272.04503524 146.19964768 268.28382309 148.125 264.5 C148.48964355 263.79907227 148.85428711 263.09814453 149.22998047 262.37597656 C168.65751494 224.78734716 171.44216427 179.75499705 158.85546875 139.5390625 C156.21136691 131.58387094 152.82667382 124.01237555 149.125 116.5 C148.79741699 115.82710938 148.46983398 115.15421875 148.13232422 114.4609375 C142.11915519 102.23685696 134.49367985 91.82346678 125.23828125 81.80078125 C123.32904395 79.72214766 121.50523356 77.59579254 119.6875 75.4375 C95.64802047 48.26478493 58.07269865 31.13353922 22.2734375 27.859375 C19.125 27.5 19.125 27.5 18.125 26.5 C15.68839554 26.39917236 13.28075299 26.36027397 10.84375 26.3671875 C10.11506714 26.36623077 9.38638428 26.36527405 8.63562012 26.36428833 C7.0922029 26.36360665 5.54878283 26.36546012 4.00537109 26.36962891 C1.635026 26.37497738 -0.73512959 26.36968358 -3.10546875 26.36328125 C-4.60156292 26.36394203 -6.09765697 26.3652232 -7.59375 26.3671875 C-8.30728638 26.36516327 -9.02082275 26.36313904 -9.75598145 26.36105347 C-13.09986429 26.08351349 -13.09986429 26.08351349 -15.875 27.5 Z "
        fill="#F7C237"
        transform="translate(361.875,66.5)"
    />
<path
        d="M0 0 C8.58 0 17.16 0 26 0 C26.0825 2.495625 26.165 4.99125 26.25 7.5625 C26.60909382 16.03782128 26.60909382 16.03782128 31 23 C33.84102059 24.43597464 36.70679288 25.57669307 39.69140625 26.68359375 C46.1260933 29.24379391 52.27407068 32.79443898 57.66015625 37.15234375 C61.1234295 39.88711545 64.34760708 40.45015218 68.734375 40.42578125 C73.92331646 39.45061811 78.34091639 35.65908361 82 32 C82.99 32 83.98 32 85 32 C86.96075415 34.20880137 88.73650317 36.39243395 90.5 38.75 C90.98597656 39.38421875 91.47195313 40.0184375 91.97265625 40.671875 C92.91063895 41.89866436 93.84317115 43.12964518 94.76953125 44.36523438 C95.77492947 45.70097773 96.80581114 47.01750728 97.84375 48.328125 C99 50 99 50 99 52 C96.04305671 54.03547724 92.98643866 55.87203006 89.91796875 57.734375 C86.63436362 60.28389438 85.39955134 62.11014378 84 66 C83.81064233 68.58364679 83.81064233 68.58364679 84.25 71.0625 C84.35828125 71.87847656 84.4665625 72.69445312 84.578125 73.53515625 C84.84580233 75.09908585 85.15794395 76.65655702 85.52905273 78.19921875 C86.10349157 81.6154771 86.04033568 84.81376 85.95703125 88.27734375 C85.93464627 89.69204333 85.91319051 91.10675786 85.89257812 92.52148438 C85.85551208 94.73145545 85.8124155 96.94065168 85.75317383 99.15014648 C85.69841287 101.29682389 85.66952698 103.4426398 85.64453125 105.58984375 C85.61721924 106.86722412 85.58990723 108.14460449 85.56176758 109.46069336 C86.21496884 114.73615781 88.52884597 117.79187048 92.578125 121.1171875 C93.45984375 121.69726562 94.3415625 122.27734375 95.25 122.875 C96.14203125 123.47054687 97.0340625 124.06609375 97.953125 124.6796875 C98.96632813 125.33324219 98.96632813 125.33324219 100 126 C99.39357176 128.78673686 98.56020765 131.0701702 97.1875 133.56640625 C96.83429688 134.21673828 96.48109375 134.86707031 96.1171875 135.53710938 C95.74851562 136.20548828 95.37984375 136.87386719 95 137.5625 C92.18057407 142.63350661 92.18057407 142.63350661 90 148 C86.30861821 147.4375653 83.81755813 146.44600165 80.6875 144.4375 C76.03583312 141.78381276 73.3222739 141.22741185 68 142 C63.71409991 143.9481364 60.45350854 146.42159199 56.8125 149.375 C50.9694441 154.03149677 44.37377629 157.02291088 37.59765625 160.0859375 C36.90542969 160.40820312 36.21320313 160.73046875 35.5 161.0625 C34.9121875 161.32160156 34.324375 161.58070313 33.71875 161.84765625 C30.65169094 163.90397994 28.38743983 166.20048036 27.58984375 169.9050293 C27.38468659 172.05037989 27.29308997 174.15734199 27.25 176.3125 C27.1675 178.849375 27.085 181.38625 27 184 C18.09 184 9.18 184 0 184 C-0.3125 176.8125 -0.3125 176.8125 -0.38793945 174.57739258 C-0.62781078 170.25562336 -1.38715371 167.4502163 -4 164 C-7.18387032 161.49838761 -10.42714872 159.7684654 -14.125 158.1875 C-22.51506752 154.57962948 -30.31261834 149.81662604 -37.4765625 144.1640625 C-40.4044086 141.92688779 -42.90029781 141.61936922 -46.5703125 141.6328125 C-50.58856576 142.24007264 -53.98500027 144.07983089 -57.58203125 145.90625 C-60 147 -60 147 -63 147 C-64.70758253 144.09465435 -66.38738354 141.17416582 -68.0625 138.25 C-68.54783203 137.425 -69.03316406 136.6 -69.53320312 135.75 C-69.98759766 134.95078125 -70.44199219 134.1515625 -70.91015625 133.328125 C-71.33433838 132.5949707 -71.75852051 131.86181641 -72.19555664 131.10644531 C-73.16211785 128.57549233 -73.03270237 127.47901173 -72 125 C-69.8203125 123.21875 -69.8203125 123.21875 -67.125 121.5 C-63.14262906 118.9457096 -59.77398839 116.78082972 -58.453125 112.03515625 C-58.38609375 111.38417969 -58.3190625 110.73320313 -58.25 110.0625 C-58.17265625 109.41410156 -58.0953125 108.76570312 -58.015625 108.09765625 C-57.99716608 105.6195461 -58.51145866 103.42823139 -59 101 C-59.38939268 94.33504615 -59.09866426 87.89669361 -58 81.3125 C-56.23036397 71.36496279 -56.23036397 71.36496279 -58.4375 61.75 C-61.85270585 58.08490104 -65.7268926 55.57482113 -70 53 C-69.5853677 47.6097801 -66.48058685 43.93870373 -63.4375 39.6875 C-62.91736328 38.94693359 -62.39722656 38.20636719 -61.86132812 37.44335938 C-60.58156882 35.62351816 -59.29437782 33.80945816 -58 32 C-54.60874511 32.75066149 -52.6134513 33.83422863 -49.875 36 C-45.31675629 39.57779129 -42.96542311 40.39769487 -37 40 C-32.88403698 38.40974156 -29.37550314 35.95277742 -25.6875 33.5625 C-20.33412301 30.11222311 -14.93118337 27.49905047 -8.9921875 25.234375 C-5.12746823 23.71435989 -2.97287654 22.68270288 -1 19 C-0.49280349 15.75514638 -0.39794951 12.52971251 -0.3125 9.25 C-0.209375 6.1975 -0.10625 3.145 0 0 Z "
        fill="#FBFAF8"
        transform="translate(512,553)"
    />
<path
        d="M0 0 C3.5893484 1.56094919 6.18220473 3.75117819 9.125 6.3125 C21.68750534 17.00644958 36.3796254 29.22416021 52 35 C52 35.66 52 36.32 52 37 C53.7634375 37.5259375 53.7634375 37.5259375 55.5625 38.0625 C59.73808688 39.44791849 63.60612536 41.20473258 67.5625 43.125 C84.67494476 51.31875513 102.69639002 57.1381036 121 62 C119.47393082 66.35273057 117.18203065 70.01211795 114.6328125 73.8203125 C113.98057205 74.80751785 113.98057205 74.80751785 113.31515503 75.81466675 C111.92267762 77.92095673 110.52425718 80.0232092 109.125 82.125 C107.31239899 84.85498577 105.50270967 87.58687886 103.6953125 90.3203125 C103.00269318 91.36726288 103.00269318 91.36726288 102.29608154 92.43536377 C98.82374247 97.70342594 95.44116342 103.02393804 92.0859375 108.3671875 C85.52635405 118.80972978 78.7356634 129.09367688 71.92724609 139.375 C65.63002956 148.8902722 59.41796693 158.44887493 53.34498596 168.10900879 C49.00947955 175.00217106 44.60260846 181.84598944 40.1418457 188.65869141 C38.90138658 190.55521334 37.66655889 192.45533541 36.43164062 194.35546875 C35.63054406 195.5809487 34.82912527 196.80621808 34.02734375 198.03125 C33.32343506 199.10955078 32.61952637 200.18785156 31.89428711 201.29882812 C30.37492321 203.46537565 28.95325534 205.23660734 27 207 C22.91867113 198.34505918 19.13029889 189.62928309 15.5625 180.75 C14.60447918 178.38008198 13.64614614 176.01029014 12.6875 173.640625 C12.22859375 172.50431641 11.7696875 171.36800781 11.296875 170.19726562 C9.30034113 165.27508799 7.26580071 160.36866613 5.21118164 155.47045898 C3.6156079 151.63106408 2.2633208 147.77160996 1 143.8125 C-0.7670154 138.78683281 -3.45595733 135.76227188 -8 133 C-11.76550438 131.74483187 -15.26278444 131.80941968 -19.1875 131.8125 C-20.06736572 131.81185547 -20.94723145 131.81121094 -21.85375977 131.81054688 C-33.78382333 131.89671987 -45.69913348 132.6212934 -57.6081543 133.28833008 C-67.08839684 133.81121265 -76.50166055 134.14061487 -86 134 C-82.77238479 127.98342346 -79.28347868 122.26333538 -75.4375 116.625 C-71.13851625 110.25417653 -66.95469952 103.82588983 -62.875 97.3125 C-59.36743089 91.71697128 -55.81591908 86.16390967 -52.125 80.6875 C-48.21064015 74.87510255 -44.43194793 68.98563391 -40.6875 63.0625 C-34.68720829 53.57637272 -28.54820698 44.18645192 -22.375 34.8125 C-14.78640137 23.28844006 -7.29174715 11.71510514 0 0 Z "
        fill="#FBFBFB"
        transform="translate(189,446)"
    />
<path
        d="M0 0 C-3.03002714 3.62125195 -6.06782581 7.12881539 -9.4375 10.4375 C-11.83052777 12.78881923 -14.07239336 15.19819842 -16.25 17.75 C-21.49803482 23.82917155 -27.17468299 30.17896976 -33.6484375 34.953125 C-36.51100894 37.44479848 -37.68516007 39.44296616 -39 43 C-39.25826982 46.36924634 -39.25826982 46.36924634 -38.875 50.0625 C-38.81860352 50.76640869 -38.76220703 51.47031738 -38.70410156 52.19555664 C-38.56714545 53.83068319 -38.42055147 55.46501865 -38.26660156 57.09863281 C-37.95706696 60.46723095 -37.69598984 63.83865336 -37.4296875 67.2109375 C-37.20556874 69.78667213 -36.97899546 72.36219435 -36.75 74.9375 C-36.65315918 76.16927979 -36.55631836 77.40105957 -36.45654297 78.67016602 C-35.65503377 86.99808333 -33.94300533 93.95897097 -28.71386719 100.64428711 C-24.22983911 104.1912683 -18.24164009 104.55369362 -12.7421875 105.2890625 C-11.95788361 105.39721283 -11.17357971 105.50536316 -10.36550903 105.61679077 C-8.71021822 105.84317236 -7.05451508 106.06655699 -5.3984375 106.28710938 C-2.90213864 106.62136611 -0.40818179 106.97020876 2.0859375 107.3203125 C18.22164976 110.42134275 18.22164976 110.42134275 33.26245117 106.43408203 C41.26987793 99.8251703 48.63384441 92.5257105 55.95336914 85.17700195 C57.5881958 83.53671843 59.2284298 81.90197386 60.86914062 80.26757812 C61.91438405 79.22167542 62.95931807 78.17546338 64.00390625 77.12890625 C64.73656456 76.39928429 64.73656456 76.39928429 65.48402405 75.65492249 C68.06696515 73.0718441 68.06696515 73.0718441 70 70 C70.66 70 71.32 70 72 70 C71.93946428 93.91161084 63.00802578 115.07523806 46 132 C29.82020289 147.13441412 9.98306718 154.32196637 -11.98046875 154.234375 C-17.32816629 154.03124843 -22.39627449 152.82260296 -27.6171875 151.68359375 C-33.96791493 150.40024814 -39.4015796 149.76688163 -45.09375 153.4453125 C-49.38823619 156.94778279 -53.19154154 160.98464339 -57 165 C-60.20404568 163.62275022 -61.97883482 162.14040024 -64.12890625 159.41015625 C-64.68900391 158.70826172 -65.24910156 158.00636719 -65.82617188 157.28320312 C-66.39916016 156.55037109 -66.97214844 155.81753906 -67.5625 155.0625 C-68.70817339 153.61472726 -69.8552589 152.16807062 -71.00390625 150.72265625 C-71.50736572 150.08078369 -72.0108252 149.43891113 -72.52954102 148.77758789 C-75.68774727 144.95973968 -77.4959097 143.18471284 -82.5625 142.5625 C-89.18745766 142.62272689 -94.01249599 147.23834872 -98.75 151.4375 C-101 153 -101 153 -103.5625 152.9375 C-106.11718977 151.95492701 -107.92313706 150.76917954 -110 149 C-106.97930168 141.78019907 -99.68570627 136.39019291 -93.875 131.375 C-83.94087079 123.32843863 -83.94087079 123.32843863 -79 112 C-78.55305695 104.62177617 -78.29209865 97.17457836 -80 89.9375 C-83.89786559 73.18797614 -80.06553339 53.48518712 -71.1328125 38.96484375 C-58.94904618 20.42904267 -41.63550527 6.75070122 -20 1 C-13.33909645 -0.20114654 -6.75473937 -0.10132109 0 0 Z "
        fill="#FBFBF9"
        transform="translate(681,412)"
    />
<path
        d="M0 0 C4.21949414 1.40649805 5.45356533 4.44032568 7.6875 8.0625 C8.6674348 9.61444208 9.64932364 11.16515148 10.6328125 12.71484375 C11.1680957 13.56030762 11.70337891 14.40577148 12.25488281 15.27685547 C15.45569543 20.27152026 18.76419988 25.1944115 22.0625 30.125 C22.74610596 31.15109375 23.42971191 32.1771875 24.1340332 33.234375 C27.1214509 37.71532225 30.11816057 42.18769138 33.17578125 46.62109375 C33.63911865 47.29833496 34.10245605 47.97557617 34.57983398 48.67333984 C35.4059951 49.87839823 36.23943001 51.07852405 37.08227539 52.27197266 C40.72460219 57.6054087 42.68291883 63.5132534 42.5078125 69.9921875 C41.4550013 74.15484102 38.09150785 76.71883657 35 79.5 C34.33226562 80.13164063 33.66453125 80.76328125 32.9765625 81.4140625 C31.3343527 82.96243174 29.67657165 84.48904713 28 86 C27.12996338 85.35168213 26.25992676 84.70336426 25.36352539 84.03540039 C19.71049772 80.83047797 13.50974854 81.40906808 7.18359375 81.43359375 C5.84033276 81.42835084 4.49707545 81.42207193 3.15382385 81.41481018 C0.34887267 81.40444183 -2.45557002 81.40891685 -5.26049805 81.42358398 C-8.84414471 81.44079543 -12.42619143 81.41723227 -16.00965977 81.38209438 C-18.77994788 81.3600752 -21.54985542 81.36157198 -24.32020378 81.3698597 C-26.27996383 81.37107122 -28.23970055 81.35119367 -30.19935608 81.33091736 C-37.49036442 81.23834817 -37.49036442 81.23834817 -43.79272461 84.41430664 C-46.79028137 87.92576817 -47.09796406 89.2748262 -46.859375 93.76171875 C-46.45619466 108.88290143 -46.45619466 108.88290143 -49.25439453 112.72021484 C-53.87179055 116.53797429 -59.12700606 118 -65 118 C-67.7265625 116.06640625 -67.7265625 116.06640625 -70.625 113.5625 C-74.79168313 109.46272281 -74.79168313 109.46272281 -80.1015625 108.0703125 C-83.01597533 108.13347315 -85.204618 107.85956511 -88 107 C-89.87060547 105.08374023 -89.87060547 105.08374023 -91.6171875 102.49609375 C-92.29958496 101.5009375 -92.98198242 100.50578125 -93.68505859 99.48046875 C-94.05395203 98.92576904 -94.42284546 98.37106934 -94.80291748 97.79956055 C-96.08789332 95.86787097 -97.39333106 93.95109864 -98.70166016 92.03515625 C-101.15569151 88.43044953 -103.5842114 84.80938476 -106.00292969 81.1809082 C-107.52039689 78.90693461 -109.04523809 76.63801728 -110.5703125 74.36914062 C-111.53690778 72.92217514 -112.50307033 71.47492046 -113.46875 70.02734375 C-114.15294006 69.01183693 -114.15294006 69.01183693 -114.85095215 67.97581482 C-118 63.22887682 -118 63.22887682 -118 61 C-117.31188232 60.79431396 -116.62376465 60.58862793 -115.91479492 60.37670898 C-73.98001161 47.79173824 -35.51283738 31.04131696 -2.390625 1.6875 C-1.60171875 1.130625 -0.8128125 0.57375 0 0 Z "
        fill="#FBFBF9"
        transform="translate(535,447)"
    />
<path
        d="M0 0 C3.88446678 2.58964452 6.69907021 5.64814041 8.8125 9.875 C9.05078125 11.828125 9.05078125 11.828125 9.125 14.125 C9.18107422 15.24648437 9.18107422 15.24648437 9.23828125 16.390625 C8.26222889 22.08575619 3.64761171 26.2925521 -0.29096985 30.24589539 C-1.04210337 31.00382557 -1.04210337 31.00382557 -1.8084113 31.77706748 C-3.47474627 33.45598522 -5.14806816 35.12775196 -6.8215332 36.79956055 C-8.02297198 38.00698822 -9.22400106 39.21482368 -10.4246521 40.42303467 C-13.67817645 43.69418521 -16.93812382 46.95886023 -20.19983315 50.2218473 C-22.23862086 52.26205859 -24.27597699 54.3036882 -26.31282616 56.34583473 C-33.42216343 63.47365816 -40.53663215 70.59631274 -47.65600586 77.71411133 C-54.28734442 84.34424754 -60.90743833 90.98546591 -67.52237254 97.63196534 C-73.20794226 103.34369458 -78.90120486 109.04767782 -84.60050839 114.74570304 C-88.00186619 118.1465513 -91.40005696 121.55042198 -94.79055214 124.96210289 C-97.9787332 128.16966169 -101.17639578 131.36745623 -104.38154221 134.55805969 C-105.55443479 135.72886283 -106.72393635 136.90307466 -107.88971901 138.08095741 C-109.48505511 139.69177152 -111.09231985 141.28968504 -112.70307922 142.88505554 C-113.59847569 143.78154155 -114.49387217 144.67802755 -115.41640186 145.6016798 C-120.06521508 149.41541734 -124.99895525 151.56035159 -131.16845703 151.28320312 C-138.62532776 149.77559879 -144.32923612 143.10907469 -149.375 137.875 C-150.06013672 137.17632812 -150.74527344 136.47765625 -151.45117188 135.7578125 C-152.73039885 134.45273012 -154.00648388 133.14455351 -155.27807617 131.83203125 C-159.21889942 127.79295196 -163.23708162 123.83061786 -167.2421875 119.85546875 C-168.68838274 118.41665542 -170.13409145 116.97735519 -171.57958984 115.5378418 C-172.563712 114.55874233 -173.54873062 113.58054305 -174.53466797 112.60327148 C-179.79385462 107.38889248 -184.97734173 102.1648851 -189.73608398 96.48193359 C-191.17985959 94.88345908 -192.67078106 93.62400419 -194.375 92.3125 C-198.2632838 88.94265404 -200.69034448 85.78183792 -201.5703125 80.63671875 C-201.84171891 75.25382489 -200.84450336 72.01318801 -197.1875 67.875 C-192.84440747 63.94553533 -189.3776786 63.41589973 -183.75 63.34375 C-178.22054419 64.49010059 -174.15790571 68.65613901 -170.28369141 72.55175781 C-169.36319 73.47241028 -168.4426886 74.39306274 -167.49429321 75.34161377 C-166.5091074 76.33700973 -165.52403305 77.33251603 -164.5390625 78.328125 C-163.51674565 79.3541771 -162.49398255 80.37978475 -161.47079468 81.40496826 C-158.79328769 84.09007142 -156.12184452 86.78112817 -153.45166016 89.47351074 C-150.72013949 92.2255768 -147.98287057 94.9719126 -145.24609375 97.71875 C-139.88761762 103.09860509 -134.53554068 108.48476891 -129.1875 113.875 C-122.96958278 108.74043917 -117.31213859 103.12134736 -111.6340332 97.40332031 C-110.58554963 96.35127463 -109.53682675 95.29946741 -108.48788452 94.24787903 C-106.24175589 91.99523382 -103.9971473 89.74108896 -101.7536869 87.48578644 C-98.2057115 83.91943159 -94.65331587 80.35750175 -91.10014343 76.79632568 C-81.00138094 66.67347329 -70.90860512 56.54466419 -60.82006836 46.41162109 C-55.23895523 40.80596458 -49.65425745 35.20390418 -44.06568784 29.60568118 C-40.53268281 26.06613628 -37.00423061 22.5221336 -33.47908556 18.97476149 C-31.28817835 16.77213042 -29.09310734 14.57368629 -26.89683151 12.37640953 C-25.87921439 11.35664411 -24.86332052 10.33515573 -23.84928322 9.31183052 C-22.4653384 7.91570125 -21.07461072 6.52630537 -19.68354797 5.13726807 C-18.90727208 4.35784977 -18.13099619 3.57843147 -17.33119678 2.77539444 C-12.06872835 -1.8898016 -6.50990879 -2.29761487 0 0 Z "
        fill="#F7C237"
        transform="translate(462.1875,177.125)"
    />
<path
        d="M0 0 C11.99512742 6.71601407 20.30595182 17.22776719 24.0625 30.5 C24.4985623 33.43076768 24.58749476 36.28972333 24.5625 39.25 C24.55750488 40.0342334 24.55250977 40.8184668 24.54736328 41.62646484 C24.23349157 52.18337741 19.95067513 60.63997838 13.0625 68.5 C12.31226563 69.40685547 12.31226563 69.40685547 11.546875 70.33203125 C4.81493622 77.83193392 -5.84320823 82.97745853 -15.85546875 83.8359375 C-30.90947676 84.15511614 -41.95644853 80.15610164 -53.125 69.8125 C-62.22586614 60.33016043 -65.47107831 49.25455442 -65.2421875 36.34765625 C-64.24908571 23.80656308 -57.98501695 13.82722701 -48.75 5.5 C-35.4038778 -5.38421616 -15.57377559 -8.01286761 0 0 Z "
        fill="#F7C238"
        transform="translate(545.9375,606.5)"
    />
<path
        d="M0 0 C1.1574707 1.58886719 1.1574707 1.58886719 2.42578125 3.796875 C2.89306641 4.5909375 3.36035156 5.385 3.84179688 6.203125 C4.81256942 7.88425036 5.78136167 9.566521 6.74804688 11.25 C9.34325269 15.65226431 11.53524005 19.26092852 16 22 C23.08764443 23.0811661 27.97929437 20.63494983 34 17 C35.05574219 16.15115234 35.05574219 16.15115234 36.1328125 15.28515625 C36.74898438 14.86105469 37.36515625 14.43695312 38 14 C40.625 14.75 40.625 14.75 43 16 C43.66 16.33 44.32 16.66 45 17 C43.60410406 20.13733538 41.96308708 22.30611505 39.56689453 24.75537109 C38.51406784 25.83702042 38.51406784 25.83702042 37.43997192 26.94052124 C36.29792801 28.09531479 36.29792801 28.09531479 35.1328125 29.2734375 C34.34284882 30.07480133 33.55288513 30.87616516 32.73898315 31.70181274 C31.0622341 33.39745289 29.38255775 35.09020258 27.70019531 36.78027344 C25.15514655 39.34462481 22.63227411 41.92950524 20.109375 44.515625 C1.02562243 63.84951838 1.02562243 63.84951838 -10.25 64.5625 C-17.38907403 63.4916389 -22.29428043 61.72317245 -27 56 C-27.46664063 55.46890625 -27.93328125 54.9378125 -28.4140625 54.390625 C-32.46654265 49.09296938 -32.55899851 44.08131328 -32.56640625 37.5625 C-31.36574649 30.01076411 -27.35746669 24.754217 -21.9921875 19.53125 C-21.42549347 18.96547241 -20.85879944 18.39969482 -20.27493286 17.81677246 C-19.08792935 16.63576196 -17.89611819 15.45956512 -16.69970703 14.28808594 C-14.86219876 12.48745567 -13.04156551 10.67096058 -11.22265625 8.8515625 C-10.06344549 7.70217065 -8.90332183 6.5536986 -7.7421875 5.40625 C-7.19634003 4.86262817 -6.65049255 4.31900635 -6.08810425 3.75891113 C-2.23224375 0 -2.23224375 0 0 0 Z "
        fill="#FBFAF8"
        transform="translate(426,708)"
    />
<path
        d="M0 0 C4.61585705 2.93736358 6.35120545 5.79328036 8 11 C8.92172297 18.02813765 6.96448536 23.15160776 3 29 C-2.11314788 33.27834823 -6.29550444 34.37138076 -12.91015625 34.28515625 C-18.25481837 33.5558846 -22.5942021 30.03650121 -26 26 C-29.2163175 20.8678255 -28.58775028 14.8267096 -28 9 C-25.4935398 3.70858403 -21.77684025 0.46149487 -16.625 -2.25 C-10.35051254 -4.0427107 -5.70700433 -2.95918743 0 0 Z "
        fill="#FBFAF7"
        transform="translate(536,631)"
    />
<path
        d="M0 0 C2.32100162 3.48150244 3.67675155 7.10566684 5.125 11 C5.40214844 11.72445313 5.67929688 12.44890625 5.96484375 13.1953125 C7.11095711 16.25537872 8 18.70542099 8 22 C7.34 22 6.68 22 6 22 C4.79741744 18.901466 3.61559217 15.79541934 2.4375 12.6875 C2.09525391 11.80642578 1.75300781 10.92535156 1.40039062 10.01757812 C1.08134766 9.17001953 0.76230469 8.32246094 0.43359375 7.44921875 C0.13509521 6.66893311 -0.16340332 5.88864746 -0.47094727 5.0847168 C-1 3 -1 3 0 0 Z "
        fill="#F8C545"
        transform="translate(143,325)"
    />
<path
        d="M0 0 C4.91935902 4.11619836 9.52647956 8.40410362 14 13 C13.34 13.66 12.68 14.32 12 15 C7.71 10.71 3.42 6.42 -1 2 C-0.67 1.34 -0.34 0.68 0 0 Z "
        fill="#F7C545"
        transform="translate(279,278)"
    />
<path
        d="M0 0 C4.31730413 0.47409648 6.33647461 3.03396703 9.25 6.0625 C10.14203125 6.98160156 11.0340625 7.90070313 11.953125 8.84765625 C12.62859375 9.55792969 13.3040625 10.26820313 14 11 C13.34 11.66 12.68 12.32 12 13 C9.99698146 11.0238076 7.99750133 9.04425526 6 7.0625 C5.42765625 6.49853516 4.8553125 5.93457031 4.265625 5.35351562 C2.82474495 3.92121224 1.41012857 2.46258871 0 1 C0 0.67 0 0.34 0 0 Z "
        fill="#F7C545"
        transform="translate(311,312)"
    />
<path
        d="M0 0 C0.33 0 0.66 0 1 0 C0.36280747 6.37192531 -1.47302323 10.70953484 -5 16 C-5.66 16 -6.32 16 -7 16 C-5.35433477 10.31497465 -2.70967216 5.23318364 0 0 Z "
        fill="#F8C84E"
        transform="translate(514,321)"
    />
<path
        d="M0 0 C0.66 0 1.32 0 2 0 C3.00484204 1.95585325 4.00373805 3.91476237 5 5.875 C5.556875 6.96554687 6.11375 8.05609375 6.6875 9.1796875 C8 12 8 12 8 14 C5 13 5 13 3.61328125 10.8203125 C3.18402344 9.93085938 2.75476563 9.04140625 2.3125 8.125 C1.87550781 7.24070312 1.43851563 6.35640625 0.98828125 5.4453125 C0 3 0 3 0 0 Z "
        fill="#F7C74D"
        transform="translate(211,323)"
    />
<path
        d="M0 0 C0.33 0 0.66 0 1 0 C2.10087193 7.01805857 2.09733092 13.90565767 2 21 C1.67 21 1.34 21 1 21 C0.855625 20.2575 0.71125 19.515 0.5625 18.75 C0.07848768 16.1410974 0.07848768 16.1410974 -0.5625 14.21875 C-1.13919639 11.29407546 -0.85221883 8.71157027 -0.5625 5.75 C-0.46066406 4.67234375 -0.35882812 3.5946875 -0.25390625 2.484375 C-0.17011719 1.66453125 -0.08632813 0.8446875 0 0 Z "
        fill="#F9D579"
        transform="translate(668,461)"
    />
<path
        d="M0 0 C0.87527344 0.18175781 1.75054687 0.36351562 2.65234375 0.55078125 C3.53019531 0.71964844 4.40804688 0.88851563 5.3125 1.0625 C7.58984375 1.86328125 7.58984375 1.86328125 9.58984375 4.86328125 C4.35104297 4.31182854 -0.38366322 3.43406032 -5.41015625 1.86328125 C-2.41015625 -0.13671875 -2.41015625 -0.13671875 0 0 Z "
        fill="#F8CA54"
        transform="translate(315.41015625,439.13671875)"
    />
<path
        d="M0 0 C3.32643967 2.98232523 5.29152862 5.86370087 7 10 C6.67 10.66 6.34 11.32 6 12 C3.47769373 10.73884686 3.11109845 9.62466575 1.875 7.125 C1.34519531 6.07699219 1.34519531 6.07699219 0.8046875 5.0078125 C0 3 0 3 0 0 Z "
        fill="#F7C74C"
        transform="translate(530,165)"
    />
<path
        d="M0 0 C0.33 0 0.66 0 1 0 C1.42820102 3.63970867 0.97413512 5.04569463 -0.875 8.3125 C-1.926875 9.6428125 -1.926875 9.6428125 -3 11 C-3.66 11 -4.32 11 -5 11 C-3.77782954 6.95743617 -2.37245704 3.50711041 0 0 Z "
        fill="#F7C647"
        transform="translate(608,687)"
    />
<path
        d="M0 0 C0.33 1.32 0.66 2.64 1 4 C0.34 4 -0.32 4 -1 4 C-1.0825 4.78375 -1.165 5.5675 -1.25 6.375 C-2 9 -2 9 -4.0625 10.3125 C-5.0215625 10.6528125 -5.0215625 10.6528125 -6 11 C-4.54955729 6.89041233 -2.48889248 3.56741255 0 0 Z "
        fill="#F8C64A"
        transform="translate(126,496)"
    />
<path
        d="M0 0 C-1.8125 1.0625 -1.8125 1.0625 -4 2 C-4.99 1.67 -5.98 1.34 -7 1 C-7 1.66 -7 2.32 -7 3 C-9.31 2.67 -11.62 2.34 -14 2 C-14 1.67 -14 1.34 -14 1 C-12.41913952 0.63495397 -10.83516093 0.28339494 -9.25 -0.0625 C-8.36828125 -0.25972656 -7.4865625 -0.45695312 -6.578125 -0.66015625 C-4.01320972 -0.99825872 -2.42908361 -0.81158635 0 0 Z "
        fill="#F8CF66"
        transform="translate(419,481)"
    />
<path
        d="M0 0 C-1 3 -1 3 -2.75 4.1875 C-5.29960574 5.10819096 -7.30923081 5.14948718 -10 5 C-7.30495181 2.30495181 -3.91639523 0 0 0 Z "
        fill="#F7C648"
        transform="translate(564,706)"
    />
<path
        d="M0 0 C0 0.33 0 0.66 0 1 C-1.65 1 -3.3 1 -5 1 C-5 1.66 -5 2.32 -5 3 C-7.64 2.67 -10.28 2.34 -13 2 C-13 1.67 -13 1.34 -13 1 C-8.59085217 -0.10228696 -4.51617599 -0.07654536 0 0 Z "
        fill="#F8CD64"
        transform="translate(348,67)"
    />
<path
        d="M0 0 C0.66 0 1.32 0 2 0 C3.06775224 1.96466413 4.06553465 3.96855359 5 6 C4.67 6.66 4.34 7.32 4 8 C1.10067643 5.60490662 0.49831724 3.68754757 0 0 Z "
        fill="#F7C851"
        transform="translate(151,349)"
    />
</svg>
