<svg xmlns="http://www.w3.org/2000/svg" width="800" height="800" fill="none" viewBox="0 0 800 800"><g clip-path="url(#clip0_1_53)"><path fill="#F7C237" d="M361.875 66.5C362.78 66.4952 363.686 66.4905 364.619 66.4856C381.5 66.4521 397.795 68.3569 414.062 73C415.084 73.2869 416.105 73.5738 417.158 73.8694C429.525 77.5099 441.267 82.7015 453 88C453 88.66 453 89.32 453 90C453.874 90.2668 454.748 90.5337 455.648 90.8086C489.175 102.727 516.068 137.675 532.937 167.5C533.486 168.469 533.486 168.469 534.045 169.458C538.683 177.829 541.584 186.53 544.5 195.625C544.891 196.82 545.281 198.015 545.684 199.246C551.649 217.786 554.429 235.945 554.375 255.375C554.374 256.158 554.373 256.94 554.372 257.746C554.289 280.527 549.984 301.354 543 323C542.782 323.702 542.565 324.404 542.34 325.127C534.345 350.876 517.346 372.715 499 392C498.309 392.755 497.618 393.511 496.906 394.289C479.625 412.567 456.09 425.941 432.92 435.23C431.192 435.923 429.478 436.649 427.766 437.379C419.668 440.592 411.308 442.402 402.812 444.25C401.624 444.509 400.436 444.767 399.211 445.034C387.512 447.477 376.201 448.187 364.267 448.185C362.201 448.187 360.135 448.206 358.068 448.225C349.233 448.262 340.717 447.51 332 446C330.761 445.797 330.761 445.797 329.497 445.59C297.64 440.137 265.226 425.578 241 404C240.198 403.306 239.396 402.613 238.57 401.898C236.003 399.643 233.494 397.336 231 395C230.508 394.542 230.015 394.083 229.508 393.611C216.474 381.377 205.955 367.448 197 352C196.323 350.906 195.646 349.811 194.949 348.684C189.973 340.535 186.653 332.269 183.727 323.199C183.004 321.013 182.23 318.853 181.437 316.691C164.655 270.171 169.925 217.926 189.911 173.302C198.049 156.095 209.737 139.606 223 126C223.485 125.486 223.97 124.971 224.469 124.441C237.502 110.611 255.203 93.4819 273.841 87.7883C276.511 86.8133 278.931 85.5236 281.449 84.2031C292.143 78.8116 303.544 75.3966 315 72C315.986 71.7061 316.971 71.4122 317.987 71.1094C332.486 67.0034 346.91 66.5387 361.875 66.5ZM346 94C344.504 94.2024 343.001 94.3492 341.496 94.4727C298.415 98.5387 261.974 120.746 234.044 153.278C230.43 157.679 227.123 162.24 224 167C222.938 168.611 222.938 168.611 221.855 170.254C199.853 206.317 191.757 251.421 201.618 292.58C204.617 304.586 208.549 315.898 214 327C214.398 327.825 214.797 328.651 215.207 329.501C220.998 341.397 227.223 352.081 236 362C236.486 362.556 236.972 363.112 237.473 363.686C260.858 390.276 291.228 410.179 326 418C327.059 418.246 327.059 418.246 328.139 418.496C354.326 424.315 383.361 422.255 409 415C409.964 414.739 409.964 414.739 410.947 414.474C449.263 404.057 484.237 376.649 504.059 342.257C506.121 338.545 508.075 334.784 510 331C510.365 330.299 510.729 329.598 511.105 328.876C530.532 291.287 533.317 246.255 520.73 206.039C518.086 198.084 514.702 190.512 511 183C510.672 182.327 510.345 181.654 510.007 180.961C503.994 168.737 496.369 158.323 487.113 148.301C485.204 146.222 483.38 144.096 481.562 141.938C457.523 114.765 419.948 97.6335 384.148 94.3594C381 94 381 94 380 93C377.563 92.8992 375.156 92.8603 372.719 92.8672C371.99 92.8662 371.261 92.8653 370.511 92.8643C368.967 92.8636 367.424 92.8655 365.88 92.8696C363.51 92.875 361.14 92.8697 358.769 92.8633C357.273 92.8639 355.777 92.8652 354.281 92.8672C353.568 92.8652 352.854 92.8631 352.119 92.8611C348.775 92.5835 348.775 92.5835 346 94Z"/><path fill="#F7C237" d="M462.187 177.125C466.072 179.715 468.887 182.773 471 187C471.238 188.953 471.238 188.953 471.312 191.25C471.369 192.371 471.369 192.371 471.426 193.516C470.45 199.211 465.835 203.418 461.897 207.371C461.145 208.129 461.145 208.129 460.379 208.902C458.713 210.581 457.039 212.253 455.366 213.925C454.165 215.132 452.963 216.34 451.763 217.548C448.509 220.819 445.249 224.084 441.988 227.347C439.949 229.387 437.912 231.429 435.875 233.471C428.765 240.599 421.651 247.721 414.531 254.839C407.9 261.469 401.28 268.11 394.665 274.757C388.98 280.469 383.286 286.173 377.587 291.871C374.186 295.272 370.787 298.675 367.397 302.087C364.209 305.295 361.011 308.492 357.806 311.683C356.633 312.854 355.464 314.028 354.298 315.206C352.702 316.817 351.095 318.415 349.484 320.01C348.589 320.907 347.694 321.803 346.771 322.727C342.122 326.54 337.189 328.685 331.019 328.408C323.562 326.901 317.858 320.234 312.812 315C312.127 314.301 311.442 313.603 310.736 312.883C309.457 311.578 308.181 310.27 306.909 308.957C302.969 304.918 298.95 300.956 294.945 296.98C293.499 295.542 292.053 294.102 290.608 292.663C289.624 291.684 288.639 290.706 287.653 289.728C282.394 284.514 277.21 279.29 272.451 273.607C271.008 272.008 269.517 270.749 267.812 269.438C263.924 266.068 261.497 262.907 260.617 257.762C260.346 252.379 261.343 249.138 265 245C269.343 241.071 272.81 240.541 278.437 240.469C283.967 241.615 288.03 245.781 291.904 249.677C292.824 250.597 293.745 251.518 294.693 252.467C295.678 253.462 296.663 254.458 297.648 255.453C298.671 256.479 299.694 257.505 300.717 258.53C303.394 261.215 306.066 263.906 308.736 266.599C311.467 269.351 314.205 272.097 316.941 274.844C322.3 280.224 327.652 285.61 333 291C339.218 285.865 344.875 280.246 350.553 274.528C351.602 273.476 352.651 272.424 353.7 271.373C355.946 269.12 358.19 266.866 360.434 264.611C363.982 261.044 367.534 257.483 371.087 253.921C381.186 243.798 391.279 233.67 401.367 223.537C406.949 217.931 412.533 212.329 418.122 206.731C421.655 203.191 425.183 199.647 428.708 196.1C430.899 193.897 433.094 191.699 435.291 189.501C436.308 188.482 437.324 187.46 438.338 186.437C439.722 185.041 441.113 183.651 442.504 182.262C443.28 181.483 444.056 180.703 444.856 179.9C450.119 175.235 455.678 174.827 462.187 177.125Z"/><path fill="#F7C237" d="M365.399 1.62483C381.274 1.65326 396.41 2.83804 412 5.99983C413.56 6.2818 415.119 6.5619 416.68 6.83968C429.458 9.2591 441.713 13.6638 453.966 17.9412C456.512 18.83 459.063 19.7004 461.617 20.5662C491.104 30.8128 518.892 50.2442 541 71.9998L543.098 74.0399C555.903 86.5151 567.131 99.0334 577 114C577.711 115.076 577.711 115.077 578.436 116.175C585.393 126.783 591.68 137.481 597 149C597.462 149.983 597.462 149.984 597.933 150.987C625.189 209.358 626.399 276.702 606.812 337.366C605.958 340.136 605.214 342.922 604.48 345.726C603.322 350.034 601.873 353.967 599.938 358L599.045 359.86C593.026 372.26 586.765 384.592 579 396L576.852 399.199C570.204 409.013 562.898 418.164 555 427C558.07 432.652 561.62 437.767 565.438 442.937C569.533 448.494 573.434 454.086 577 460L578.438 456.562C592.292 425.694 612.637 404.401 644.312 391.75C646.195 391.126 648.094 390.547 650 390L651.896 389.453C671.244 384.096 694.894 382.838 714 390C717.669 392.113 719.649 393.473 722 397C722.406 399.199 722.406 399.199 722.5 401.687L722.656 404.137C720.649 412.896 711.726 419.083 705.352 424.754C702.725 427.168 700.12 429.607 697.515 432.044C694.82 434.555 692.104 437.031 689.323 439.447C674.683 451.902 674.683 451.903 668.589 469.441C668.241 477.003 668.907 484.518 670 492C670.607 492.061 671.215 492.123 671.841 492.186C672.652 492.269 673.464 492.351 674.3 492.435C675.147 492.521 675.994 492.608 676.866 492.696C678.605 492.872 680.344 493.049 682.083 493.226C683.729 493.392 685.378 493.537 687.027 493.668C690 494 690 494 692.724 494.682C697.696 495.704 700.732 495.829 705.071 492.991C707.876 490.539 710.421 487.853 712.933 485.105C714.625 483.255 716.355 481.45 718.1 479.649C721.792 475.822 725.429 471.945 729.062 468.062C733.281 463.565 737.52 459.09 741.806 454.657C743.505 452.879 745.166 451.071 746.828 449.259C754.186 441.468 754.186 441.468 759.117 440.196C763.768 440.082 766.159 440.374 769.938 443.187C780.868 459.979 780.107 486.683 776.375 505.5C771.671 527.357 761.383 545.01 746 561L744.27 562.957C730.108 578.501 705.66 588.955 685 591C680.583 591.162 676.17 591.185 671.75 591.187L668.223 591.224C662.607 591.234 657.457 590.997 651.965 589.777C647.892 588.929 647.892 588.929 643.957 590.336L641.812 592.375L639.582 594.398L638 596L638.875 597.469C641.729 602.621 642.419 606.13 642 612H640L639.438 614.168C637.438 618.107 634.599 619.873 631 622.312L629.055 623.689C624.296 627 624.295 627 622 627L623.051 629.855C623.973 633.048 624 635.627 623.668 638.926C622.385 648.31 622.385 648.31 625.383 656.848C628.946 659.931 632.979 661.865 637.184 663.918C640.272 665.757 641.95 668.062 644 671C645.511 678.004 641.408 683.182 638 689C636.626 691.648 635.314 694.321 634 697H632L631.297 699.512C629.753 703.665 627.643 707.102 625.25 710.812C624.8 711.516 624.351 712.219 623.888 712.944C622.997 714.336 622.103 715.725 621.207 717.113C620.188 718.706 619.2 720.32 618.219 721.937C615.434 726.44 613.332 729.476 608 731C601.225 730.548 596.798 727.831 591.086 724.398C588.176 722.807 588.176 722.807 585.441 723.078C582.518 724.182 580.156 725.631 577.562 727.375C573.811 729.883 570.07 732.046 566 734L565.922 737.945C565.866 739.672 565.808 741.398 565.75 743.125L565.707 745.719C565.493 751.272 564.681 754.586 561 759C557.029 762.489 553.718 763.125 548.522 763.177C547.401 763.189 546.279 763.202 545.123 763.216C543.305 763.227 543.304 763.227 541.449 763.238C540.203 763.246 538.955 763.254 537.671 763.263C535.031 763.276 532.39 763.287 529.75 763.295C527.047 763.304 524.344 763.324 521.641 763.356C517.743 763.399 513.847 763.415 509.949 763.426C508.743 763.443 507.536 763.461 506.293 763.479C498.013 763.458 494.554 762.461 488.625 756.687C486.565 753.281 486.693 750.911 487 747H485C484.738 747.585 484.477 748.17 484.207 748.773C482.931 751.128 481.559 752.72 479.69 754.632C479.015 755.326 478.339 756.021 477.644 756.737C476.544 757.849 476.544 757.849 475.422 758.984C474.659 759.759 473.896 760.533 473.109 761.331C471.488 762.971 469.864 764.608 468.237 766.243C465.787 768.713 463.358 771.203 460.93 773.695C449.06 785.727 437.084 797.043 419.259 797.431C403.479 797.465 393.465 793.89 381.879 783.008C372.919 773.759 368.232 761.697 367.625 748.937C367.872 737.963 370.478 727.167 378 719L379.868 716.885C386.013 709.948 392.486 703.397 399.062 696.875C400.13 695.813 401.197 694.75 402.264 693.687C404.84 691.122 407.419 688.56 410 686C409.676 685.226 409.352 684.453 409.019 683.656C407.966 680.912 407.701 678.923 407.688 676L407.637 673.5C408.273 669.123 410.187 666.687 413.523 663.867L416.375 661.875L419.211 659.867C422 658 422 658 424.84 656.863C427.169 655.249 427.169 655.249 427.358 653.021C427.422 650.435 427.335 647.895 427.188 645.312C426.892 638.746 427.093 633.324 429 627L427.305 626.199C420.458 622.636 412.873 617.865 409 611C408.068 606.284 408.436 602.251 411.125 598.226C412.063 597.01 413.022 595.809 414 594.625C414.495 593.986 414.989 593.347 415.499 592.688C416.98 590.776 418.485 588.885 420 587C421.625 584.972 423.225 582.932 424.812 580.875L426.832 578.367C428.315 576.05 428.315 576.049 427.256 573.639C426.028 571.059 424.677 568.788 423.078 566.422C422.475 565.524 421.871 564.625 421.25 563.7C420.59 562.727 419.93 561.753 419.25 560.75C417.818 558.617 416.385 556.484 414.953 554.351C414.162 553.177 413.371 552.003 412.58 550.829C408.212 544.347 403.851 537.86 399.502 531.365C398.009 529.139 396.511 526.916 395.013 524.694C394.092 523.32 393.171 521.945 392.25 520.57C391.82 519.935 391.389 519.3 390.945 518.645C388 514.228 388 514.228 388 512C386.874 512.174 385.747 512.348 384.587 512.527C379.863 513.116 375.339 512.87 370.602 512.57C367.878 512.455 365.153 512.354 362.429 512.252C360.562 512.168 358.696 512.058 356.832 511.924C346.536 510.869 346.535 510.868 337.233 514.36C334.074 517.875 331.952 521.883 329.922 526.125C328.692 528.626 327.179 530.878 325.602 533.172C324.608 534.697 323.616 536.223 322.625 537.75C322.076 538.594 321.527 539.439 320.961 540.309C317.878 545.064 314.835 549.84 311.831 554.645C305.635 564.555 299.177 574.274 292.672 583.982C287.164 592.205 281.746 600.465 276.518 608.869C271.761 616.472 266.742 623.897 261.742 631.342C257.237 638.056 252.819 644.797 248.688 651.75C243.896 659.764 238.757 667.543 233.559 675.297C232.61 676.714 231.664 678.134 230.722 679.556C229.39 681.564 228.045 683.562 226.695 685.558C226.297 686.164 225.898 686.77 225.487 687.393C223.067 690.934 220.908 693.192 217 695C213.164 695.557 210.647 695.906 207.229 694.026C201.656 689.555 199.689 684.441 197.375 677.812C196.657 675.839 195.935 673.866 195.211 671.894C194.855 670.917 194.499 669.939 194.132 668.932C193 666 191.742 663.166 190.418 660.316C188.258 655.664 186.532 650.994 184.938 646.125C181.424 635.704 177.197 625.595 172.912 615.473C172.406 614.273 171.9 613.072 171.379 611.836C170.692 610.22 170.691 610.22 169.99 608.572C169 606 169 606 169 604C168.124 604.05 167.248 604.101 166.346 604.152C157.98 604.63 149.613 605.1 141.246 605.564C136.948 605.803 132.649 606.044 128.352 606.291C117.237 606.927 106.122 607.519 95 608C93.7326 608.055 92.465 608.11 91.1592 608.167C87.9093 608.291 84.6617 608.375 81.4102 608.437C80.5027 608.472 79.5951 608.506 78.6602 608.542C74.2357 608.572 72.5884 608.477 69.0371 605.597C68.3649 604.74 67.6925 603.883 67 603L65 601C63.7978 596.998 64.0545 593.07 65.7969 589.255C68.5334 584.295 71.7927 579.662 75 575C76.4845 572.794 77.9616 570.583 79.4375 568.371C80.4409 566.868 81.4476 565.368 82.457 563.869C86.0433 558.522 89.4318 553.079 92.75 547.562C95.6616 542.723 98.6042 538.021 102 533.5C105.32 529.073 108.213 524.485 111.062 519.75C117.754 508.644 124.88 497.833 132 487C134.94 482.522 137.878 478.043 140.812 473.562C141.534 472.461 142.256 471.36 142.999 470.225C147.277 463.681 151.487 457.103 155.587 450.446C158.862 445.151 162.32 439.985 165.867 434.868C168.722 430.746 168.722 430.746 170 426C169.111 424.229 169.111 424.229 167.605 422.637C167.067 422.005 166.528 421.373 165.974 420.722C165.089 419.715 165.089 419.715 164.188 418.687C157.817 411.143 152.241 403.36 147 395C146.624 394.404 146.248 393.808 145.861 393.194C141.152 385.675 136.834 377.968 132.688 370.125L131.449 367.784C113.576 333.521 105.781 293.667 105.75 255.25C105.749 254.482 105.749 253.715 105.748 252.924C105.794 220.025 111.76 184.908 126 155C126.279 154.413 126.558 153.825 126.846 153.221C138.819 128.228 153.227 105.461 172 84.9998C172.951 83.9444 173.902 82.8883 174.852 81.8319C193.227 61.4975 215.458 45.0474 239.312 31.6248C240.029 31.2198 240.746 30.8146 241.484 30.3973C246.043 27.8902 250.666 25.8423 255.516 23.9647C257.866 23.0521 260.187 22.0898 262.508 21.1053C278.624 14.3626 295.198 9.22383 312.312 5.68733L314.439 5.24104C330.307 2.19731 346.387 1.59326 362.5 1.62483C363.457 1.62471 364.414 1.62496 365.399 1.62483ZM426 708C423.768 708 423.768 708 419.912 711.759C419.35 712.319 418.804 712.863 418.258 713.406C417.097 714.553 415.937 715.702 414.777 716.851C412.958 718.671 411.137 720.487 409.3 722.288C408.103 723.459 406.912 724.636 405.725 725.817C405.141 726.4 404.574 726.965 404.008 727.531C398.643 732.754 394.634 738.011 393.434 745.562C393.441 752.081 393.534 757.093 397.586 762.39L399 764C403.706 769.723 408.611 771.491 415.75 772.562C427.026 771.849 427.026 771.849 446.109 752.515C448.632 749.929 451.155 747.344 453.7 744.78C455.383 743.09 457.063 741.398 458.739 739.702C459.553 738.876 460.343 738.075 461.133 737.273C462.298 736.095 462.298 736.095 463.439 734.94C464.513 733.837 464.514 733.837 465.566 732.756C467.963 730.306 469.604 728.137 471 725L469 724C466.625 722.75 466.625 722.75 464 722L462.133 723.285L460 725C453.979 728.635 449.088 731.081 442 730C437.535 727.261 435.343 723.652 432.748 719.25C431.781 717.566 430.813 715.884 429.842 714.203L428.426 711.797C427.158 709.589 427.157 709.589 426 708ZM511.688 562.25C511.602 565.529 511.507 568.755 511 572C509.027 575.683 506.872 576.714 503.008 578.234C497.069 580.499 491.666 583.112 486.312 586.562C482.625 588.953 479.116 591.41 475 593C469.035 593.398 466.683 592.578 462.125 589C459.387 586.834 457.391 585.75 454 585C452.706 586.809 451.418 588.623 450.139 590.443L448.562 592.687C445.519 596.938 442.415 600.61 442 606C446.273 608.575 450.147 611.085 453.562 614.75C455.77 624.365 455.77 624.365 454 634.312C452.901 640.896 452.611 647.335 453 654C453.489 656.428 454.003 658.619 453.984 661.097L453.75 663.062L453.547 665.035C452.226 669.781 448.857 671.946 444.875 674.5C442.18 676.219 442.18 676.219 440 678C438.967 680.479 438.838 681.575 439.805 684.106C440.242 684.862 440.666 685.595 441.09 686.328L442.467 688.75L443.938 691.25C445.613 694.174 447.292 697.095 449 700C452 700 452 700 454.418 698.906C458.015 697.08 461.411 695.24 465.43 694.633C469.1 694.619 471.596 694.927 474.523 697.164C481.687 702.816 489.485 707.579 497.875 711.187C501.573 712.768 504.816 714.498 508 717C510.613 720.45 511.372 723.255 511.612 727.577C511.688 729.812 511.688 729.813 512 737H539L539.25 729.312C539.293 727.157 539.385 725.05 539.59 722.905C540.387 719.201 542.652 716.904 545.719 714.847L547.5 714.062L549.598 713.086C556.374 710.023 562.969 707.031 568.812 702.375C572.453 699.421 575.714 696.948 580 695C585.322 694.227 588.036 694.784 592.688 697.437C595.818 699.446 598.309 700.437 602 701C604.181 695.634 604.181 695.633 607 690.562L608.117 688.537L609.188 686.566C610.56 684.07 611.394 681.787 612 679L609.953 677.68L607.25 675.875L604.578 674.117C600.529 670.792 598.215 667.736 597.562 662.461C597.59 661.145 597.617 659.867 597.645 658.59C597.67 656.443 597.698 654.297 597.753 652.15C597.812 649.941 597.856 647.731 597.893 645.521C597.913 644.107 597.935 642.692 597.957 641.277C598.04 637.814 598.104 634.615 597.529 631.199C597.158 629.656 596.846 628.099 596.578 626.535L596.25 624.062C595.811 621.584 595.811 621.583 596 619C597.4 615.11 598.634 613.284 601.918 610.734C604.986 608.872 608.043 607.035 611 605C611 603 611 603 609.844 601.328C608.806 600.017 607.775 598.701 606.77 597.365C605.843 596.13 604.911 594.898 603.973 593.672L602.5 591.75C600.737 589.392 598.961 587.209 597 585H594C590.341 588.659 585.923 592.45 580.734 593.426C576.348 593.45 573.123 592.887 569.66 590.152C564.274 585.794 558.126 582.244 551.691 579.683C548.707 578.577 545.841 577.436 543 576C538.609 569.038 538.609 569.038 538.25 560.562L538 553H512L511.688 562.25ZM189 446C181.708 457.715 174.214 469.288 166.625 480.812C160.452 490.186 154.313 499.576 148.312 509.062C144.568 514.985 140.789 520.875 136.875 526.687C133.184 532.164 129.633 537.717 126.125 543.312C122.045 549.826 117.861 556.254 113.562 562.625C109.717 568.263 106.228 573.983 103 580C112.498 580.14 121.911 579.811 131.392 579.288C143.301 578.621 155.216 577.897 167.146 577.81L169.812 577.812C173.737 577.809 177.235 577.745 181 579C185.544 581.762 188.233 584.787 190 589.812C191.263 593.771 192.615 597.631 194.211 601.471C196.266 606.369 198.3 611.275 200.297 616.197L201.688 619.64C202.646 622.01 203.604 624.38 204.562 626.75C208.13 635.629 211.919 644.345 216 653C217.953 651.236 219.375 649.465 220.895 647.299C221.62 646.188 222.323 645.109 223.027 644.031C223.829 642.806 224.631 641.581 225.432 640.355C226.666 638.455 227.901 636.555 229.142 634.659C233.602 627.846 238.009 621.002 242.345 614.109C248.418 604.449 254.63 594.89 260.927 585.375C267.735 575.094 274.526 564.81 281.086 554.367C284.441 549.024 287.824 543.703 291.296 538.435C292.003 537.367 292.003 537.367 292.695 536.32C294.503 533.587 296.312 530.855 298.125 528.125C299.524 526.023 300.923 523.921 302.315 521.814C302.981 520.808 302.981 520.807 303.633 519.82C306.182 516.012 308.474 512.353 310 508C291.696 503.138 273.675 497.319 256.562 489.125C252.606 487.205 248.738 485.448 244.562 484.062L241 483V481C225.38 475.224 210.688 463.006 198.125 452.312C195.182 449.751 192.589 447.561 189 446ZM681 412C674.245 411.899 667.661 411.799 661 413C639.365 418.751 622.051 432.429 609.867 450.965C600.934 465.485 597.102 485.188 601 501.937C602.708 509.174 602.447 516.622 602 524C597.059 535.328 597.059 535.328 587.125 543.375C581.314 548.39 574.021 553.78 571 561C573.077 562.769 574.883 563.955 577.438 564.937C580 565 580 565 582.25 563.437C586.987 559.238 591.813 554.623 598.438 554.562C603.504 555.185 605.313 556.959 608.471 560.777C608.989 561.438 609.493 562.081 609.996 562.722C611.145 564.168 612.292 565.615 613.438 567.062L615.174 569.283L616.871 571.41C619.021 574.14 620.796 575.623 624 577C627.808 572.985 631.612 568.948 635.906 565.445C641.598 561.767 647.032 562.4 653.383 563.683C658.604 564.822 663.672 566.031 669.02 566.234C690.983 566.322 710.82 559.134 727 544C744.008 527.075 752.939 505.911 753 482H751C749.067 485.072 749.067 485.072 746.484 487.655C745.737 488.399 745.736 488.399 745.004 489.129C743.959 490.175 742.914 491.222 741.869 492.267C740.228 493.902 738.588 495.536 736.953 497.177C729.634 504.525 722.27 511.825 714.263 518.434C699.222 522.422 699.222 522.421 683.086 519.32C680.592 518.97 678.098 518.621 675.602 518.287C673.946 518.066 672.29 517.843 670.635 517.617C669.827 517.506 669.042 517.397 668.258 517.289C662.758 516.554 656.77 516.191 652.286 512.644C647.057 505.959 645.344 498.998 644.543 490.67C644.443 489.401 644.347 488.169 644.25 486.937C644.021 484.362 643.794 481.786 643.57 479.211C643.304 475.839 643.043 472.467 642.733 469.098C642.579 467.465 642.433 465.83 642.296 464.195C642.238 463.47 642.181 462.766 642.125 462.062C641.742 458.369 641.742 458.369 642 455C643.315 451.443 644.489 449.445 647.352 446.953C653.825 442.179 659.502 435.829 664.75 429.75C666.928 427.198 669.17 424.789 671.562 422.437C674.932 419.129 677.97 415.621 681 412ZM532.609 448.687C499.487 478.041 461.02 494.792 419.085 507.377C418.376 507.589 417.688 507.794 417 508C417 510.229 417 510.229 420.149 514.975C420.847 516.011 420.847 516.012 421.531 517.027C422.497 518.475 423.463 519.922 424.43 521.369C425.955 523.638 427.48 525.907 428.997 528.18C431.416 531.809 433.844 535.43 436.298 539.035C437.606 540.951 438.912 542.868 440.197 544.8C440.577 545.371 440.946 545.926 441.314 546.48C442.018 547.506 442.7 548.501 443.383 549.496C445.129 552.084 445.129 552.084 447 554C449.795 554.859 451.984 555.133 454.898 555.07C460.208 556.463 460.208 556.463 464.375 560.562C467.273 563.066 467.273 563.066 470 565C475.873 565 481.128 563.538 485.745 559.721C488.543 555.883 488.544 555.883 488.141 540.762C487.902 536.275 488.21 534.925 491.207 531.414C497.509 528.238 497.51 528.238 504.801 528.331C506.76 528.351 508.72 528.371 510.68 528.37C513.45 528.362 516.22 528.36 518.99 528.382C522.574 528.417 526.156 528.441 529.739 528.424C532.544 528.409 535.349 528.405 538.153 528.415C539.497 528.422 540.84 528.428 542.184 528.433C548.51 528.409 554.71 527.83 560.363 531.035C561.26 531.703 562.13 532.352 563 533C564.677 531.489 566.334 529.962 567.977 528.414L570 526.5C573.091 523.719 576.455 521.155 577.508 516.992C577.683 510.513 575.724 504.606 572.082 499.272C571.239 498.079 570.406 496.879 569.58 495.674C569.103 494.976 568.639 494.298 568.176 493.621C565.118 489.188 562.121 484.715 559.134 480.234C558.43 479.177 557.746 478.151 557.062 477.125C553.764 472.194 550.456 467.272 547.255 462.277C546.703 461.406 546.168 460.56 545.633 459.715C544.649 458.165 543.667 456.614 542.688 455.062C540.454 451.44 539.219 448.406 535 447L532.609 448.687ZM357.693 27.6873C346.529 27.6183 335.935 28.6029 324.962 30.6395C322.446 31.1012 319.922 31.4941 317.395 31.8866C272.852 39.4303 233.472 62.2616 201 92.9998C200.207 93.7421 200.207 93.7426 199.397 94.4998C190.463 102.905 183.032 111.962 176 122C175.485 122.729 174.97 123.459 174.439 124.21C167.676 133.852 161.835 143.6 156.836 154.262C155.663 156.699 154.349 159.058 153.062 161.437C138.486 190.709 132.338 223.219 132.562 255.687C132.566 256.643 132.569 257.598 132.572 258.583C132.738 291.161 139.124 324.007 154.114 353.232C155.697 356.391 156.813 359.677 158 363H160L160.23 365.043C161.238 368.914 163.177 371.98 165.312 375.312C165.755 376.01 166.198 376.709 166.654 377.428C181.384 400.282 199.57 421.224 221 438L223.125 439.863C236.413 451.324 253.137 459.639 269 467C269.657 467.306 270.313 467.613 270.989 467.929C285.468 474.624 299.848 479.38 315.562 482.187L317.656 482.57C353.104 489.027 387.563 488.137 422.414 478.867C425.959 478.01 429.386 477.455 433 477V475L434.773 474.844C444.638 473.54 453.145 469.304 462 465C463.169 464.435 463.17 464.435 464.362 463.858C477.019 457.665 488.625 450.3 500 442C500.638 441.535 501.276 441.07 501.933 440.591C509.157 435.255 515.866 429.431 522.438 423.312C523.413 422.404 523.414 422.404 524.409 421.477C528.901 417.219 532.974 412.696 537 408L539.598 405.113C553.935 388.822 567.378 369.193 574.695 348.629C575.694 345.85 576.748 343.132 577.867 340.402C583.337 326.901 587.074 313.262 590 299C590.27 297.784 590.54 296.567 590.818 295.314C593.236 283.791 593.493 272.419 593.446 260.674C593.438 257.466 593.466 254.26 593.498 251.053C593.563 232.195 591.187 213.697 585.875 195.562C585.583 194.547 585.29 193.532 584.989 192.486C576.549 164.153 563.532 138.69 545.217 115.542C544.087 114.111 542.971 112.669 541.855 111.226C532.547 99.4481 521.776 89.2708 510 79.9998C508.166 78.4589 506.333 76.9172 504.5 75.3748C499.241 71.0957 493.825 67.4599 488 63.9998L485.837 62.6912C465.627 50.5107 444.696 41.4521 422 34.9998L418.543 34.0116C408.674 31.4893 398.458 30.532 388.359 29.3416C386 29.0003 386 29.0002 384.092 28.4891C380.618 27.6774 377.078 27.8157 373.527 27.7967C372.272 27.7882 372.271 27.7879 370.99 27.7791C369.211 27.7697 367.432 27.7635 365.652 27.7596C362.999 27.7501 360.346 27.7191 357.693 27.6873Z"/><path fill="#F7C238" d="M497.187 612C510.533 601.116 530.363 598.487 545.937 606.5C557.932 613.216 566.243 623.728 570 637C570.436 639.931 570.525 642.79 570.5 645.75C570.495 646.534 570.49 647.319 570.485 648.127C570.171 658.684 565.888 667.14 559 675L557.484 676.832C550.752 684.332 540.094 689.477 530.082 690.336C515.028 690.655 503.98 686.656 492.812 676.312C483.711 666.83 480.466 655.754 480.695 642.847C481.688 630.307 487.952 620.327 497.187 612ZM536 631C530.294 628.041 525.65 626.957 519.375 628.75C514.224 631.461 510.507 634.709 508 640C507.413 645.827 506.784 651.868 510 657C513.406 661.036 517.746 664.556 523.09 665.285C529.705 665.371 533.887 664.278 539 660C542.965 654.152 544.922 649.028 544 642C542.352 636.793 540.616 633.937 536 631Z"/><path fill="#F8C545" d="M143 325C145.321 328.482 146.677 332.106 148.125 336C148.402 336.724 148.679 337.449 148.965 338.195C150.111 341.255 151 343.705 151 347C150.34 347 149.68 347 149 347C147.797 343.901 146.616 340.795 145.437 337.688C145.095 336.806 144.753 335.925 144.4 335.018C144.081 334.17 143.762 333.322 143.434 332.449C143.135 331.669 142.837 330.889 142.529 330.085C142 328 142 328 143 325Z"/><path fill="#F7C545" d="M279 278C283.919 282.116 288.526 286.404 293 291C292.34 291.66 291.68 292.32 291 293C286.71 288.71 282.42 284.42 278 280C278.33 279.34 278.66 278.68 279 278Z"/><path fill="#F7C545" d="M311 312C315.317 312.474 317.336 315.034 320.25 318.062C321.142 318.982 322.034 319.901 322.953 320.848C323.629 321.558 324.304 322.268 325 323C324.34 323.66 323.68 324.32 323 325C320.997 323.024 318.998 321.044 317 319.062C316.428 318.499 315.855 317.935 315.266 317.354C313.825 315.921 312.41 314.463 311 313C311 312.67 311 312.34 311 312Z"/><path fill="#F8C84E" d="M514 321C514.33 321 514.66 321 515 321C514.363 327.372 512.527 331.71 509 337C508.34 337 507.68 337 507 337C508.646 331.315 511.29 326.233 514 321Z"/><path fill="#F7C74D" d="M211 323C211.66 323 212.32 323 213 323C214.005 324.956 215.004 326.915 216 328.875C216.557 329.966 217.114 331.056 217.688 332.18C219 335 219 335 219 337C216 336 216 336 214.613 333.82C214.184 332.931 213.755 332.041 213.312 331.125C212.876 330.241 212.439 329.356 211.988 328.445C211 326 211 326 211 323Z"/><path fill="#F9D579" d="M668 461C668.33 461 668.66 461 669 461C670.101 468.018 670.097 474.906 670 482C669.67 482 669.34 482 669 482C668.856 481.257 668.711 480.515 668.563 479.75C668.078 477.141 668.078 477.141 667.438 475.219C666.861 472.294 667.148 469.712 667.438 466.75C667.539 465.672 667.641 464.595 667.746 463.484C667.83 462.665 667.914 461.845 668 461Z"/><path fill="#F8CA54" d="M315.41 439.137C316.285 439.318 317.161 439.5 318.062 439.687C318.94 439.856 319.818 440.025 320.723 440.199C323 441 323 441 325 444C319.761 443.449 315.026 442.571 310 441C313 439 313 439 315.41 439.137Z"/><path fill="#F7C74C" d="M530 165C533.326 167.982 535.292 170.864 537 175C536.67 175.66 536.34 176.32 536 177C533.478 175.739 533.111 174.625 531.875 172.125C531.345 171.077 531.345 171.077 530.805 170.008C530 168 530 168 530 165Z"/><path fill="#F7C647" d="M608 687C608.33 687 608.66 687 609 687C609.428 690.64 608.974 692.046 607.125 695.312C606.073 696.643 606.073 696.643 605 698C604.34 698 603.68 698 603 698C604.222 693.957 605.628 690.507 608 687Z"/><path fill="#F8C64A" d="M126 496C126.33 497.32 126.66 498.64 127 500C126.34 500 125.68 500 125 500C124.917 500.784 124.835 501.567 124.75 502.375C124 505 124 505 121.938 506.312C120.978 506.653 120.978 506.653 120 507C121.45 502.89 123.511 499.567 126 496Z"/><path fill="#F8CF66" d="M419 481C417.188 482.062 417.188 482.062 415 483C414.01 482.67 413.02 482.34 412 482C412 482.66 412 483.32 412 484C409.69 483.67 407.38 483.34 405 483C405 482.67 405 482.34 405 482C406.581 481.635 408.165 481.283 409.75 480.937C410.632 480.74 411.513 480.543 412.422 480.34C414.987 480.002 416.571 480.188 419 481Z"/><path fill="#F7C648" d="M564 706C563 709 563 709 561.25 710.188C558.7 711.108 556.691 711.149 554 711C556.695 708.305 560.084 706 564 706Z"/><path fill="#F8CD64" d="M348 67C348 67.33 348 67.66 348 68C346.35 68 344.7 68 343 68C343 68.66 343 69.32 343 70C340.36 69.67 337.72 69.34 335 69C335 68.67 335 68.34 335 68C339.409 66.8977 343.484 66.9235 348 67Z"/><path fill="#F7C851" d="M151 349C151.66 349 152.32 349 153 349C154.068 350.965 155.066 352.969 156 355C155.67 355.66 155.34 356.32 155 357C152.101 354.605 151.498 352.688 151 349Z"/></g><defs><clipPath id="clip0_1_53"><rect width="800" height="800" fill="#fff"/></clipPath></defs></svg>