<?xml version="1.0" encoding="UTF-8" ?>
<svg version="1.1" xmlns="http://www.w3.org/2000/svg" width="800" height="800">
<path
        d="M0 0 C264 0 528 0 800 0 C800 264 800 528 800 800 C536 800 272 800 0 800 C0 536 0 272 0 0 Z "
        fill="#FFFFFF"
        transform="translate(0,0)"
    />
<path
        d="M0 0 C1.58345467 -0.01073296 1.58345467 -0.01073296 3.19889832 -0.02168274 C4.35687927 -0.02437164 5.51486023 -0.02706055 6.70793152 -0.02983093 C8.53755684 -0.03968773 8.53755684 -0.03968773 10.40414429 -0.04974365 C14.44966374 -0.06949106 18.49514355 -0.08114338 22.54069519 -0.09111023 C23.93449613 -0.09515854 25.32829686 -0.09927549 26.7220974 -0.10346031 C33.27028661 -0.12250641 39.81846458 -0.13673905 46.36667615 -0.14507228 C53.92093592 -0.15484508 61.4749027 -0.1811678 69.02905923 -0.22157317 C74.87120587 -0.2517473 80.71326858 -0.26654234 86.55549163 -0.26985329 C90.04339109 -0.27220219 93.53097735 -0.28114123 97.01879311 -0.30631447 C100.91136144 -0.33395579 104.80354505 -0.32976005 108.69621277 -0.32279968 C109.84812103 -0.33560974 111.0000293 -0.3484198 112.18684387 -0.36161804 C118.40390998 -0.32104823 122.18627486 -0.05932633 126.89616394 4.14717102 C131.21262466 9.05900563 131.03819011 13.77204187 131.01921177 20.04339886 C131.02036561 20.96871242 131.02151946 21.89402599 131.02270827 22.84737936 C131.02537482 25.97700594 131.02085242 29.10658204 131.01641846 32.23620605 C131.01685415 34.49093634 131.01772902 36.74566658 131.01900762 39.00039655 C131.02125294 45.21888422 131.01723078 51.43735479 131.01222956 57.65584028 C131.00836731 63.66610859 131.0091891 69.67637501 131.0099114 75.68664407 C131.01122659 87.98487671 131.00787903 100.28310399 131.001894 112.58133507 C130.99598137 124.76194981 130.99212894 136.94256232 130.99104118 149.12317848 C130.99097244 149.8799176 130.9909037 150.63665673 130.99083288 151.41632734 C130.99049456 155.25926498 130.99019317 159.10220263 130.98990601 162.94514028 C130.98780438 190.18004723 130.98106364 217.41495126 130.97160339 244.64985657 C130.96242225 271.11177047 130.95533702 297.57368358 130.95109558 324.03559875 C130.95089829 325.25863868 130.95089829 325.25863868 130.95069702 326.50638648 C130.94937852 334.69440397 130.9481027 342.88242147 130.94685816 351.07043898 C130.9443218 367.7510711 130.94150054 384.43170316 130.93850708 401.11233521 C130.93836979 401.87932029 130.9382325 402.64630537 130.93809105 403.43653242 C130.92888701 454.67341319 130.91302065 505.91029227 130.89616394 557.14717102 C131.74323914 557.12622375 132.59031433 557.10527649 133.46305847 557.08369446 C136.62756787 557.01523047 139.79169785 556.96523115 142.95671082 556.92744446 C144.32239762 556.90741783 145.68799963 556.8801877 147.0533905 556.84541321 C149.02403496 556.7965067 150.99532377 556.77625755 152.96647644 556.75654602 C154.14999695 556.73559875 155.33351746 556.71465149 156.55290222 556.69306946 C160.59134359 557.24159443 162.726389 558.63814284 165.89616394 561.14717102 C168.64918227 565.15372508 168.43411661 569.45689622 167.89616394 574.14717102 C166.13080025 578.32829556 163.72483625 580.74625328 159.89616394 583.14717102 C156.51249288 583.7397949 153.16775164 583.68373187 149.73985386 583.65053558 C148.70259752 583.65634935 147.66534118 583.66216311 146.59665284 583.66815305 C143.09799578 583.68282742 139.60003211 583.66883256 136.10137939 583.65510559 C133.57695878 583.65971154 131.05254085 583.66606239 128.52812856 583.67401457 C123.02772637 583.68726808 117.52753882 583.68801305 112.02713394 583.67782593 C103.84795061 583.66271858 95.6689001 583.67041914 87.48971771 583.68265916 C72.88290674 583.7037436 58.27616566 583.70188797 43.669348 583.69034351 C30.88623139 583.68028976 18.10314043 583.67765051 5.32002068 583.68243408 C4.47279089 583.68273962 3.62556111 583.68304516 2.7526577 583.68335996 C-0.68635005 583.68460527 -4.12535779 583.68587887 -7.56436552 583.68719902 C-39.84014182 583.69944131 -72.11587356 583.68833141 -104.39164298 583.66681143 C-133.07820193 583.64783003 -161.76468985 583.64952535 -190.45124817 583.6686554 C-222.6656726 583.69006614 -254.88005764 583.69857145 -287.0944882 583.68620634 C-290.5276178 583.68492343 -293.96074741 583.68367208 -297.39387703 583.68243408 C-298.23922808 583.68211777 -299.08457914 583.68180146 -299.95554689 583.68147557 C-312.7311678 583.67692229 -325.50676027 583.68225312 -338.28237724 583.69235229 C-352.80705052 583.70377671 -367.33164285 583.70095712 -381.85630601 583.67922932 C-389.98908466 583.6674652 -398.12168809 583.66674459 -406.25446227 583.68181402 C-412.31901746 583.69181352 -418.38334411 583.68100466 -424.44788546 583.66191572 C-426.90744683 583.65743015 -429.36703153 583.65975936 -431.82657801 583.66941887 C-435.15861971 583.68150586 -438.48969443 583.66918507 -441.82168484 583.65053558 C-442.78635293 583.65990025 -443.75102102 583.66926491 -444.74492148 583.67891335 C-450.35550383 583.61574563 -453.69824552 582.97361317 -458.10383606 579.14717102 C-461.21703078 574.47737893 -460.83194372 569.61158294 -460.10383606 564.14717102 C-458.47661106 560.91691768 -456.38206284 558.78628441 -453.10383606 557.14717102 C-450.55021002 557.06058533 -448.02429186 557.03154586 -445.47102356 557.04951477 C-444.34327011 557.05163719 -444.34327011 557.05163719 -443.19273376 557.05380249 C-440.78806096 557.05940637 -438.38348079 557.07195945 -435.97883606 557.08467102 C-434.34993115 557.08968552 -432.72102479 557.09424852 -431.09211731 557.0983429 C-427.09598779 557.10937705 -423.09992764 557.12664423 -419.10383606 557.14717102 C-419.11049789 556.53409088 -419.11715973 555.92101074 -419.12402344 555.28935242 C-419.19048911 548.89777378 -419.23568337 542.50629364 -419.26863098 536.11445618 C-419.28370006 533.73030101 -419.30415897 531.34617349 -419.33015442 528.96211243 C-419.36661943 525.53154165 -419.38358158 522.10133802 -419.39680481 518.67060852 C-419.41228867 517.60788727 -419.42777252 516.54516602 -419.44372559 515.45024109 C-419.44527999 508.58635762 -418.64395682 504.16356443 -414.10383606 498.77217102 C-409.51544723 496.28679374 -405.20313821 496.27236405 -400.10383606 497.14717102 C-395.97919084 499.20949363 -394.16279669 502.02924976 -392.10383606 506.14717102 C-392.10383606 522.97717102 -392.10383606 539.80717102 -392.10383606 557.14717102 C-348.54383606 557.14717102 -304.98383606 557.14717102 -260.10383606 557.14717102 C-260.13864075 536.29400696 -260.17344543 515.4408429 -260.20930481 493.95576477 C-260.22462726 480.77151924 -260.23921094 467.58727916 -260.25032043 454.4030304 C-260.25619409 447.47879515 -260.26225554 440.55456012 -260.26863098 433.63032532 C-260.26942223 432.76248041 -260.27021347 431.89463551 -260.2710287 431.00049227 C-260.28407806 416.98819934 -260.30773032 402.97594332 -260.33529445 388.96367227 C-260.36334502 374.58423298 -260.38001158 360.20481302 -260.38610154 345.82534748 C-260.39021871 336.95182233 -260.40322437 328.07840148 -260.42758546 319.20490844 C-260.44343835 313.12074109 -260.44823743 307.03662771 -260.44434019 300.95244121 C-260.44241794 297.44171551 -260.44537309 293.93117214 -260.46145248 290.42047882 C-260.47634887 286.61299778 -260.47279954 282.80596526 -260.46459961 278.99847412 C-260.47333813 277.89048901 -260.48207666 276.78250389 -260.49107999 275.64094347 C-260.45640718 269.69613786 -260.03664503 265.36817287 -257.10383606 260.14717102 C-252.02505053 255.27992705 -246.96489153 255.59824556 -240.32502747 255.69306946 C-239.25125854 255.69248535 -238.17748962 255.69190125 -237.07118225 255.69129944 C-233.53225555 255.6940797 -229.99417761 255.72517046 -226.45539856 255.75654602 C-223.99775147 255.76400858 -221.54009841 255.76970144 -219.08244324 255.7736969 C-212.62147016 255.78895188 -206.16085813 255.82823323 -199.70002747 255.87251282 C-193.10421126 255.91346803 -186.50833658 255.9317085 -179.91242981 255.95185852 C-166.97607807 255.99472702 -154.03997629 256.06220577 -141.10383606 256.14717102 C-141.11382881 254.6825795 -141.11382881 254.6825795 -141.12402344 253.18840027 C-141.18489026 243.97799883 -141.22983545 234.7676383 -141.25927258 225.55708122 C-141.27491538 220.82205179 -141.29612836 216.08718499 -141.33015442 211.35224915 C-141.36279727 206.78108755 -141.3806995 202.21008219 -141.38846779 197.63881302 C-141.39400245 195.89652676 -141.40481036 194.15424886 -141.42102623 192.41202927 C-141.44286619 189.96792503 -141.44580028 187.52446292 -141.44441223 185.08027649 C-141.46059097 184.00457146 -141.46059097 184.00457146 -141.47709656 182.90713501 C-141.44854952 178.24873997 -140.54287663 175.10798508 -138.10383606 171.14717102 C-133.67055749 166.94124007 -130.30389521 166.02028207 -124.332901 166.0269165 C-123.37660294 166.02554184 -122.42030487 166.02416718 -121.43502808 166.02275085 C-119.87164955 166.02814377 -119.87164955 166.02814377 -118.27668762 166.03364563 C-117.17395004 166.0334996 -116.07121246 166.03335358 -114.93505859 166.03320312 C-111.28817278 166.03390009 -107.64133796 166.04168245 -103.99446106 166.04951477 C-101.46669035 166.05137972 -98.93891927 166.05280326 -96.41114807 166.05380249 C-90.43659737 166.05723122 -84.46206858 166.06511368 -78.48752666 166.07515198 C-71.68466382 166.08633363 -64.88180011 166.09182874 -58.07893038 166.09684741 C-44.08722213 166.10729684 -30.0955301 166.1248835 -16.10383606 166.14717102 C-16.10660144 165.35387327 -16.10936682 164.56057552 -16.112216 163.74323845 C-16.17847502 144.43870544 -16.22811626 125.13419514 -16.25927258 105.82957268 C-16.27474009 96.493991 -16.29582742 87.15848523 -16.33015442 77.82295227 C-16.36006029 69.68590434 -16.3794119 61.5489114 -16.38610154 53.41181004 C-16.39001179 49.10344392 -16.39919901 44.7952351 -16.42102623 40.4869194 C-16.44141015 36.43056804 -16.44766602 32.37443856 -16.4431591 28.31804085 C-16.44398345 26.83054587 -16.44993785 25.34304337 -16.46145248 23.85559273 C-16.47642463 21.82148249 -16.47099139 19.78725283 -16.46459961 17.75309753 C-16.46736499 16.61560499 -16.47013037 15.47811245 -16.47297955 14.30615044 C-15.9004931 9.40704489 -14.207919 6.16844774 -10.60383606 2.83467102 C-6.97377565 0.38438024 -4.27508665 0.01988822 0 0 Z "
        fill="#FAC02E"
        transform="translate(609.1038360595703,213.8528289794922)"
    />
<path
        d="M0 0 C1.73483661 0.51890352 3.4723323 1.02897172 5.21191406 1.53173828 C6.08638184 1.78656982 6.96084961 2.04140137 7.86181641 2.30395508 C8.64492188 2.52994385 9.42802734 2.75593262 10.23486328 2.98876953 C13.53760813 4.09451099 16.54907762 5.62873632 19.62744141 7.24536133 C21.83288955 8.39577076 24.04225506 9.4974628 26.28369141 10.57348633 C34.84050538 14.70319101 42.75707945 19.23135118 50.51806641 24.75317383 C51.86771484 25.67356445 51.86771484 25.67356445 53.24462891 26.61254883 C60.96868095 31.9993517 67.76129685 38.23178727 74.51806641 44.75317383 C75.16501465 45.37289062 75.81196289 45.99260742 76.47851562 46.63110352 C109.21742288 78.1213933 130.32765904 118.5353539 136.51806641 163.75317383 C136.6137793 164.45152344 136.70949219 165.14987305 136.80810547 165.86938477 C137.79445726 174.2162542 137.76168168 182.61007567 137.76806641 191.00317383 C137.76874115 191.80141571 137.76941589 192.59965759 137.77011108 193.42208862 C137.7435881 213.22682728 135.34173957 231.78666174 129.51806641 250.75317383 C129.30311523 251.45716309 129.08816406 252.16115234 128.86669922 252.88647461 C123.85482601 268.91472981 116.65887225 284.66109815 107.51806641 298.75317383 C107.01275391 299.60266602 106.50744141 300.4521582 105.98681641 301.32739258 C101.25044473 309.15804481 95.55757746 315.91921813 89.51806641 322.75317383 C88.70595703 323.67743164 87.89384766 324.60168945 87.05712891 325.55395508 C79.43590197 334.124584 71.56055186 341.6749736 62.51806641 348.75317383 C61.96618652 349.18678223 61.41430664 349.62039063 60.84570312 350.06713867 C51.59842775 357.27216666 41.9436183 363.15205726 31.59277344 368.63500977 C29.70839846 369.6505943 27.85847758 370.70608478 26.01416016 371.79223633 C19.36644416 375.6258885 13.09834878 377.9469243 5.63916016 379.72583008 C1.86471981 380.62799551 -1.80162629 381.78001226 -5.49609375 382.96313477 C-45.55628784 395.69489553 -91.96206223 395.72566666 -131.48193359 380.75317383 C-132.0975415 380.52758789 -132.71314941 380.30200195 -133.34741211 380.06958008 C-160.71212208 369.99942095 -184.42461204 354.83039438 -205.48193359 334.75317383 C-206.26181641 334.02614258 -207.04169922 333.29911133 -207.84521484 332.55004883 C-230.17224478 311.13513557 -244.67408226 283.33407785 -255.48193359 254.75317383 C-255.89443359 253.67422852 -256.30693359 252.5952832 -256.73193359 251.48364258 C-262.01039036 236.74107779 -264.62177171 220.89815264 -264.68505859 205.29223633 C-264.69075867 204.18826508 -264.69645874 203.08429382 -264.70233154 201.9468689 C-264.71175484 199.61196847 -264.71830488 197.27705491 -264.72216797 194.94213867 C-264.73180672 191.42447659 -264.76282872 187.90741614 -264.79443359 184.38989258 C-264.85376014 171.81583931 -264.27743103 160.02065854 -261.48193359 147.75317383 C-261.29904785 146.83342773 -261.11616211 145.91368164 -260.92773438 144.96606445 C-253.85288096 109.59897995 -234.22680277 75.93776877 -209.07910156 50.38110352 C-207.6456286 48.92002163 -206.23597974 47.43565561 -204.82958984 45.94848633 C-198.57900666 39.44463802 -191.73930863 34.06564439 -184.48193359 28.75317383 C-183.23283203 27.82891602 -183.23283203 27.82891602 -181.95849609 26.88598633 C-168.95510865 17.5114512 -155.06374593 10.31627224 -140.48193359 3.75317383 C-139.33080078 3.22336914 -138.17966797 2.69356445 -136.99365234 2.14770508 C-132.82048651 0.49050797 -128.65283328 -0.63101046 -124.29443359 -1.68432617 C-123.42512207 -1.89677979 -122.55581055 -2.1092334 -121.66015625 -2.328125 C-79.99741948 -12.35582168 -41.26504589 -12.37789521 0 0 Z "
        fill="#FCFBFB"
        transform="translate(375.48193359375,12.246826171875)"
    />
<path
        d="M0 0 C0 0.66 0 1.32 0 2 C0.58136719 2.26425781 1.16273438 2.52851563 1.76171875 2.80078125 C5.67817855 4.89912882 8.7473106 8.00555815 12 11 C12.85271484 11.77150391 12.85271484 11.77150391 13.72265625 12.55859375 C34.00493652 31.78600365 47.9557588 63.46998457 49.14526367 91.41235352 C49.16562392 94.74508576 49.18568245 98.07760613 49.18530273 101.41040039 C49.18746914 103.53227421 49.20560098 105.65360991 49.22460938 107.77539062 C49.36069184 139.45413927 37.56891329 168.99595251 17 193 C16.34 193 15.68 193 15 193 C14.62101562 193.86238281 14.62101562 193.86238281 14.234375 194.7421875 C3.44947632 214.46899585 -27.76923566 227.41291741 -47.91015625 233.6953125 C-59.51560849 236.87092807 -71.07064553 237.39964812 -83.02685547 237.42553711 C-85.60091684 237.43738911 -88.1725378 237.48670053 -90.74609375 237.53710938 C-122.62074372 237.84596784 -152.70936262 223.44257178 -175.74609375 202.04296875 C-177.34033779 200.59792606 -178.98905169 199.21193981 -180.671875 197.87109375 C-182.91882865 196.0652367 -184.46221149 194.42808713 -186 192 C-186 191.34 -186 190.68 -186 190 C-186.66 190 -187.32 190 -188 190 C-198.6594153 178.35673041 -206.10364176 163.96711274 -211.25 149.1875 C-211.60179321 148.19459961 -211.60179321 148.19459961 -211.96069336 147.18164062 C-216.40132669 133.62216276 -217.58536915 119.67127869 -217.5 105.5 C-217.49856995 104.72507202 -217.49713989 103.95014404 -217.4956665 103.1517334 C-217.32934238 66.46081919 -204.71094416 33.48591943 -179 7 C-172.67968042 0.77109 -165.36735632 -4.112388 -158 -9 C-157.21109375 -9.53625 -156.4221875 -10.0725 -155.609375 -10.625 C-108.64173444 -40.84194358 -42.46017804 -36.13632174 0 0 Z "
        fill="#FCFBFA"
        transform="translate(246,441)"
    />
<path
        d="M0 0 C31.02 0 62.04 0 94 0 C94 175.23 94 350.46 94 531 C62.98 531 31.96 531 0 531 C0 355.77 0 180.54 0 0 Z "
        fill="#FCFCFC"
        transform="translate(620,240)"
    />
<path
        d="M0 0 C33 0 66 0 100 0 C100 120.12 100 240.24 100 364 C67 364 34 364 0 364 C0 243.88 0 123.76 0 0 Z "
        fill="#FCFBF9"
        transform="translate(494,407)"
    />
<path
        d="M0 0 C1.73483661 0.51890352 3.4723323 1.02897172 5.21191406 1.53173828 C6.08638184 1.78656982 6.96084961 2.04140137 7.86181641 2.30395508 C8.64492188 2.52994385 9.42802734 2.75593262 10.23486328 2.98876953 C13.53760813 4.09451099 16.54907762 5.62873632 19.62744141 7.24536133 C21.83288955 8.39577076 24.04225506 9.4974628 26.28369141 10.57348633 C34.84050538 14.70319101 42.75707945 19.23135118 50.51806641 24.75317383 C51.86771484 25.67356445 51.86771484 25.67356445 53.24462891 26.61254883 C60.96868095 31.9993517 67.76129685 38.23178727 74.51806641 44.75317383 C75.16501465 45.37289062 75.81196289 45.99260742 76.47851562 46.63110352 C109.21742288 78.1213933 130.32765904 118.5353539 136.51806641 163.75317383 C136.6137793 164.45152344 136.70949219 165.14987305 136.80810547 165.86938477 C137.79445726 174.2162542 137.76168168 182.61007567 137.76806641 191.00317383 C137.76874115 191.80141571 137.76941589 192.59965759 137.77011108 193.42208862 C137.7435881 213.22682728 135.34173957 231.78666174 129.51806641 250.75317383 C129.30311523 251.45716309 129.08816406 252.16115234 128.86669922 252.88647461 C123.85482601 268.91472981 116.65887225 284.66109815 107.51806641 298.75317383 C107.01275391 299.60266602 106.50744141 300.4521582 105.98681641 301.32739258 C101.25044473 309.15804481 95.55757746 315.91921813 89.51806641 322.75317383 C88.70595703 323.67743164 87.89384766 324.60168945 87.05712891 325.55395508 C79.43590197 334.124584 71.56055186 341.6749736 62.51806641 348.75317383 C61.96618652 349.18678223 61.41430664 349.62039063 60.84570312 350.06713867 C51.59842775 357.27216666 41.9436183 363.15205726 31.59277344 368.63500977 C29.70839846 369.6505943 27.85847758 370.70608478 26.01416016 371.79223633 C19.36644416 375.6258885 13.09834878 377.9469243 5.63916016 379.72583008 C1.86471981 380.62799551 -1.80162629 381.78001226 -5.49609375 382.96313477 C-45.55628784 395.69489553 -91.96206223 395.72566666 -131.48193359 380.75317383 C-132.0975415 380.52758789 -132.71314941 380.30200195 -133.34741211 380.06958008 C-160.71212208 369.99942095 -184.42461204 354.83039438 -205.48193359 334.75317383 C-206.26181641 334.02614258 -207.04169922 333.29911133 -207.84521484 332.55004883 C-230.17224478 311.13513557 -244.67408226 283.33407785 -255.48193359 254.75317383 C-255.89443359 253.67422852 -256.30693359 252.5952832 -256.73193359 251.48364258 C-262.01039036 236.74107779 -264.62177171 220.89815264 -264.68505859 205.29223633 C-264.69075867 204.18826508 -264.69645874 203.08429382 -264.70233154 201.9468689 C-264.71175484 199.61196847 -264.71830488 197.27705491 -264.72216797 194.94213867 C-264.73180672 191.42447659 -264.76282872 187.90741614 -264.79443359 184.38989258 C-264.85376014 171.81583931 -264.27743103 160.02065854 -261.48193359 147.75317383 C-261.29904785 146.83342773 -261.11616211 145.91368164 -260.92773438 144.96606445 C-253.85288096 109.59897995 -234.22680277 75.93776877 -209.07910156 50.38110352 C-207.6456286 48.92002163 -206.23597974 47.43565561 -204.82958984 45.94848633 C-198.57900666 39.44463802 -191.73930863 34.06564439 -184.48193359 28.75317383 C-183.23283203 27.82891602 -183.23283203 27.82891602 -181.95849609 26.88598633 C-168.95510865 17.5114512 -155.06374593 10.31627224 -140.48193359 3.75317383 C-139.33080078 3.22336914 -138.17966797 2.69356445 -136.99365234 2.14770508 C-132.82048651 0.49050797 -128.65283328 -0.63101046 -124.29443359 -1.68432617 C-123.42512207 -1.89677979 -122.55581055 -2.1092334 -121.66015625 -2.328125 C-79.99741948 -12.35582168 -41.26504589 -12.37789521 0 0 Z M-195.98535156 74.38647461 C-198.62621701 77.40364168 -201.08377162 80.5415384 -203.48193359 83.75317383 C-204.02591797 84.45442383 -204.56990234 85.15567383 -205.13037109 85.87817383 C-207.86862186 89.4176351 -207.86862186 89.4176351 -208.48193359 93.75317383 C-209.14193359 93.75317383 -209.80193359 93.75317383 -210.48193359 93.75317383 C-219.53164036 109.44180481 -227.76948764 125.17390239 -232.48193359 142.75317383 C-232.87638672 144.08541992 -232.87638672 144.08541992 -233.27880859 145.44458008 C-238.41989141 163.88428016 -239.01820829 182.74205822 -238.48193359 201.75317383 C-238.46259766 202.96102539 -238.44326172 204.16887695 -238.42333984 205.41333008 C-237.419967 228.49090557 -229.39236007 251.60703666 -218.48193359 271.75317383 C-218.12196289 272.43154297 -217.76199219 273.10991211 -217.39111328 273.80883789 C-208.10164104 291.27895943 -196.00598848 308.26518872 -180.48193359 320.75317383 C-179.04217938 321.9803738 -177.60245761 323.20761206 -176.16333008 324.43554688 C-159.19784433 338.79832752 -140.38836935 349.30938121 -119.48193359 356.75317383 C-118.42063232 357.13578369 -118.42063232 357.13578369 -117.33789062 357.52612305 C-83.9389104 369.3680885 -43.86129647 369.50803252 -10.48193359 357.75317383 C-9.33362061 357.3592041 -9.33362061 357.3592041 -8.16210938 356.95727539 C4.83168174 352.45607694 16.78084627 346.91311451 28.51806641 339.75317383 C29.61634766 339.08415039 30.71462891 338.41512695 31.84619141 337.72583008 C39.64843207 332.73198756 46.60320765 326.88433502 53.51806641 320.75317383 C54.07703613 320.26268555 54.63600586 319.77219727 55.21191406 319.2668457 C62.7457463 312.63067077 69.4564205 305.79902757 75.51806641 297.75317383 C76.31728516 296.7193457 77.11650391 295.68551758 77.93994141 294.62036133 C84.52402248 285.90704233 89.63218943 276.58679772 94.48730469 266.82104492 C95.3206156 265.14929139 96.17917376 263.49013754 97.04541016 261.83520508 C116.09432625 223.55479542 115.41576951 174.60233525 102.55322266 134.76489258 C101.60264936 132.06587523 100.57937378 129.41040238 99.51806641 126.75317383 C98.99986328 125.37838867 98.99986328 125.37838867 98.47119141 123.97583008 C89.39624883 100.82229507 73.3520147 78.08084329 54.51806641 61.75317383 C53.85806641 61.75317383 53.19806641 61.75317383 52.51806641 61.75317383 C52.18806641 60.76317383 51.85806641 59.77317383 51.51806641 58.75317383 C49.20308402 56.79571768 46.8952137 54.98039181 44.45556641 53.19067383 C43.38387207 52.39765869 43.38387207 52.39765869 42.29052734 51.58862305 C31.33650841 43.58782297 19.89404915 36.35219693 7.51806641 30.75317383 C6.90946777 30.47376953 6.30086914 30.19436523 5.67382812 29.90649414 C-5.73054261 24.7280797 -17.24269427 21.34355337 -29.48193359 18.75317383 C-30.22572266 18.5880127 -30.96951172 18.42285156 -31.73583984 18.25268555 C-91.62096484 5.30346465 -155.24101855 30.12216999 -195.98535156 74.38647461 Z "
        fill="#FAC12F"
        transform="translate(375.48193359375,12.246826171875)"
    />
<path
        d="M0 0 C30.69 0 61.38 0 93 0 C93 90.75 93 181.5 93 275 C62.31 275 31.62 275 0 275 C0 184.25 0 93.5 0 0 Z "
        fill="#FCFBFA"
        transform="translate(375,496)"
    />
<path
        d="M0 0 C0 0.66 0 1.32 0 2 C0.58136719 2.26425781 1.16273438 2.52851563 1.76171875 2.80078125 C5.67817855 4.89912882 8.7473106 8.00555815 12 11 C12.85271484 11.77150391 12.85271484 11.77150391 13.72265625 12.55859375 C34.00493652 31.78600365 47.9557588 63.46998457 49.14526367 91.41235352 C49.16562392 94.74508576 49.18568245 98.07760613 49.18530273 101.41040039 C49.18746914 103.53227421 49.20560098 105.65360991 49.22460938 107.77539062 C49.36069184 139.45413927 37.56891329 168.99595251 17 193 C16.34 193 15.68 193 15 193 C14.62101562 193.86238281 14.62101562 193.86238281 14.234375 194.7421875 C3.44947632 214.46899585 -27.76923566 227.41291741 -47.91015625 233.6953125 C-59.51560849 236.87092807 -71.07064553 237.39964812 -83.02685547 237.42553711 C-85.60091684 237.43738911 -88.1725378 237.48670053 -90.74609375 237.53710938 C-122.62074372 237.84596784 -152.70936262 223.44257178 -175.74609375 202.04296875 C-177.34033779 200.59792606 -178.98905169 199.21193981 -180.671875 197.87109375 C-182.91882865 196.0652367 -184.46221149 194.42808713 -186 192 C-186 191.34 -186 190.68 -186 190 C-186.66 190 -187.32 190 -188 190 C-198.6594153 178.35673041 -206.10364176 163.96711274 -211.25 149.1875 C-211.60179321 148.19459961 -211.60179321 148.19459961 -211.96069336 147.18164062 C-216.40132669 133.62216276 -217.58536915 119.67127869 -217.5 105.5 C-217.49856995 104.72507202 -217.49713989 103.95014404 -217.4956665 103.1517334 C-217.32934238 66.46081919 -204.71094416 33.48591943 -179 7 C-172.67968042 0.77109 -165.36735632 -4.112388 -158 -9 C-157.21109375 -9.53625 -156.4221875 -10.0725 -155.609375 -10.625 C-108.64173444 -40.84194358 -42.46017804 -36.13632174 0 0 Z M-112 0 C-113.15628906 0.23976563 -114.31257813 0.47953125 -115.50390625 0.7265625 C-120.69523326 1.90906753 -125.35746865 3.35200534 -130.02734375 5.921875 C-132 7 -132 7 -134.25390625 8.015625 C-157.67431807 18.69202461 -176.1852296 41.27618906 -185.14453125 65.03515625 C-192.12822835 86.14318456 -194.8062532 111.54489732 -188 133 C-187.79213867 133.671521 -187.58427734 134.34304199 -187.37011719 135.03491211 C-182.93239667 148.94731686 -176.48160679 161.86518998 -167 173 C-166.27683594 173.89589844 -165.55367187 174.79179688 -164.80859375 175.71484375 C-149.58900464 193.66417304 -128.46211698 205.99500505 -105.1796875 209.60546875 C-103 210 -103 210 -101 211 C-98.51900266 211.08649451 -96.06655072 211.11565054 -93.5859375 211.09765625 C-92.49147812 211.09553383 -92.49147812 211.09553383 -91.37490845 211.09336853 C-89.04156415 211.08776531 -86.70831536 211.07521235 -84.375 211.0625 C-82.79427222 211.05748541 -81.21354293 211.05292243 -79.6328125 211.04882812 C-75.75517146 211.03779484 -71.87760193 211.02052811 -68 211 C-68 210.34 -68 209.68 -68 209 C-66.2365625 209.1546875 -66.2365625 209.1546875 -64.4375 209.3125 C-42.00443588 209.17251208 -19.93973254 191.47290187 -4.96606445 176.390625 C2.67319386 168.42933958 14.54271608 155.44216459 15.15234375 144.1875 C15.10207031 143.465625 15.05179688 142.74375 15 142 C15.66 142 16.32 142 17 142 C17.27714844 141.02417969 17.55429687 140.04835938 17.83984375 139.04296875 C18.205694 137.75780249 18.57158136 136.47264679 18.9375 135.1875 C19.29714844 133.92292969 19.65679687 132.65835938 20.02734375 131.35546875 C20.64491261 129.22498018 21.29854631 127.10436108 22 125 C25.88674941 92.85034438 20.35161318 65.11515429 0.77734375 39.0390625 C-1.4094555 36.2853153 -3.66519532 33.62914122 -6 31 C-7.11955078 29.73736328 -7.11955078 29.73736328 -8.26171875 28.44921875 C-22.46638791 13.35235549 -41.9835054 3.6894377 -62 -1 C-62.84949219 -1.22429687 -63.69898438 -1.44859375 -64.57421875 -1.6796875 C-80.03754242 -5.22387158 -96.67579349 -3.27313149 -112 0 Z "
        fill="#FAC02F"
        transform="translate(246,441)"
    />
<path
        d="M0 0 C3.61242494 1.99138719 7.12261907 4.24523814 9 8 C9.15222973 9.66565749 9.24917215 11.33656496 9.31640625 13.0078125 C9.35830078 13.99394531 9.40019531 14.98007813 9.44335938 15.99609375 C9.48267578 17.02863281 9.52199219 18.06117187 9.5625 19.125 C9.60568359 20.16527344 9.64886719 21.20554687 9.69335938 22.27734375 C9.7996288 24.85142528 9.90166583 27.42560508 10 30 C10.87140625 30.15855469 11.7428125 30.31710938 12.640625 30.48046875 C30.29184647 33.93812144 43.73499903 40.92823126 54.29296875 55.82421875 C60.28825131 64.91860122 63.96139644 72.95462311 63 84 C62.34 84 61.68 84 61 84 C60.6596875 85.1446875 60.6596875 85.1446875 60.3125 86.3125 C58.62176495 89.77448129 57.58975819 90.57905405 54 92 C48.81386027 92.78787766 45.40880922 92.93800818 40.9375 89.9609375 C37.51686448 86.87924442 35.79574792 83.27599221 33.9375 79.125 C29.31124782 68.9585908 29.31124782 68.9585908 21.5625 61.125 C21.02753906 60.73570312 20.49257813 60.34640625 19.94140625 59.9453125 C14.92356166 57.50201594 9.07260481 57.81537076 3.6015625 57.76171875 C2.41087662 57.74961113 2.41087662 57.74961113 1.19613647 57.73725891 C-0.47631694 57.72348866 -2.14879762 57.71273526 -3.82128906 57.70483398 C-5.52026693 57.69330173 -7.21920821 57.6728301 -8.91796875 57.64331055 C-11.39087179 57.60041814 -13.86270767 57.58443897 -16.3359375 57.57421875 C-17.08515472 57.55671066 -17.83437195 57.53920258 -18.60629272 57.52116394 C-26.17524656 57.55188476 -32.57955337 60.73012133 -38 66 C-42.8441179 73.19697517 -44.68645156 80.35071037 -44 89 C-41.29653272 96.84005511 -37.06406066 103.53971707 -30 108 C-20.21700836 112.72995368 -9.65818086 115.21728555 0.8125 117.9375 C23.10084442 123.72875654 45.47649523 129.78090481 59 150 C66.27994256 164.2718874 70.40564693 180.21331219 65.65625 196.015625 C64.27818151 200.08684973 62.69826349 204.05254826 61 208 C60.34 208 59.68 208 59 208 C58.75121094 208.72445312 58.50242187 209.44890625 58.24609375 210.1953125 C53.16152123 221.63958543 41.4464501 228.3846632 30.3125 232.8125 C22.87044741 235.4898775 17.04237786 237 9 237 C9 242.94 9 248.88 9 255 C8.34 255 7.68 255 7 255 C6.773125 255.763125 6.54625 256.52625 6.3125 257.3125 C4.63735151 260.74256596 3.53786617 261.56979878 0 263 C-4.028268 263.75577261 -7.43140619 263.88956171 -11.06640625 261.828125 C-14.6448303 258.92952682 -16.68374492 256.48408429 -18 252 C-18.13710218 249.35392791 -18.19062972 246.82530987 -18.125 244.1875 C-18.11597656 243.49462891 -18.10695313 242.80175781 -18.09765625 242.08789062 C-18.07426157 240.39177605 -18.03839641 238.69584129 -18 237 C-18.71542969 236.97421875 -19.43085938 236.9484375 -20.16796875 236.921875 C-36.74379479 235.97836097 -51.2010288 230.0184834 -62.73828125 217.88671875 C-70.25797611 208.28904258 -75.464572 196.30240483 -74 184 C-72.24270624 180.21505959 -70.70454223 178.52001926 -67.375 176.0625 C-62.68322589 174.58546 -58.74176349 174.715442 -54 176 C-49.57934541 179.19792034 -47.73661021 182.88156991 -46 188 C-45.8125 190.9375 -45.8125 190.9375 -46 193 C-45.34 193 -44.68 193 -44 193 C-42.703125 194.79296875 -42.703125 194.79296875 -41.25 197.1875 C-36.7710707 204.07899267 -31.93462288 207.7508564 -24 210 C-21.17285412 210.394943 -18.39872519 210.44505604 -15.546875 210.43359375 C-14.765401 210.4388356 -13.983927 210.44407745 -13.17877197 210.44947815 C-11.53504617 210.45586038 -9.89127446 210.45461099 -8.24755859 210.44604492 C-5.76965292 210.43756724 -3.29408319 210.46629441 -0.81640625 210.49804688 C10.80110453 210.54964463 21.88872593 209.51718311 31.24609375 201.83984375 C36.80924051 196.00411519 39.637424 189.71348794 40.25 181.75 C39.72727703 173.90915548 36.9701669 166.77208916 31.19921875 161.2890625 C17.241158 149.60205734 -2.03882195 145.42057381 -19.265625 140.84765625 C-31.39815163 137.62062576 -42.97267881 132.6690793 -53 125 C-53.74636719 124.46375 -54.49273437 123.9275 -55.26171875 123.375 C-65.83963774 115.04197044 -71.16734621 102.08011723 -73 89 C-74.23416784 76.04123763 -69.748483 62.54556055 -61.92578125 52.27734375 C-50.57125737 39.1393868 -38.09839026 32.76723948 -21 30 C-20.01 30 -19.02 30 -18 30 C-18.02094727 29.42556152 -18.04189453 28.85112305 -18.06347656 28.25927734 C-18.14713764 25.63136626 -18.1988146 23.0037361 -18.25 20.375 C-18.28351563 19.47136719 -18.31703125 18.56773438 -18.3515625 17.63671875 C-18.45623977 10.46632548 -16.70859313 6.94075826 -11.8125 1.625 C-7.80368617 -0.69120355 -4.51576675 -1.01848139 0 0 Z "
        fill="#FAC12F"
        transform="translate(316,70)"
    />
<path
        d="M0 0 C3.96329484 1.30388349 6.77324997 3.38829613 9.06236267 6.88766479 C9.84518063 9.12799466 10.06941334 10.9147925 10.08189392 13.28610229 C10.09865173 14.01571167 10.11540955 14.74532104 10.13267517 15.49703979 C9.06540131 22.58924672 4.10863758 27.00096522 -0.74378967 31.81246948 C-1.50672836 32.58066513 -2.26966705 33.34886078 -3.0557251 34.14033508 C-5.57268381 36.67046787 -8.10042251 39.18950381 -10.62904358 41.70797729 C-12.38441652 43.46537149 -14.13934395 45.22321079 -15.8938446 46.98147583 C-19.56927251 50.66132342 -23.2500641 54.33569792 -26.93470764 58.00631714 C-30.71861597 61.77652422 -34.49596249 65.55306146 -38.26576233 69.33737183 C-42.82044597 73.9094354 -47.38238408 78.4741151 -51.95065689 83.0326004 C-53.69040328 84.77034507 -55.42792256 86.51032234 -57.16317368 88.25255585 C-59.58781111 90.68480637 -62.02184811 93.10724158 -64.45863342 95.52731323 C-65.17465225 96.24940475 -65.89067108 96.97149628 -66.62838745 97.71546936 C-73.79115087 104.78742325 -73.79115087 104.78742325 -79.51185608 104.99313354 C-80.61013733 104.85971558 -80.61013733 104.85971558 -81.73060608 104.72360229 C-82.46279358 104.64754761 -83.19498108 104.57149292 -83.94935608 104.49313354 C-89.71964246 103.02092007 -93.49496072 98.95577286 -97.54310608 94.84860229 C-98.09289124 94.30655151 -98.64267639 93.76450073 -99.2091217 93.20602417 C-103.23060608 89.16455726 -103.23060608 89.16455726 -103.23060608 86.91110229 C-104.22060608 86.58110229 -105.21060608 86.25110229 -106.23060608 85.91110229 C-107.65711975 84.45675659 -107.65711975 84.45675659 -109.21107483 82.54782104 C-112.20485255 79.01716286 -115.3539478 75.73744558 -118.65638733 72.49313354 C-119.13389435 72.02366302 -119.61140137 71.5541925 -120.1033783 71.07049561 C-122.08529982 69.12432455 -124.07054344 67.18175985 -126.06483459 65.2482605 C-127.53966712 63.8158315 -129.00481417 62.37404676 -130.46888733 60.93063354 C-131.33554016 60.08605591 -132.20219299 59.24147827 -133.09510803 58.37130737 C-135.72404766 55.34263187 -137.07857532 52.70379831 -137.41810608 48.70016479 C-136.97679254 43.60667109 -135.83186766 39.90601471 -132.23841858 36.16500854 C-128.23642933 33.66571176 -123.72839368 34.03934009 -119.23060608 34.91110229 C-114.33579945 36.85509406 -111.49625897 39.41482904 -108.04310608 43.34860229 C-107.08364406 44.42688161 -106.12400346 45.50500205 -105.16419983 46.58297729 C-104.6793512 47.13405151 -104.19450256 47.68512573 -103.69496155 48.25289917 C-101.36149815 50.89526052 -98.98608678 53.49862381 -96.60560608 56.09860229 C-96.15507874 56.5919104 -95.70455139 57.08521851 -95.2403717 57.59347534 C-91.03873056 62.16982869 -86.67195893 66.56844618 -82.23060608 70.91110229 C-79.40983821 69.63041193 -77.40077184 68.31784611 -75.25552368 66.08905029 C-74.4172126 65.22668259 -74.4172126 65.22668259 -73.56196594 64.34689331 C-72.96092041 63.71823364 -72.35987488 63.08957397 -71.74061584 62.44186401 C-70.4082095 61.06678852 -69.07573243 59.69178155 -67.74319458 58.3168335 C-67.03980516 57.58736385 -66.33641575 56.85789421 -65.6117115 56.10631943 C-61.87453697 52.23972453 -58.10551792 48.40430823 -54.3419342 44.56344604 C-49.55787511 39.67759723 -44.78378057 34.78314215 -40.04432678 29.85397339 C-36.21017437 25.86802521 -32.3446826 21.91496554 -28.45663261 17.98160172 C-26.98447961 16.48050304 -25.52407623 14.9677833 -24.07615852 13.44329453 C-10.42808632 -0.90539867 -10.42808632 -0.90539867 0 0 Z "
        fill="#FAC02E"
        transform="translate(225.23060607910156,504.0888977050781)"
    />
<path
        d="M0 0 C0.495 0.99 0.495 0.99 1 2 C0.67 2.66 0.34 3.32 0 4 C-13.67027782 3.39584249 -27.33646863 2.74155424 -41 2 C-41 1.67 -41 1.34 -41 1 C-27.32060126 0.26908428 -13.69890638 -0.14236739 0 0 Z "
        fill="#FCF4DD"
        transform="translate(341,0)"
    />
<path
        d="M0 0 C0 3.81085813 -0.91020616 4.29554999 -3.54296875 6.94140625 C-4.28740234 7.68970703 -5.03183594 8.43800781 -5.79882812 9.20898438 C-6.58708984 9.98564453 -7.37535156 10.76230469 -8.1875 11.5625 C-8.95642578 12.34302734 -9.72535156 13.12355469 -10.51757812 13.92773438 C-11.26845703 14.67474609 -12.01933594 15.42175781 -12.79296875 16.19140625 C-13.82200317 17.21536499 -13.82200317 17.21536499 -14.87182617 18.26000977 C-17.15190068 20.12419366 -19.22564274 21.05502903 -22 22 C-16.14002525 13.47206927 -9.03417015 5.23030903 0 0 Z "
        fill="#FAC43F"
        transform="translate(78,439)"
    />
<path
        d="M0 0 C4.97306516 0.49730652 8.63799813 1.55302334 13 4 C13 4.66 13 5.32 13 6 C3.40546697 3.10933941 3.40546697 3.10933941 0 0 Z "
        fill="#FAC84D"
        transform="translate(198,444)"
    />
<path
        d="M0 0 C0.66 0 1.32 0 2 0 C2.67154933 1.28913487 3.33708859 2.58140204 4 3.875 C4.37125 4.59429688 4.7425 5.31359375 5.125 6.0546875 C6 8 6 8 6 10 C3 9 3 9 1.3125 6.125 C0 3 0 3 0 0 Z "
        fill="#FAC648"
        transform="translate(62,588)"
    />
<path
        d="M0 0 C1.46067199 0.45082469 2.91848032 0.91093537 4.375 1.375 C5.18710937 1.63023437 5.99921875 1.88546875 6.8359375 2.1484375 C9 3 9 3 11 5 C8 6 8 6 4.375 4.75 C1 3 1 3 0 0 Z "
        fill="#FBC84C"
        transform="translate(287,179)"
    />
<path
        d="M0 0 C1.80411967 2.75924185 2.0127245 3.88972103 1.625 7.25 C1.41875 8.1575 1.2125 9.065 1 10 C0.34 10 -0.32 10 -1 10 C-1.33 10.66 -1.66 11.32 -2 12 C-1 3.42857143 -1 3.42857143 0 0 Z "
        fill="#FACA50"
        transform="translate(116,152)"
    />
<path
        d="M0 0 C0.66 0.33 1.32 0.66 2 1 C0.63016497 4.16115776 0.0109362 4.9927092 -3 7 C-3 3 -3 3 -1.5 1.25 C-1.005 0.8375 -0.51 0.425 0 0 Z "
        fill="#FAC440"
        transform="translate(474,382)"
    />
<path
        d="M0 0 C0.66 0.33 1.32 0.66 2 1 C-0.64 3.64 -3.28 6.28 -6 9 C-6.66 8.67 -7.32 8.34 -8 8 C-5.33333333 5.33333333 -2.66666667 2.66666667 0 0 Z "
        fill="#FCF1D3"
        transform="translate(284,130)"
    />
<path
        d="M0 0 C2.31 0.33 4.62 0.66 7 1 C7.33 1.99 7.66 2.98 8 4 C5.36 3.34 2.72 2.68 0 2 C0 1.34 0 0.68 0 0 Z "
        fill="#FBC74A"
        transform="translate(189,440)"
    />
</svg>
