<svg width="800" height="800" viewBox="0 0 800 800" fill="none" xmlns="http://www.w3.org/2000/svg">
<g clip-path="url(#clip0_1_81)">
<path d="M375.482 12.2468C377.217 12.7657 378.954 13.2758 380.694 13.7786C381.568 14.0334 382.443 14.2882 383.344 14.5508C384.127 14.7768 384.91 15.0028 385.717 15.2356C389.02 16.3413 392.031 17.8756 395.109 19.4922C397.315 20.6426 399.524 21.7443 401.766 22.8203C410.322 26.95 418.239 31.4782 426 37C427.35 37.9204 427.35 37.9204 428.727 38.8594C436.451 44.2462 443.243 50.4786 450 57C450.647 57.6197 451.294 58.2394 451.96 58.8779C484.699 90.3682 505.81 130.782 512 176C512.096 176.698 512.191 177.397 512.29 178.116C513.276 186.463 513.244 194.857 513.25 203.25C513.251 204.048 513.251 204.846 513.252 205.669C513.226 225.474 510.824 244.033 505 263C504.785 263.704 504.57 264.408 504.349 265.133C499.337 281.162 492.141 296.908 483 311C482.495 311.849 481.989 312.699 481.469 313.574C476.732 321.405 471.04 328.166 465 335C464.188 335.924 463.376 336.849 462.539 337.801C454.918 346.371 447.042 353.922 438 361C437.448 361.434 436.896 361.867 436.328 362.314C427.08 369.519 417.426 375.399 407.075 380.882C405.19 381.897 403.34 382.953 401.496 384.039C394.848 387.873 388.58 390.194 381.121 391.973C377.347 392.875 373.68 394.027 369.986 395.21C329.926 407.942 283.52 407.972 244 393C243.384 392.774 242.769 392.549 242.135 392.316C214.77 382.246 191.057 367.077 170 347C169.22 346.273 168.44 345.546 167.637 344.797C145.31 323.382 130.808 295.581 120 267C119.588 265.921 119.175 264.842 118.75 263.73C113.472 248.988 110.86 233.145 110.797 217.539C110.791 216.435 110.785 215.331 110.78 214.194C110.77 211.859 110.764 209.524 110.76 207.189C110.75 203.671 110.719 200.154 110.688 196.637C110.628 184.063 111.205 172.267 114 160C114.183 159.08 114.366 158.161 114.554 157.213C121.629 121.846 141.255 88.1846 166.403 62.6279C167.836 61.1668 169.246 59.6825 170.652 58.1953C176.903 51.6915 183.743 46.3125 191 41C192.249 40.0757 192.249 40.0757 193.523 39.1328C206.527 29.7583 220.418 22.5631 235 16C236.151 15.4702 237.302 14.9404 238.488 14.3945C242.661 12.7373 246.829 11.6158 251.188 10.5625C252.057 10.35 252.926 10.1376 253.822 9.9187C295.485 -0.108999 334.217 -0.131073 375.482 12.2468ZM179.497 86.6333C176.856 89.6505 174.398 92.7884 172 96C171.456 96.7013 170.912 97.4025 170.352 98.125C167.613 101.664 167.613 101.664 167 106C166.34 106 165.68 106 165 106C155.95 121.689 147.712 137.421 143 155C142.606 156.332 142.606 156.332 142.203 157.691C137.062 176.131 136.464 194.989 137 214C137.019 215.208 137.039 216.416 137.059 217.66C138.062 240.738 146.09 263.854 157 284C157.36 284.678 157.72 285.357 158.091 286.056C167.38 303.526 179.476 320.512 195 333C196.44 334.227 197.879 335.454 199.319 336.682C216.284 351.045 235.094 361.556 256 369C257.061 369.383 257.061 369.383 258.144 369.773C291.543 381.615 331.621 381.755 365 370C366.148 369.606 366.148 369.606 367.32 369.204C380.314 364.703 392.263 359.16 404 352C405.098 351.331 406.197 350.662 407.328 349.973C415.13 344.979 422.085 339.131 429 333C429.559 332.509 430.118 332.019 430.694 331.514C438.228 324.877 444.938 318.046 451 310C451.799 308.966 452.598 307.932 453.422 306.867C460.006 298.154 465.114 288.834 469.969 279.068C470.803 277.396 471.661 275.737 472.527 274.082C491.576 235.802 490.898 186.849 478.035 147.012C477.085 144.313 476.061 141.657 475 139C474.482 137.625 474.482 137.625 473.953 136.223C464.878 113.069 448.834 90.3277 430 74C429.34 74 428.68 74 428 74C427.67 73.01 427.34 72.02 427 71C424.685 69.0425 422.377 67.2272 419.938 65.4375C418.866 64.6445 418.866 64.6445 417.772 63.8354C406.818 55.8346 395.376 48.599 383 43C382.391 42.7206 381.783 42.4412 381.156 42.1533C369.751 36.9749 358.239 33.5904 346 31C345.256 30.8348 344.512 30.6697 343.746 30.4995C283.861 17.5503 220.241 42.369 179.497 86.6333Z" fill="#FAC12F"/>
<path d="M721.29 213.491C727.508 213.532 731.291 213.794 736 218C740.317 222.912 740.142 227.625 740.123 233.896C740.125 234.822 740.125 235.747 740.126 236.7C740.129 239.83 740.125 242.959 740.121 246.089C740.121 248.344 740.121 250.599 740.122 252.854C740.125 259.072 740.121 265.29 740.116 271.509C740.112 277.519 740.113 283.529 740.114 289.539C740.115 301.837 740.112 314.136 740.106 326.435C740.1 338.615 740.096 350.795 740.095 362.976C740.095 363.732 740.095 364.49 740.095 365.27C740.095 369.112 740.094 372.955 740.094 376.798C740.092 404.033 740.085 431.268 740.076 458.503C740.066 484.965 740.059 511.427 740.055 537.889C740.055 539.111 740.054 539.112 740.054 540.359C740.053 548.547 740.051 556.735 740.05 564.923C740.048 581.603 740.045 598.284 740.042 614.965C740.042 615.732 740.043 616.499 740.042 617.289C740.033 668.526 740.017 719.763 740 771C740.847 770.979 741.694 770.958 742.567 770.937C745.731 770.868 748.896 770.818 752.061 770.78C753.427 770.76 754.792 770.733 756.158 770.698C758.128 770.649 760.1 770.629 762.071 770.609C763.254 770.588 764.437 770.567 765.657 770.546C769.695 771.094 771.831 772.491 775 775C777.753 779.006 777.538 783.31 777 788C775.235 792.181 772.829 794.599 769 797C765.617 797.593 762.272 797.536 758.844 797.503C757.807 797.509 756.769 797.515 755.701 797.521C752.202 797.536 748.704 797.522 745.206 797.508C742.681 797.512 740.157 797.519 737.632 797.527C732.132 797.541 726.632 797.54 721.131 797.53C712.952 797.515 704.772 797.523 696.593 797.535C681.986 797.556 667.38 797.555 652.773 797.543C639.99 797.533 627.207 797.53 614.424 797.535C613.577 797.535 612.73 797.536 611.857 797.536C608.418 797.537 604.978 797.539 601.539 797.54C569.264 797.552 536.988 797.541 504.712 797.52C476.026 797.501 447.339 797.502 418.653 797.521C386.438 797.543 354.224 797.551 322.009 797.539C318.576 797.538 315.143 797.536 311.71 797.535C310.865 797.535 310.019 797.535 309.148 797.534C296.372 797.53 283.597 797.535 270.822 797.545C256.297 797.556 241.772 797.554 227.247 797.532C219.115 797.52 210.982 797.52 202.849 797.535C196.785 797.545 190.72 797.534 184.656 797.515C182.196 797.51 179.736 797.513 177.277 797.522C173.945 797.535 170.614 797.522 167.282 797.503C166.317 797.512 165.353 797.523 164.359 797.532C158.748 797.469 155.406 796.826 151 793C147.887 788.33 148.272 783.464 149 778C150.628 774.77 152.722 772.639 156 771C158.554 770.913 161.08 770.884 163.633 770.902C164.761 770.904 164.761 770.904 165.912 770.906C168.316 770.912 170.721 770.925 173.125 770.938C174.754 770.943 176.383 770.947 178.012 770.951C182.008 770.962 186.004 770.979 190 771C189.994 770.387 189.987 769.774 189.98 769.143C189.913 762.751 189.868 756.359 189.835 749.968C189.82 747.584 189.8 745.199 189.774 742.815C189.737 739.385 189.721 735.954 189.707 732.523C189.692 731.461 189.677 730.398 189.661 729.303C189.659 722.439 190.46 718.016 195 712.625C199.589 710.14 203.901 710.125 209 711C213.125 713.062 214.942 715.882 217 720V771H349L348.895 707.809C348.88 694.624 348.865 681.44 348.854 668.256C348.848 661.332 348.842 654.408 348.835 647.483C348.835 646.616 348.833 645.748 348.832 644.854C348.819 630.841 348.797 616.829 348.769 602.816C348.741 588.437 348.724 574.057 348.718 559.678C348.714 550.804 348.701 541.931 348.676 533.058C348.66 526.974 348.656 520.89 348.66 514.806C348.662 511.295 348.658 507.784 348.642 504.273C348.627 500.466 348.631 496.659 348.639 492.852C348.63 491.744 348.622 490.636 348.613 489.494C348.647 483.549 349.068 479.221 352 474C357.079 469.133 362.139 469.451 368.779 469.546C369.853 469.545 370.926 469.545 372.033 469.544C375.572 469.547 379.11 469.578 382.649 469.609C385.106 469.617 387.564 469.623 390.021 469.627C396.482 469.642 402.943 469.681 409.404 469.726C416 469.767 422.596 469.785 429.192 469.805C442.128 469.848 455.064 469.915 468 470C467.99 468.535 467.99 468.535 467.98 467.041C467.919 457.831 467.874 448.621 467.844 439.41C467.829 434.675 467.808 429.94 467.774 425.205C467.741 420.634 467.723 416.062 467.715 411.491C467.71 409.749 467.699 408.007 467.683 406.265C467.661 403.821 467.658 401.378 467.66 398.934C467.643 397.858 467.643 397.857 467.626 396.76C467.655 392.101 468.561 388.961 471 385C475.434 380.794 478.8 379.873 484.771 379.88C485.727 379.879 486.683 379.877 487.668 379.876C489.232 379.881 489.233 379.881 490.828 379.887C491.93 379.887 493.033 379.886 494.168 379.886C497.815 379.886 501.463 379.895 505.11 379.902C507.637 379.904 510.165 379.905 512.693 379.906C518.667 379.91 524.642 379.918 530.617 379.928C537.419 379.939 544.222 379.944 551.025 379.949C565.017 379.96 579.009 379.978 593 380C592.998 379.207 592.994 378.413 592.992 377.596C592.925 358.291 592.875 338.987 592.844 319.683C592.829 310.347 592.808 301.011 592.774 291.676C592.744 283.539 592.725 275.402 592.718 267.265C592.714 262.956 592.705 258.648 592.683 254.34C592.663 250.284 592.656 246.227 592.661 242.171C592.66 240.683 592.654 239.195 592.642 237.708C592.627 235.674 592.633 233.639 592.639 231.605C592.636 230.468 592.634 229.331 592.631 228.159C593.204 223.26 594.896 220.021 598.5 216.688C602.13 214.237 604.829 213.872 609.104 213.853C610.687 213.842 610.688 213.842 612.303 213.831C613.461 213.828 614.619 213.826 615.812 213.823C617.641 213.813 617.642 213.813 619.508 213.803C623.554 213.783 627.599 213.772 631.645 213.762C633.039 213.758 634.432 213.753 635.826 213.749C642.374 213.73 648.922 213.716 655.47 213.708C663.024 213.698 670.579 213.671 678.133 213.631C683.975 213.601 689.818 213.586 695.66 213.583C699.147 213.581 702.635 213.572 706.122 213.547C710.015 213.519 713.908 213.523 717.8 213.53C718.952 213.517 720.104 213.504 721.29 213.491ZM375 496V771H468V496H375ZM494 771H594V407H494V771ZM620 771H714V240H620V771Z" fill="#FAC02E"/>
<path d="M246 441C246 441.66 246 442.32 246 443C246.581 443.264 247.163 443.529 247.762 443.801C251.678 445.899 254.747 449.006 258 452C258.853 452.772 258.853 452.772 259.723 453.559C280.005 472.786 293.956 504.47 295.145 532.412C295.166 535.745 295.186 539.078 295.185 542.41C295.187 544.532 295.206 546.654 295.225 548.775C295.361 580.454 283.569 609.996 263 634C262.34 634 261.68 634 261 634C260.621 634.862 260.621 634.862 260.234 635.742C249.449 655.469 218.231 668.413 198.09 674.695C186.484 677.871 174.929 678.4 162.973 678.426C160.399 678.437 157.827 678.487 155.254 678.537C123.379 678.846 93.2907 664.443 70.2539 643.043C68.6597 641.598 67.011 640.212 65.3281 638.871C63.0812 637.065 61.5378 635.428 60 633C60 632.34 60 631.68 60 631C59.34 631 58.68 631 58 631C47.3406 619.357 39.8964 604.967 34.75 590.188C34.3982 589.195 34.3982 589.195 34.0393 588.182C29.5987 574.622 28.4147 560.671 28.5 546.5C28.5015 545.725 28.5029 544.95 28.5044 544.152C28.6707 507.461 41.2891 474.486 67 448C73.3203 441.771 80.6327 436.888 88 432C88.7889 431.464 89.5778 430.928 90.3906 430.375C137.358 400.158 203.54 404.864 246 441ZM134 441C132.844 441.24 131.687 441.48 130.496 441.727C125.305 442.909 120.643 444.352 115.973 446.922C114 448 114 448 111.746 449.016C88.3257 459.692 69.8148 482.276 60.8555 506.035C53.8718 527.143 51.1938 552.545 58 574C58.2079 574.672 58.4157 575.343 58.6299 576.035C63.0676 589.947 69.5184 602.865 79 614C79.7232 614.896 80.4464 615.792 81.1914 616.715C96.411 634.664 117.538 646.995 140.82 650.605C143 651 143 651 145 652C147.481 652.086 149.933 652.116 152.414 652.098C153.509 652.096 153.509 652.096 154.625 652.093C156.958 652.088 159.292 652.075 161.625 652.062C163.206 652.057 164.786 652.053 166.367 652.049C170.245 652.038 174.122 652.021 178 652C178 651.34 178 650.68 178 650C179.763 650.155 179.763 650.155 181.563 650.312C203.996 650.173 226.06 632.473 241.034 617.391C248.673 609.429 260.543 596.442 261.152 585.188C261.102 584.466 261.052 583.744 261 583C261.66 583 262.32 583 263 583C263.277 582.024 263.554 581.048 263.84 580.043C264.206 578.758 264.572 577.473 264.938 576.188C265.297 574.923 265.657 573.658 266.027 572.355C266.645 570.225 267.299 568.104 268 566C271.887 533.85 266.352 506.115 246.777 480.039C244.591 477.285 242.335 474.629 240 472C238.88 470.737 238.88 470.737 237.738 469.449C223.534 454.352 204.017 444.689 184 440C183.151 439.776 182.301 439.551 181.426 439.32C165.962 435.776 149.324 437.727 134 441Z" fill="#FAC02F"/>
<path d="M316 70C319.612 71.9914 323.123 74.2452 325 78C325.152 79.6657 325.249 81.3366 325.316 83.0078C325.358 83.9939 325.4 84.9801 325.443 85.9961C325.483 87.0286 325.522 88.0612 325.562 89.125C325.606 90.1653 325.649 91.2055 325.693 92.2773C325.8 94.8514 325.902 97.4256 326 100C326.871 100.159 327.743 100.317 328.641 100.48C346.292 103.938 359.735 110.928 370.293 125.824C376.288 134.919 379.961 142.955 379 154C378.34 154 377.68 154 377 154C376.66 155.145 376.66 155.145 376.312 156.312C374.622 159.774 373.59 160.579 370 162C364.814 162.788 361.409 162.938 356.937 159.961C353.517 156.879 351.796 153.276 349.937 149.125C345.311 138.959 345.311 138.959 337.562 131.125C337.028 130.736 336.493 130.346 335.941 129.945C330.924 127.502 325.073 127.815 319.602 127.762C318.411 127.75 318.411 127.75 317.196 127.737C315.524 127.723 313.851 127.713 312.179 127.705C310.48 127.693 308.781 127.673 307.082 127.643C304.609 127.6 302.137 127.584 299.664 127.574C298.915 127.557 298.166 127.539 297.394 127.521C289.825 127.552 283.42 130.73 278 136C273.156 143.197 271.314 150.351 272 159C274.703 166.84 278.936 173.54 286 178C295.783 182.73 306.342 185.217 316.812 187.937C339.101 193.729 361.476 199.781 375 220C382.28 234.272 386.406 250.213 381.656 266.016C380.278 270.087 378.698 274.053 377 278C376.34 278 375.68 278 375 278C374.751 278.724 374.502 279.449 374.246 280.195C369.162 291.64 357.446 298.385 346.312 302.812C338.87 305.49 333.042 307 325 307C325 312.94 325 318.88 325 325C324.34 325 323.68 325 323 325C322.773 325.763 322.546 326.526 322.312 327.312C320.637 330.743 319.538 331.57 316 333C311.972 333.756 308.569 333.89 304.934 331.828C301.355 328.93 299.316 326.484 298 322C297.863 319.354 297.809 316.825 297.875 314.188C297.884 313.495 297.893 312.802 297.902 312.088C297.926 310.392 297.962 308.696 298 307C297.285 306.974 296.569 306.948 295.832 306.922C279.256 305.978 264.799 300.018 253.262 287.887C245.742 278.289 240.535 266.302 242 254C243.757 250.215 245.295 248.52 248.625 246.062C253.317 244.585 257.258 244.715 262 246C266.421 249.198 268.263 252.882 270 258C270.187 260.938 270.187 260.938 270 263C270.66 263 271.32 263 272 263C273.297 264.793 273.297 264.793 274.75 267.188C279.229 274.079 284.065 277.751 292 280C294.827 280.395 297.601 280.445 300.453 280.434C301.235 280.439 302.016 280.444 302.821 280.449C304.465 280.456 306.109 280.455 307.752 280.446C310.23 280.438 312.706 280.466 315.184 280.498C326.801 280.55 337.889 279.517 347.246 271.84C352.809 266.004 355.637 259.713 356.25 251.75C355.727 243.909 352.97 236.772 347.199 231.289C333.241 219.602 313.961 215.421 296.734 210.848C284.602 207.621 273.027 202.669 263 195C262.254 194.464 261.507 193.927 260.738 193.375C250.16 185.042 244.833 172.08 243 159C241.766 146.041 246.252 132.546 254.074 122.277C265.429 109.139 277.902 102.767 295 100C295.99 100 296.98 100 298 100C297.979 99.4256 297.958 98.8511 297.937 98.2593C297.853 95.6314 297.801 93.0037 297.75 90.375C297.716 89.4714 297.683 88.5677 297.648 87.6367C297.544 80.4663 299.291 76.9408 304.187 71.625C308.196 69.3088 311.484 68.9815 316 70Z" fill="#FAC12F"/>
<path d="M225.231 504.089C229.194 505.393 232.004 507.477 234.293 510.977C235.076 513.217 235.3 515.004 235.312 517.375C235.329 518.105 235.346 518.834 235.363 519.586C234.296 526.678 229.339 531.09 224.487 535.901C223.724 536.67 222.961 537.438 222.175 538.229C219.658 540.759 217.13 543.278 214.602 545.797C212.846 547.554 211.091 549.312 209.337 551.07C205.661 554.75 201.981 558.425 198.296 562.095C194.512 565.865 190.735 569.642 186.965 573.426C182.41 577.998 177.848 582.563 173.28 587.121C171.54 588.859 169.803 590.599 168.067 592.341C165.643 594.774 163.209 597.196 160.772 599.616C160.056 600.338 159.34 601.06 158.602 601.804C151.439 608.876 151.439 608.876 145.719 609.082C144.62 608.949 144.62 608.949 143.5 608.812C142.768 608.736 142.036 608.66 141.281 608.582C135.511 607.11 131.736 603.045 127.688 598.937C127.138 598.395 126.588 597.853 126.021 597.295C122 593.253 122 593.253 122 591C121.01 590.67 120.02 590.34 119 590C117.573 588.546 117.573 588.546 116.02 586.637C113.026 583.106 109.877 579.826 106.574 576.582C106.097 576.113 105.619 575.643 105.127 575.159C103.145 573.213 101.16 571.271 99.1658 569.337C97.6909 567.905 96.2258 566.463 94.7617 565.02C93.8951 564.175 93.0284 563.33 92.1355 562.46C89.5066 559.432 88.152 556.793 87.8125 552.789C88.2538 547.696 89.3987 543.995 92.9922 540.254C96.9942 537.755 101.502 538.128 106 539C110.895 540.944 113.734 543.504 117.188 547.437C118.147 548.516 119.107 549.594 120.066 550.672C120.551 551.223 121.036 551.774 121.536 552.342C123.869 554.984 126.245 557.588 128.625 560.187C129.076 560.681 129.526 561.174 129.99 561.682C134.192 566.259 138.559 570.657 143 575C145.821 573.719 147.83 572.407 149.975 570.178C150.813 569.316 150.813 569.316 151.669 568.436C152.27 567.807 152.871 567.178 153.49 566.531C154.822 565.156 156.155 563.781 157.487 562.406C158.191 561.676 158.894 560.947 159.619 560.195C163.356 556.329 167.125 552.493 170.889 548.652C175.673 543.766 180.447 538.872 185.186 533.943C189.02 529.957 192.886 526.004 196.774 522.07C198.246 520.569 199.707 519.057 201.154 517.532C214.803 503.183 214.803 503.183 225.231 504.089Z" fill="#FAC02E"/>
<path d="M341 -2.00979e-06C341.495 0.989998 341.495 0.989998 342 2C341.67 2.66 341.34 3.32 341 4C327.33 3.39584 313.664 2.74155 300 2C300 1.67 300 1.34 300 0.999998C313.679 0.269082 327.301 -0.142369 341 -2.00979e-06Z" fill="#FCF4DD"/>
<path d="M78 439C78 442.811 77.0898 443.296 74.457 445.941C73.7126 446.69 72.9682 447.438 72.2012 448.209C71.4129 448.986 70.6246 449.762 69.8125 450.562C69.0436 451.343 68.2746 452.124 67.4824 452.928C66.7315 453.675 65.9807 454.422 65.207 455.191C64.178 456.215 64.178 456.215 63.1282 457.26C60.8481 459.124 58.7744 460.055 56 461C61.86 452.472 68.9658 444.23 78 439Z" fill="#FAC43F"/>
<path d="M198 444C202.973 444.497 206.638 445.553 211 448C211 448.66 211 449.32 211 450C201.405 447.109 201.405 447.109 198 444Z" fill="#FAC84D"/>
<path d="M62 588C62.66 588 63.32 588 64 588C64.6715 589.289 65.3371 590.581 66 591.875C66.3713 592.594 66.7425 593.314 67.125 594.055C68 596 68 596 68 598C65 597 65 597 63.3125 594.125C62 591 62 591 62 588Z" fill="#FAC648"/>
<path d="M287 179C288.461 179.451 289.918 179.911 291.375 180.375C292.187 180.63 292.999 180.885 293.836 181.148C296 182 296 182 298 184C295 185 295 185 291.375 183.75C288 182 288 182 287 179Z" fill="#FBC84C"/>
<path d="M116 152C117.804 154.759 118.013 155.89 117.625 159.25C117.419 160.158 117.213 161.065 117 162C116.34 162 115.68 162 115 162C114.67 162.66 114.34 163.32 114 164C115 155.429 115 155.429 116 152Z" fill="#FACA50"/>
<path d="M474 382C474.66 382.33 475.32 382.66 476 383C474.63 386.161 474.011 386.993 471 389C471 385 471 385 472.5 383.25C472.995 382.838 473.49 382.425 474 382Z" fill="#FAC440"/>
<path d="M284 130C284.66 130.33 285.32 130.66 286 131C283.36 133.64 280.72 136.28 278 139C277.34 138.67 276.68 138.34 276 138C278.667 135.333 281.333 132.667 284 130Z" fill="#FCF1D3"/>
<path d="M189 440C191.31 440.33 193.62 440.66 196 441C196.33 441.99 196.66 442.98 197 444C194.36 443.34 191.72 442.68 189 442C189 441.34 189 440.68 189 440Z" fill="#FBC74A"/>
</g>
<defs>
<clipPath id="clip0_1_81">
<rect width="800" height="800" fill="white"/>
</clipPath>
</defs>
</svg>
