<svg width="420" height="333" viewBox="0 0 420 333" fill="none" xmlns="http://www.w3.org/2000/svg">
<path d="M391.709 139.689C396.049 143.269 399.626 146.052 402.439 148.039C405.539 150.239 408.749 150.279 411.709 147.529C416.049 143.489 421.759 134.839 416.249 129.599C416.209 129.559 404.442 119.902 380.949 100.629C374.056 94.9685 369.619 91.2085 367.639 89.3485C366.592 88.3685 366.076 86.9786 366.089 85.1786C366.162 73.8652 366.139 56.7085 366.019 33.7085C366.012 32.1619 365.756 30.8652 365.249 29.8185C364.966 29.232 364.527 28.7354 363.979 28.3841C363.432 28.0328 362.798 27.8405 362.149 27.8285C351.462 27.6285 339.512 27.5285 326.299 27.5285C323.526 27.5219 322.116 28.9652 322.069 31.8585C321.976 37.7519 321.932 44.6485 321.939 52.5485C321.939 52.6357 321.915 52.7213 321.869 52.7952C321.823 52.8692 321.757 52.9285 321.678 52.9662C321.599 53.0039 321.512 53.0185 321.425 53.0083C321.339 52.9981 321.257 52.9635 321.189 52.9085C305.656 40.3685 291.876 29.3686 279.849 19.9086C277.202 17.8286 275.246 16.5686 273.979 16.1286C273.643 16.01 273.285 15.9656 272.929 15.9985C271.036 16.1385 269.516 16.7052 268.369 17.6985C257.796 26.8052 244.026 39.1185 227.059 54.6385C225.952 55.6519 224.146 57.1185 221.639 59.0385C221.6 59.0701 221.553 59.0916 221.503 59.1011C221.454 59.1106 221.403 59.1079 221.354 59.0931C221.306 59.0783 221.262 59.0519 221.226 59.0163C221.19 58.9806 221.164 58.9368 221.149 58.8885C217.369 47.2552 210.969 37.1419 201.949 28.5485C193.459 20.4685 181.859 14.1185 169.859 14.1085C167.666 14.1019 166.029 14.0119 164.949 13.8385C164.509 13.7664 164.097 13.5877 163.749 13.3185C154.809 6.5252 145.146 2.58188 134.759 1.48855C124.646 0.421884 114.612 1.10188 104.659 3.52854C88.279 7.50854 72.6089 14.3785 59.4189 24.7585C41.2723 39.0385 29.7123 57.9519 24.7389 81.4985C22.7723 90.8185 20.6056 101.615 18.2389 113.889C16.4389 123.202 14.6656 129.905 12.9189 133.999C10.7389 139.092 8.32894 144.352 5.68894 149.779C1.38227 158.619 0.0422778 167.899 1.66894 177.619C3.37561 187.885 9.00228 195.682 18.5489 201.009C22.8589 203.419 29.2389 204.609 33.7989 204.149C33.934 204.134 34.0644 204.091 34.181 204.022C34.2976 203.952 34.3976 203.859 34.4738 203.747C34.5501 203.636 34.6008 203.509 34.6224 203.376C34.644 203.243 34.636 203.108 34.5989 202.979L32.2689 194.569C32.1851 194.273 32.221 193.956 32.3688 193.687C32.5166 193.417 32.7645 193.217 33.0589 193.129L33.3889 193.029C33.5629 192.966 33.7477 192.939 33.932 192.95C34.1163 192.961 34.2963 193.009 34.4611 193.091C34.6258 193.174 34.7717 193.289 34.89 193.429C35.0083 193.57 35.0964 193.733 35.1489 193.909C37.3756 201.249 41.3823 207.005 47.1689 211.179C51.5189 214.319 56.3089 217.069 61.5689 218.499C61.624 218.514 61.6734 218.545 61.7109 218.588C61.7485 218.631 61.7725 218.684 61.7799 218.74C61.7874 218.797 61.778 218.854 61.7529 218.906C61.7279 218.957 61.6882 219 61.6389 219.029C49.5489 226.349 40.2689 236.649 33.0689 249.159C25.9023 261.605 20.4689 274.995 16.7689 289.329C15.9789 292.409 14.7289 298.649 18.3489 300.149C18.6759 300.283 18.9432 300.544 19.1054 300.886C19.2676 301.229 19.3148 301.632 19.2389 302.029C17.6456 310.429 16.2489 319.229 15.0489 328.429C15.0051 328.763 15.0327 329.103 15.1299 329.427C15.227 329.75 15.3916 330.049 15.6126 330.304C15.8337 330.559 16.1063 330.764 16.4125 330.907C16.7186 331.049 17.0514 331.124 17.3889 331.129L17.7589 331.149C18.5146 331.183 19.2561 330.935 19.8386 330.453C20.4211 329.97 20.8027 329.288 20.9089 328.539L24.4889 303.549C24.4972 303.48 24.5197 303.413 24.555 303.353C24.5903 303.294 24.6377 303.242 24.6942 303.201C24.7506 303.161 24.8149 303.133 24.8828 303.118C24.9508 303.104 25.021 303.104 25.0889 303.119C36.2423 305.345 47.9356 306.799 60.1689 307.479C60.3254 307.487 60.4781 307.529 60.6171 307.602C60.7562 307.674 60.8784 307.775 60.9757 307.897C61.073 308.02 61.1431 308.162 61.1816 308.314C61.2201 308.466 61.226 308.624 61.1989 308.779L57.8689 326.989C57.7452 327.671 57.8878 328.375 58.2673 328.955C58.6468 329.535 59.2343 329.948 59.9089 330.109L60.0689 330.129C60.8902 330.262 61.7312 330.068 62.4103 329.587C63.0894 329.106 63.5523 328.378 63.6989 327.559L67.0989 308.589C67.1558 308.262 67.3228 307.965 67.572 307.747C67.8213 307.528 68.1378 307.402 68.4689 307.389C72.3556 307.229 74.7223 305.235 75.5689 301.409C77.8089 291.229 79.9723 280.212 82.0589 268.359C82.1185 268.014 82.107 267.66 82.0251 267.32C81.9431 266.98 81.7925 266.66 81.5826 266.381C81.3726 266.101 81.1078 265.868 80.8045 265.696C80.5011 265.524 80.1657 265.416 79.8189 265.379L79.6189 265.359C78.9276 265.28 78.2317 265.463 77.6689 265.872C77.1061 266.281 76.7171 266.887 76.5789 267.569L69.9389 300.329C69.8327 300.846 69.5462 301.309 69.1305 301.635C68.7148 301.961 68.1968 302.129 67.6689 302.109C52.7023 301.542 38.0089 299.605 23.5889 296.299C23.1965 296.21 22.8498 295.982 22.6141 295.656C22.3784 295.33 22.2699 294.929 22.3089 294.529C22.5356 292.302 23.0356 289.759 23.8089 286.899C26.8489 275.679 31.1656 264.822 36.7589 254.329C45.0589 238.755 57.2989 226.832 73.4789 218.559C76.9989 216.759 85.4589 214.119 87.7089 218.779C93.0289 229.765 101.392 236.962 112.799 240.369C118.912 242.195 124.399 242.649 129.259 241.729C137.669 240.149 148.159 234.189 150.469 225.109C150.624 224.528 150.567 223.908 150.309 223.359C149.629 221.909 147.049 218.999 147.319 216.539C147.337 216.376 147.396 216.222 147.49 216.089C147.585 215.956 147.712 215.849 147.859 215.779C149.079 215.212 150.326 215.165 151.599 215.639C157.659 217.865 163.709 220.155 169.749 222.509C173.322 223.895 175.942 226.159 177.609 229.299C177.742 229.544 177.78 229.83 177.716 230.103C177.651 230.375 177.489 230.616 177.259 230.779C174.689 232.629 171.259 234.849 168.819 237.389C163.459 242.975 160.299 249.655 159.339 257.429C158.846 261.422 158.836 264.959 159.309 268.039C159.328 268.162 159.303 268.288 159.239 268.395C159.175 268.501 159.076 268.58 158.959 268.619C149.259 271.819 145.899 283.179 149.849 292.119C152.502 298.119 157.136 300.505 163.749 299.279C163.984 299.233 164.228 299.271 164.439 299.386C164.65 299.501 164.816 299.685 164.909 299.909C166.176 303.002 168.092 306.042 170.659 309.029C170.786 309.177 170.853 309.367 170.85 309.562C170.846 309.758 170.771 309.945 170.639 310.089C166.399 314.689 161.839 322.199 162.029 328.649C162.089 330.659 164.639 331.949 166.149 330.759C166.689 330.325 167.126 329.442 167.459 328.109C168.746 322.995 171.259 318.242 174.999 313.849C175.224 313.586 175.533 313.41 175.872 313.353C176.211 313.297 176.557 313.362 176.849 313.539C191.129 322.019 208.169 322.109 223.559 317.139C226.349 316.229 230.759 314.099 232.569 316.199C235.056 319.092 237.329 323.065 239.389 328.119C239.849 329.252 240.532 330.052 241.439 330.519C241.671 330.638 241.926 330.708 242.187 330.724C242.448 330.74 242.709 330.701 242.954 330.611C243.2 330.521 243.424 330.381 243.612 330.199C243.8 330.018 243.949 329.8 244.049 329.559C246.059 324.739 239.049 314.539 235.809 310.819C235.761 310.764 235.724 310.7 235.701 310.631C235.678 310.562 235.669 310.49 235.675 310.418C235.681 310.346 235.701 310.276 235.734 310.213C235.767 310.149 235.813 310.093 235.869 310.049C246.819 300.909 254.509 286.359 249.179 272.359C248.439 270.419 246.679 268.969 244.779 267.669C244.651 267.582 244.543 267.471 244.46 267.341C244.378 267.211 244.322 267.065 244.298 266.913C244.274 266.76 244.281 266.604 244.319 266.454C244.357 266.303 244.425 266.162 244.519 266.039C246.426 263.545 248.839 261.692 251.759 260.479C252.218 260.291 252.727 260.27 253.199 260.419L264.719 264.089C264.833 264.122 264.937 264.183 265.022 264.264C265.108 264.346 265.172 264.447 265.209 264.559C266.879 269.569 268.319 273.409 272.349 277.049C277.439 281.629 285.959 283.009 292.459 281.789C299.599 280.449 305.899 275.949 308.649 268.999C308.929 268.292 309.489 266.732 310.329 264.319C310.494 263.853 310.764 263.432 311.12 263.088C311.476 262.744 311.907 262.488 312.379 262.339C316.226 261.139 320.222 259.655 324.369 257.889C330.549 255.259 339.709 263.889 343.379 268.399C347.746 273.772 350.932 278.189 352.939 281.649C357.886 290.175 360.902 299.615 361.989 309.969C362.031 310.377 361.922 310.786 361.683 311.121C361.444 311.456 361.091 311.693 360.689 311.789C354.589 313.215 348.056 314.242 341.089 314.869C337.536 315.195 334.302 315.245 331.389 315.019C331.171 315 330.965 314.912 330.802 314.765C330.64 314.619 330.53 314.423 330.489 314.209L326.829 295.239C326.698 294.561 326.318 293.957 325.763 293.544C325.208 293.132 324.518 292.941 323.829 293.009L323.739 293.019C323.434 293.049 323.138 293.141 322.87 293.289C322.601 293.436 322.365 293.636 322.176 293.877C321.986 294.118 321.847 294.395 321.767 294.69C321.687 294.986 321.667 295.295 321.709 295.599C322.849 303.945 324.176 311.312 325.689 317.699C326.359 320.539 326.609 322.779 327.089 326.589C327.469 329.659 329.029 332.009 332.239 330.429C332.534 330.28 332.78 330.05 332.946 329.766C333.113 329.482 333.194 329.157 333.179 328.829L332.849 321.919C332.846 321.849 332.857 321.779 332.882 321.714C332.906 321.649 332.943 321.589 332.99 321.538C333.037 321.487 333.094 321.446 333.158 321.416C333.221 321.387 333.289 321.371 333.359 321.369C342.912 321.069 351.906 319.925 360.339 317.939C360.423 317.92 360.51 317.919 360.594 317.936C360.678 317.953 360.758 317.988 360.828 318.038C360.897 318.088 360.956 318.152 360.999 318.226C361.043 318.301 361.07 318.383 361.079 318.469L361.899 326.719C361.981 327.542 362.337 328.315 362.909 328.914C363.482 329.514 364.238 329.906 365.059 330.029L365.419 330.079C365.728 330.136 366.046 330.121 366.348 330.035C366.649 329.949 366.927 329.794 367.158 329.582C367.389 329.37 367.567 329.108 367.678 328.816C367.79 328.524 367.831 328.209 367.799 327.899L366.499 314.939C366.441 314.304 366.599 313.669 366.949 313.139C368.909 310.139 367.749 306.259 366.909 302.179C365.416 294.959 363.122 288.075 360.029 281.529C360 281.468 359.987 281.402 359.99 281.335C359.993 281.268 360.012 281.204 360.046 281.147C360.08 281.09 360.127 281.043 360.184 281.01C360.24 280.978 360.304 280.96 360.369 280.959C377.196 280.352 393.196 280.319 408.369 280.859C408.714 280.87 409.058 280.81 409.379 280.682C409.7 280.555 409.991 280.362 410.233 280.117C410.476 279.872 410.665 279.579 410.788 279.257C410.911 278.936 410.966 278.592 410.949 278.249L410.929 277.809C410.893 277.061 410.57 276.356 410.027 275.841C409.485 275.327 408.765 275.043 408.019 275.049L393.359 275.119C393.214 275.12 393.07 275.092 392.935 275.038C392.8 274.983 392.678 274.902 392.575 274.8C392.471 274.698 392.39 274.576 392.334 274.442C392.278 274.308 392.249 274.164 392.249 274.019L391.529 139.779C391.528 139.757 391.533 139.736 391.544 139.718C391.555 139.699 391.571 139.684 391.59 139.675C391.609 139.665 391.63 139.662 391.651 139.664C391.672 139.666 391.692 139.675 391.709 139.689Z" stroke="black" stroke-width="2"/>
<path d="M225 81.0588C225.46 80.8722 225.82 80.6555 226.08 80.4088C241.053 66.4688 255.67 53.1822 269.93 40.5488C271.89 38.8188 273.18 37.3188 275.42 39.0988C314.006 69.8588 354.566 102.379 397.1 136.659C399.91 138.929 403.65 142.469 406.34 142.929C408.96 143.379 411.57 138.819 412.1 136.969C412.57 135.279 411.68 133.119 410.55 132.199C366.423 96.0188 321.78 60.3822 276.62 25.2888C275.82 24.6688 273.96 23.5688 273.17 23.2188C272.941 23.114 272.688 23.0745 272.439 23.1045C272.19 23.1345 271.955 23.2329 271.76 23.3888C267.473 26.8022 263.356 30.2522 259.41 33.7388C243.44 47.8388 233.22 56.6088 223.9 65.7588C223.815 65.8403 223.749 65.9387 223.706 66.0475C223.663 66.1562 223.643 66.2726 223.65 66.3888L224.32 80.6188C224.324 80.6978 224.347 80.7746 224.386 80.843C224.426 80.9114 224.481 80.9695 224.547 81.0124C224.614 81.0553 224.689 81.0819 224.768 81.09C224.846 81.0981 224.926 81.0874 225 81.0588Z" stroke="black" stroke-width="2"/>
<path d="M327.81 57.5684C327.809 57.618 327.819 57.6671 327.84 57.7121C327.861 57.7572 327.892 57.7969 327.93 57.8284L359.75 83.4784C359.798 83.518 359.856 83.5432 359.918 83.5512C359.979 83.5591 360.042 83.5495 360.099 83.5234C360.155 83.4972 360.203 83.4557 360.237 83.4035C360.271 83.3513 360.289 83.2906 360.29 83.2284L360.02 33.4784C360.02 33.3909 359.985 33.307 359.923 33.2451C359.861 33.1832 359.777 33.1484 359.69 33.1484L328 33.3284C327.912 33.3284 327.828 33.3632 327.767 33.4251C327.705 33.487 327.67 33.5709 327.67 33.6584L327.81 57.5684Z" stroke="black" stroke-width="2"/>
<path d="M224.83 179.638C224.863 179.64 224.895 179.635 224.925 179.623C224.956 179.612 224.983 179.594 225.007 179.572C225.03 179.549 225.049 179.522 225.061 179.493C225.074 179.463 225.08 179.431 225.08 179.398C225.187 174.665 225.007 171.508 224.54 169.928C221.574 159.915 221.134 149.722 223.22 139.348C223.667 137.128 224.35 135.042 225.27 133.088C226.657 130.162 227.71 128.225 228.43 127.278C239.697 112.538 254.08 102.658 271.58 97.6384C294.78 90.9784 318.92 93.8384 339.88 106.148C345.987 109.735 351.55 114.332 356.57 119.938C360.52 124.348 362.69 128.998 365.17 134.168C365.7 135.28 366.527 136.225 367.56 136.898C369.794 138.358 371.06 139.192 371.36 139.398C382.73 147.138 384.02 160.958 381.13 173.338C379.437 180.605 377.52 187.062 375.38 192.708C375.303 192.917 375.288 193.143 375.338 193.36C375.388 193.577 375.5 193.775 375.66 193.928C380.587 198.575 382.6 204.442 381.7 211.528C379.83 226.288 366.49 239.938 350.66 234.208C350.409 234.114 350.13 234.117 349.879 234.217C349.628 234.317 349.422 234.506 349.3 234.748C345.827 241.655 340.844 247.458 334.35 252.158C334.268 252.218 334.202 252.297 334.159 252.388C334.115 252.48 334.094 252.581 334.099 252.682C334.104 252.783 334.135 252.882 334.187 252.968C334.24 253.055 334.313 253.127 334.4 253.178C343.39 258.298 349.54 265.578 355.39 274.008C355.567 274.27 355.813 274.478 356.1 274.608C356.934 274.982 357.934 275.172 359.1 275.178C368.854 275.232 377.62 275.165 385.4 274.978C385.567 274.973 385.724 274.903 385.84 274.784C385.956 274.665 386.02 274.505 386.02 274.338C386.34 226.465 386.134 180.428 385.4 136.228C385.391 135.681 385.261 135.143 385.019 134.652C384.777 134.161 384.429 133.729 384 133.388C361.894 115.875 341.784 99.7817 323.67 85.1084C305.704 70.5484 289.17 57.5184 274.07 46.0184C273.894 45.883 273.675 45.8139 273.451 45.8231C273.227 45.8322 273.011 45.9189 272.84 46.0684C257.46 59.6484 242.017 73.7384 226.51 88.3384C225.177 89.5917 224.444 91.0417 224.31 92.6884C223.48 102.988 222.62 110.698 218.92 120.088C218.575 120.978 218.347 121.909 218.24 122.858C217.96 125.432 217.877 128.702 217.99 132.668C217.99 132.715 218.36 140.562 219.1 156.208C219.194 158.108 219.377 160.428 219.65 163.168C220.17 168.482 219.687 173.798 218.2 179.118C218.188 179.161 218.186 179.205 218.195 179.248C218.203 179.292 218.221 179.333 218.248 179.368C218.275 179.404 218.31 179.433 218.35 179.454C218.39 179.475 218.435 179.487 218.48 179.488L224.83 179.638Z" stroke="black" stroke-width="2"/>
<path d="M168.381 48.2584C167.351 52.5884 165.951 57.1484 163.491 60.9484C154.241 75.2184 139.201 89.7983 120.471 86.6283C110.891 85.0083 116.481 77.0884 118.171 72.0084C118.237 71.7943 118.227 71.564 118.143 71.3564C118.059 71.1489 117.905 70.9769 117.708 70.8697C117.512 70.7625 117.284 70.7267 117.064 70.7684C116.844 70.8101 116.645 70.9267 116.501 71.0983C113.174 75.205 109.761 78.315 106.261 80.4284C103.587 82.0417 99.3774 83.995 93.6307 86.2883C88.1707 88.4617 82.6741 89.8417 77.1408 90.4284C76.8009 90.4611 76.4783 90.5895 76.2108 90.7984C75.4641 91.365 74.7408 92.3884 74.0408 93.8684C67.7208 107.228 63.5941 119.522 61.6608 130.748C61.5008 131.668 61.0141 132.208 60.2008 132.368C59.65 132.482 59.0777 132.389 58.5964 132.108C58.1152 131.827 57.76 131.377 57.6008 130.848C57.1341 129.295 56.6341 127.898 56.1008 126.658C52.9208 119.338 43.2208 120.258 38.1208 124.478C30.1608 131.088 30.1308 141.788 33.7008 150.848C37.1808 159.668 45.4308 167.688 55.5708 165.738C56.1441 165.625 58.0908 164.775 61.4108 163.188C61.7051 163.048 62.0432 163.03 62.3508 163.138C63.3174 163.472 64.0008 164.232 64.4008 165.418C66.8208 172.692 70.4541 178.868 75.3008 183.948C86.2508 195.418 101.901 203.088 117.071 205.298C122.791 206.132 129.644 206.462 137.631 206.288C150.611 206.015 163.411 202.795 176.031 196.628C190.317 189.662 200.251 179.282 205.831 165.488C209.431 156.588 209.051 148.748 209.011 138.528C209.004 137.028 208.431 132.968 207.291 126.348C205.977 118.702 205.071 109.615 204.571 99.0884C204.291 93.1484 203.521 85.9483 202.191 80.4383C202.14 80.2305 202.031 80.0405 201.878 79.8889C201.725 79.7373 201.532 79.6299 201.321 79.5784C192.901 77.6317 185.891 73.2217 180.291 66.3483C175.424 60.3883 171.627 54.345 168.901 48.2183C168.876 48.1653 168.836 48.1207 168.786 48.0908C168.735 48.0609 168.677 48.0472 168.62 48.0516C168.562 48.056 168.508 48.0784 168.465 48.1155C168.422 48.1526 168.393 48.2026 168.381 48.2584Z" stroke="black" stroke-width="2"/>
<path d="M283.63 131.949C274.28 137.549 265.91 141.779 256.44 142.139C253.087 142.266 251.327 140.539 251.16 136.959C251.156 136.848 251.122 136.741 251.062 136.648C251.001 136.555 250.916 136.481 250.817 136.432C250.717 136.384 250.606 136.364 250.495 136.374C250.385 136.384 250.28 136.424 250.19 136.489C242.537 141.962 237.39 149.159 234.75 158.079C232.24 166.579 231.9 172.279 230.31 184.449C229.89 187.649 229.1 192.179 228.11 194.409C225.91 199.389 224.467 204.096 223.78 208.529C221.334 224.209 226.22 236.622 238.44 245.769C260.35 262.169 291.49 263.479 316.5 254.859C330.68 249.972 341.09 240.949 347.73 227.789C347.807 227.637 347.918 227.505 348.056 227.405C348.193 227.304 348.353 227.238 348.521 227.212C348.689 227.185 348.861 227.199 349.023 227.253C349.184 227.306 349.331 227.398 349.45 227.519C350.844 228.932 352.554 229.782 354.58 230.069C364.6 231.479 372.56 222.979 375.22 214.099C377.55 206.339 375.19 196.549 366.03 195.279C361.1 194.599 358.73 197.499 355.76 200.979C355.444 201.353 355.014 201.613 354.538 201.719C354.061 201.826 353.563 201.773 353.12 201.569C351.56 200.849 351.08 199.349 351.04 197.689C350.774 185.056 349.907 173.246 348.44 162.259C348.388 161.866 348.234 161.493 347.994 161.177C347.754 160.861 347.435 160.614 347.07 160.459C336.32 155.839 331.12 145.989 325.78 136.139C325.75 136.085 325.708 136.039 325.658 136.002C325.609 135.965 325.552 135.939 325.491 135.926C325.431 135.913 325.369 135.913 325.308 135.925C325.248 135.938 325.19 135.963 325.14 135.999C317.58 141.529 309.14 144.419 299.95 146.829C296.21 147.819 286.76 149.349 283.43 147.519C280.37 145.839 279.557 143.436 280.99 140.309C282.617 136.749 283.654 134.079 284.1 132.299C284.114 132.238 284.11 132.175 284.089 132.117C284.067 132.059 284.029 132.008 283.979 131.971C283.93 131.933 283.87 131.912 283.808 131.908C283.746 131.904 283.684 131.918 283.63 131.949Z" stroke="black" stroke-width="2"/>
<path d="M217.641 207.619C218.341 204.329 219.061 201.069 220.581 197.609C222.574 193.069 224.004 189.659 224.871 187.379C224.916 187.26 224.933 187.132 224.921 187.006C224.909 186.879 224.868 186.757 224.801 186.649C224.735 186.541 224.644 186.449 224.536 186.382C224.429 186.314 224.307 186.272 224.181 186.259C221.394 185.972 219.194 186.629 217.581 188.229C212.401 193.379 213.441 202.099 216.991 207.729C217.029 207.789 217.085 207.837 217.151 207.866C217.217 207.895 217.289 207.905 217.359 207.893C217.429 207.881 217.493 207.849 217.544 207.8C217.594 207.751 217.628 207.688 217.641 207.619Z" stroke="black" stroke-width="2"/>
<path d="M218.75 228.709L217.34 217.049C217.287 216.618 217.169 216.197 216.99 215.799C216.69 215.172 215.666 214.109 213.92 212.609C211.906 210.876 210.163 207.712 208.69 203.119C208.673 203.068 208.645 203.022 208.606 202.985C208.567 202.948 208.52 202.921 208.468 202.906C208.416 202.892 208.361 202.89 208.307 202.9C208.253 202.911 208.203 202.935 208.16 202.969C207.76 203.296 206.9 204.109 205.58 205.409C203.506 207.456 200.823 209.352 197.53 211.099C191.923 214.072 186.053 216.529 179.92 218.469C179.794 218.509 179.681 218.581 179.591 218.678C179.502 218.775 179.441 218.894 179.412 219.023C179.384 219.152 179.39 219.286 179.43 219.412C179.47 219.537 179.542 219.65 179.64 219.739L186.59 226.139C186.85 226.377 187.163 226.549 187.504 226.642C187.845 226.734 188.204 226.743 188.55 226.669C198.99 224.476 209.016 225.189 218.63 228.809C218.644 228.815 218.66 228.816 218.676 228.813C218.692 228.811 218.706 228.804 218.719 228.794C218.731 228.784 218.74 228.77 218.745 228.756C218.751 228.741 218.752 228.725 218.75 228.709Z" stroke="black" stroke-width="2"/>
<path d="M99.1305 206.479C98.7773 206.342 98.3885 206.327 98.0272 206.438C97.6659 206.549 97.3534 206.778 97.1405 207.089C95.4505 209.539 92.3605 215.139 93.6405 217.939C97.5105 226.339 105.03 231.749 113.76 234.759C124.88 238.579 141 234.499 145.36 222.269C145.425 222.089 145.452 221.897 145.442 221.706C145.431 221.515 145.383 221.327 145.299 221.154C145.216 220.981 145.098 220.826 144.954 220.698C144.81 220.57 144.643 220.472 144.46 220.409C140.62 219.102 138.084 216.779 136.85 213.439C136.717 213.076 136.47 212.764 136.147 212.55C135.823 212.336 135.439 212.231 135.05 212.249C122.67 212.816 110.697 210.892 99.1305 206.479Z" stroke="black" stroke-width="2"/>
<path d="M195.701 247.799C195.732 247.739 195.74 247.67 195.726 247.604C195.711 247.538 195.674 247.479 195.621 247.437C195.567 247.396 195.501 247.374 195.434 247.376C195.366 247.378 195.301 247.404 195.251 247.449C191.561 250.219 187.171 251.829 180.281 254.599C176.531 256.099 175.731 254.239 174.651 251.139C174.629 251.074 174.59 251.016 174.536 250.974C174.483 250.931 174.418 250.905 174.35 250.898C174.282 250.892 174.214 250.906 174.153 250.938C174.093 250.97 174.043 251.019 174.011 251.079C171.231 255.946 168.947 261.086 167.161 266.499C166.881 267.332 166.587 269.309 166.281 272.429C165.881 276.509 162.641 275.229 159.931 274.439C159.538 274.323 159.115 274.355 158.741 274.529C153.841 276.779 153.071 283.979 154.471 288.569C155.501 291.929 159.251 295.379 162.981 293.219C164.467 292.359 165.784 291.632 166.931 291.039C167.146 290.929 167.385 290.873 167.627 290.874C167.868 290.875 168.106 290.934 168.32 291.046C168.534 291.157 168.717 291.319 168.854 291.516C168.992 291.713 169.08 291.941 169.111 292.179C171.061 307.169 185.801 313.269 199.081 314.189C215.831 315.359 234.871 309.619 242.001 293.869C242.567 292.609 242.881 291.422 242.941 290.309C242.967 289.899 242.869 289.491 242.661 289.139C240.401 285.289 239.411 283.799 239.031 279.169C238.671 274.779 239.791 266.869 238.191 261.659C235.811 253.889 230.851 250.099 223.211 242.059C223.048 241.89 222.828 241.788 222.594 241.773C222.359 241.759 222.126 241.832 221.941 241.979C217.674 245.392 212.724 248.089 207.091 250.069C202.171 251.799 199.611 252.779 195.361 252.199C195.191 252.176 195.029 252.114 194.887 252.018C194.745 251.922 194.627 251.794 194.543 251.645C194.459 251.496 194.41 251.329 194.401 251.158C194.392 250.987 194.423 250.816 194.491 250.659L195.701 247.799Z" stroke="black" stroke-width="2"/>
<path d="M245.304 257.959C245.292 257.861 245.254 257.767 245.192 257.683C245.13 257.598 245.045 257.525 244.942 257.467C244.839 257.409 244.72 257.367 244.591 257.345C244.463 257.322 244.328 257.318 244.193 257.334C244.059 257.35 243.928 257.385 243.808 257.437C243.689 257.489 243.582 257.557 243.495 257.637C243.409 257.717 243.343 257.808 243.302 257.905C243.261 258.001 243.246 258.101 243.258 258.199C243.269 258.297 243.307 258.391 243.369 258.475C243.431 258.559 243.516 258.632 243.619 258.69C243.722 258.748 243.842 258.79 243.97 258.813C244.099 258.836 244.234 258.839 244.368 258.824C244.502 258.808 244.633 258.773 244.753 258.721C244.873 258.669 244.979 258.601 245.066 258.52C245.153 258.44 245.219 258.349 245.259 258.253C245.3 258.156 245.315 258.056 245.304 257.959Z" stroke="black" stroke-width="2"/>
<path d="M287.93 266.059C283.204 266.259 277.997 266.129 272.31 265.669C272.246 265.665 272.182 265.676 272.124 265.702C272.065 265.728 272.013 265.767 271.973 265.817C271.933 265.867 271.905 265.926 271.893 265.989C271.88 266.052 271.883 266.117 271.9 266.179C274.01 273.179 281.21 276.419 288.34 276.129C295.47 275.829 302.38 272.009 303.92 264.869C303.935 264.805 303.933 264.738 303.915 264.675C303.897 264.611 303.864 264.554 303.819 264.506C303.773 264.459 303.717 264.423 303.654 264.403C303.592 264.382 303.525 264.377 303.46 264.389C297.827 265.309 292.65 265.866 287.93 266.059Z" stroke="black" stroke-width="2"/>
<path d="M244.505 276.503C244.362 276.532 244.282 276.845 244.283 277.372C244.284 277.9 244.366 278.6 244.511 279.317C244.656 280.035 244.851 280.711 245.055 281.198C245.258 281.685 245.453 281.943 245.596 281.914C245.739 281.885 245.818 281.573 245.817 281.045C245.816 280.517 245.734 279.817 245.589 279.1C245.445 278.382 245.249 277.706 245.046 277.219C244.842 276.732 244.648 276.474 244.505 276.503Z" stroke="black" stroke-width="2"/>
<path d="M192.14 89.4982C192.542 89.0202 192.774 88.4219 192.797 87.7985C192.821 87.1751 192.635 86.5625 192.27 86.0582C187.243 79.1582 180.943 76.1749 173.37 77.1082C170.21 77.5015 167.843 78.5182 166.27 80.1582C165.03 81.4482 164.64 82.9282 165.98 84.3382C166.398 84.7797 166.957 85.0604 167.554 85.13C168.151 85.1996 168.749 85.0536 169.24 84.7182C172.5 82.4982 174.82 81.7782 178.52 82.9682C182.086 84.1149 185.616 86.3582 189.11 89.6982C189.313 89.8929 189.554 90.0439 189.818 90.1419C190.082 90.2398 190.363 90.2826 190.644 90.2676C190.925 90.2526 191.201 90.1802 191.453 90.0547C191.705 89.9293 191.928 89.7535 192.11 89.5382L192.14 89.4982Z" stroke="black" stroke-width="2"/>
<path d="M86.3292 106.189C88.2392 106.789 89.9292 105.439 90.7892 103.669C94.9792 95.0186 101.479 88.7486 111.389 94.0586C111.69 94.2193 112.024 94.3097 112.365 94.3231C112.706 94.3364 113.045 94.2724 113.358 94.1358C113.671 93.9991 113.948 93.7934 114.17 93.5342C114.392 93.2749 114.553 92.9687 114.639 92.6386L114.689 92.4586C114.896 91.6839 114.845 90.8632 114.544 90.1213C114.242 89.3794 113.707 88.757 113.019 88.3486C102.269 81.9686 90.7092 90.1186 85.8692 99.9586C85.1592 101.409 84.0292 105.479 86.3292 106.189Z" stroke="black" stroke-width="2"/>
<path d="M169.68 133.909C173.58 135.829 177.88 133.979 180.24 130.749C182.334 127.889 183.394 124.026 183.42 119.159C183.447 115.466 181.97 112.539 178.99 110.379C172.46 105.659 165.69 109.249 162.94 116.069C160.49 122.169 163.67 130.939 169.68 133.909Z" stroke="black" stroke-width="2"/>
<path d="M109.658 114.56C107.078 114.529 104.587 115.862 102.732 118.266C100.878 120.67 99.8128 123.949 99.7708 127.38C99.7501 129.079 99.9812 130.765 100.451 132.341C100.921 133.917 101.62 135.352 102.509 136.564C103.397 137.777 104.458 138.743 105.631 139.408C106.803 140.072 108.064 140.423 109.342 140.438C111.922 140.47 114.414 139.137 116.268 136.732C118.122 134.328 119.187 131.05 119.229 127.618C119.25 125.919 119.019 124.233 118.549 122.657C118.08 121.082 117.38 119.646 116.492 118.434C115.603 117.221 114.542 116.255 113.369 115.591C112.197 114.926 110.936 114.576 109.658 114.56Z" stroke="black" stroke-width="2"/>
<path d="M145.47 150.949C145.549 151.374 145.814 151.752 146.212 152.007C146.61 152.262 147.112 152.377 147.62 152.329C160.57 151.079 165.2 135.319 151.84 129.579C150.998 129.215 150.063 129.129 149.168 129.332C148.273 129.535 147.465 130.017 146.86 130.709L146.71 130.879C146.461 131.164 146.282 131.504 146.186 131.87C146.089 132.236 146.078 132.62 146.153 132.991C146.229 133.362 146.389 133.711 146.62 134.01C146.852 134.31 147.15 134.552 147.49 134.719C148.337 135.132 149.393 135.499 150.66 135.819C155.38 137.009 155.41 141.909 151.9 144.499C150.05 145.869 144.71 146.929 145.47 150.949Z" stroke="black" stroke-width="2"/>
<path d="M52.7412 151.928C53.109 152.19 53.5573 152.313 54.0049 152.275C54.4525 152.236 54.8698 152.039 55.1812 151.718C57.1112 149.738 56.1112 145.418 55.1612 143.398C52.5212 137.838 47.3312 130.758 40.5112 133.918C40.1141 134.1 39.7821 134.404 39.5612 134.788C39.0279 135.722 38.8145 136.468 38.9212 137.028C39.0233 137.568 39.3204 138.054 39.7587 138.397C40.1971 138.74 40.7478 138.918 41.3112 138.898C47.6812 138.688 49.9912 145.428 51.5812 150.418C51.7679 151.012 52.1545 151.515 52.7412 151.928Z" stroke="black" stroke-width="2"/>
<path d="M111.741 160.949C111.248 162.389 111.014 163.545 111.041 164.419C111.431 176.879 121.621 187.789 133.761 189.509C148.891 191.669 162.741 183.209 167.941 168.789C168.851 166.259 170.821 157.849 166.081 158.399C152.081 160.019 144.001 160.885 141.841 160.999C134.801 161.372 126.498 160.725 116.931 159.059C115.424 158.799 113.918 159.149 112.411 160.109C112.095 160.303 111.858 160.6 111.741 160.949Z" stroke="black" stroke-width="2"/>
<path d="M255.059 149.459C251.079 150.299 245.159 153.799 243.939 158.349C243.774 158.961 243.844 159.611 244.133 160.17C244.422 160.728 244.91 161.153 245.499 161.359C246.549 161.729 247.749 161.359 248.489 160.419C250.419 157.989 253.169 155.939 256.289 155.279C259.399 154.629 262.739 155.399 265.489 156.839C266.549 157.409 267.789 157.259 268.599 156.499C269.055 156.074 269.331 155.489 269.372 154.863C269.413 154.236 269.215 153.613 268.819 153.119C265.869 149.439 259.039 148.619 255.059 149.459Z" stroke="black" stroke-width="2"/>
<path d="M313.429 162.468C314.176 162.528 315.419 162.379 317.159 162.019C323.669 160.669 329.599 165.419 333.309 170.359C333.461 170.556 333.652 170.717 333.869 170.829C334.843 171.315 335.673 171.442 336.359 171.209C336.628 171.117 336.876 170.972 337.087 170.784C337.297 170.595 337.466 170.367 337.582 170.115C337.698 169.862 337.758 169.59 337.76 169.317C337.761 169.044 337.703 168.775 337.589 168.528C334.079 160.958 325.559 155.169 317.119 156.609C314.979 156.979 310.319 159.268 312.559 161.998C312.667 162.132 312.799 162.242 312.949 162.322C313.098 162.403 313.262 162.453 313.429 162.468Z" stroke="black" stroke-width="2"/>
<path d="M260.33 174.912C259.206 174.825 258.072 175.029 256.991 175.512C255.909 175.994 254.903 176.745 254.029 177.723C253.154 178.701 252.429 179.885 251.895 181.21C251.361 182.534 251.027 183.972 250.914 185.441C250.686 188.408 251.368 191.322 252.811 193.544C254.254 195.765 256.339 197.111 258.608 197.286C259.732 197.372 260.866 197.168 261.947 196.686C263.029 196.204 264.035 195.452 264.909 194.475C265.784 193.497 266.509 192.312 267.043 190.988C267.577 189.664 267.911 188.226 268.024 186.757C268.252 183.79 267.57 180.875 266.127 178.654C264.684 176.433 262.599 175.087 260.33 174.912Z" stroke="black" stroke-width="2"/>
<path d="M315.638 181.005C314.488 180.881 313.317 181.051 312.192 181.509C311.067 181.966 310.01 182.7 309.082 183.67C308.154 184.639 307.372 185.825 306.782 187.159C306.192 188.494 305.804 189.951 305.642 191.447C305.479 192.943 305.545 194.449 305.835 195.879C306.125 197.309 306.633 198.635 307.332 199.782C308.03 200.928 308.905 201.872 309.905 202.56C310.905 203.248 312.012 203.667 313.162 203.791C314.313 203.916 315.484 203.745 316.608 203.288C317.733 202.831 318.79 202.097 319.718 201.127C320.646 200.158 321.428 198.972 322.018 197.637C322.609 196.303 322.996 194.846 323.159 193.35C323.321 191.854 323.256 190.348 322.966 188.918C322.676 187.488 322.167 186.162 321.469 185.015C320.77 183.869 319.896 182.925 318.895 182.237C317.895 181.549 316.788 181.13 315.638 181.005Z" stroke="black" stroke-width="2"/>
<path d="M280.65 195.189C277.62 191.369 271.86 196.019 270.26 199.139C267.39 204.709 271.32 209.679 276.79 210.819C277.37 210.937 277.968 210.866 278.481 210.618C278.995 210.371 279.393 209.961 279.61 209.459C280.52 207.389 278.32 205.789 276.6 205.399C273.97 204.809 274.38 202.089 276.24 200.729C277.26 199.982 278.603 199.012 280.27 197.819C280.473 197.674 280.644 197.49 280.774 197.277C280.903 197.064 280.988 196.828 281.024 196.582C281.06 196.336 281.045 196.086 280.98 195.846C280.916 195.607 280.804 195.383 280.65 195.189Z" stroke="black" stroke-width="2"/>
<path d="M359.23 218.529C361.82 214.989 363.49 210.419 368.32 210.009C368.504 209.993 368.681 209.936 368.839 209.843C368.997 209.749 369.131 209.621 369.23 209.469C370.03 208.202 369.894 207.079 368.82 206.099C366.767 204.226 364.49 204.152 361.99 205.879C358.357 208.392 356.007 211.859 354.94 216.279C354.33 218.799 356.35 219.789 358.61 218.989C358.858 218.898 359.073 218.738 359.23 218.529Z" stroke="black" stroke-width="2"/>
<path d="M283.891 248.278C292.441 248.548 299.981 244.898 305.261 238.108C309.011 233.268 313.891 223.828 311.731 217.898C310.661 214.978 308.801 214.438 305.711 214.698C300.241 215.158 291.891 216.268 284.901 216.048C277.911 215.828 269.641 214.208 264.211 213.398C261.141 212.948 259.251 213.368 258.001 216.218C255.481 222.008 259.761 231.728 263.201 236.788C268.041 243.898 275.341 248.008 283.891 248.278Z" stroke="black" stroke-width="2"/>
<path d="M159.34 165.128C157.993 165.115 154.097 165.532 147.65 166.378C137.25 167.738 128.54 167.158 118.58 164.928C118.473 164.906 118.362 164.908 118.255 164.934C118.149 164.96 118.05 165.009 117.964 165.078C117.879 165.147 117.81 165.234 117.763 165.332C117.716 165.431 117.691 165.539 117.69 165.648C117.57 182.988 144.2 190.348 154.07 177.058C156.357 173.978 158.283 170.245 159.85 165.858C159.878 165.776 159.887 165.689 159.875 165.603C159.863 165.517 159.831 165.435 159.781 165.363C159.731 165.292 159.665 165.234 159.589 165.193C159.512 165.152 159.427 165.13 159.34 165.128Z" stroke="black" stroke-width="2"/>
<path d="M303.331 232.058C303.404 231.549 303.274 231.02 302.963 230.556C302.653 230.093 302.179 229.723 301.621 229.508C295.894 227.295 290.227 227.182 284.621 229.168C280.861 230.508 274.461 233.028 272.341 236.438C272.123 236.786 272.043 237.203 272.117 237.606C272.191 238.01 272.413 238.371 272.741 238.618C275.921 240.998 280.151 241.828 284.081 242.328C291.167 243.222 297.044 240.802 301.711 235.068C302.664 233.902 303.204 232.898 303.331 232.058Z" stroke="black" stroke-width="2"/>
<path d="M227.281 260.888C227.476 260.994 227.695 261.047 227.916 261.043C228.137 261.039 228.354 260.977 228.544 260.864C228.734 260.751 228.892 260.591 229.002 260.399C229.112 260.207 229.17 259.99 229.171 259.768C229.161 253.708 221.241 252.368 217.721 255.908C217.279 256.352 217.017 256.941 216.99 257.551C216.964 258.161 217.176 258.745 217.581 259.178C217.875 259.492 218.381 259.592 219.101 259.478C219.168 259.472 220.208 259.062 222.221 258.248C222.766 258.027 223.368 257.993 223.935 258.15C224.501 258.307 224.999 258.648 225.351 259.118C225.958 259.932 226.601 260.522 227.281 260.888Z" stroke="black" stroke-width="2"/>
<path d="M192.191 259.398C192.181 255.588 187.951 254.558 185.011 256.008C181.961 257.508 178.771 261.688 180.521 265.198C180.672 265.498 180.901 265.752 181.184 265.933C181.467 266.113 181.793 266.215 182.129 266.226C182.464 266.237 182.797 266.158 183.091 265.997C183.385 265.835 183.631 265.597 183.801 265.308C185.481 262.448 186.781 259.848 190.791 260.568C190.964 260.599 191.14 260.592 191.309 260.548C191.478 260.503 191.635 260.422 191.769 260.31C191.903 260.198 192.01 260.059 192.083 259.901C192.156 259.744 192.193 259.572 192.191 259.398Z" stroke="black" stroke-width="2"/>
<path d="M224.731 268.701C224.221 268.685 223.711 268.818 223.23 269.093C222.749 269.367 222.307 269.778 221.929 270.301C221.551 270.825 221.245 271.45 221.028 272.143C220.81 272.835 220.686 273.58 220.662 274.336C220.639 275.093 220.716 275.844 220.889 276.549C221.063 277.254 221.329 277.897 221.673 278.443C222.018 278.989 222.433 279.427 222.895 279.731C223.358 280.035 223.859 280.2 224.37 280.216C224.88 280.232 225.39 280.099 225.871 279.824C226.352 279.55 226.794 279.139 227.172 278.616C227.55 278.093 227.856 277.467 228.073 276.775C228.291 276.082 228.415 275.337 228.439 274.581C228.462 273.825 228.385 273.073 228.212 272.368C228.038 271.664 227.772 271.02 227.428 270.474C227.084 269.928 226.668 269.491 226.206 269.186C225.743 268.882 225.242 268.718 224.731 268.701Z" stroke="black" stroke-width="2"/>
<path d="M191.57 271.691C190.445 271.591 189.312 272.096 188.421 273.095C187.529 274.094 186.953 275.506 186.818 277.02C186.682 278.534 187 280.025 187.7 281.166C188.4 282.308 189.426 283.005 190.551 283.106C191.677 283.206 192.81 282.701 193.701 281.702C194.592 280.703 195.169 279.291 195.304 277.777C195.439 276.264 195.121 274.772 194.421 273.631C193.721 272.489 192.695 271.792 191.57 271.691Z" stroke="black" stroke-width="2"/>
<path d="M214.157 279.351C213.874 278.725 213.329 278.249 212.64 278.027C211.951 277.805 211.176 277.856 210.485 278.168C209.793 278.48 209.243 279.028 208.954 279.691C208.665 280.355 208.661 281.079 208.944 281.705C209.227 282.331 209.772 282.808 210.461 283.03C211.15 283.252 211.925 283.201 212.616 282.889C213.308 282.577 213.858 282.029 214.147 281.365C214.436 280.702 214.44 279.977 214.157 279.351Z" stroke="black" stroke-width="2"/>
<path d="M222.551 288.749L193.441 293.769C193.354 293.784 193.278 293.832 193.227 293.903C193.176 293.974 193.156 294.063 193.171 294.149L193.411 295.529C193.706 297.244 194.376 298.878 195.384 300.336C196.392 301.794 197.717 303.049 199.283 304.027C200.85 305.006 202.628 305.69 204.514 306.041C206.401 306.391 208.361 306.401 210.281 306.069L210.811 305.969C212.73 305.638 214.572 304.972 216.232 304.01C217.891 303.047 219.336 301.807 220.484 300.361C221.632 298.914 222.46 297.289 222.921 295.578C223.382 293.867 223.467 292.104 223.171 290.389L222.931 289.009C222.914 288.925 222.864 288.85 222.793 288.802C222.722 288.753 222.635 288.734 222.551 288.749Z" stroke="black" stroke-width="2"/>
<path d="M216.111 294.929L200.961 298.289C200.934 298.296 200.91 298.313 200.895 298.338C200.88 298.362 200.875 298.391 200.881 298.419L200.891 298.459C201.119 299.475 202.126 300.275 203.692 300.682C205.258 301.089 207.254 301.07 209.241 300.629L209.611 300.549C211.599 300.107 213.416 299.28 214.661 298.248C215.906 297.217 216.478 296.066 216.251 295.049V295.009C216.248 294.994 216.242 294.98 216.233 294.968C216.223 294.956 216.212 294.946 216.199 294.938C216.186 294.931 216.171 294.926 216.156 294.924C216.141 294.923 216.126 294.924 216.111 294.929Z" stroke="black" stroke-width="2"/>
<path d="M391.709 139.689C391.692 139.675 391.672 139.666 391.651 139.664C391.63 139.662 391.609 139.665 391.59 139.675C391.571 139.684 391.555 139.699 391.544 139.718C391.533 139.736 391.528 139.757 391.529 139.779L392.249 274.019C392.249 274.164 392.278 274.308 392.334 274.442C392.39 274.576 392.471 274.698 392.575 274.8C392.678 274.902 392.8 274.983 392.935 275.038C393.07 275.092 393.214 275.12 393.359 275.119L408.019 275.049C408.765 275.043 409.485 275.327 410.027 275.841C410.57 276.356 410.893 277.061 410.929 277.809L410.949 278.249C410.966 278.592 410.911 278.936 410.788 279.257C410.665 279.579 410.476 279.872 410.233 280.117C409.991 280.362 409.7 280.555 409.379 280.682C409.058 280.81 408.714 280.87 408.369 280.859C393.196 280.319 377.196 280.352 360.369 280.959C360.304 280.96 360.24 280.978 360.184 281.01C360.127 281.043 360.08 281.09 360.046 281.147C360.012 281.204 359.993 281.268 359.99 281.335C359.987 281.402 360 281.468 360.029 281.529C363.122 288.075 365.416 294.959 366.909 302.179C367.749 306.259 368.909 310.139 366.949 313.139C366.599 313.669 366.441 314.304 366.499 314.939L367.799 327.899C367.831 328.209 367.79 328.524 367.678 328.816C367.567 329.108 367.389 329.37 367.158 329.582C366.927 329.794 366.649 329.949 366.348 330.035C366.046 330.121 365.728 330.136 365.419 330.079L365.059 330.029C364.238 329.906 363.482 329.514 362.909 328.914C362.337 328.315 361.981 327.542 361.899 326.719L361.079 318.469C361.07 318.383 361.043 318.301 360.999 318.226C360.956 318.152 360.897 318.088 360.828 318.038C360.758 317.988 360.678 317.953 360.594 317.936C360.51 317.919 360.423 317.92 360.339 317.939C351.906 319.925 342.912 321.069 333.359 321.369C333.289 321.371 333.221 321.387 333.158 321.416C333.094 321.446 333.037 321.487 332.99 321.538C332.943 321.589 332.906 321.649 332.882 321.714C332.857 321.779 332.846 321.849 332.849 321.919L333.179 328.829C333.194 329.157 333.113 329.482 332.946 329.766C332.78 330.05 332.534 330.28 332.239 330.429C329.029 332.009 327.469 329.659 327.089 326.589C326.609 322.779 326.359 320.539 325.689 317.699C324.176 311.312 322.849 303.945 321.709 295.599C321.667 295.295 321.687 294.986 321.767 294.69C321.847 294.395 321.986 294.118 322.176 293.877C322.365 293.636 322.601 293.436 322.87 293.289C323.138 293.141 323.434 293.049 323.739 293.019L323.829 293.009C324.518 292.941 325.208 293.132 325.763 293.544C326.318 293.957 326.698 294.561 326.829 295.239L330.489 314.209C330.53 314.423 330.64 314.619 330.802 314.765C330.965 314.912 331.171 315 331.389 315.019C334.302 315.245 337.536 315.195 341.089 314.869C348.056 314.242 354.589 313.215 360.689 311.789C361.091 311.693 361.444 311.456 361.683 311.121C361.922 310.786 362.031 310.377 361.989 309.969C360.902 299.615 357.886 290.175 352.939 281.649C350.932 278.189 347.746 273.772 343.379 268.399C339.709 263.889 330.549 255.259 324.369 257.889C320.222 259.655 316.226 261.139 312.379 262.339C311.907 262.488 311.476 262.744 311.12 263.088C310.764 263.432 310.494 263.853 310.329 264.319C309.489 266.732 308.929 268.292 308.649 268.999C305.899 275.949 299.599 280.449 292.459 281.789C285.959 283.009 277.439 281.629 272.349 277.049C268.319 273.409 266.879 269.569 265.209 264.559C265.172 264.447 265.108 264.346 265.022 264.264C264.937 264.183 264.833 264.122 264.719 264.089L253.199 260.419C252.727 260.27 252.218 260.291 251.759 260.479C248.839 261.692 246.426 263.545 244.519 266.039C244.425 266.162 244.357 266.303 244.319 266.454C244.281 266.604 244.274 266.76 244.298 266.913C244.322 267.065 244.378 267.211 244.46 267.341C244.543 267.471 244.651 267.582 244.779 267.669C246.679 268.969 248.439 270.419 249.179 272.359C254.509 286.359 246.819 300.909 235.869 310.049C235.813 310.093 235.767 310.149 235.734 310.213C235.701 310.276 235.681 310.346 235.675 310.418C235.669 310.49 235.678 310.562 235.701 310.631C235.724 310.7 235.761 310.764 235.809 310.819C239.049 314.539 246.059 324.739 244.049 329.559C243.949 329.8 243.8 330.018 243.612 330.199C243.424 330.381 243.2 330.521 242.954 330.611C242.709 330.701 242.448 330.74 242.187 330.724C241.926 330.708 241.671 330.638 241.439 330.519C240.532 330.052 239.849 329.252 239.389 328.119C237.329 323.065 235.056 319.092 232.569 316.199C230.759 314.099 226.349 316.229 223.559 317.139C208.169 322.109 191.129 322.019 176.849 313.539C176.557 313.362 176.211 313.297 175.872 313.353C175.533 313.41 175.224 313.586 174.999 313.849C171.259 318.242 168.746 322.995 167.459 328.109C167.126 329.442 166.689 330.325 166.149 330.759C164.639 331.949 162.089 330.659 162.029 328.649C161.839 322.199 166.399 314.689 170.639 310.089C170.771 309.945 170.846 309.758 170.85 309.562C170.853 309.367 170.786 309.177 170.659 309.029C168.092 306.042 166.176 303.002 164.909 299.909C164.816 299.685 164.65 299.501 164.439 299.386C164.228 299.271 163.984 299.233 163.749 299.279C157.136 300.505 152.502 298.119 149.849 292.119C145.899 283.179 149.259 271.819 158.959 268.619C159.076 268.58 159.175 268.501 159.239 268.395C159.303 268.288 159.328 268.162 159.309 268.039C158.836 264.959 158.846 261.422 159.339 257.429C160.299 249.655 163.459 242.975 168.819 237.389C171.259 234.849 174.689 232.629 177.259 230.779C177.489 230.616 177.651 230.375 177.716 230.103C177.78 229.83 177.742 229.544 177.609 229.299C175.942 226.159 173.322 223.895 169.749 222.509C163.709 220.155 157.659 217.865 151.599 215.639C150.326 215.165 149.079 215.212 147.859 215.779C147.712 215.849 147.585 215.956 147.49 216.089C147.396 216.222 147.337 216.376 147.319 216.539C147.049 218.999 149.629 221.909 150.309 223.359C150.567 223.908 150.624 224.528 150.469 225.109C148.159 234.189 137.669 240.149 129.259 241.729C124.399 242.649 118.912 242.195 112.799 240.369C101.392 236.962 93.0289 229.765 87.7089 218.779C85.4589 214.119 76.9989 216.759 73.4789 218.559C57.2989 226.832 45.0589 238.755 36.7589 254.329C31.1656 264.822 26.8489 275.679 23.8089 286.899C23.0356 289.759 22.5356 292.302 22.3089 294.529C22.2699 294.929 22.3784 295.33 22.6141 295.656C22.8498 295.982 23.1965 296.21 23.5889 296.299C38.0089 299.605 52.7023 301.542 67.6689 302.109C68.1968 302.129 68.7148 301.961 69.1305 301.635C69.5462 301.309 69.8327 300.846 69.9389 300.329L76.5789 267.569C76.7171 266.887 77.1061 266.281 77.6689 265.872C78.2317 265.463 78.9276 265.28 79.6189 265.359L79.8189 265.379C80.1657 265.416 80.5011 265.524 80.8045 265.696C81.1078 265.868 81.3726 266.101 81.5826 266.381C81.7925 266.66 81.9431 266.98 82.0251 267.32C82.107 267.66 82.1185 268.014 82.0589 268.359C79.9723 280.212 77.8089 291.229 75.5689 301.409C74.7223 305.235 72.3556 307.229 68.4689 307.389C68.1378 307.402 67.8213 307.528 67.572 307.747C67.3228 307.965 67.1558 308.262 67.0989 308.589L63.6989 327.559C63.5523 328.378 63.0894 329.106 62.4103 329.587C61.7312 330.068 60.8902 330.262 60.0689 330.129L59.9089 330.109C59.2343 329.948 58.6468 329.535 58.2673 328.955C57.8878 328.375 57.7452 327.671 57.8689 326.989L61.1989 308.779C61.226 308.624 61.2201 308.466 61.1816 308.314C61.1431 308.162 61.073 308.02 60.9757 307.897C60.8784 307.775 60.7562 307.674 60.6171 307.602C60.4781 307.529 60.3254 307.487 60.1689 307.479C47.9356 306.799 36.2423 305.345 25.0889 303.119C25.021 303.104 24.9508 303.104 24.8828 303.118C24.8149 303.133 24.7506 303.161 24.6942 303.201C24.6377 303.242 24.5903 303.294 24.555 303.353C24.5197 303.413 24.4972 303.48 24.4889 303.549L20.9089 328.539C20.8027 329.288 20.4211 329.97 19.8386 330.453C19.2561 330.935 18.5146 331.183 17.7589 331.149L17.3889 331.129C17.0514 331.124 16.7186 331.049 16.4125 330.907C16.1063 330.764 15.8337 330.559 15.6126 330.304C15.3916 330.049 15.227 329.75 15.1299 329.427C15.0327 329.103 15.0051 328.763 15.0489 328.429C16.2489 319.229 17.6456 310.429 19.2389 302.029C19.3148 301.632 19.2676 301.229 19.1054 300.886C18.9432 300.544 18.6759 300.283 18.3489 300.149C14.7289 298.649 15.9789 292.409 16.7689 289.329C20.4689 274.995 25.9023 261.605 33.0689 249.159C40.2689 236.649 49.5489 226.349 61.6389 219.029C61.6882 219 61.7279 218.957 61.7529 218.906C61.778 218.854 61.7874 218.797 61.7799 218.74C61.7725 218.684 61.7485 218.631 61.7109 218.588C61.6734 218.545 61.624 218.514 61.5689 218.499C56.3089 217.069 51.5189 214.319 47.1689 211.179C41.3823 207.005 37.3756 201.249 35.1489 193.909C35.0964 193.733 35.0083 193.57 34.89 193.429C34.7717 193.289 34.6258 193.174 34.4611 193.091C34.2963 193.009 34.1163 192.961 33.932 192.95C33.7477 192.939 33.5629 192.966 33.3889 193.029L33.0589 193.129C32.7645 193.217 32.5166 193.417 32.3688 193.687C32.221 193.956 32.1851 194.273 32.2689 194.569L34.5989 202.979C34.636 203.108 34.644 203.243 34.6224 203.376C34.6008 203.509 34.5501 203.636 34.4738 203.747C34.3976 203.859 34.2976 203.952 34.181 204.022C34.0644 204.091 33.934 204.134 33.7989 204.149C29.2389 204.609 22.8589 203.419 18.5489 201.009C9.00228 195.682 3.37561 187.885 1.66894 177.619C0.0422778 167.899 1.38227 158.619 5.68894 149.779C8.32894 144.352 10.7389 139.092 12.9189 133.999C14.6656 129.905 16.4389 123.202 18.2389 113.889C20.6056 101.615 22.7723 90.8185 24.7389 81.4985C29.7123 57.9519 41.2723 39.0385 59.4189 24.7585C72.6089 14.3785 88.279 7.50854 104.659 3.52854C114.612 1.10188 124.646 0.421884 134.759 1.48855C145.146 2.58188 154.809 6.5252 163.749 13.3185C164.097 13.5877 164.509 13.7664 164.949 13.8385C166.029 14.0119 167.666 14.1019 169.859 14.1085C181.859 14.1185 193.459 20.4685 201.949 28.5485C210.969 37.1419 217.369 47.2552 221.149 58.8885C221.164 58.9368 221.19 58.9806 221.226 59.0163C221.262 59.0519 221.306 59.0783 221.354 59.0931C221.403 59.1079 221.454 59.1106 221.503 59.1011C221.553 59.0916 221.6 59.0701 221.639 59.0385C224.146 57.1185 225.952 55.6519 227.059 54.6385C244.026 39.1185 257.796 26.8052 268.369 17.6985C269.516 16.7052 271.036 16.1385 272.929 15.9985C273.285 15.9656 273.643 16.01 273.979 16.1286C275.246 16.5686 277.202 17.8286 279.849 19.9086C291.876 29.3686 305.656 40.3685 321.189 52.9085C321.257 52.9635 321.339 52.9981 321.425 53.0083C321.512 53.0185 321.599 53.0039 321.678 52.9662C321.757 52.9285 321.823 52.8692 321.869 52.7952C321.915 52.7213 321.939 52.6357 321.939 52.5485C321.932 44.6485 321.976 37.7519 322.069 31.8585C322.116 28.9652 323.526 27.5219 326.299 27.5285C339.512 27.5285 351.462 27.6285 362.149 27.8285C362.798 27.8405 363.432 28.0328 363.979 28.3841C364.527 28.7354 364.966 29.232 365.249 29.8185C365.756 30.8652 366.012 32.1619 366.019 33.7085C366.139 56.7085 366.162 73.8652 366.089 85.1786C366.076 86.9786 366.592 88.3685 367.639 89.3485C369.619 91.2085 374.056 94.9685 380.949 100.629C404.442 119.902 416.209 129.559 416.249 129.599C421.759 134.839 416.049 143.489 411.709 147.529C408.749 150.279 405.539 150.239 402.439 148.039C399.626 146.052 396.049 143.269 391.709 139.689ZM224.999 81.0586C225.459 80.8719 225.819 80.6552 226.079 80.4085C241.052 66.4685 255.669 53.1819 269.929 40.5485C271.889 38.8185 273.179 37.3185 275.419 39.0985C314.006 69.8585 354.566 102.379 397.099 136.659C399.909 138.929 403.649 142.469 406.339 142.929C408.959 143.379 411.569 138.819 412.099 136.969C412.569 135.279 411.679 133.119 410.549 132.199C366.422 96.0185 321.779 60.3819 276.619 25.2885C275.819 24.6685 273.959 23.5685 273.169 23.2185C272.94 23.1138 272.687 23.0742 272.438 23.1042C272.189 23.1342 271.954 23.2326 271.759 23.3885C267.472 26.8019 263.356 30.2519 259.409 33.7386C243.439 47.8386 233.219 56.6085 223.899 65.7585C223.814 65.84 223.748 65.9385 223.705 66.0472C223.662 66.1559 223.643 66.2723 223.649 66.3885L224.319 80.6186C224.323 80.6975 224.346 80.7743 224.385 80.8427C224.425 80.9111 224.48 80.9692 224.547 81.0121C224.613 81.055 224.689 81.0816 224.767 81.0897C224.846 81.0978 224.925 81.0871 224.999 81.0586ZM327.809 57.5685C327.808 57.6181 327.818 57.6672 327.839 57.7122C327.86 57.7573 327.891 57.797 327.929 57.8285L359.749 83.4785C359.797 83.5181 359.855 83.5433 359.917 83.5513C359.978 83.5592 360.041 83.5496 360.098 83.5235C360.154 83.4973 360.202 83.4558 360.236 83.4036C360.27 83.3514 360.288 83.2907 360.289 83.2285L360.019 33.4785C360.019 33.391 359.984 33.3071 359.922 33.2452C359.86 33.1833 359.776 33.1485 359.689 33.1485L327.999 33.3285C327.911 33.3285 327.827 33.3633 327.766 33.4252C327.704 33.4871 327.669 33.571 327.669 33.6586L327.809 57.5685ZM224.829 179.639C224.861 179.64 224.894 179.635 224.924 179.623C224.954 179.612 224.982 179.594 225.005 179.572C225.028 179.549 225.047 179.523 225.06 179.493C225.072 179.463 225.079 179.431 225.079 179.399C225.186 174.665 225.006 171.509 224.539 169.929C221.572 159.915 221.132 149.722 223.219 139.349C223.666 137.129 224.349 135.042 225.269 133.089C226.656 130.162 227.709 128.225 228.429 127.279C239.696 112.539 254.079 102.659 271.579 97.6385C294.779 90.9785 318.919 93.8386 339.879 106.149C345.986 109.735 351.549 114.332 356.569 119.939C360.519 124.349 362.689 128.999 365.169 134.169C365.699 135.28 366.526 136.225 367.559 136.899C369.792 138.359 371.059 139.192 371.359 139.399C382.729 147.139 384.019 160.959 381.129 173.339C379.436 180.605 377.519 187.062 375.379 192.709C375.302 192.917 375.287 193.144 375.337 193.36C375.386 193.577 375.498 193.775 375.659 193.929C380.586 198.575 382.599 204.442 381.699 211.529C379.829 226.289 366.489 239.939 350.659 234.209C350.407 234.114 350.129 234.117 349.878 234.217C349.627 234.317 349.421 234.506 349.299 234.749C345.826 241.655 340.842 247.459 334.349 252.159C334.267 252.218 334.201 252.297 334.157 252.389C334.113 252.48 334.093 252.581 334.098 252.682C334.103 252.783 334.133 252.882 334.186 252.968C334.238 253.055 334.311 253.127 334.399 253.179C343.389 258.299 349.539 265.579 355.389 274.009C355.566 274.27 355.811 274.478 356.099 274.609C356.932 274.982 357.932 275.172 359.099 275.179C368.852 275.232 377.619 275.165 385.399 274.979C385.565 274.973 385.723 274.904 385.839 274.784C385.954 274.665 386.019 274.505 386.019 274.339C386.339 226.465 386.132 180.429 385.399 136.229C385.39 135.681 385.259 135.143 385.017 134.652C384.775 134.161 384.427 133.729 383.999 133.389C361.892 115.875 341.782 99.7819 323.669 85.1085C305.702 70.5485 289.169 57.5186 274.069 46.0186C273.893 45.8831 273.674 45.8141 273.45 45.8232C273.225 45.8324 273.009 45.919 272.839 46.0685C257.459 59.6485 242.016 73.7386 226.509 88.3386C225.176 89.5919 224.442 91.0419 224.309 92.6885C223.479 102.989 222.619 110.699 218.919 120.089C218.574 120.978 218.345 121.909 218.239 122.859C217.959 125.432 217.876 128.702 217.989 132.669C217.989 132.715 218.359 140.562 219.099 156.209C219.192 158.109 219.376 160.429 219.649 163.169C220.169 168.482 219.686 173.799 218.199 179.119C218.187 179.161 218.185 179.205 218.193 179.249C218.201 179.292 218.22 179.333 218.247 179.369C218.274 179.404 218.309 179.434 218.349 179.454C218.389 179.475 218.434 179.487 218.479 179.489L224.829 179.639ZM168.379 48.2585C167.349 52.5885 165.949 57.1485 163.489 60.9485C154.239 75.2185 139.199 89.7985 120.469 86.6285C110.889 85.0085 116.479 77.0885 118.169 72.0085C118.235 71.7945 118.225 71.5642 118.141 71.3566C118.057 71.1491 117.903 70.9771 117.706 70.8699C117.51 70.7627 117.282 70.7269 117.062 70.7686C116.842 70.8103 116.643 70.9268 116.499 71.0985C113.172 75.2052 109.759 78.3152 106.259 80.4286C103.586 82.0419 99.3756 83.9952 93.6289 86.2885C88.1689 88.4619 82.6723 89.8419 77.1389 90.4286C76.7991 90.4613 76.4765 90.5897 76.2089 90.7985C75.4623 91.3652 74.7389 92.3886 74.0389 93.8686C67.7189 107.229 63.5923 119.522 61.6589 130.749C61.4989 131.669 61.0123 132.209 60.1989 132.369C59.6482 132.483 59.0759 132.39 58.5946 132.108C58.1134 131.827 57.7582 131.378 57.5989 130.849C57.1323 129.295 56.6323 127.899 56.0989 126.659C52.9189 119.339 43.2189 120.259 38.1189 124.479C30.1589 131.089 30.1289 141.789 33.6989 150.849C37.1789 159.669 45.4289 167.689 55.5689 165.739C56.1423 165.625 58.0889 164.775 61.4089 163.189C61.7033 163.048 62.0414 163.03 62.3489 163.139C63.3156 163.472 63.9989 164.232 64.3989 165.419C66.8189 172.692 70.4523 178.869 75.299 183.949C86.249 195.419 101.899 203.089 117.069 205.299C122.789 206.132 129.642 206.462 137.629 206.289C150.609 206.015 163.409 202.795 176.029 196.629C190.316 189.662 200.249 179.282 205.829 165.489C209.429 156.589 209.049 148.749 209.009 138.529C209.002 137.029 208.429 132.969 207.289 126.349C205.976 118.702 205.069 109.615 204.569 99.0886C204.289 93.1486 203.519 85.9485 202.189 80.4385C202.138 80.2307 202.03 80.0407 201.876 79.8891C201.723 79.7374 201.53 79.63 201.319 79.5785C192.899 77.6319 185.889 73.2219 180.289 66.3485C175.422 60.3885 171.626 54.3452 168.899 48.2185C168.875 48.1655 168.834 48.1209 168.784 48.091C168.733 48.0611 168.675 48.0474 168.618 48.0518C168.56 48.0562 168.506 48.0786 168.463 48.1157C168.421 48.1528 168.391 48.2027 168.379 48.2585ZM283.629 131.949C274.279 137.549 265.909 141.779 256.439 142.139C253.086 142.265 251.326 140.539 251.159 136.959C251.155 136.848 251.121 136.74 251.06 136.647C251 136.555 250.915 136.48 250.815 136.432C250.716 136.383 250.605 136.363 250.494 136.373C250.384 136.383 250.278 136.423 250.189 136.489C242.536 141.962 237.389 149.159 234.749 158.079C232.239 166.579 231.899 172.279 230.309 184.449C229.889 187.649 229.099 192.179 228.109 194.409C225.909 199.389 224.466 204.095 223.779 208.529C221.332 224.209 226.219 236.622 238.439 245.769C260.349 262.169 291.489 263.479 316.499 254.859C330.679 249.972 341.089 240.949 347.729 227.789C347.805 227.636 347.917 227.505 348.054 227.404C348.192 227.304 348.351 227.238 348.519 227.211C348.688 227.185 348.86 227.199 349.021 227.252C349.183 227.306 349.33 227.397 349.449 227.519C350.842 228.932 352.552 229.782 354.579 230.069C364.599 231.479 372.559 222.979 375.219 214.099C377.549 206.339 375.189 196.549 366.029 195.279C361.099 194.599 358.729 197.499 355.759 200.979C355.443 201.352 355.013 201.612 354.536 201.719C354.06 201.825 353.562 201.773 353.119 201.569C351.559 200.849 351.079 199.349 351.039 197.689C350.772 185.055 349.906 173.245 348.439 162.259C348.387 161.865 348.233 161.492 347.993 161.177C347.753 160.861 347.434 160.613 347.069 160.459C336.319 155.839 331.119 145.989 325.779 136.139C325.748 136.085 325.707 136.038 325.657 136.001C325.607 135.965 325.551 135.939 325.49 135.926C325.43 135.912 325.367 135.912 325.307 135.925C325.246 135.937 325.189 135.962 325.139 135.999C317.579 141.529 309.139 144.419 299.949 146.829C296.209 147.819 286.759 149.349 283.429 147.519C280.369 145.839 279.556 143.435 280.989 140.309C282.616 136.749 283.652 134.079 284.099 132.299C284.113 132.238 284.109 132.175 284.087 132.116C284.066 132.058 284.028 132.007 283.978 131.97C283.928 131.933 283.869 131.911 283.807 131.907C283.745 131.904 283.683 131.918 283.629 131.949ZM217.639 207.619C218.339 204.329 219.059 201.069 220.579 197.609C222.572 193.069 224.002 189.659 224.869 187.379C224.914 187.26 224.931 187.132 224.919 187.006C224.907 186.879 224.866 186.757 224.8 186.649C224.733 186.541 224.642 186.449 224.535 186.381C224.427 186.314 224.305 186.272 224.179 186.259C221.392 185.972 219.192 186.629 217.579 188.229C212.399 193.379 213.439 202.099 216.989 207.729C217.028 207.789 217.084 207.837 217.149 207.866C217.215 207.895 217.287 207.905 217.357 207.893C217.427 207.881 217.492 207.848 217.542 207.8C217.592 207.751 217.626 207.688 217.639 207.619ZM218.749 228.709L217.339 217.049C217.286 216.618 217.168 216.196 216.989 215.799C216.689 215.172 215.666 214.109 213.919 212.609C211.906 210.875 210.162 207.712 208.689 203.119C208.673 203.068 208.644 203.022 208.605 202.985C208.567 202.948 208.519 202.921 208.467 202.906C208.415 202.891 208.36 202.889 208.306 202.9C208.253 202.911 208.202 202.934 208.159 202.969C207.759 203.295 206.899 204.109 205.579 205.409C203.506 207.455 200.822 209.352 197.529 211.099C191.922 214.072 186.052 216.529 179.919 218.469C179.793 218.508 179.68 218.58 179.591 218.677C179.502 218.775 179.44 218.894 179.411 219.023C179.383 219.151 179.389 219.285 179.429 219.411C179.469 219.537 179.541 219.65 179.639 219.739L186.589 226.139C186.849 226.377 187.163 226.549 187.504 226.641C187.845 226.733 188.203 226.743 188.549 226.669C198.989 224.475 209.016 225.189 218.629 228.809C218.644 228.814 218.66 228.816 218.675 228.813C218.691 228.81 218.706 228.803 218.718 228.793C218.73 228.783 218.739 228.77 218.745 228.755C218.75 228.74 218.752 228.724 218.749 228.709ZM99.1289 206.479C98.7757 206.341 98.3869 206.327 98.0256 206.438C97.6644 206.548 97.3519 206.778 97.1389 207.089C95.4489 209.539 92.3589 215.139 93.6389 217.939C97.5089 226.339 105.029 231.749 113.759 234.759C124.879 238.579 140.999 234.499 145.359 222.269C145.423 222.088 145.451 221.897 145.44 221.706C145.43 221.514 145.381 221.327 145.298 221.154C145.214 220.981 145.097 220.826 144.953 220.698C144.809 220.57 144.641 220.472 144.459 220.409C140.619 219.102 138.082 216.779 136.849 213.439C136.715 213.075 136.469 212.764 136.145 212.55C135.822 212.336 135.438 212.23 135.049 212.249C122.669 212.815 110.696 210.892 99.1289 206.479ZM195.699 247.799C195.73 247.738 195.739 247.669 195.724 247.603C195.71 247.537 195.673 247.478 195.619 247.437C195.566 247.395 195.5 247.374 195.432 247.376C195.364 247.378 195.3 247.404 195.249 247.449C191.559 250.219 187.169 251.829 180.279 254.599C176.529 256.099 175.729 254.239 174.649 251.139C174.628 251.074 174.588 251.016 174.535 250.973C174.481 250.931 174.417 250.904 174.349 250.898C174.281 250.892 174.212 250.905 174.152 250.937C174.091 250.97 174.042 251.019 174.009 251.079C171.229 255.945 168.946 261.085 167.159 266.499C166.879 267.332 166.586 269.309 166.279 272.429C165.879 276.509 162.639 275.229 159.929 274.439C159.536 274.323 159.113 274.355 158.739 274.529C153.839 276.779 153.069 283.979 154.469 288.569C155.499 291.929 159.249 295.379 162.979 293.219C164.466 292.359 165.782 291.632 166.929 291.039C167.145 290.929 167.383 290.872 167.625 290.873C167.867 290.875 168.105 290.934 168.318 291.045C168.532 291.157 168.715 291.318 168.853 291.516C168.99 291.713 169.078 291.94 169.109 292.179C171.059 307.169 185.799 313.269 199.079 314.189C215.829 315.359 234.869 309.619 241.999 293.869C242.566 292.609 242.879 291.422 242.939 290.309C242.965 289.898 242.867 289.49 242.659 289.139C240.399 285.289 239.409 283.799 239.029 279.169C238.669 274.779 239.789 266.869 238.189 261.659C235.809 253.889 230.849 250.099 223.209 242.059C223.047 241.89 222.827 241.788 222.592 241.773C222.357 241.758 222.124 241.831 221.939 241.979C217.672 245.392 212.722 248.089 207.089 250.069C202.169 251.799 199.609 252.779 195.359 252.199C195.189 252.176 195.027 252.114 194.885 252.017C194.743 251.921 194.626 251.794 194.542 251.645C194.457 251.495 194.409 251.329 194.4 251.158C194.39 250.987 194.421 250.816 194.489 250.659L195.699 247.799ZM245.302 257.958C245.29 257.861 245.253 257.767 245.191 257.682C245.129 257.598 245.044 257.525 244.94 257.467C244.837 257.409 244.718 257.367 244.59 257.344C244.461 257.322 244.326 257.318 244.191 257.334C244.057 257.349 243.926 257.384 243.807 257.436C243.687 257.488 243.581 257.556 243.494 257.637C243.407 257.717 243.341 257.808 243.3 257.905C243.26 258.001 243.244 258.101 243.256 258.199C243.267 258.297 243.305 258.39 243.367 258.475C243.429 258.559 243.514 258.632 243.617 258.69C243.721 258.748 243.84 258.79 243.968 258.813C244.097 258.836 244.232 258.839 244.366 258.823C244.501 258.808 244.632 258.773 244.751 258.721C244.871 258.669 244.977 258.601 245.064 258.52C245.151 258.44 245.217 258.349 245.258 258.253C245.298 258.156 245.313 258.056 245.302 257.958ZM287.929 266.059C283.202 266.259 277.996 266.129 272.309 265.669C272.245 265.664 272.181 265.676 272.122 265.702C272.063 265.727 272.012 265.767 271.972 265.817C271.931 265.867 271.904 265.926 271.891 265.989C271.878 266.052 271.881 266.117 271.899 266.179C274.009 273.179 281.209 276.419 288.339 276.129C295.469 275.829 302.379 272.009 303.919 264.869C303.933 264.804 303.931 264.738 303.913 264.674C303.896 264.611 303.863 264.553 303.817 264.506C303.772 264.458 303.715 264.423 303.653 264.402C303.59 264.382 303.524 264.377 303.459 264.389C297.826 265.309 292.649 265.865 287.929 266.059ZM244.503 276.503C244.36 276.532 244.281 276.845 244.282 277.372C244.283 277.9 244.365 278.6 244.51 279.317C244.655 280.035 244.85 280.711 245.053 281.198C245.257 281.685 245.451 281.943 245.594 281.914C245.737 281.885 245.817 281.572 245.816 281.045C245.815 280.517 245.733 279.817 245.588 279.1C245.443 278.382 245.248 277.706 245.044 277.219C244.841 276.732 244.646 276.474 244.503 276.503Z" fill="black"/>
<path d="M225 81.0588C224.926 81.0874 224.846 81.0981 224.768 81.09C224.689 81.0819 224.614 81.0553 224.547 81.0124C224.481 80.9695 224.426 80.9114 224.386 80.843C224.347 80.7746 224.324 80.6978 224.32 80.6188L223.65 66.3888C223.643 66.2726 223.663 66.1562 223.706 66.0475C223.749 65.9387 223.815 65.8403 223.9 65.7588C233.22 56.6088 243.44 47.8388 259.41 33.7388C263.356 30.2522 267.473 26.8022 271.76 23.3888C271.955 23.2329 272.19 23.1345 272.439 23.1045C272.688 23.0745 272.941 23.114 273.17 23.2188C273.96 23.5688 275.82 24.6688 276.62 25.2888C321.78 60.3822 366.423 96.0188 410.55 132.199C411.68 133.119 412.57 135.279 412.1 136.969C411.57 138.819 408.96 143.379 406.34 142.929C403.65 142.469 399.91 138.929 397.1 136.659C354.566 102.379 314.006 69.8588 275.42 39.0988C273.18 37.3188 271.89 38.8188 269.93 40.5488C255.67 53.1822 241.053 66.4688 226.08 80.4088C225.82 80.6555 225.46 80.8722 225 81.0588Z" fill="#FCFCFC"/>
<path d="M327.81 57.5694L327.67 33.6594C327.67 33.5719 327.705 33.488 327.767 33.4261C327.828 33.3642 327.912 33.3294 328 33.3294L359.69 33.1494C359.777 33.1494 359.861 33.1842 359.923 33.2461C359.985 33.308 360.02 33.3919 360.02 33.4794L360.29 83.2294C360.289 83.2916 360.271 83.3523 360.237 83.4045C360.203 83.4567 360.155 83.4982 360.099 83.5243C360.042 83.5505 359.979 83.5601 359.918 83.5522C359.856 83.5442 359.798 83.519 359.75 83.4794L327.93 57.8294C327.892 57.7979 327.861 57.7581 327.84 57.7131C327.819 57.6681 327.809 57.619 327.81 57.5694Z" fill="#FCFCFC"/>
<path d="M218.2 179.119C219.687 173.799 220.17 168.483 219.65 163.169C219.377 160.429 219.194 158.109 219.1 156.209C218.36 140.563 217.99 132.716 217.99 132.669C217.877 128.703 217.96 125.433 218.24 122.859C218.347 121.91 218.575 120.979 218.92 120.089C222.62 110.699 223.48 102.989 224.31 92.6893C224.444 91.0427 225.177 89.5927 226.51 88.3394C242.017 73.7394 257.46 59.6493 272.84 46.0693C273.011 45.9198 273.227 45.8332 273.451 45.824C273.675 45.8149 273.894 45.884 274.07 46.0194C289.17 57.5194 305.704 70.5494 323.67 85.1094C341.784 99.7827 361.894 115.876 384 133.389C384.429 133.73 384.777 134.161 385.019 134.653C385.261 135.144 385.391 135.682 385.4 136.229C386.134 180.429 386.34 226.466 386.02 274.339C386.02 274.506 385.956 274.666 385.84 274.785C385.724 274.904 385.567 274.974 385.4 274.979C377.62 275.166 368.854 275.233 359.1 275.179C357.934 275.173 356.934 274.983 356.1 274.609C355.813 274.479 355.567 274.271 355.39 274.009C349.54 265.579 343.39 258.299 334.4 253.179C334.313 253.128 334.24 253.056 334.187 252.969C334.135 252.883 334.104 252.784 334.099 252.683C334.094 252.582 334.115 252.481 334.159 252.389C334.202 252.298 334.268 252.219 334.35 252.159C340.844 247.459 345.827 241.656 349.3 234.749C349.422 234.507 349.628 234.318 349.879 234.218C350.13 234.118 350.409 234.115 350.66 234.209C366.49 239.939 379.83 226.289 381.7 211.529C382.6 204.443 380.587 198.576 375.66 193.929C375.5 193.775 375.388 193.578 375.338 193.361C375.288 193.144 375.303 192.918 375.38 192.709C377.52 187.063 379.437 180.606 381.13 173.339C384.02 160.959 382.73 147.139 371.36 139.399C371.06 139.193 369.794 138.359 367.56 136.899C366.527 136.226 365.7 135.281 365.17 134.169C362.69 128.999 360.52 124.349 356.57 119.939C351.55 114.333 345.987 109.736 339.88 106.149C318.92 93.8394 294.78 90.9794 271.58 97.6394C254.08 102.659 239.697 112.539 228.43 127.279C227.71 128.226 226.657 130.163 225.27 133.089C224.35 135.043 223.667 137.129 223.22 139.349C221.134 149.723 221.574 159.916 224.54 169.929C225.007 171.509 225.187 174.666 225.08 179.399C225.08 179.432 225.074 179.464 225.061 179.494C225.049 179.523 225.03 179.55 225.007 179.573C224.983 179.595 224.956 179.613 224.925 179.624C224.895 179.635 224.863 179.641 224.83 179.639L218.48 179.489C218.435 179.488 218.39 179.476 218.35 179.455C218.31 179.434 218.275 179.405 218.248 179.369C218.221 179.334 218.203 179.293 218.195 179.249C218.186 179.206 218.188 179.162 218.2 179.119Z" fill="#FCFCFC"/>
<path d="M168.381 48.2593C168.393 48.2035 168.422 48.1536 168.465 48.1164C168.508 48.0793 168.562 48.057 168.62 48.0526C168.677 48.0481 168.735 48.0619 168.786 48.0918C168.836 48.1217 168.876 48.1663 168.901 48.2193C171.627 54.346 175.424 60.3893 180.291 66.3493C185.891 73.2227 192.901 77.6327 201.321 79.5793C201.532 79.6308 201.725 79.7382 201.878 79.8899C202.031 80.0415 202.14 80.2315 202.191 80.4393C203.521 85.9493 204.291 93.1493 204.571 99.0893C205.071 109.616 205.977 118.703 207.291 126.349C208.431 132.969 209.004 137.029 209.011 138.529C209.051 148.749 209.431 156.589 205.831 165.489C200.251 179.283 190.317 189.663 176.031 196.629C163.411 202.796 150.611 206.016 137.631 206.289C129.644 206.463 122.791 206.133 117.071 205.299C101.901 203.089 86.2508 195.419 75.3008 183.949C70.4541 178.869 66.8208 172.693 64.4008 165.419C64.0008 164.233 63.3174 163.473 62.3508 163.139C62.0432 163.031 61.7051 163.049 61.4108 163.189C58.0908 164.776 56.1441 165.626 55.5708 165.739C45.4308 167.689 37.1808 159.669 33.7008 150.849C30.1308 141.789 30.1608 131.089 38.1208 124.479C43.2208 120.259 52.9208 119.339 56.1008 126.659C56.6341 127.899 57.1341 129.296 57.6008 130.849C57.76 131.378 58.1152 131.828 58.5964 132.109C59.0777 132.39 59.65 132.483 60.2008 132.369C61.0141 132.209 61.5008 131.669 61.6608 130.749C63.5941 119.523 67.7208 107.229 74.0408 93.8693C74.7408 92.3893 75.4641 91.366 76.2108 90.7993C76.4783 90.5905 76.8009 90.4621 77.1408 90.4293C82.6741 89.8427 88.1707 88.4627 93.6307 86.2893C99.3774 83.996 103.587 82.0427 106.261 80.4293C109.761 78.316 113.174 75.206 116.501 71.0993C116.645 70.9276 116.844 70.811 117.064 70.7694C117.284 70.7277 117.512 70.7635 117.708 70.8707C117.905 70.9779 118.059 71.1498 118.143 71.3574C118.227 71.565 118.237 71.7953 118.171 72.0093C116.481 77.0893 110.891 85.0093 120.471 86.6293C139.201 89.7993 154.241 75.2193 163.491 60.9493C165.951 57.1493 167.351 52.5893 168.381 48.2593ZM192.141 89.4993C192.543 89.0213 192.775 88.423 192.798 87.7996C192.822 87.1762 192.636 86.5636 192.271 86.0593C187.244 79.1593 180.944 76.176 173.371 77.1093C170.211 77.5027 167.844 78.5193 166.271 80.1593C165.031 81.4493 164.641 82.9293 165.981 84.3393C166.4 84.7808 166.958 85.0615 167.555 85.1311C168.152 85.2008 168.75 85.0548 169.241 84.7193C172.501 82.4993 174.821 81.7793 178.521 82.9693C182.087 84.116 185.617 86.3593 189.111 89.6993C189.314 89.8941 189.555 90.0451 189.819 90.143C190.083 90.2409 190.364 90.2837 190.645 90.2687C190.927 90.2537 191.202 90.1813 191.454 90.0558C191.706 89.9304 191.929 89.7546 192.111 89.5393L192.141 89.4993ZM86.3308 106.189C88.2408 106.789 89.9308 105.439 90.7908 103.669C94.9808 95.0193 101.481 88.7493 111.391 94.0593C111.692 94.22 112.025 94.3104 112.366 94.3238C112.707 94.3371 113.047 94.2731 113.36 94.1365C113.672 93.9998 113.95 93.7942 114.172 93.5349C114.394 93.2756 114.554 92.9694 114.641 92.6393L114.691 92.4593C114.898 91.6847 114.847 90.8639 114.545 90.122C114.244 89.3801 113.708 88.7577 113.021 88.3493C102.271 81.9693 90.7108 90.1193 85.8708 99.9593C85.1608 101.409 84.0308 105.479 86.3308 106.189ZM169.681 133.909C173.581 135.829 177.881 133.979 180.241 130.749C182.334 127.889 183.394 124.026 183.421 119.159C183.447 115.466 181.971 112.539 178.991 110.379C172.461 105.659 165.691 109.249 162.941 116.069C160.491 122.169 163.671 130.939 169.681 133.909ZM109.659 114.56C107.078 114.529 104.587 115.862 102.733 118.266C100.879 120.67 99.8134 123.949 99.7715 127.38C99.7507 129.08 99.9818 130.765 100.452 132.341C100.921 133.917 101.621 135.352 102.509 136.565C103.398 137.777 104.459 138.743 105.631 139.408C106.804 140.073 108.065 140.423 109.343 140.438C111.923 140.47 114.414 139.137 116.269 136.733C118.123 134.328 119.188 131.05 119.23 127.618C119.251 125.919 119.02 124.233 118.55 122.658C118.08 121.082 117.381 119.647 116.492 118.434C115.603 117.222 114.543 116.255 113.37 115.591C112.198 114.926 110.937 114.576 109.659 114.56ZM145.471 150.949C145.55 151.375 145.815 151.752 146.213 152.008C146.611 152.263 147.113 152.378 147.621 152.329C160.571 151.079 165.201 135.319 151.841 129.579C150.999 129.216 150.064 129.13 149.169 129.333C148.274 129.536 147.466 130.018 146.861 130.709L146.711 130.879C146.462 131.165 146.283 131.504 146.186 131.871C146.09 132.237 146.079 132.62 146.154 132.992C146.23 133.363 146.389 133.712 146.621 134.011C146.853 134.311 147.15 134.553 147.491 134.719C148.337 135.133 149.394 135.499 150.661 135.819C155.381 137.009 155.411 141.909 151.901 144.499C150.051 145.869 144.711 146.929 145.471 150.949ZM52.7408 151.929C53.1086 152.191 53.5569 152.314 54.0044 152.276C54.452 152.237 54.8693 152.04 55.1808 151.719C57.1108 149.739 56.1108 145.419 55.1608 143.399C52.5208 137.839 47.3308 130.759 40.5108 133.919C40.1137 134.101 39.7816 134.405 39.5608 134.789C39.0274 135.723 38.8141 136.469 38.9208 137.029C39.0228 137.569 39.3199 138.055 39.7583 138.398C40.1967 138.741 40.7474 138.919 41.3108 138.899C47.6808 138.689 49.9908 145.429 51.5808 150.419C51.7674 151.013 52.1541 151.516 52.7408 151.929ZM111.741 160.949C111.247 162.389 111.014 163.546 111.041 164.419C111.431 176.879 121.621 187.789 133.761 189.509C148.891 191.669 162.741 183.209 167.941 168.789C168.851 166.259 170.821 157.849 166.081 158.399C152.081 160.019 144.001 160.886 141.841 160.999C134.801 161.373 126.497 160.726 116.931 159.059C115.424 158.799 113.917 159.149 112.411 160.109C112.095 160.303 111.857 160.601 111.741 160.949Z" fill="#FCFCFC"/>
<path d="M192.14 89.4992L192.11 89.5392C191.928 89.7544 191.705 89.9302 191.453 90.0557C191.201 90.1811 190.925 90.2536 190.644 90.2686C190.363 90.2836 190.082 90.2408 189.818 90.1429C189.554 90.0449 189.313 89.8939 189.11 89.6992C185.616 86.3592 182.086 84.1158 178.52 82.9692C174.82 81.7792 172.5 82.4992 169.24 84.7192C168.749 85.0546 168.151 85.2006 167.554 85.131C166.957 85.0613 166.398 84.7807 165.98 84.3392C164.64 82.9292 165.03 81.4492 166.27 80.1592C167.843 78.5192 170.21 77.5025 173.37 77.1092C180.943 76.1759 187.243 79.1592 192.27 86.0592C192.635 86.5635 192.821 87.1761 192.797 87.7995C192.774 88.4229 192.542 89.0212 192.14 89.4992Z" fill="black"/>
<path d="M86.3292 106.189C84.0292 105.479 85.1592 101.409 85.8692 99.9586C90.7092 90.1186 102.269 81.9686 113.019 88.3486C113.707 88.757 114.242 89.3794 114.544 90.1213C114.845 90.8632 114.896 91.6839 114.689 92.4586L114.639 92.6386C114.553 92.9687 114.392 93.2749 114.17 93.5342C113.948 93.7934 113.671 93.9991 113.358 94.1358C113.045 94.2724 112.706 94.3364 112.365 94.3231C112.024 94.3097 111.69 94.2193 111.389 94.0586C101.479 88.7486 94.9792 95.0186 90.7892 103.669C89.9292 105.439 88.2392 106.789 86.3292 106.189Z" fill="black"/>
<path d="M169.68 133.909C163.67 130.939 160.49 122.169 162.94 116.069C165.69 109.249 172.46 105.659 178.99 110.379C181.97 112.539 183.447 115.466 183.42 119.159C183.394 124.026 182.334 127.889 180.24 130.749C177.88 133.979 173.58 135.829 169.68 133.909Z" fill="black"/>
<path d="M119.23 127.618C119.317 120.472 115.032 114.626 109.659 114.56C104.285 114.494 99.8587 120.234 99.7714 127.38C99.6841 134.526 103.969 140.373 109.343 140.438C114.716 140.504 119.143 134.764 119.23 127.618Z" fill="black"/>
<path d="M145.47 150.949C144.71 146.929 150.05 145.869 151.9 144.499C155.41 141.909 155.38 137.009 150.66 135.819C149.393 135.499 148.337 135.132 147.49 134.719C147.15 134.552 146.852 134.31 146.62 134.01C146.389 133.711 146.229 133.362 146.153 132.991C146.078 132.62 146.089 132.236 146.186 131.87C146.282 131.504 146.461 131.164 146.71 130.879L146.86 130.709C147.465 130.017 148.273 129.535 149.168 129.332C150.063 129.129 150.998 129.215 151.84 129.579C165.2 135.319 160.57 151.079 147.62 152.329C147.112 152.377 146.61 152.262 146.212 152.007C145.814 151.752 145.549 151.374 145.47 150.949Z" fill="black"/>
<path d="M284.1 132.299C283.654 134.079 282.617 136.749 280.99 140.309C279.557 143.436 280.37 145.839 283.43 147.519C286.76 149.349 296.21 147.819 299.95 146.829C309.14 144.419 317.58 141.529 325.14 135.999C325.19 135.963 325.248 135.938 325.308 135.925C325.369 135.913 325.431 135.913 325.491 135.926C325.552 135.939 325.609 135.965 325.658 136.002C325.708 136.039 325.75 136.085 325.78 136.139C331.12 145.989 336.32 155.839 347.07 160.459C347.435 160.614 347.754 160.861 347.994 161.177C348.234 161.493 348.388 161.866 348.44 162.259C349.907 173.246 350.774 185.056 351.04 197.689C351.08 199.349 351.56 200.849 353.12 201.569C353.563 201.773 354.061 201.826 354.538 201.719C355.014 201.613 355.444 201.353 355.76 200.979C358.73 197.499 361.1 194.599 366.03 195.279C375.19 196.549 377.55 206.339 375.22 214.099C372.56 222.979 364.6 231.479 354.58 230.069C352.554 229.782 350.844 228.932 349.45 227.519C349.331 227.398 349.184 227.306 349.023 227.253C348.861 227.199 348.689 227.185 348.521 227.212C348.353 227.238 348.193 227.304 348.056 227.405C347.918 227.505 347.807 227.637 347.73 227.789C341.09 240.949 330.68 249.972 316.5 254.859C291.49 263.479 260.35 262.169 238.44 245.769C226.22 236.622 221.334 224.209 223.78 208.529C224.467 204.096 225.91 199.389 228.11 194.409C229.1 192.179 229.89 187.649 230.31 184.449C231.9 172.279 232.24 166.579 234.75 158.079C237.39 149.159 242.537 141.962 250.19 136.489C250.28 136.424 250.385 136.384 250.495 136.374C250.606 136.364 250.717 136.384 250.817 136.432C250.916 136.481 251.001 136.555 251.062 136.648C251.122 136.741 251.156 136.848 251.16 136.959C251.327 140.539 253.087 142.266 256.44 142.139C265.91 141.779 274.28 137.549 283.63 131.949C283.684 131.918 283.746 131.904 283.808 131.908C283.87 131.912 283.93 131.933 283.979 131.971C284.029 132.008 284.067 132.059 284.089 132.117C284.11 132.175 284.114 132.238 284.1 132.299ZM255.06 149.459C251.08 150.299 245.16 153.799 243.94 158.349C243.775 158.961 243.844 159.612 244.134 160.17C244.423 160.728 244.911 161.153 245.5 161.359C246.55 161.729 247.75 161.359 248.49 160.419C250.42 157.989 253.17 155.939 256.29 155.279C259.4 154.629 262.74 155.399 265.49 156.839C266.55 157.409 267.79 157.259 268.6 156.499C269.056 156.074 269.332 155.49 269.373 154.863C269.413 154.236 269.216 153.613 268.82 153.119C265.87 149.439 259.04 148.619 255.06 149.459ZM313.43 162.469C314.177 162.529 315.42 162.379 317.16 162.019C323.67 160.669 329.6 165.419 333.31 170.359C333.462 170.557 333.653 170.717 333.87 170.829C334.844 171.316 335.674 171.442 336.36 171.209C336.629 171.117 336.877 170.973 337.088 170.784C337.298 170.596 337.467 170.368 337.583 170.115C337.699 169.863 337.759 169.591 337.761 169.318C337.762 169.044 337.704 168.776 337.59 168.529C334.08 160.959 325.56 155.169 317.12 156.609C314.98 156.979 310.32 159.269 312.56 161.999C312.668 162.132 312.8 162.242 312.95 162.323C313.099 162.404 313.263 162.453 313.43 162.469ZM260.331 174.912C259.208 174.826 258.073 175.029 256.992 175.512C255.911 175.994 254.904 176.746 254.03 177.723C253.155 178.701 252.43 179.886 251.896 181.21C251.362 182.534 251.029 183.972 250.915 185.441C250.687 188.408 251.37 191.323 252.812 193.544C254.255 195.765 256.341 197.111 258.609 197.286C259.733 197.372 260.867 197.169 261.949 196.686C263.03 196.204 264.036 195.452 264.911 194.475C265.785 193.497 266.51 192.312 267.044 190.988C267.579 189.664 267.912 188.226 268.025 186.757C268.253 183.79 267.571 180.876 266.128 178.654C264.685 176.433 262.6 175.087 260.331 174.912ZM315.638 181.006C314.488 180.881 313.317 181.052 312.192 181.509C311.067 181.966 310.01 182.701 309.082 183.67C308.154 184.64 307.372 185.826 306.782 187.16C306.192 188.494 305.804 189.951 305.642 191.448C305.479 192.944 305.545 194.45 305.835 195.88C306.125 197.31 306.633 198.636 307.332 199.782C308.03 200.929 308.905 201.873 309.905 202.561C310.905 203.249 312.012 203.667 313.162 203.792C314.313 203.917 315.484 203.746 316.608 203.289C317.733 202.832 318.79 202.098 319.718 201.128C320.646 200.158 321.428 198.972 322.018 197.638C322.609 196.304 322.996 194.847 323.159 193.351C323.321 191.854 323.256 190.348 322.966 188.918C322.676 187.488 322.167 186.162 321.469 185.016C320.77 183.869 319.896 182.925 318.895 182.237C317.895 181.549 316.788 181.131 315.638 181.006ZM280.65 195.189C277.62 191.369 271.86 196.019 270.26 199.139C267.39 204.709 271.32 209.679 276.79 210.819C277.371 210.937 277.968 210.866 278.481 210.619C278.995 210.371 279.393 209.962 279.61 209.459C280.52 207.389 278.32 205.789 276.6 205.399C273.97 204.809 274.38 202.089 276.24 200.729C277.26 199.982 278.604 199.012 280.27 197.819C280.473 197.674 280.644 197.49 280.774 197.277C280.903 197.065 280.989 196.828 281.024 196.582C281.06 196.336 281.045 196.086 280.981 195.847C280.916 195.607 280.804 195.383 280.65 195.189ZM359.23 218.529C361.82 214.989 363.49 210.419 368.32 210.009C368.504 209.993 368.681 209.936 368.839 209.843C368.997 209.749 369.13 209.621 369.23 209.469C370.03 208.202 369.894 207.079 368.82 206.099C366.767 204.226 364.49 204.152 361.99 205.879C358.357 208.392 356.007 211.859 354.94 216.279C354.33 218.799 356.35 219.789 358.61 218.989C358.858 218.898 359.073 218.738 359.23 218.529ZM283.89 248.279C292.44 248.549 299.98 244.899 305.26 238.109C309.01 233.269 313.89 223.829 311.73 217.899C310.66 214.979 308.8 214.439 305.71 214.699C300.24 215.159 291.89 216.269 284.9 216.049C277.91 215.829 269.64 214.209 264.21 213.399C261.14 212.949 259.25 213.369 258 216.219C255.48 222.009 259.76 231.729 263.2 236.789C268.04 243.899 275.34 248.009 283.89 248.279Z" fill="#FCFCFC"/>
<path d="M52.7412 151.929C52.1545 151.516 51.7679 151.013 51.5812 150.419C49.9912 145.429 47.6812 138.689 41.3112 138.899C40.7478 138.919 40.1971 138.741 39.7587 138.398C39.3204 138.055 39.0233 137.569 38.9212 137.029C38.8145 136.469 39.0279 135.723 39.5612 134.789C39.7821 134.405 40.1141 134.101 40.5112 133.919C47.3312 130.759 52.5212 137.839 55.1612 143.399C56.1112 145.419 57.1112 149.739 55.1812 151.719C54.8698 152.04 54.4525 152.237 54.0049 152.276C53.5573 152.314 53.109 152.191 52.7412 151.929Z" fill="black"/>
<path d="M256.289 155.279C253.169 155.939 250.419 157.989 248.489 160.419C247.749 161.359 246.549 161.729 245.499 161.359C244.91 161.153 244.422 160.728 244.133 160.17C243.844 159.611 243.774 158.961 243.939 158.349C245.159 153.799 251.079 150.299 255.059 149.459C259.039 148.619 265.869 149.439 268.819 153.119C269.215 153.613 269.413 154.236 269.372 154.863C269.331 155.489 269.055 156.074 268.599 156.499C267.789 157.259 266.549 157.409 265.489 156.839C262.739 155.399 259.399 154.629 256.289 155.279Z" fill="black"/>
<path d="M312.559 161.998C310.319 159.268 314.979 156.979 317.119 156.609C325.559 155.169 334.079 160.958 337.589 168.528C337.703 168.775 337.761 169.044 337.76 169.317C337.758 169.59 337.698 169.862 337.582 170.115C337.466 170.367 337.297 170.595 337.087 170.784C336.876 170.972 336.628 171.117 336.359 171.209C335.673 171.442 334.843 171.315 333.869 170.829C333.652 170.717 333.461 170.556 333.309 170.359C329.599 165.419 323.669 160.669 317.159 162.019C315.419 162.379 314.176 162.528 313.429 162.468C313.262 162.453 313.098 162.403 312.949 162.322C312.799 162.242 312.667 162.132 312.559 161.998Z" fill="black"/>
<path d="M112.411 160.109C113.918 159.149 115.424 158.799 116.931 159.059C126.498 160.725 134.801 161.372 141.841 160.999C144.001 160.885 152.081 160.019 166.081 158.399C170.821 157.849 168.851 166.259 167.941 168.789C162.741 183.209 148.891 191.669 133.761 189.509C121.621 187.789 111.431 176.879 111.041 164.419C111.014 163.545 111.248 162.389 111.741 160.949C111.858 160.6 112.095 160.303 112.411 160.109ZM159.341 165.129C157.994 165.115 154.098 165.532 147.651 166.379C137.251 167.739 128.541 167.159 118.581 164.929C118.474 164.907 118.363 164.908 118.257 164.934C118.15 164.96 118.051 165.009 117.966 165.078C117.881 165.147 117.812 165.234 117.764 165.333C117.717 165.431 117.692 165.539 117.691 165.649C117.571 182.989 144.201 190.349 154.071 177.059C156.358 173.979 158.284 170.245 159.851 165.859C159.88 165.777 159.888 165.689 159.876 165.603C159.864 165.517 159.832 165.435 159.782 165.364C159.733 165.292 159.667 165.234 159.59 165.193C159.513 165.152 159.428 165.13 159.341 165.129Z" fill="black"/>
<path d="M159.34 165.128C159.427 165.13 159.512 165.152 159.589 165.193C159.665 165.234 159.731 165.292 159.781 165.363C159.831 165.435 159.863 165.517 159.875 165.603C159.887 165.689 159.878 165.776 159.85 165.858C158.283 170.245 156.357 173.978 154.07 177.058C144.2 190.348 117.57 182.988 117.69 165.648C117.691 165.539 117.716 165.431 117.763 165.332C117.81 165.234 117.879 165.147 117.964 165.078C118.05 165.009 118.149 164.96 118.255 164.934C118.362 164.908 118.473 164.906 118.58 164.928C128.54 167.158 137.25 167.738 147.65 166.378C154.097 165.532 157.993 165.115 159.34 165.128Z" fill="#FCFCFC"/>
<path d="M268.025 186.757C268.5 180.579 265.056 175.276 260.331 174.912C255.606 174.549 251.391 179.263 250.915 185.441C250.44 191.619 253.885 196.923 258.609 197.286C263.334 197.65 267.549 192.936 268.025 186.757Z" fill="black"/>
<path d="M323.157 193.351C323.841 187.059 320.473 181.532 315.636 181.006C310.799 180.481 306.324 185.156 305.64 191.448C304.956 197.74 308.324 203.267 313.161 203.792C317.998 204.318 322.473 199.643 323.157 193.351Z" fill="black"/>
<path d="M216.989 207.729C213.439 202.099 212.399 193.379 217.579 188.229C219.192 186.629 221.392 185.972 224.179 186.259C224.305 186.272 224.427 186.314 224.534 186.382C224.642 186.449 224.733 186.541 224.799 186.649C224.866 186.757 224.907 186.879 224.919 187.006C224.931 187.132 224.914 187.26 224.869 187.379C224.002 189.659 222.572 193.069 220.579 197.609C219.059 201.069 218.339 204.329 217.639 207.619C217.626 207.688 217.592 207.751 217.542 207.8C217.491 207.849 217.427 207.881 217.357 207.893C217.287 207.905 217.215 207.895 217.149 207.866C217.083 207.837 217.028 207.789 216.989 207.729Z" fill="#FCFCFC"/>
<path d="M280.65 195.189C280.804 195.383 280.916 195.607 280.98 195.846C281.045 196.086 281.06 196.336 281.024 196.582C280.988 196.828 280.903 197.064 280.774 197.277C280.644 197.49 280.473 197.674 280.27 197.819C278.603 199.012 277.26 199.982 276.24 200.729C274.38 202.089 273.97 204.809 276.6 205.399C278.32 205.789 280.52 207.389 279.61 209.459C279.393 209.961 278.995 210.371 278.481 210.618C277.968 210.866 277.37 210.937 276.79 210.819C271.32 209.679 267.39 204.709 270.26 199.139C271.86 196.019 277.62 191.369 280.65 195.189Z" fill="black"/>
<path d="M218.75 228.709C218.752 228.725 218.751 228.741 218.745 228.756C218.74 228.77 218.731 228.784 218.719 228.794C218.706 228.804 218.692 228.811 218.676 228.813C218.66 228.816 218.644 228.815 218.63 228.809C209.016 225.189 198.99 224.476 188.55 226.669C188.204 226.743 187.845 226.734 187.504 226.642C187.163 226.549 186.85 226.377 186.59 226.139L179.64 219.739C179.542 219.65 179.47 219.537 179.43 219.412C179.39 219.286 179.384 219.152 179.412 219.023C179.441 218.894 179.502 218.775 179.591 218.678C179.681 218.581 179.794 218.509 179.92 218.469C186.053 216.529 191.923 214.072 197.53 211.099C200.823 209.352 203.506 207.456 205.58 205.409C206.9 204.109 207.76 203.296 208.16 202.969C208.203 202.935 208.253 202.911 208.307 202.9C208.361 202.89 208.416 202.892 208.468 202.906C208.52 202.921 208.567 202.948 208.606 202.985C208.645 203.022 208.673 203.068 208.69 203.119C210.163 207.712 211.906 210.876 213.92 212.609C215.666 214.109 216.69 215.172 216.99 215.799C217.169 216.197 217.287 216.618 217.34 217.049L218.75 228.709Z" fill="#FCFCFC"/>
<path d="M358.61 218.989C356.35 219.789 354.33 218.799 354.94 216.279C356.007 211.859 358.357 208.392 361.99 205.879C364.49 204.152 366.767 204.226 368.82 206.099C369.894 207.079 370.03 208.202 369.23 209.469C369.131 209.621 368.997 209.749 368.839 209.843C368.681 209.936 368.504 209.993 368.32 210.009C363.49 210.419 361.82 214.989 359.23 218.529C359.073 218.738 358.858 218.898 358.61 218.989Z" fill="black"/>
<path d="M99.1285 206.479C110.695 210.892 122.669 212.816 135.049 212.249C135.437 212.231 135.821 212.336 136.145 212.55C136.469 212.764 136.715 213.076 136.849 213.439C138.082 216.779 140.619 219.102 144.459 220.409C144.641 220.472 144.809 220.57 144.952 220.698C145.096 220.826 145.214 220.981 145.297 221.154C145.381 221.327 145.429 221.515 145.44 221.706C145.45 221.897 145.423 222.089 145.359 222.269C140.999 234.499 124.879 238.579 113.759 234.759C105.029 231.749 97.5085 226.339 93.6385 217.939C92.3585 215.139 95.4485 209.539 97.1385 207.089C97.3515 206.778 97.664 206.549 98.0252 206.438C98.3865 206.327 98.7753 206.342 99.1285 206.479Z" fill="#FCFCFC"/>
<path d="M284.901 216.049C291.891 216.269 300.241 215.159 305.711 214.699C308.801 214.439 310.661 214.979 311.731 217.899C313.891 223.829 309.011 233.269 305.261 238.109C299.981 244.899 292.441 248.549 283.891 248.279C275.341 248.009 268.041 243.899 263.201 236.789C259.761 231.729 255.481 222.009 258.001 216.219C259.251 213.369 261.141 212.949 264.211 213.399C269.641 214.209 277.911 215.829 284.901 216.049ZM303.331 232.059C303.404 231.55 303.274 231.02 302.964 230.557C302.653 230.094 302.179 229.724 301.621 229.509C295.894 227.296 290.228 227.183 284.621 229.169C280.861 230.509 274.461 233.029 272.341 236.439C272.123 236.787 272.043 237.203 272.117 237.607C272.191 238.011 272.414 238.372 272.741 238.619C275.921 240.999 280.151 241.829 284.081 242.329C291.168 243.223 297.044 240.803 301.711 235.069C302.664 233.903 303.204 232.899 303.331 232.059Z" fill="black"/>
<path d="M303.331 232.059C303.204 232.899 302.664 233.903 301.711 235.069C297.044 240.803 291.167 243.223 284.081 242.329C280.151 241.829 275.921 240.999 272.741 238.619C272.413 238.372 272.191 238.011 272.117 237.607C272.043 237.204 272.123 236.787 272.341 236.439C274.461 233.029 280.861 230.509 284.621 229.169C290.227 227.183 295.894 227.296 301.621 229.509C302.179 229.724 302.653 230.094 302.963 230.557C303.274 231.021 303.404 231.55 303.331 232.059Z" fill="#FCFCFC"/>
<path d="M195.701 247.799L194.491 250.659C194.423 250.816 194.392 250.987 194.401 251.158C194.41 251.329 194.459 251.496 194.543 251.645C194.627 251.794 194.745 251.922 194.887 252.018C195.029 252.114 195.191 252.176 195.361 252.199C199.611 252.779 202.171 251.799 207.091 250.069C212.724 248.089 217.674 245.392 221.941 241.979C222.126 241.832 222.359 241.759 222.594 241.773C222.828 241.788 223.048 241.89 223.211 242.059C230.851 250.099 235.811 253.889 238.191 261.659C239.791 266.869 238.671 274.779 239.031 279.169C239.411 283.799 240.401 285.289 242.661 289.139C242.869 289.491 242.967 289.899 242.941 290.309C242.881 291.422 242.567 292.609 242.001 293.869C234.871 309.619 215.831 315.359 199.081 314.189C185.801 313.269 171.061 307.169 169.111 292.179C169.08 291.941 168.992 291.713 168.854 291.516C168.717 291.319 168.534 291.157 168.32 291.046C168.106 290.934 167.868 290.875 167.627 290.874C167.385 290.873 167.146 290.929 166.931 291.039C165.784 291.632 164.467 292.359 162.981 293.219C159.251 295.379 155.501 291.929 154.471 288.569C153.071 283.979 153.841 276.779 158.741 274.529C159.115 274.355 159.538 274.323 159.931 274.439C162.641 275.229 165.881 276.509 166.281 272.429C166.587 269.309 166.881 267.332 167.161 266.499C168.947 261.086 171.231 255.946 174.011 251.079C174.043 251.019 174.093 250.97 174.153 250.938C174.214 250.906 174.282 250.892 174.35 250.898C174.418 250.905 174.483 250.931 174.536 250.974C174.59 251.016 174.629 251.074 174.651 251.139C175.731 254.239 176.531 256.099 180.281 254.599C187.171 251.829 191.561 250.219 195.251 247.449C195.301 247.404 195.366 247.378 195.434 247.376C195.501 247.374 195.567 247.396 195.621 247.437C195.674 247.479 195.711 247.538 195.726 247.604C195.74 247.67 195.732 247.739 195.701 247.799ZM227.281 260.889C227.475 260.994 227.694 261.048 227.915 261.043C228.136 261.039 228.353 260.978 228.543 260.865C228.733 260.752 228.891 260.592 229.001 260.4C229.111 260.208 229.17 259.99 229.17 259.769C229.16 253.709 221.241 252.369 217.721 255.909C217.278 256.353 217.016 256.942 216.99 257.552C216.963 258.162 217.175 258.745 217.581 259.179C217.874 259.492 218.381 259.592 219.101 259.479C219.167 259.472 220.207 259.062 222.221 258.249C222.765 258.028 223.367 257.993 223.934 258.151C224.5 258.308 224.998 258.649 225.351 259.119C225.957 259.932 226.601 260.522 227.281 260.889ZM192.191 259.399C192.181 255.589 187.951 254.559 185.011 256.009C181.961 257.509 178.771 261.689 180.521 265.199C180.672 265.499 180.9 265.752 181.183 265.933C181.466 266.114 181.792 266.215 182.128 266.227C182.463 266.238 182.796 266.159 183.09 265.997C183.384 265.836 183.63 265.598 183.801 265.309C185.481 262.449 186.781 259.849 190.791 260.569C190.963 260.6 191.14 260.593 191.309 260.548C191.478 260.503 191.635 260.422 191.768 260.311C191.902 260.199 192.009 260.059 192.082 259.902C192.155 259.744 192.192 259.572 192.191 259.399ZM224.731 268.702C224.221 268.686 223.711 268.819 223.23 269.093C222.749 269.368 222.307 269.778 221.929 270.302C221.551 270.825 221.245 271.451 221.028 272.143C220.81 272.835 220.686 273.581 220.662 274.337C220.639 275.093 220.716 275.845 220.889 276.549C221.063 277.254 221.329 277.898 221.673 278.444C222.018 278.989 222.433 279.427 222.895 279.731C223.358 280.035 223.859 280.2 224.37 280.216C224.88 280.232 225.39 280.099 225.871 279.825C226.352 279.55 226.794 279.14 227.172 278.616C227.55 278.093 227.856 277.467 228.073 276.775C228.291 276.083 228.415 275.337 228.439 274.581C228.462 273.825 228.385 273.073 228.212 272.369C228.038 271.664 227.772 271.02 227.428 270.474C227.084 269.928 226.668 269.491 226.206 269.187C225.743 268.883 225.242 268.718 224.731 268.702ZM191.57 271.692C190.445 271.591 189.312 272.096 188.42 273.096C187.529 274.095 186.953 275.507 186.817 277.02C186.682 278.534 187 280.025 187.7 281.167C188.4 282.308 189.426 283.006 190.551 283.106C191.676 283.207 192.809 282.702 193.701 281.702C194.592 280.703 195.169 279.291 195.304 277.778C195.439 276.264 195.121 274.772 194.421 273.631C193.721 272.49 192.695 271.792 191.57 271.692ZM214.157 279.352C213.874 278.726 213.329 278.25 212.64 278.028C211.951 277.806 211.176 277.856 210.485 278.168C209.793 278.481 209.243 279.029 208.954 279.692C208.665 280.355 208.661 281.08 208.944 281.706C209.227 282.332 209.772 282.808 210.461 283.03C211.15 283.252 211.925 283.202 212.616 282.889C213.308 282.577 213.858 282.029 214.147 281.366C214.436 280.702 214.44 279.978 214.157 279.352ZM222.55 288.749L193.441 293.769C193.354 293.784 193.278 293.832 193.227 293.903C193.176 293.974 193.156 294.063 193.171 294.149L193.411 295.529C193.706 297.244 194.376 298.878 195.384 300.336C196.392 301.794 197.717 303.049 199.283 304.027C200.85 305.006 202.627 305.69 204.514 306.041C206.401 306.391 208.361 306.401 210.281 306.069L210.811 305.969C212.73 305.638 214.572 304.972 216.231 304.01C217.891 303.047 219.336 301.807 220.484 300.361C221.632 298.914 222.46 297.289 222.921 295.578C223.382 293.867 223.466 292.104 223.17 290.389L222.931 289.009C222.914 288.925 222.864 288.85 222.793 288.802C222.722 288.753 222.635 288.734 222.55 288.749Z" fill="#FCFCFC"/>
<path d="M227.279 260.889C226.599 260.523 225.956 259.933 225.349 259.119C224.997 258.649 224.499 258.308 223.933 258.151C223.366 257.994 222.764 258.028 222.219 258.249C220.206 259.063 219.166 259.473 219.099 259.479C218.379 259.593 217.873 259.493 217.579 259.179C217.174 258.746 216.962 258.162 216.988 257.552C217.015 256.942 217.277 256.353 217.719 255.909C221.239 252.369 229.159 253.709 229.169 259.769C229.169 259.991 229.11 260.208 229 260.4C228.89 260.592 228.732 260.752 228.542 260.865C228.352 260.978 228.135 261.04 227.914 261.044C227.693 261.048 227.474 260.995 227.279 260.889Z" fill="black"/>
<path d="M192.189 259.399C192.191 259.573 192.154 259.745 192.081 259.902C192.008 260.06 191.901 260.199 191.767 260.311C191.633 260.423 191.476 260.504 191.308 260.548C191.139 260.593 190.962 260.6 190.789 260.569C186.779 259.849 185.479 262.449 183.799 265.309C183.629 265.598 183.383 265.836 183.089 265.998C182.795 266.159 182.462 266.238 182.127 266.227C181.791 266.216 181.465 266.114 181.182 265.934C180.899 265.753 180.67 265.499 180.519 265.199C178.769 261.689 181.959 257.509 185.009 256.009C187.949 254.559 192.179 255.589 192.189 259.399Z" fill="black"/>
<path d="M244.366 258.824C244.931 258.757 245.35 258.37 245.301 257.959C245.253 257.547 244.756 257.268 244.191 257.334C243.626 257.4 243.207 257.788 243.255 258.199C243.304 258.61 243.801 258.89 244.366 258.824Z" fill="#FCFCFC"/>
<path d="M288.338 276.129C281.208 276.419 274.008 273.179 271.898 266.179C271.881 266.117 271.878 266.052 271.891 265.989C271.903 265.926 271.931 265.867 271.971 265.817C272.011 265.767 272.063 265.728 272.122 265.702C272.18 265.676 272.244 265.665 272.308 265.669C277.995 266.129 283.202 266.259 287.928 266.059C292.648 265.866 297.825 265.309 303.458 264.389C303.523 264.377 303.59 264.382 303.652 264.403C303.715 264.423 303.771 264.459 303.817 264.506C303.862 264.554 303.895 264.611 303.913 264.675C303.931 264.738 303.933 264.805 303.918 264.869C302.378 272.009 295.468 275.829 288.338 276.129Z" fill="#FCFCFC"/>
<path d="M228.438 274.581C228.537 271.401 226.878 268.769 224.73 268.702C222.583 268.634 220.761 271.157 220.661 274.337C220.561 277.516 222.221 280.148 224.369 280.216C226.516 280.283 228.338 277.761 228.438 274.581Z" fill="black"/>
<path d="M195.304 277.778C195.586 274.626 193.914 271.901 191.57 271.692C189.227 271.482 187.099 273.868 186.818 277.02C186.537 280.172 188.208 282.897 190.552 283.106C192.895 283.315 195.023 280.93 195.304 277.778Z" fill="black"/>
<path d="M245.589 279.1C245.288 277.606 244.802 276.444 244.505 276.504C244.207 276.564 244.21 277.824 244.511 279.318C244.812 280.812 245.298 281.975 245.596 281.915C245.894 281.855 245.891 280.595 245.589 279.1Z" fill="#FCFCFC"/>
<path d="M212.615 282.89C214.055 282.24 214.745 280.656 214.156 279.352C213.567 278.049 211.923 277.519 210.484 278.169C209.044 278.819 208.354 280.403 208.943 281.706C209.531 283.01 211.176 283.54 212.615 282.89Z" fill="black"/>
<path d="M222.549 288.749C222.633 288.734 222.72 288.753 222.791 288.802C222.862 288.85 222.912 288.925 222.929 289.009L223.169 290.389C223.465 292.104 223.38 293.867 222.919 295.578C222.458 297.289 221.63 298.914 220.482 300.361C219.334 301.807 217.889 303.047 216.23 304.01C214.57 304.972 212.728 305.638 210.809 305.969L210.279 306.069C208.359 306.401 206.399 306.391 204.513 306.041C202.626 305.69 200.848 305.006 199.281 304.027C197.715 303.049 196.39 301.794 195.382 300.336C194.374 298.878 193.704 297.244 193.409 295.529L193.169 294.149C193.154 294.063 193.174 293.974 193.225 293.903C193.276 293.832 193.352 293.784 193.439 293.769L222.549 288.749ZM216.109 294.929L200.959 298.289C200.931 298.296 200.907 298.314 200.892 298.338C200.877 298.362 200.873 298.391 200.879 298.419L200.889 298.459C201.116 299.476 202.124 300.275 203.689 300.682C205.255 301.089 207.251 301.07 209.239 300.629L209.609 300.549C211.597 300.107 213.413 299.28 214.658 298.248C215.903 297.217 216.475 296.066 216.249 295.049V295.009C216.245 294.994 216.239 294.98 216.23 294.968C216.221 294.956 216.209 294.946 216.196 294.938C216.183 294.931 216.168 294.926 216.153 294.925C216.138 294.923 216.123 294.925 216.109 294.929Z" fill="black"/>
<path d="M216.109 294.929C216.124 294.924 216.139 294.923 216.154 294.924C216.169 294.926 216.184 294.931 216.197 294.938C216.21 294.946 216.222 294.956 216.231 294.968C216.24 294.98 216.246 294.994 216.249 295.009V295.049C216.476 296.066 215.904 297.217 214.659 298.248C213.414 299.28 211.597 300.107 209.609 300.549L209.239 300.629C207.252 301.07 205.256 301.089 203.69 300.682C202.124 300.275 201.117 299.475 200.889 298.459L200.879 298.419C200.873 298.391 200.878 298.362 200.893 298.338C200.908 298.313 200.932 298.296 200.959 298.289L216.109 294.929Z" fill="#FCFCFC"/>
</svg>
